<svg width="224" height="409" viewBox="0 0 224 409" fill="none" xmlns="http://www.w3.org/2000/svg">
<rect x="8" y="0.401733" width="208" height="48" rx="24" fill="#38373A"/>
<path d="M67.0742 22.3197C67.0742 23.3314 66.7279 24.1107 66.0352 24.6576C65.347 25.1999 64.3604 25.4711 63.0752 25.4711H61.8994V29.4017H60.7373V19.4076H63.3281C65.8255 19.4076 67.0742 20.3783 67.0742 22.3197ZM61.8994 24.473H62.9453C63.9753 24.473 64.7204 24.3067 65.1807 23.974C65.641 23.6413 65.8711 23.1081 65.8711 22.3744C65.8711 21.7136 65.6546 21.2214 65.2217 20.8978C64.7887 20.5743 64.1143 20.4125 63.1982 20.4125H61.8994V24.473ZM72.4199 21.7728C72.7526 21.7728 73.0511 21.8002 73.3154 21.8549L73.1582 22.9076C72.8483 22.8392 72.5749 22.8051 72.3379 22.8051C71.7318 22.8051 71.2122 23.0511 70.7793 23.5433C70.3509 24.0355 70.1367 24.6485 70.1367 25.3822V29.4017H69.002V21.9095H69.9385L70.0684 23.2972H70.123C70.401 22.8096 70.736 22.4336 71.1279 22.1693C71.5199 21.905 71.9505 21.7728 72.4199 21.7728ZM81.1836 25.6488C81.1836 26.8702 80.876 27.8249 80.2607 28.5131C79.6455 29.1967 78.7956 29.5385 77.7109 29.5385C77.041 29.5385 76.4463 29.3812 75.9268 29.0668C75.4072 28.7523 75.0062 28.3011 74.7236 27.7133C74.4411 27.1254 74.2998 26.4372 74.2998 25.6488C74.2998 24.4274 74.6051 23.4773 75.2158 22.7982C75.8265 22.1146 76.6742 21.7728 77.7588 21.7728C78.807 21.7728 79.6387 22.1215 80.2539 22.8187C80.8737 23.516 81.1836 24.4594 81.1836 25.6488ZM75.4756 25.6488C75.4756 26.6058 75.667 27.335 76.0498 27.8363C76.4326 28.3376 76.9954 28.5883 77.7383 28.5883C78.4811 28.5883 79.0439 28.3399 79.4268 27.8431C79.8141 27.3418 80.0078 26.6104 80.0078 25.6488C80.0078 24.6963 79.8141 23.974 79.4268 23.4818C79.0439 22.9851 78.4766 22.7367 77.7246 22.7367C76.9818 22.7367 76.4212 22.9805 76.043 23.4681C75.6647 23.9558 75.4756 24.6827 75.4756 25.6488ZM88.2793 28.3969H88.2178C87.6937 29.1579 86.9098 29.5385 85.8662 29.5385C84.8864 29.5385 84.123 29.2035 83.5762 28.5336C83.0339 27.8636 82.7627 26.9112 82.7627 25.6761C82.7627 24.4411 83.0361 23.4818 83.583 22.7982C84.1299 22.1146 84.891 21.7728 85.8662 21.7728C86.8825 21.7728 87.6618 22.142 88.2041 22.8802H88.293L88.2451 22.3402L88.2178 21.8138V18.765H89.3525V29.4017H88.4297L88.2793 28.3969ZM86.0098 28.5883C86.7845 28.5883 87.3451 28.3786 87.6914 27.9594C88.0423 27.5355 88.2178 26.8542 88.2178 25.9154V25.6761C88.2178 24.6143 88.04 23.8578 87.6846 23.4066C87.3337 22.9509 86.7708 22.723 85.9961 22.723C85.3307 22.723 84.8203 22.9828 84.4648 23.5023C84.1139 24.0173 83.9385 24.7465 83.9385 25.6898C83.9385 26.6469 84.1139 27.3692 84.4648 27.8568C84.8158 28.3444 85.3307 28.5883 86.0098 28.5883ZM92.832 21.9095V26.7699C92.832 27.3806 92.971 27.8363 93.249 28.1371C93.527 28.4379 93.9622 28.5883 94.5547 28.5883C95.3385 28.5883 95.9105 28.3741 96.2705 27.9457C96.6351 27.5173 96.8174 26.8177 96.8174 25.847V21.9095H97.9521V29.4017H97.0156L96.8516 28.3969H96.79C96.5576 28.766 96.234 29.0485 95.8193 29.2445C95.4092 29.4405 94.9398 29.5385 94.4111 29.5385C93.4997 29.5385 92.8161 29.322 92.3604 28.889C91.9092 28.4561 91.6836 27.7634 91.6836 26.8109V21.9095H92.832ZM103.359 29.5385C102.275 29.5385 101.434 29.2058 100.837 28.5404C100.244 27.8705 99.9482 26.9248 99.9482 25.7035C99.9482 24.4502 100.249 23.4818 100.851 22.7982C101.457 22.1146 102.318 21.7728 103.435 21.7728C103.795 21.7728 104.155 21.8116 104.515 21.889C104.875 21.9665 105.157 22.0577 105.362 22.1625L105.014 23.1263C104.763 23.0261 104.49 22.9441 104.193 22.8802C103.897 22.8119 103.635 22.7777 103.407 22.7777C101.885 22.7777 101.124 23.7484 101.124 25.6898C101.124 26.6104 101.309 27.3168 101.678 27.809C102.051 28.3011 102.603 28.5472 103.332 28.5472C103.956 28.5472 104.597 28.4128 105.253 28.1439V29.1488C104.752 29.4086 104.12 29.5385 103.359 29.5385ZM109.457 28.6019C109.658 28.6019 109.851 28.5883 110.038 28.5609C110.225 28.529 110.373 28.4971 110.482 28.4652V29.3334C110.359 29.3926 110.177 29.4405 109.936 29.4769C109.699 29.5179 109.484 29.5385 109.293 29.5385C107.844 29.5385 107.119 28.7751 107.119 27.2484V22.7914H106.046V22.2445L107.119 21.7728L107.598 20.1732H108.254V21.9095H110.428V22.7914H108.254V27.2006C108.254 27.6517 108.361 27.9981 108.575 28.2396C108.789 28.4812 109.083 28.6019 109.457 28.6019ZM123.013 29.4017H121.646L118.002 24.5551L116.956 25.4847V29.4017H115.794V19.4076H116.956V24.3636L121.488 19.4076H122.862L118.843 23.7484L123.013 29.4017ZM125.357 29.4017H124.223V21.9095H125.357V29.4017ZM124.127 19.8793C124.127 19.6195 124.191 19.4304 124.318 19.3119C124.446 19.1888 124.605 19.1273 124.797 19.1273C124.979 19.1273 125.136 19.1888 125.269 19.3119C125.401 19.4349 125.467 19.6241 125.467 19.8793C125.467 20.1345 125.401 20.3259 125.269 20.4535C125.136 20.5765 124.979 20.6381 124.797 20.6381C124.605 20.6381 124.446 20.5765 124.318 20.4535C124.191 20.3259 124.127 20.1345 124.127 19.8793ZM130.758 29.5385C129.673 29.5385 128.832 29.2058 128.235 28.5404C127.643 27.8705 127.347 26.9248 127.347 25.7035C127.347 24.4502 127.647 23.4818 128.249 22.7982C128.855 22.1146 129.716 21.7728 130.833 21.7728C131.193 21.7728 131.553 21.8116 131.913 21.889C132.273 21.9665 132.556 22.0577 132.761 22.1625L132.412 23.1263C132.161 23.0261 131.888 22.9441 131.592 22.8802C131.296 22.8119 131.034 22.7777 130.806 22.7777C129.284 22.7777 128.522 23.7484 128.522 25.6898C128.522 26.6104 128.707 27.3168 129.076 27.809C129.45 28.3011 130.001 28.5472 130.73 28.5472C131.355 28.5472 131.995 28.4128 132.651 28.1439V29.1488C132.15 29.4086 131.519 29.5385 130.758 29.5385ZM135.557 25.5668C135.753 25.2888 136.051 24.9242 136.452 24.473L138.872 21.9095H140.219L137.184 25.1019L140.431 29.4017H139.057L136.411 25.8607L135.557 26.599V29.4017H134.436V18.765H135.557V24.4047C135.557 24.6553 135.538 25.0427 135.502 25.5668H135.557ZM154.273 24.391C154.273 25.9906 153.868 27.2484 153.057 28.1644C152.25 29.0804 151.127 29.5385 149.687 29.5385C148.215 29.5385 147.077 29.0896 146.275 28.1918C145.478 27.2894 145.079 26.0179 145.079 24.3773C145.079 22.7504 145.48 21.4903 146.282 20.597C147.084 19.6993 148.224 19.2504 149.7 19.2504C151.136 19.2504 152.257 19.7061 153.063 20.6176C153.87 21.529 154.273 22.7868 154.273 24.391ZM146.31 24.391C146.31 25.7445 146.597 26.7722 147.171 27.474C147.75 28.1713 148.588 28.5199 149.687 28.5199C150.794 28.5199 151.63 28.1713 152.195 27.474C152.76 26.7767 153.043 25.7491 153.043 24.391C153.043 23.0466 152.76 22.028 152.195 21.3353C151.635 20.6381 150.803 20.2894 149.7 20.2894C148.593 20.2894 147.75 20.6403 147.171 21.3422C146.597 22.0394 146.31 23.0557 146.31 24.391ZM164.459 22.7914H162.552V29.4017H161.417V22.7914H160.077V22.2787L161.417 21.8685V21.4515C161.417 19.6104 162.221 18.6898 163.83 18.6898C164.227 18.6898 164.691 18.7696 165.225 18.9291L164.931 19.8383C164.493 19.697 164.119 19.6263 163.81 19.6263C163.381 19.6263 163.064 19.7699 162.859 20.057C162.654 20.3396 162.552 20.7953 162.552 21.4242V21.9095H164.459V22.7914ZM159.715 22.7914H157.808V29.4017H156.673V22.7914H155.333V22.2787L156.673 21.8685V21.4515C156.673 19.6104 157.477 18.6898 159.086 18.6898C159.482 18.6898 159.947 18.7696 160.48 18.9291L160.187 19.8383C159.749 19.697 159.375 19.6263 159.065 19.6263C158.637 19.6263 158.32 19.7699 158.115 20.057C157.91 20.3396 157.808 20.7953 157.808 21.4242V21.9095H159.715V22.7914Z" fill="white"/>
<path d="M111.293 73.1088C111.683 73.4994 112.317 73.4994 112.707 73.1088L119.071 66.7449C119.462 66.3544 119.462 65.7212 119.071 65.3307C118.681 64.9401 118.047 64.9401 117.657 65.3307L112 70.9875L106.343 65.3307C105.953 64.9401 105.319 64.9401 104.929 65.3307C104.538 65.7212 104.538 66.3544 104.929 66.7449L111.293 73.1088ZM111 48.4017L111 72.4017L113 72.4017L113 48.4017L111 48.4017Z" fill="#38373A"/>
<rect x="8" y="72.4017" width="208" height="48" rx="24" fill="#38373A"/>
<path d="M39.2314 92.2894C38.68 92.2894 38.1833 92.3851 37.7412 92.5765C37.3037 92.7634 36.93 93.0368 36.6201 93.3969C36.3148 93.7523 36.0801 94.183 35.916 94.6888C35.752 95.1947 35.6699 95.7644 35.6699 96.3978C35.6699 97.2364 35.7998 97.9655 36.0596 98.5853C36.3239 99.2006 36.7158 99.6768 37.2354 100.014C37.7594 100.351 38.4134 100.52 39.1973 100.52C39.6439 100.52 40.0632 100.483 40.4551 100.411C40.8516 100.333 41.2367 100.237 41.6104 100.123V101.135C41.2458 101.272 40.863 101.372 40.4619 101.436C40.0609 101.504 39.5846 101.538 39.0332 101.538C38.0169 101.538 37.167 101.329 36.4834 100.91C35.8044 100.486 35.2939 99.8887 34.9521 99.1185C34.6149 98.3483 34.4463 97.4392 34.4463 96.391C34.4463 95.6345 34.5511 94.9441 34.7607 94.3197C34.9749 93.6908 35.2848 93.1485 35.6904 92.6927C36.1006 92.237 36.6019 91.8861 37.1943 91.64C37.7913 91.3894 38.4749 91.264 39.2451 91.264C39.751 91.264 40.2386 91.3142 40.708 91.4144C41.1774 91.5147 41.6012 91.6582 41.9795 91.8451L41.5146 92.8295C41.1956 92.6836 40.8447 92.5583 40.4619 92.4535C40.0837 92.3441 39.6735 92.2894 39.2314 92.2894ZM50.0664 97.642C50.0664 98.2572 49.9867 98.8064 49.8271 99.2894C49.6676 99.7725 49.4375 100.18 49.1367 100.513C48.8359 100.846 48.4714 101.101 48.043 101.279C47.6191 101.452 47.1383 101.538 46.6006 101.538C46.0993 101.538 45.639 101.452 45.2197 101.279C44.805 101.101 44.445 100.846 44.1396 100.513C43.8389 100.18 43.6042 99.7725 43.4355 99.2894C43.2715 98.8064 43.1895 98.2572 43.1895 97.642C43.1895 96.8217 43.3285 96.1244 43.6064 95.5502C43.8844 94.9714 44.2809 94.5316 44.7959 94.2308C45.3154 93.9255 45.9329 93.7728 46.6484 93.7728C47.332 93.7728 47.929 93.9255 48.4395 94.2308C48.9544 94.5362 49.3532 94.9782 49.6357 95.557C49.9229 96.1312 50.0664 96.8262 50.0664 97.642ZM44.3652 97.642C44.3652 98.2435 44.445 98.7653 44.6045 99.2074C44.764 99.6495 45.0101 99.9913 45.3428 100.233C45.6755 100.474 46.1038 100.595 46.6279 100.595C47.1475 100.595 47.5736 100.474 47.9062 100.233C48.2435 99.9913 48.4919 99.6495 48.6514 99.2074C48.8109 98.7653 48.8906 98.2435 48.8906 97.642C48.8906 97.045 48.8109 96.53 48.6514 96.097C48.4919 95.6595 48.2458 95.3223 47.9131 95.0853C47.5804 94.8483 47.1497 94.7299 46.6211 94.7299C45.8418 94.7299 45.2699 94.9873 44.9053 95.5023C44.5452 96.0173 44.3652 96.7305 44.3652 97.642ZM60.1631 93.7728C60.988 93.7728 61.61 93.9893 62.0293 94.4222C62.4486 94.8506 62.6582 95.5411 62.6582 96.4935V101.402H61.5371V96.5482C61.5371 95.9421 61.4049 95.4886 61.1406 95.1879C60.8809 94.8825 60.4935 94.7299 59.9785 94.7299C59.2539 94.7299 58.7275 94.9395 58.3994 95.3588C58.0713 95.778 57.9072 96.3955 57.9072 97.2113V101.402H56.7793V96.5482C56.7793 96.1426 56.7201 95.8054 56.6016 95.5365C56.4876 95.2676 56.3145 95.0671 56.082 94.9349C55.8542 94.7982 55.5648 94.7299 55.2139 94.7299C54.7171 94.7299 54.3184 94.8324 54.0176 95.0375C53.7168 95.2426 53.498 95.5479 53.3613 95.9535C53.2292 96.3545 53.1631 96.849 53.1631 97.4369V101.402H52.0283V93.9095H52.9443L53.1152 94.9691H53.1768C53.3271 94.7094 53.5163 94.4906 53.7441 94.3129C53.972 94.1351 54.2272 94.0007 54.5098 93.9095C54.7923 93.8184 55.0931 93.7728 55.4121 93.7728C55.9818 93.7728 56.458 93.8799 56.8408 94.0941C57.2282 94.3038 57.5085 94.625 57.6816 95.058H57.7432C57.9893 94.625 58.3265 94.3038 58.7549 94.0941C59.1833 93.8799 59.6527 93.7728 60.1631 93.7728ZM68.5098 93.7728C69.444 93.7728 70.1891 94.0941 70.7451 94.7367C71.3011 95.3793 71.5791 96.3454 71.5791 97.6351C71.5791 98.4873 71.4515 99.2028 71.1963 99.7816C70.9411 100.36 70.5811 100.798 70.1162 101.094C69.6559 101.39 69.1113 101.538 68.4824 101.538C68.0859 101.538 67.7373 101.486 67.4365 101.381C67.1357 101.276 66.8783 101.135 66.6641 100.957C66.4499 100.78 66.2721 100.586 66.1309 100.376H66.0488C66.0625 100.554 66.0785 100.768 66.0967 101.019C66.1195 101.27 66.1309 101.488 66.1309 101.675V104.751H64.9893V93.9095H65.9258L66.0762 95.017H66.1309C66.2767 94.7891 66.4544 94.5817 66.6641 94.3949C66.8737 94.2035 67.1289 94.0531 67.4297 93.9437C67.735 93.8298 68.0951 93.7728 68.5098 93.7728ZM68.3115 94.7299C67.792 94.7299 67.3727 94.8301 67.0537 95.0306C66.7393 95.2312 66.5091 95.5319 66.3633 95.933C66.2174 96.3295 66.14 96.8285 66.1309 97.4301V97.6488C66.1309 98.2823 66.1992 98.8177 66.3359 99.2552C66.4772 99.6927 66.7074 100.025 67.0264 100.253C67.3499 100.481 67.7829 100.595 68.3252 100.595C68.79 100.595 69.1774 100.47 69.4873 100.219C69.7972 99.9685 70.0273 99.6198 70.1777 99.1732C70.3327 98.722 70.4102 98.2048 70.4102 97.6215C70.4102 96.7373 70.237 96.0355 69.8906 95.516C69.5488 94.9919 69.0225 94.7299 68.3115 94.7299ZM76.4463 93.7728C77.0843 93.7728 77.6312 93.9141 78.0869 94.1967C78.5426 94.4792 78.8913 94.8757 79.1328 95.3861C79.3743 95.892 79.4951 96.4844 79.4951 97.1635V97.8676H74.3203C74.334 98.7471 74.5527 99.417 74.9766 99.8773C75.4004 100.338 75.9974 100.568 76.7676 100.568C77.2415 100.568 77.6608 100.524 78.0254 100.438C78.39 100.351 78.7682 100.224 79.1602 100.055V101.053C78.7819 101.222 78.4059 101.345 78.0322 101.422C77.6631 101.5 77.2256 101.538 76.7197 101.538C75.9997 101.538 75.3708 101.393 74.833 101.101C74.2998 100.805 73.8851 100.372 73.5889 99.8021C73.2926 99.2325 73.1445 98.5352 73.1445 97.7103C73.1445 96.9037 73.279 96.2064 73.5479 95.6185C73.8213 95.0261 74.2041 94.5704 74.6963 94.2513C75.193 93.9323 75.7764 93.7728 76.4463 93.7728ZM76.4326 94.7025C75.8265 94.7025 75.3434 94.9008 74.9834 95.2972C74.6234 95.6937 74.4092 96.2474 74.3408 96.9584H78.3057C78.3011 96.5118 78.2305 96.1198 78.0938 95.7826C77.9616 95.4408 77.7588 95.1765 77.4854 94.9896C77.2119 94.7982 76.861 94.7025 76.4326 94.7025ZM83.8428 100.609C84.0296 100.609 84.221 100.593 84.417 100.561C84.613 100.529 84.7725 100.49 84.8955 100.445V101.327C84.7633 101.386 84.5788 101.436 84.3418 101.477C84.1094 101.518 83.8815 101.538 83.6582 101.538C83.2617 101.538 82.9017 101.47 82.5781 101.333C82.2546 101.192 81.9948 100.955 81.7988 100.622C81.6074 100.29 81.5117 99.8295 81.5117 99.2416V94.7982H80.4453V94.2445L81.5186 93.8002L81.9697 92.1732H82.6533V93.9095H84.8477V94.7982H82.6533V99.2074C82.6533 99.6768 82.7604 100.028 82.9746 100.26C83.1934 100.493 83.4827 100.609 83.8428 100.609ZM87.5479 93.9095V101.402H86.4131V93.9095H87.5479ZM86.9941 91.1068C87.181 91.1068 87.3405 91.1683 87.4727 91.2914C87.6094 91.4099 87.6777 91.5967 87.6777 91.8519C87.6777 92.1026 87.6094 92.2894 87.4727 92.4125C87.3405 92.5355 87.181 92.597 86.9941 92.597C86.7982 92.597 86.6341 92.5355 86.502 92.4125C86.3743 92.2894 86.3105 92.1026 86.3105 91.8519C86.3105 91.5967 86.3743 91.4099 86.502 91.2914C86.6341 91.1683 86.7982 91.1068 86.9941 91.1068ZM92.374 100.609C92.5609 100.609 92.7523 100.593 92.9482 100.561C93.1442 100.529 93.3037 100.49 93.4268 100.445V101.327C93.2946 101.386 93.11 101.436 92.873 101.477C92.6406 101.518 92.4128 101.538 92.1895 101.538C91.793 101.538 91.4329 101.47 91.1094 101.333C90.7858 101.192 90.526 100.955 90.3301 100.622C90.1387 100.29 90.043 99.8295 90.043 99.2416V94.7982H88.9766V94.2445L90.0498 93.8002L90.501 92.1732H91.1846V93.9095H93.3789V94.7982H91.1846V99.2074C91.1846 99.6768 91.2917 100.028 91.5059 100.26C91.7246 100.493 92.014 100.609 92.374 100.609ZM96.0791 93.9095V101.402H94.9443V93.9095H96.0791ZM95.5254 91.1068C95.7122 91.1068 95.8717 91.1683 96.0039 91.2914C96.1406 91.4099 96.209 91.5967 96.209 91.8519C96.209 92.1026 96.1406 92.2894 96.0039 92.4125C95.8717 92.5355 95.7122 92.597 95.5254 92.597C95.3294 92.597 95.1654 92.5355 95.0332 92.4125C94.9056 92.2894 94.8418 92.1026 94.8418 91.8519C94.8418 91.5967 94.9056 91.4099 95.0332 91.2914C95.1654 91.1683 95.3294 91.1068 95.5254 91.1068ZM100.133 101.402L97.2891 93.9095H98.5059L100.153 98.4418C100.267 98.7517 100.383 99.0935 100.502 99.4672C100.62 99.8409 100.702 100.142 100.748 100.37H100.796C100.851 100.142 100.942 99.8409 101.069 99.4672C101.197 99.0889 101.313 98.7471 101.418 98.4418L103.065 93.9095H104.282L101.432 101.402H100.133ZM108.37 93.7728C109.008 93.7728 109.555 93.9141 110.011 94.1967C110.466 94.4792 110.815 94.8757 111.057 95.3861C111.298 95.892 111.419 96.4844 111.419 97.1635V97.8676H106.244C106.258 98.7471 106.477 99.417 106.9 99.8773C107.324 100.338 107.921 100.568 108.691 100.568C109.165 100.568 109.585 100.524 109.949 100.438C110.314 100.351 110.692 100.224 111.084 100.055V101.053C110.706 101.222 110.33 101.345 109.956 101.422C109.587 101.5 109.149 101.538 108.644 101.538C107.924 101.538 107.295 101.393 106.757 101.101C106.224 100.805 105.809 100.372 105.513 99.8021C105.216 99.2325 105.068 98.5352 105.068 97.7103C105.068 96.9037 105.203 96.2064 105.472 95.6185C105.745 95.0261 106.128 94.5704 106.62 94.2513C107.117 93.9323 107.7 93.7728 108.37 93.7728ZM108.356 94.7025C107.75 94.7025 107.267 94.9008 106.907 95.2972C106.547 95.6937 106.333 96.2474 106.265 96.9584H110.229C110.225 96.5118 110.154 96.1198 110.018 95.7826C109.885 95.4408 109.683 95.1765 109.409 94.9896C109.136 94.7982 108.785 94.7025 108.356 94.7025ZM117.154 91.4076H119.984C121.233 91.4076 122.172 91.5944 122.801 91.9681C123.43 92.3418 123.744 92.9776 123.744 93.8754C123.744 94.2627 123.669 94.6114 123.519 94.9213C123.373 95.2266 123.159 95.4795 122.876 95.6801C122.593 95.8806 122.245 96.0196 121.83 96.097V96.1654C122.268 96.2338 122.655 96.3591 122.992 96.5414C123.329 96.7237 123.594 96.9789 123.785 97.307C123.977 97.6351 124.072 98.0521 124.072 98.558C124.072 99.1732 123.929 99.6927 123.642 100.117C123.359 100.54 122.958 100.862 122.438 101.08C121.919 101.295 121.304 101.402 120.593 101.402H117.154V91.4076ZM118.316 95.6937H120.23C121.101 95.6937 121.702 95.5502 122.035 95.2631C122.372 94.976 122.541 94.5567 122.541 94.0052C122.541 93.4356 122.34 93.0254 121.939 92.7748C121.543 92.5241 120.91 92.3988 120.039 92.3988H118.316V95.6937ZM118.316 96.6713V100.411H120.395C121.283 100.411 121.912 100.237 122.281 99.891C122.65 99.5401 122.835 99.0684 122.835 98.476C122.835 98.0977 122.751 97.7741 122.582 97.5052C122.418 97.2364 122.149 97.0313 121.775 96.89C121.406 96.7442 120.912 96.6713 120.292 96.6713H118.316ZM128.919 93.7728C129.557 93.7728 130.104 93.9141 130.56 94.1967C131.015 94.4792 131.364 94.8757 131.605 95.3861C131.847 95.892 131.968 96.4844 131.968 97.1635V97.8676H126.793C126.807 98.7471 127.025 99.417 127.449 99.8773C127.873 100.338 128.47 100.568 129.24 100.568C129.714 100.568 130.133 100.524 130.498 100.438C130.863 100.351 131.241 100.224 131.633 100.055V101.053C131.255 101.222 130.879 101.345 130.505 101.422C130.136 101.5 129.698 101.538 129.192 101.538C128.472 101.538 127.843 101.393 127.306 101.101C126.772 100.805 126.358 100.372 126.062 99.8021C125.765 99.2325 125.617 98.5352 125.617 97.7103C125.617 96.9037 125.752 96.2064 126.021 95.6185C126.294 95.0261 126.677 94.5704 127.169 94.2513C127.666 93.9323 128.249 93.7728 128.919 93.7728ZM128.905 94.7025C128.299 94.7025 127.816 94.9008 127.456 95.2972C127.096 95.6937 126.882 96.2474 126.813 96.9584H130.778C130.774 96.5118 130.703 96.1198 130.566 95.7826C130.434 95.4408 130.231 95.1765 129.958 94.9896C129.685 94.7982 129.334 94.7025 128.905 94.7025ZM137.443 93.7728C138.332 93.7728 139.004 93.9916 139.46 94.4291C139.916 94.862 140.144 95.5593 140.144 96.5209V101.402H139.022V96.5961C139.022 95.9717 138.879 95.5046 138.592 95.1947C138.309 94.8848 137.874 94.7299 137.286 94.7299C136.457 94.7299 135.873 94.9646 135.536 95.434C135.199 95.9034 135.03 96.5847 135.03 97.4779V101.402H133.896V93.9095H134.812L134.982 94.9896H135.044C135.203 94.7253 135.406 94.5043 135.652 94.3265C135.898 94.1442 136.174 94.0075 136.479 93.9164C136.785 93.8207 137.106 93.7728 137.443 93.7728ZM145.482 101.538C144.808 101.538 144.213 101.399 143.698 101.121C143.183 100.843 142.782 100.42 142.495 99.85C142.208 99.2803 142.064 98.5625 142.064 97.6967C142.064 96.7898 142.215 96.0492 142.516 95.475C142.821 94.8962 143.24 94.4678 143.773 94.1898C144.307 93.9118 144.913 93.7728 145.592 93.7728C145.965 93.7728 146.326 93.8116 146.672 93.889C147.023 93.962 147.31 94.0554 147.533 94.1693L147.191 95.1195C146.964 95.0284 146.699 94.9463 146.398 94.8734C146.102 94.8005 145.824 94.764 145.564 94.764C145.045 94.764 144.612 94.8757 144.266 95.099C143.924 95.3223 143.666 95.6504 143.493 96.0834C143.325 96.5163 143.24 97.0495 143.24 97.683C143.24 98.2891 143.322 98.8064 143.486 99.2347C143.655 99.6631 143.903 99.9913 144.231 100.219C144.564 100.442 144.979 100.554 145.476 100.554C145.872 100.554 146.23 100.513 146.549 100.431C146.868 100.344 147.157 100.244 147.417 100.13V101.142C147.166 101.27 146.886 101.368 146.576 101.436C146.271 101.504 145.906 101.538 145.482 101.538ZM150.329 90.765V93.9437C150.329 94.126 150.325 94.3106 150.315 94.4974C150.306 94.6797 150.29 94.8483 150.268 95.0033H150.343C150.498 94.739 150.694 94.5179 150.931 94.3402C151.172 94.1579 151.446 94.0212 151.751 93.9301C152.056 93.8344 152.38 93.7865 152.722 93.7865C153.323 93.7865 153.825 93.8822 154.226 94.0736C154.631 94.265 154.934 94.5612 155.135 94.9623C155.34 95.3633 155.442 95.8829 155.442 96.5209V101.402H154.321V96.5961C154.321 95.9717 154.178 95.5046 153.891 95.1947C153.608 94.8848 153.173 94.7299 152.585 94.7299C152.029 94.7299 151.585 94.837 151.252 95.0511C150.924 95.2608 150.687 95.5707 150.541 95.9808C150.4 96.391 150.329 96.8923 150.329 97.4847V101.402H149.194V90.765H150.329ZM165.915 93.7728C166.74 93.7728 167.362 93.9893 167.781 94.4222C168.201 94.8506 168.41 95.5411 168.41 96.4935V101.402H167.289V96.5482C167.289 95.9421 167.157 95.4886 166.893 95.1879C166.633 94.8825 166.245 94.7299 165.73 94.7299C165.006 94.7299 164.479 94.9395 164.151 95.3588C163.823 95.778 163.659 96.3955 163.659 97.2113V101.402H162.531V96.5482C162.531 96.1426 162.472 95.8054 162.354 95.5365C162.24 95.2676 162.066 95.0671 161.834 94.9349C161.606 94.7982 161.317 94.7299 160.966 94.7299C160.469 94.7299 160.07 94.8324 159.77 95.0375C159.469 95.2426 159.25 95.5479 159.113 95.9535C158.981 96.3545 158.915 96.849 158.915 97.4369V101.402H157.78V93.9095H158.696L158.867 94.9691H158.929C159.079 94.7094 159.268 94.4906 159.496 94.3129C159.724 94.1351 159.979 94.0007 160.262 93.9095C160.544 93.8184 160.845 93.7728 161.164 93.7728C161.734 93.7728 162.21 93.8799 162.593 94.0941C162.98 94.3038 163.26 94.625 163.434 95.058H163.495C163.741 94.625 164.078 94.3038 164.507 94.0941C164.935 93.8799 165.405 93.7728 165.915 93.7728ZM173.544 93.7865C174.437 93.7865 175.1 93.987 175.533 94.3881C175.966 94.7891 176.183 95.4294 176.183 96.309V101.402H175.355L175.137 100.294H175.082C174.872 100.568 174.654 100.798 174.426 100.985C174.198 101.167 173.934 101.306 173.633 101.402C173.337 101.493 172.972 101.538 172.539 101.538C172.083 101.538 171.678 101.459 171.322 101.299C170.971 101.14 170.693 100.898 170.488 100.575C170.288 100.251 170.188 99.8409 170.188 99.3441C170.188 98.5967 170.484 98.0225 171.076 97.6215C171.669 97.2204 172.571 97.0017 173.783 96.9652L175.075 96.9105V96.4525C175.075 95.8054 174.936 95.3519 174.658 95.0922C174.38 94.8324 173.988 94.7025 173.482 94.7025C173.09 94.7025 172.717 94.7595 172.361 94.8734C172.006 94.9873 171.669 95.1218 171.35 95.2767L171.001 94.4154C171.338 94.2422 171.726 94.0941 172.163 93.9711C172.601 93.848 173.061 93.7865 173.544 93.7865ZM175.062 97.7103L173.92 97.7582C172.986 97.7946 172.327 97.9473 171.944 98.2162C171.562 98.4851 171.37 98.8656 171.37 99.3578C171.37 99.7862 171.5 100.103 171.76 100.308C172.02 100.513 172.364 100.616 172.792 100.616C173.457 100.616 174.002 100.431 174.426 100.062C174.85 99.6927 175.062 99.139 175.062 98.4008V97.7103ZM181.925 93.7728C182.075 93.7728 182.232 93.7819 182.396 93.8002C182.561 93.8138 182.706 93.8344 182.834 93.8617L182.69 94.9144C182.567 94.8825 182.431 94.8575 182.28 94.8392C182.13 94.821 181.989 94.8119 181.856 94.8119C181.556 94.8119 181.271 94.8734 181.002 94.9965C180.738 95.1149 180.505 95.2881 180.305 95.516C180.104 95.7393 179.947 96.0105 179.833 96.3295C179.719 96.6439 179.662 96.9948 179.662 97.3822V101.402H178.521V93.9095H179.464L179.587 95.2904H179.635C179.79 95.0124 179.977 94.7595 180.195 94.5316C180.414 94.2992 180.667 94.1146 180.954 93.9779C181.246 93.8412 181.569 93.7728 181.925 93.7728ZM185.377 90.765V96.2885C185.377 96.4707 185.37 96.6941 185.356 96.9584C185.343 97.2181 185.331 97.4483 185.322 97.6488H185.37C185.466 97.5303 185.605 97.3549 185.787 97.1224C185.974 96.89 186.131 96.7032 186.259 96.5619L188.747 93.9095H190.08L187.065 97.1088L190.299 101.402H188.932L186.286 97.8539L185.377 98.6879V101.402H184.249V90.765H185.377Z" fill="white"/>
<path d="M111.293 145.109C111.683 145.499 112.317 145.499 112.707 145.109L119.071 138.745C119.462 138.354 119.462 137.721 119.071 137.331C118.681 136.94 118.047 136.94 117.657 137.331L112 142.988L106.343 137.331C105.953 136.94 105.319 136.94 104.929 137.331C104.538 137.721 104.538 138.354 104.929 138.745L111.293 145.109ZM111 120.402L111 144.402L113 144.402L113 120.402L111 120.402Z" fill="#38373A"/>
<rect x="8" y="144.402" width="208" height="48" rx="24" fill="#38373A"/>
<path d="M35.3965 173.402V163.408H36.5586V172.363H40.9951V173.402H35.3965ZM49 169.642C49 170.257 48.9202 170.806 48.7607 171.289C48.6012 171.773 48.3711 172.18 48.0703 172.513C47.7695 172.846 47.4049 173.101 46.9766 173.279C46.5527 173.452 46.0719 173.538 45.5342 173.538C45.0329 173.538 44.5726 173.452 44.1533 173.279C43.7386 173.101 43.3786 172.846 43.0732 172.513C42.7725 172.18 42.5378 171.773 42.3691 171.289C42.2051 170.806 42.123 170.257 42.123 169.642C42.123 168.822 42.262 168.124 42.54 167.55C42.818 166.971 43.2145 166.532 43.7295 166.231C44.249 165.925 44.8665 165.773 45.582 165.773C46.2656 165.773 46.8626 165.925 47.373 166.231C47.888 166.536 48.2868 166.978 48.5693 167.557C48.8564 168.131 49 168.826 49 169.642ZM43.2988 169.642C43.2988 170.244 43.3786 170.765 43.5381 171.207C43.6976 171.649 43.9437 171.991 44.2764 172.233C44.609 172.474 45.0374 172.595 45.5615 172.595C46.0811 172.595 46.5072 172.474 46.8398 172.233C47.1771 171.991 47.4255 171.649 47.585 171.207C47.7445 170.765 47.8242 170.244 47.8242 169.642C47.8242 169.045 47.7445 168.53 47.585 168.097C47.4255 167.66 47.1794 167.322 46.8467 167.085C46.514 166.848 46.0833 166.73 45.5547 166.73C44.7754 166.73 44.2035 166.987 43.8389 167.502C43.4788 168.017 43.2988 168.731 43.2988 169.642ZM57.0596 173.388L55.7266 169.027C55.6673 168.84 55.6104 168.658 55.5557 168.48C55.5055 168.298 55.4577 168.124 55.4121 167.96C55.3711 167.792 55.3324 167.637 55.2959 167.495C55.264 167.35 55.2367 167.224 55.2139 167.12H55.166C55.1478 167.224 55.1227 167.35 55.0908 167.495C55.0589 167.637 55.0202 167.792 54.9746 167.96C54.9336 168.129 54.888 168.307 54.8379 168.494C54.7878 168.676 54.7308 168.86 54.667 169.047L53.2725 173.388H51.9941L49.9297 165.896H51.1055L52.1855 170.032C52.2585 170.305 52.3268 170.576 52.3906 170.845C52.459 171.109 52.516 171.36 52.5615 171.597C52.6117 171.829 52.6481 172.032 52.6709 172.205H52.7256C52.7529 172.092 52.7826 171.955 52.8145 171.795C52.8509 171.636 52.8896 171.467 52.9307 171.289C52.9762 171.107 53.0241 170.927 53.0742 170.749C53.1243 170.567 53.1745 170.396 53.2246 170.237L54.6055 165.896H55.8291L57.1621 170.23C57.2305 170.449 57.2965 170.676 57.3604 170.913C57.4287 171.15 57.4902 171.381 57.5449 171.604C57.5996 171.823 57.6383 172.019 57.6611 172.192H57.7158C57.734 172.037 57.7682 171.845 57.8184 171.618C57.8685 171.39 57.9255 171.139 57.9893 170.866C58.0576 170.592 58.1283 170.314 58.2012 170.032L59.2949 165.896H60.4502L58.3789 173.388H57.0596ZM66.7871 173.402H65.625V163.408H71.1895V164.433H66.7871V168.097H70.9229V169.116H66.7871V173.402ZM73.8213 165.91V173.402H72.6865V165.91H73.8213ZM73.2676 163.107C73.4544 163.107 73.6139 163.168 73.7461 163.291C73.8828 163.41 73.9512 163.597 73.9512 163.852C73.9512 164.103 73.8828 164.289 73.7461 164.412C73.6139 164.536 73.4544 164.597 73.2676 164.597C73.0716 164.597 72.9076 164.536 72.7754 164.412C72.6478 164.289 72.584 164.103 72.584 163.852C72.584 163.597 72.6478 163.41 72.7754 163.291C72.9076 163.168 73.0716 163.107 73.2676 163.107ZM78.8936 173.538C77.9456 173.538 77.1937 173.215 76.6377 172.568C76.0863 171.921 75.8105 170.959 75.8105 169.683C75.8105 168.393 76.0931 167.42 76.6582 166.764C77.2233 166.103 77.9753 165.773 78.9141 165.773C79.3105 165.773 79.6569 165.825 79.9531 165.93C80.2493 166.035 80.5046 166.176 80.7188 166.354C80.9329 166.527 81.113 166.725 81.2588 166.949H81.3408C81.3226 166.807 81.3044 166.614 81.2861 166.368C81.2679 166.121 81.2588 165.921 81.2588 165.766V162.765H82.3936V173.402H81.4775L81.3066 172.335H81.2588C81.1175 172.559 80.9375 172.761 80.7188 172.944C80.5046 173.126 80.2471 173.272 79.9463 173.381C79.6501 173.486 79.2992 173.538 78.8936 173.538ZM79.0713 172.595C79.8734 172.595 80.4408 172.367 80.7734 171.911C81.1061 171.456 81.2725 170.779 81.2725 169.881V169.676C81.2725 168.724 81.113 167.992 80.7939 167.482C80.4795 166.971 79.9053 166.716 79.0713 166.716C78.374 166.716 77.8522 166.985 77.5059 167.523C77.1595 168.056 76.9863 168.785 76.9863 169.71C76.9863 170.631 77.1572 171.342 77.499 171.843C77.8454 172.344 78.3695 172.595 79.0713 172.595ZM87.6846 165.773C88.3226 165.773 88.8695 165.914 89.3252 166.197C89.7809 166.479 90.1296 166.876 90.3711 167.386C90.6126 167.892 90.7334 168.484 90.7334 169.163V169.868H85.5586C85.5723 170.747 85.791 171.417 86.2148 171.877C86.6387 172.338 87.2357 172.568 88.0059 172.568C88.4798 172.568 88.8991 172.524 89.2637 172.438C89.6283 172.351 90.0065 172.224 90.3984 172.055V173.053C90.0202 173.222 89.6442 173.345 89.2705 173.422C88.9014 173.5 88.4639 173.538 87.958 173.538C87.238 173.538 86.609 173.393 86.0713 173.101C85.5381 172.805 85.1234 172.372 84.8271 171.802C84.5309 171.232 84.3828 170.535 84.3828 169.71C84.3828 168.904 84.5173 168.206 84.7861 167.619C85.0596 167.026 85.4424 166.57 85.9346 166.251C86.4313 165.932 87.0146 165.773 87.6846 165.773ZM87.6709 166.703C87.0648 166.703 86.5817 166.901 86.2217 167.297C85.8617 167.694 85.6475 168.247 85.5791 168.958H89.5439C89.5394 168.512 89.4688 168.12 89.332 167.783C89.1999 167.441 88.9971 167.176 88.7236 166.99C88.4502 166.798 88.0993 166.703 87.6709 166.703ZM93.8027 173.402H92.6611V162.765H93.8027V173.402ZM97.3369 165.91V173.402H96.2021V165.91H97.3369ZM96.7832 163.107C96.9701 163.107 97.1296 163.168 97.2617 163.291C97.3984 163.41 97.4668 163.597 97.4668 163.852C97.4668 164.103 97.3984 164.289 97.2617 164.412C97.1296 164.536 96.9701 164.597 96.7832 164.597C96.5872 164.597 96.4232 164.536 96.291 164.412C96.1634 164.289 96.0996 164.103 96.0996 163.852C96.0996 163.597 96.1634 163.41 96.291 163.291C96.4232 163.168 96.5872 163.107 96.7832 163.107ZM102.163 172.609C102.35 172.609 102.541 172.593 102.737 172.561C102.933 172.529 103.093 172.49 103.216 172.445V173.327C103.084 173.386 102.899 173.436 102.662 173.477C102.43 173.518 102.202 173.538 101.979 173.538C101.582 173.538 101.222 173.47 100.898 173.333C100.575 173.192 100.315 172.955 100.119 172.622C99.9277 172.29 99.832 171.829 99.832 171.242V166.798H98.7656V166.245L99.8389 165.8L100.29 164.173H100.974V165.91H103.168V166.798H100.974V171.207C100.974 171.677 101.081 172.028 101.295 172.26C101.514 172.493 101.803 172.609 102.163 172.609ZM103.551 165.91H104.768L106.422 170.257C106.518 170.512 106.606 170.759 106.688 170.995C106.771 171.228 106.843 171.451 106.907 171.665C106.971 171.88 107.021 172.087 107.058 172.287H107.105C107.169 172.06 107.26 171.761 107.379 171.392C107.497 171.018 107.625 170.638 107.762 170.25L109.327 165.91H110.551L107.29 174.502C107.117 174.963 106.914 175.364 106.682 175.705C106.454 176.047 106.176 176.309 105.848 176.492C105.52 176.678 105.123 176.772 104.658 176.772C104.444 176.772 104.255 176.758 104.091 176.731C103.927 176.708 103.785 176.681 103.667 176.649V175.74C103.767 175.762 103.888 175.783 104.029 175.801C104.175 175.819 104.326 175.828 104.48 175.828C104.763 175.828 105.007 175.774 105.212 175.664C105.422 175.56 105.602 175.405 105.752 175.2C105.902 174.995 106.032 174.751 106.142 174.468L106.552 173.415L103.551 165.91ZM126.909 163.408L124.236 173.402H123.067L121.085 166.675C121.026 166.484 120.969 166.292 120.914 166.101C120.864 165.905 120.816 165.72 120.771 165.547C120.725 165.37 120.686 165.215 120.654 165.082C120.627 164.946 120.606 164.843 120.593 164.775C120.584 164.843 120.565 164.943 120.538 165.076C120.515 165.208 120.483 165.36 120.442 165.534C120.406 165.707 120.36 165.891 120.306 166.087C120.256 166.283 120.201 166.481 120.142 166.682L118.214 173.402H117.045L114.393 163.408H115.603L117.209 169.676C117.264 169.886 117.314 170.093 117.359 170.298C117.41 170.499 117.453 170.695 117.489 170.886C117.53 171.078 117.567 171.264 117.599 171.447C117.631 171.629 117.66 171.807 117.688 171.98C117.71 171.802 117.74 171.618 117.776 171.426C117.813 171.23 117.852 171.032 117.893 170.831C117.938 170.631 117.986 170.428 118.036 170.223C118.091 170.018 118.148 169.813 118.207 169.608L120.005 163.408H121.201L123.074 169.656C123.138 169.87 123.197 170.082 123.252 170.291C123.307 170.501 123.354 170.706 123.396 170.907C123.441 171.103 123.48 171.292 123.512 171.474C123.548 171.652 123.58 171.82 123.607 171.98C123.639 171.757 123.678 171.522 123.724 171.276C123.769 171.03 123.822 170.772 123.881 170.503C123.945 170.234 124.013 169.956 124.086 169.669L125.692 163.408H126.909ZM129.452 165.91V173.402H128.317V165.91H129.452ZM128.898 163.107C129.085 163.107 129.245 163.168 129.377 163.291C129.514 163.41 129.582 163.597 129.582 163.852C129.582 164.103 129.514 164.289 129.377 164.412C129.245 164.536 129.085 164.597 128.898 164.597C128.702 164.597 128.538 164.536 128.406 164.412C128.279 164.289 128.215 164.103 128.215 163.852C128.215 163.597 128.279 163.41 128.406 163.291C128.538 163.168 128.702 163.107 128.898 163.107ZM135.263 165.773C135.413 165.773 135.57 165.782 135.734 165.8C135.898 165.814 136.044 165.834 136.172 165.862L136.028 166.914C135.905 166.883 135.769 166.857 135.618 166.839C135.468 166.821 135.326 166.812 135.194 166.812C134.894 166.812 134.609 166.873 134.34 166.996C134.076 167.115 133.843 167.288 133.643 167.516C133.442 167.739 133.285 168.01 133.171 168.329C133.057 168.644 133 168.995 133 169.382V173.402H131.858V165.91H132.802L132.925 167.29H132.973C133.128 167.012 133.314 166.759 133.533 166.532C133.752 166.299 134.005 166.115 134.292 165.978C134.584 165.841 134.907 165.773 135.263 165.773ZM140.472 165.773C141.11 165.773 141.657 165.914 142.112 166.197C142.568 166.479 142.917 166.876 143.158 167.386C143.4 167.892 143.521 168.484 143.521 169.163V169.868H138.346C138.359 170.747 138.578 171.417 139.002 171.877C139.426 172.338 140.023 172.568 140.793 172.568C141.267 172.568 141.686 172.524 142.051 172.438C142.415 172.351 142.794 172.224 143.186 172.055V173.053C142.807 173.222 142.431 173.345 142.058 173.422C141.688 173.5 141.251 173.538 140.745 173.538C140.025 173.538 139.396 173.393 138.858 173.101C138.325 172.805 137.91 172.372 137.614 171.802C137.318 171.232 137.17 170.535 137.17 169.71C137.17 168.904 137.304 168.206 137.573 167.619C137.847 167.026 138.229 166.57 138.722 166.251C139.218 165.932 139.802 165.773 140.472 165.773ZM140.458 166.703C139.852 166.703 139.369 166.901 139.009 167.297C138.649 167.694 138.435 168.247 138.366 168.958H142.331C142.326 168.512 142.256 168.12 142.119 167.783C141.987 167.441 141.784 167.176 141.511 166.99C141.237 166.798 140.886 166.703 140.458 166.703ZM148.784 166.798H146.918V173.402H145.783V166.798H144.457V166.251L145.783 165.875V165.376C145.783 164.747 145.877 164.237 146.063 163.845C146.25 163.449 146.521 163.157 146.877 162.97C147.232 162.783 147.665 162.69 148.176 162.69C148.463 162.69 148.725 162.715 148.962 162.765C149.203 162.815 149.415 162.872 149.598 162.936L149.304 163.831C149.149 163.781 148.973 163.736 148.777 163.695C148.586 163.649 148.39 163.626 148.189 163.626C147.757 163.626 147.435 163.768 147.226 164.05C147.021 164.328 146.918 164.766 146.918 165.363V165.91H148.784V166.798ZM153.569 165.773C153.72 165.773 153.877 165.782 154.041 165.8C154.205 165.814 154.351 165.834 154.479 165.862L154.335 166.914C154.212 166.883 154.075 166.857 153.925 166.839C153.774 166.821 153.633 166.812 153.501 166.812C153.2 166.812 152.915 166.873 152.646 166.996C152.382 167.115 152.15 167.288 151.949 167.516C151.749 167.739 151.591 168.01 151.478 168.329C151.364 168.644 151.307 168.995 151.307 169.382V173.402H150.165V165.91H151.108L151.231 167.29H151.279C151.434 167.012 151.621 166.759 151.84 166.532C152.059 166.299 152.312 166.115 152.599 165.978C152.89 165.841 153.214 165.773 153.569 165.773ZM158.696 165.786C159.59 165.786 160.253 165.987 160.686 166.388C161.118 166.789 161.335 167.429 161.335 168.309V173.402H160.508L160.289 172.294H160.234C160.025 172.568 159.806 172.798 159.578 172.985C159.35 173.167 159.086 173.306 158.785 173.402C158.489 173.493 158.124 173.538 157.691 173.538C157.236 173.538 156.83 173.459 156.475 173.299C156.124 173.14 155.846 172.898 155.641 172.575C155.44 172.251 155.34 171.841 155.34 171.344C155.34 170.597 155.636 170.023 156.229 169.621C156.821 169.22 157.723 169.002 158.936 168.965L160.228 168.911V168.453C160.228 167.805 160.089 167.352 159.811 167.092C159.533 166.832 159.141 166.703 158.635 166.703C158.243 166.703 157.869 166.759 157.514 166.873C157.158 166.987 156.821 167.122 156.502 167.277L156.153 166.415C156.491 166.242 156.878 166.094 157.315 165.971C157.753 165.848 158.213 165.786 158.696 165.786ZM160.214 169.71L159.072 169.758C158.138 169.795 157.479 169.947 157.097 170.216C156.714 170.485 156.522 170.866 156.522 171.358C156.522 171.786 156.652 172.103 156.912 172.308C157.172 172.513 157.516 172.616 157.944 172.616C158.61 172.616 159.154 172.431 159.578 172.062C160.002 171.693 160.214 171.139 160.214 170.401V169.71ZM171.808 165.773C172.632 165.773 173.255 165.989 173.674 166.422C174.093 166.851 174.303 167.541 174.303 168.494V173.402H173.182V168.548C173.182 167.942 173.049 167.489 172.785 167.188C172.525 166.883 172.138 166.73 171.623 166.73C170.898 166.73 170.372 166.939 170.044 167.359C169.716 167.778 169.552 168.396 169.552 169.211V173.402H168.424V168.548C168.424 168.143 168.365 167.805 168.246 167.536C168.132 167.268 167.959 167.067 167.727 166.935C167.499 166.798 167.209 166.73 166.858 166.73C166.362 166.73 165.963 166.832 165.662 167.037C165.361 167.243 165.143 167.548 165.006 167.953C164.874 168.355 164.808 168.849 164.808 169.437V173.402H163.673V165.91H164.589L164.76 166.969H164.821C164.972 166.709 165.161 166.491 165.389 166.313C165.617 166.135 165.872 166.001 166.154 165.91C166.437 165.818 166.738 165.773 167.057 165.773C167.626 165.773 168.103 165.88 168.485 166.094C168.873 166.304 169.153 166.625 169.326 167.058H169.388C169.634 166.625 169.971 166.304 170.399 166.094C170.828 165.88 171.297 165.773 171.808 165.773ZM179.519 165.773C180.157 165.773 180.703 165.914 181.159 166.197C181.615 166.479 181.964 166.876 182.205 167.386C182.447 167.892 182.567 168.484 182.567 169.163V169.868H177.393C177.406 170.747 177.625 171.417 178.049 171.877C178.473 172.338 179.07 172.568 179.84 172.568C180.314 172.568 180.733 172.524 181.098 172.438C181.462 172.351 181.84 172.224 182.232 172.055V173.053C181.854 173.222 181.478 173.345 181.104 173.422C180.735 173.5 180.298 173.538 179.792 173.538C179.072 173.538 178.443 173.393 177.905 173.101C177.372 172.805 176.957 172.372 176.661 171.802C176.365 171.232 176.217 170.535 176.217 169.71C176.217 168.904 176.351 168.206 176.62 167.619C176.894 167.026 177.276 166.57 177.769 166.251C178.265 165.932 178.849 165.773 179.519 165.773ZM179.505 166.703C178.899 166.703 178.416 166.901 178.056 167.297C177.696 167.694 177.481 168.247 177.413 168.958H181.378C181.373 168.512 181.303 168.12 181.166 167.783C181.034 167.441 180.831 167.176 180.558 166.99C180.284 166.798 179.933 166.703 179.505 166.703ZM189.342 171.351C189.342 171.829 189.221 172.233 188.979 172.561C188.743 172.884 188.401 173.128 187.954 173.292C187.512 173.456 186.983 173.538 186.368 173.538C185.844 173.538 185.391 173.497 185.008 173.415C184.625 173.333 184.29 173.217 184.003 173.067V172.021C184.308 172.171 184.673 172.308 185.097 172.431C185.521 172.554 185.953 172.616 186.396 172.616C187.043 172.616 187.512 172.511 187.804 172.301C188.095 172.092 188.241 171.807 188.241 171.447C188.241 171.242 188.182 171.062 188.063 170.907C187.95 170.747 187.756 170.594 187.482 170.449C187.209 170.298 186.831 170.134 186.348 169.956C185.869 169.774 185.454 169.594 185.104 169.416C184.757 169.234 184.488 169.013 184.297 168.753C184.11 168.494 184.017 168.156 184.017 167.742C184.017 167.108 184.272 166.623 184.782 166.286C185.297 165.944 185.972 165.773 186.806 165.773C187.257 165.773 187.678 165.818 188.07 165.91C188.467 165.996 188.836 166.115 189.178 166.265L188.795 167.174C188.485 167.042 188.155 166.93 187.804 166.839C187.453 166.748 187.095 166.703 186.73 166.703C186.206 166.703 185.803 166.789 185.521 166.962C185.243 167.135 185.104 167.372 185.104 167.673C185.104 167.906 185.167 168.097 185.295 168.247C185.427 168.398 185.637 168.539 185.924 168.671C186.211 168.803 186.589 168.958 187.059 169.136C187.528 169.309 187.934 169.489 188.275 169.676C188.617 169.858 188.879 170.082 189.062 170.346C189.248 170.606 189.342 170.941 189.342 171.351Z" fill="white"/>
<path d="M111.293 217.109C111.683 217.499 112.317 217.499 112.707 217.109L119.071 210.745C119.462 210.354 119.462 209.721 119.071 209.331C118.681 208.94 118.047 208.94 117.657 209.331L112 214.988L106.343 209.331C105.953 208.94 105.319 208.94 104.929 209.331C104.538 209.721 104.538 210.354 104.929 210.745L111.293 217.109ZM111 192.402L111 216.402L113 216.402L113 192.402L111 192.402Z" fill="#38373A"/>
<rect x="8" y="216.402" width="208" height="48" rx="24" fill="#38373A"/>
<path d="M65.96 236.289C65.4085 236.289 64.9118 236.385 64.4697 236.577C64.0322 236.763 63.6585 237.037 63.3486 237.397C63.0433 237.752 62.8086 238.183 62.6445 238.689C62.4805 239.195 62.3984 239.764 62.3984 240.398C62.3984 241.236 62.5283 241.966 62.7881 242.585C63.0524 243.201 63.4443 243.677 63.9639 244.014C64.488 244.351 65.1419 244.52 65.9258 244.52C66.3724 244.52 66.7917 244.483 67.1836 244.411C67.5801 244.333 67.9652 244.237 68.3389 244.123V245.135C67.9743 245.272 67.5915 245.372 67.1904 245.436C66.7894 245.504 66.3132 245.538 65.7617 245.538C64.7454 245.538 63.8955 245.329 63.2119 244.91C62.5329 244.486 62.0225 243.889 61.6807 243.119C61.3434 242.348 61.1748 241.439 61.1748 240.391C61.1748 239.634 61.2796 238.944 61.4893 238.32C61.7035 237.691 62.0133 237.148 62.4189 236.693C62.8291 236.237 63.3304 235.886 63.9229 235.64C64.5199 235.389 65.2035 235.264 65.9736 235.264C66.4795 235.264 66.9671 235.314 67.4365 235.414C67.9059 235.515 68.3298 235.658 68.708 235.845L68.2432 236.829C67.9242 236.684 67.5732 236.558 67.1904 236.453C66.8122 236.344 66.402 236.289 65.96 236.289ZM76.7949 241.642C76.7949 242.257 76.7152 242.806 76.5557 243.289C76.3962 243.773 76.166 244.18 75.8652 244.513C75.5645 244.846 75.1999 245.101 74.7715 245.279C74.3477 245.452 73.8669 245.538 73.3291 245.538C72.8278 245.538 72.3675 245.452 71.9482 245.279C71.5335 245.101 71.1735 244.846 70.8682 244.513C70.5674 244.18 70.3327 243.773 70.1641 243.289C70 242.806 69.918 242.257 69.918 241.642C69.918 240.822 70.057 240.124 70.335 239.55C70.613 238.971 71.0094 238.532 71.5244 238.231C72.0439 237.925 72.6615 237.773 73.377 237.773C74.0605 237.773 74.6576 237.925 75.168 238.231C75.6829 238.536 76.0817 238.978 76.3643 239.557C76.6514 240.131 76.7949 240.826 76.7949 241.642ZM71.0938 241.642C71.0938 242.244 71.1735 242.765 71.333 243.207C71.4925 243.649 71.7386 243.991 72.0713 244.233C72.404 244.474 72.8324 244.595 73.3564 244.595C73.876 244.595 74.3021 244.474 74.6348 244.233C74.972 243.991 75.2204 243.649 75.3799 243.207C75.5394 242.765 75.6191 242.244 75.6191 241.642C75.6191 241.045 75.5394 240.53 75.3799 240.097C75.2204 239.66 74.9743 239.322 74.6416 239.085C74.3089 238.848 73.8783 238.73 73.3496 238.73C72.5703 238.73 71.9984 238.987 71.6338 239.502C71.2738 240.017 71.0938 240.731 71.0938 241.642ZM82.3047 237.773C83.1934 237.773 83.8656 237.992 84.3213 238.429C84.777 238.862 85.0049 239.559 85.0049 240.521V245.402H83.8838V240.596C83.8838 239.972 83.7402 239.505 83.4531 239.195C83.1706 238.885 82.7354 238.73 82.1475 238.73C81.318 238.73 80.7347 238.965 80.3975 239.434C80.0602 239.903 79.8916 240.585 79.8916 241.478V245.402H78.7568V237.91H79.6729L79.8438 238.99H79.9053C80.0648 238.725 80.2676 238.504 80.5137 238.327C80.7598 238.144 81.0355 238.008 81.3408 237.916C81.6462 237.821 81.9674 237.773 82.3047 237.773ZM90.3438 245.538C89.6693 245.538 89.0745 245.399 88.5596 245.121C88.0446 244.843 87.6436 244.42 87.3564 243.85C87.0693 243.28 86.9258 242.563 86.9258 241.697C86.9258 240.79 87.0762 240.049 87.377 239.475C87.6823 238.896 88.1016 238.468 88.6348 238.19C89.168 237.912 89.7741 237.773 90.4531 237.773C90.8268 237.773 91.1868 237.812 91.5332 237.889C91.8841 237.962 92.1712 238.055 92.3945 238.169L92.0527 239.12C91.8249 239.028 91.5605 238.946 91.2598 238.873C90.9635 238.8 90.6855 238.764 90.4258 238.764C89.9062 238.764 89.4733 238.876 89.127 239.099C88.7852 239.322 88.5277 239.65 88.3545 240.083C88.1859 240.516 88.1016 241.05 88.1016 241.683C88.1016 242.289 88.1836 242.806 88.3477 243.235C88.5163 243.663 88.7646 243.991 89.0928 244.219C89.4255 244.442 89.8402 244.554 90.3369 244.554C90.7334 244.554 91.0911 244.513 91.4102 244.431C91.7292 244.344 92.0186 244.244 92.2783 244.13V245.142C92.0277 245.27 91.7474 245.368 91.4375 245.436C91.1322 245.504 90.7676 245.538 90.3438 245.538ZM96.9404 237.773C97.5785 237.773 98.1253 237.914 98.5811 238.197C99.0368 238.479 99.3854 238.876 99.627 239.386C99.8685 239.892 99.9893 240.484 99.9893 241.163V241.868H94.8145C94.8281 242.747 95.0469 243.417 95.4707 243.877C95.8945 244.338 96.4915 244.568 97.2617 244.568C97.7357 244.568 98.1549 244.524 98.5195 244.438C98.8841 244.351 99.2624 244.224 99.6543 244.055V245.053C99.276 245.222 98.9001 245.345 98.5264 245.422C98.1572 245.5 97.7197 245.538 97.2139 245.538C96.4938 245.538 95.8649 245.393 95.3271 245.101C94.7939 244.805 94.3792 244.372 94.083 243.802C93.7868 243.232 93.6387 242.535 93.6387 241.71C93.6387 240.904 93.7731 240.206 94.042 239.619C94.3154 239.026 94.6982 238.57 95.1904 238.251C95.6872 237.932 96.2705 237.773 96.9404 237.773ZM96.9268 238.703C96.3206 238.703 95.8376 238.901 95.4775 239.297C95.1175 239.694 94.9033 240.247 94.835 240.958H98.7998C98.7952 240.512 98.7246 240.12 98.5879 239.783C98.4557 239.441 98.2529 239.176 97.9795 238.99C97.7061 238.798 97.3551 238.703 96.9268 238.703ZM105.438 237.773C106.372 237.773 107.117 238.094 107.673 238.737C108.229 239.379 108.507 240.345 108.507 241.635C108.507 242.487 108.379 243.203 108.124 243.782C107.869 244.36 107.509 244.798 107.044 245.094C106.584 245.39 106.039 245.538 105.41 245.538C105.014 245.538 104.665 245.486 104.364 245.381C104.063 245.276 103.806 245.135 103.592 244.957C103.378 244.78 103.2 244.586 103.059 244.376H102.977C102.99 244.554 103.006 244.768 103.024 245.019C103.047 245.27 103.059 245.488 103.059 245.675V248.751H101.917V237.91H102.854L103.004 239.017H103.059C103.204 238.789 103.382 238.582 103.592 238.395C103.801 238.203 104.057 238.053 104.357 237.944C104.663 237.83 105.023 237.773 105.438 237.773ZM105.239 238.73C104.72 238.73 104.3 238.83 103.981 239.031C103.667 239.231 103.437 239.532 103.291 239.933C103.145 240.329 103.068 240.828 103.059 241.43V241.649C103.059 242.282 103.127 242.818 103.264 243.255C103.405 243.693 103.635 244.025 103.954 244.253C104.278 244.481 104.711 244.595 105.253 244.595C105.718 244.595 106.105 244.47 106.415 244.219C106.725 243.968 106.955 243.62 107.105 243.173C107.26 242.722 107.338 242.205 107.338 241.621C107.338 240.737 107.165 240.036 106.818 239.516C106.477 238.992 105.95 238.73 105.239 238.73ZM112.909 244.609C113.096 244.609 113.287 244.593 113.483 244.561C113.679 244.529 113.839 244.49 113.962 244.445V245.327C113.83 245.386 113.645 245.436 113.408 245.477C113.176 245.518 112.948 245.538 112.725 245.538C112.328 245.538 111.968 245.47 111.645 245.333C111.321 245.192 111.061 244.955 110.865 244.622C110.674 244.29 110.578 243.829 110.578 243.242V238.798H109.512V238.245L110.585 237.8L111.036 236.173H111.72V237.91H113.914V238.798H111.72V243.207C111.72 243.677 111.827 244.028 112.041 244.26C112.26 244.493 112.549 244.609 112.909 244.609ZM121.987 235.408C122.808 235.408 123.484 235.51 124.018 235.715C124.555 235.916 124.956 236.223 125.221 236.638C125.485 237.053 125.617 237.581 125.617 238.224C125.617 238.753 125.521 239.195 125.33 239.55C125.139 239.901 124.888 240.186 124.578 240.405C124.268 240.623 123.938 240.792 123.587 240.911L126.328 245.402H124.975L122.527 241.232H120.449V245.402H119.287V235.408H121.987ZM121.919 236.412H120.449V240.247H122.035C122.851 240.247 123.45 240.081 123.833 239.748C124.22 239.416 124.414 238.926 124.414 238.279C124.414 237.6 124.209 237.119 123.799 236.836C123.393 236.554 122.767 236.412 121.919 236.412ZM130.642 237.773C131.28 237.773 131.826 237.914 132.282 238.197C132.738 238.479 133.087 238.876 133.328 239.386C133.57 239.892 133.69 240.484 133.69 241.163V241.868H128.516C128.529 242.747 128.748 243.417 129.172 243.877C129.596 244.338 130.193 244.568 130.963 244.568C131.437 244.568 131.856 244.524 132.221 244.438C132.585 244.351 132.964 244.224 133.355 244.055V245.053C132.977 245.222 132.601 245.345 132.228 245.422C131.858 245.5 131.421 245.538 130.915 245.538C130.195 245.538 129.566 245.393 129.028 245.101C128.495 244.805 128.08 244.372 127.784 243.802C127.488 243.232 127.34 242.535 127.34 241.71C127.34 240.904 127.474 240.206 127.743 239.619C128.017 239.026 128.399 238.57 128.892 238.251C129.388 237.932 129.972 237.773 130.642 237.773ZM130.628 238.703C130.022 238.703 129.539 238.901 129.179 239.297C128.819 239.694 128.604 240.247 128.536 240.958H132.501C132.496 240.512 132.426 240.12 132.289 239.783C132.157 239.441 131.954 239.176 131.681 238.99C131.407 238.798 131.056 238.703 130.628 238.703ZM137.266 245.402L134.422 237.91H135.639L137.286 242.442C137.4 242.752 137.516 243.093 137.635 243.467C137.753 243.841 137.835 244.142 137.881 244.37H137.929C137.983 244.142 138.075 243.841 138.202 243.467C138.33 243.089 138.446 242.747 138.551 242.442L140.198 237.91H141.415L138.564 245.402H137.266ZM143.753 237.91V245.402H142.618V237.91H143.753ZM143.199 235.107C143.386 235.107 143.546 235.168 143.678 235.291C143.814 235.41 143.883 235.597 143.883 235.852C143.883 236.103 143.814 236.289 143.678 236.412C143.546 236.536 143.386 236.597 143.199 236.597C143.003 236.597 142.839 236.536 142.707 236.412C142.579 236.289 142.516 236.103 142.516 235.852C142.516 235.597 142.579 235.41 142.707 235.291C142.839 235.168 143.003 235.107 143.199 235.107ZM149.044 237.773C149.682 237.773 150.229 237.914 150.685 238.197C151.14 238.479 151.489 238.876 151.73 239.386C151.972 239.892 152.093 240.484 152.093 241.163V241.868H146.918C146.932 242.747 147.15 243.417 147.574 243.877C147.998 244.338 148.595 244.568 149.365 244.568C149.839 244.568 150.258 244.524 150.623 244.438C150.988 244.351 151.366 244.224 151.758 244.055V245.053C151.38 245.222 151.004 245.345 150.63 245.422C150.261 245.5 149.823 245.538 149.317 245.538C148.597 245.538 147.968 245.393 147.431 245.101C146.897 244.805 146.483 244.372 146.187 243.802C145.89 243.232 145.742 242.535 145.742 241.71C145.742 240.904 145.877 240.206 146.146 239.619C146.419 239.026 146.802 238.57 147.294 238.251C147.791 237.932 148.374 237.773 149.044 237.773ZM149.03 238.703C148.424 238.703 147.941 238.901 147.581 239.297C147.221 239.694 147.007 240.247 146.938 240.958H150.903C150.899 240.512 150.828 240.12 150.691 239.783C150.559 239.441 150.356 239.176 150.083 238.99C149.81 238.798 149.459 238.703 149.03 238.703ZM160.118 245.388L158.785 241.027C158.726 240.84 158.669 240.658 158.614 240.48C158.564 240.298 158.516 240.124 158.471 239.96C158.43 239.792 158.391 239.637 158.354 239.495C158.323 239.35 158.295 239.224 158.272 239.12H158.225C158.206 239.224 158.181 239.35 158.149 239.495C158.118 239.637 158.079 239.792 158.033 239.96C157.992 240.129 157.947 240.307 157.896 240.494C157.846 240.676 157.789 240.86 157.726 241.047L156.331 245.388H155.053L152.988 237.896H154.164L155.244 242.032C155.317 242.305 155.385 242.576 155.449 242.845C155.518 243.109 155.575 243.36 155.62 243.597C155.67 243.829 155.707 244.032 155.729 244.205H155.784C155.812 244.092 155.841 243.955 155.873 243.795C155.91 243.636 155.948 243.467 155.989 243.289C156.035 243.107 156.083 242.927 156.133 242.749C156.183 242.567 156.233 242.396 156.283 242.237L157.664 237.896H158.888L160.221 242.23C160.289 242.449 160.355 242.676 160.419 242.913C160.487 243.15 160.549 243.381 160.604 243.604C160.658 243.823 160.697 244.019 160.72 244.192H160.774C160.793 244.037 160.827 243.845 160.877 243.618C160.927 243.39 160.984 243.139 161.048 242.866C161.116 242.592 161.187 242.314 161.26 242.032L162.354 237.896H163.509L161.438 245.388H160.118Z" fill="white"/>
<path d="M111.293 289.109C111.683 289.499 112.317 289.499 112.707 289.109L119.071 282.745C119.462 282.354 119.462 281.721 119.071 281.331C118.681 280.94 118.047 280.94 117.657 281.331L112 286.988L106.343 281.331C105.953 280.94 105.319 280.94 104.929 281.331C104.538 281.721 104.538 282.354 104.929 282.745L111.293 289.109ZM111 264.402L111 288.402L113 288.402L113 264.402L111 264.402Z" fill="#38373A"/>
<rect x="8" y="288.402" width="208" height="48" rx="24" fill="#38373A"/>
<path d="M58.2559 317.402H57.0938V312.692H51.8438V317.402H50.6816V307.408H51.8438V311.666H57.0938V307.408H58.2559V317.402ZM61.9678 309.91V317.402H60.833V309.91H61.9678ZM61.4141 307.107C61.6009 307.107 61.7604 307.168 61.8926 307.291C62.0293 307.41 62.0977 307.597 62.0977 307.852C62.0977 308.103 62.0293 308.289 61.8926 308.412C61.7604 308.536 61.6009 308.597 61.4141 308.597C61.2181 308.597 61.054 308.536 60.9219 308.412C60.7943 308.289 60.7305 308.103 60.7305 307.852C60.7305 307.597 60.7943 307.41 60.9219 307.291C61.054 307.168 61.2181 307.107 61.4141 307.107ZM66.4658 320.765C65.4814 320.765 64.7227 320.58 64.1895 320.211C63.6562 319.847 63.3896 319.334 63.3896 318.673C63.3896 318.204 63.5378 317.803 63.834 317.47C64.1348 317.137 64.5495 316.916 65.0781 316.807C64.8822 316.716 64.7135 316.579 64.5723 316.397C64.4355 316.215 64.3672 316.005 64.3672 315.768C64.3672 315.495 64.4424 315.255 64.5928 315.05C64.7477 314.841 64.9824 314.64 65.2969 314.449C64.9049 314.289 64.5859 314.02 64.3398 313.642C64.0983 313.259 63.9775 312.815 63.9775 312.309C63.9775 311.771 64.0892 311.313 64.3125 310.935C64.5358 310.552 64.8594 310.26 65.2832 310.06C65.707 309.859 66.2197 309.759 66.8213 309.759C66.9535 309.759 67.0856 309.766 67.2178 309.78C67.3545 309.789 67.4844 309.805 67.6074 309.828C67.7305 309.846 67.8376 309.869 67.9287 309.896H70.499V310.627L69.1182 310.798C69.2549 310.976 69.3688 311.19 69.46 311.441C69.5511 311.691 69.5967 311.969 69.5967 312.275C69.5967 313.022 69.3438 313.617 68.8379 314.059C68.332 314.496 67.637 314.715 66.7529 314.715C66.5433 314.715 66.3291 314.697 66.1104 314.661C65.887 314.784 65.7161 314.92 65.5977 315.071C65.4837 315.221 65.4268 315.394 65.4268 315.59C65.4268 315.736 65.4701 315.852 65.5566 315.939C65.6478 316.025 65.7777 316.089 65.9463 316.13C66.1149 316.167 66.3177 316.185 66.5547 316.185H67.874C68.6898 316.185 69.3141 316.356 69.7471 316.698C70.1846 317.039 70.4033 317.538 70.4033 318.195C70.4033 319.024 70.0661 319.66 69.3916 320.102C68.7171 320.544 67.7419 320.765 66.4658 320.765ZM66.5 319.876C67.1198 319.876 67.6325 319.813 68.0381 319.685C68.4482 319.562 68.7536 319.382 68.9541 319.145C69.1592 318.912 69.2617 318.634 69.2617 318.311C69.2617 318.01 69.1934 317.782 69.0566 317.627C68.9199 317.477 68.7194 317.377 68.4551 317.327C68.1908 317.272 67.8672 317.245 67.4844 317.245H66.1855C65.8483 317.245 65.5544 317.297 65.3037 317.402C65.0531 317.507 64.8594 317.661 64.7227 317.867C64.5905 318.072 64.5244 318.327 64.5244 318.632C64.5244 319.038 64.6953 319.345 65.0371 319.555C65.3789 319.769 65.8665 319.876 66.5 319.876ZM66.7939 313.888C67.3363 313.888 67.7441 313.751 68.0176 313.478C68.291 313.204 68.4277 312.806 68.4277 312.282C68.4277 311.721 68.2887 311.302 68.0107 311.024C67.7327 310.741 67.3226 310.6 66.7803 310.6C66.2607 310.6 65.8597 310.746 65.5771 311.037C65.2992 311.325 65.1602 311.746 65.1602 312.302C65.1602 312.813 65.3014 313.204 65.584 313.478C65.8665 313.751 66.2699 313.888 66.7939 313.888ZM73.1104 306.765V309.944C73.1104 310.126 73.1058 310.311 73.0967 310.497C73.0876 310.68 73.0716 310.848 73.0488 311.003H73.124C73.279 310.739 73.4749 310.518 73.7119 310.34C73.9535 310.158 74.2269 310.021 74.5322 309.93C74.8376 309.834 75.1611 309.786 75.5029 309.786C76.1045 309.786 76.6058 309.882 77.0068 310.074C77.4124 310.265 77.7155 310.561 77.916 310.962C78.1211 311.363 78.2236 311.883 78.2236 312.521V317.402H77.1025V312.596C77.1025 311.972 76.959 311.505 76.6719 311.195C76.3893 310.885 75.9541 310.73 75.3662 310.73C74.8102 310.73 74.3659 310.837 74.0332 311.051C73.7051 311.261 73.4681 311.571 73.3223 311.981C73.181 312.391 73.1104 312.892 73.1104 313.485V317.402H71.9756V306.765H73.1104ZM85.5312 317.402H84.3691V307.408H89.9336V308.433H85.5312V312.097H89.667V313.116H85.5312V317.402ZM92.5654 309.91V317.402H91.4307V309.91H92.5654ZM92.0117 307.107C92.1986 307.107 92.3581 307.168 92.4902 307.291C92.627 307.41 92.6953 307.597 92.6953 307.852C92.6953 308.103 92.627 308.289 92.4902 308.412C92.3581 308.536 92.1986 308.597 92.0117 308.597C91.8158 308.597 91.6517 308.536 91.5195 308.412C91.3919 308.289 91.3281 308.103 91.3281 307.852C91.3281 307.597 91.3919 307.41 91.5195 307.291C91.6517 307.168 91.8158 307.107 92.0117 307.107ZM97.6377 317.538C96.6898 317.538 95.9378 317.215 95.3818 316.568C94.8304 315.921 94.5547 314.959 94.5547 313.683C94.5547 312.393 94.8372 311.42 95.4023 310.764C95.9674 310.103 96.7194 309.773 97.6582 309.773C98.0547 309.773 98.401 309.825 98.6973 309.93C98.9935 310.035 99.2487 310.176 99.4629 310.354C99.6771 310.527 99.8571 310.725 100.003 310.949H100.085C100.067 310.807 100.049 310.614 100.03 310.368C100.012 310.121 100.003 309.921 100.003 309.766V306.765H101.138V317.402H100.222L100.051 316.335H100.003C99.8617 316.559 99.6816 316.761 99.4629 316.944C99.2487 317.126 98.9912 317.272 98.6904 317.381C98.3942 317.486 98.0433 317.538 97.6377 317.538ZM97.8154 316.595C98.6175 316.595 99.1849 316.367 99.5176 315.911C99.8503 315.456 100.017 314.779 100.017 313.881V313.676C100.017 312.724 99.8571 311.992 99.5381 311.482C99.2236 310.971 98.6494 310.716 97.8154 310.716C97.1182 310.716 96.5964 310.985 96.25 311.523C95.9036 312.056 95.7305 312.785 95.7305 313.71C95.7305 314.631 95.9014 315.342 96.2432 315.843C96.5895 316.344 97.1136 316.595 97.8154 316.595ZM106.429 309.773C107.067 309.773 107.614 309.914 108.069 310.197C108.525 310.479 108.874 310.876 109.115 311.386C109.357 311.892 109.478 312.484 109.478 313.163V313.868H104.303C104.316 314.747 104.535 315.417 104.959 315.877C105.383 316.338 105.98 316.568 106.75 316.568C107.224 316.568 107.643 316.524 108.008 316.438C108.372 316.351 108.751 316.224 109.143 316.055V317.053C108.764 317.222 108.388 317.345 108.015 317.422C107.646 317.5 107.208 317.538 106.702 317.538C105.982 317.538 105.353 317.393 104.815 317.101C104.282 316.805 103.868 316.372 103.571 315.802C103.275 315.232 103.127 314.535 103.127 313.71C103.127 312.904 103.261 312.206 103.53 311.619C103.804 311.026 104.187 310.57 104.679 310.251C105.175 309.932 105.759 309.773 106.429 309.773ZM106.415 310.703C105.809 310.703 105.326 310.901 104.966 311.297C104.606 311.694 104.392 312.247 104.323 312.958H108.288C108.284 312.512 108.213 312.12 108.076 311.783C107.944 311.441 107.741 311.176 107.468 310.99C107.194 310.798 106.843 310.703 106.415 310.703ZM112.547 317.402H111.405V306.765H112.547V317.402ZM116.081 309.91V317.402H114.946V309.91H116.081ZM115.527 307.107C115.714 307.107 115.874 307.168 116.006 307.291C116.143 307.41 116.211 307.597 116.211 307.852C116.211 308.103 116.143 308.289 116.006 308.412C115.874 308.536 115.714 308.597 115.527 308.597C115.331 308.597 115.167 308.536 115.035 308.412C114.908 308.289 114.844 308.103 114.844 307.852C114.844 307.597 114.908 307.41 115.035 307.291C115.167 307.168 115.331 307.107 115.527 307.107ZM120.907 316.609C121.094 316.609 121.285 316.593 121.481 316.561C121.677 316.529 121.837 316.49 121.96 316.445V317.327C121.828 317.386 121.643 317.436 121.406 317.477C121.174 317.518 120.946 317.538 120.723 317.538C120.326 317.538 119.966 317.47 119.643 317.333C119.319 317.192 119.059 316.955 118.863 316.622C118.672 316.29 118.576 315.829 118.576 315.242V310.798H117.51V310.245L118.583 309.8L119.034 308.173H119.718V309.91H121.912V310.798H119.718V315.207C119.718 315.677 119.825 316.028 120.039 316.26C120.258 316.493 120.547 316.609 120.907 316.609ZM122.295 309.91H123.512L125.166 314.257C125.262 314.512 125.351 314.759 125.433 314.995C125.515 315.228 125.588 315.451 125.651 315.665C125.715 315.88 125.765 316.087 125.802 316.287H125.85C125.913 316.06 126.005 315.761 126.123 315.392C126.242 315.018 126.369 314.638 126.506 314.25L128.071 309.91H129.295L126.034 318.502C125.861 318.963 125.658 319.364 125.426 319.705C125.198 320.047 124.92 320.309 124.592 320.492C124.264 320.678 123.867 320.772 123.402 320.772C123.188 320.772 122.999 320.758 122.835 320.731C122.671 320.708 122.53 320.681 122.411 320.649V319.74C122.511 319.762 122.632 319.783 122.773 319.801C122.919 319.819 123.07 319.828 123.225 319.828C123.507 319.828 123.751 319.774 123.956 319.664C124.166 319.56 124.346 319.405 124.496 319.2C124.646 318.995 124.776 318.751 124.886 318.468L125.296 317.415L122.295 309.91ZM138.694 317.402L135.338 308.556H135.283C135.301 308.743 135.317 308.971 135.331 309.24C135.345 309.509 135.356 309.802 135.365 310.121C135.374 310.436 135.379 310.757 135.379 311.085V317.402H134.299V307.408H136.021L139.187 315.72H139.234L142.447 307.408H144.156V317.402H143.008V311.003C143.008 310.707 143.012 310.411 143.021 310.115C143.031 309.814 143.042 309.531 143.056 309.267C143.069 308.998 143.083 308.766 143.097 308.57H143.042L139.645 317.402H138.694ZM153.18 313.642C153.18 314.257 153.1 314.806 152.94 315.289C152.781 315.773 152.551 316.18 152.25 316.513C151.949 316.846 151.585 317.101 151.156 317.279C150.732 317.452 150.252 317.538 149.714 317.538C149.213 317.538 148.752 317.452 148.333 317.279C147.918 317.101 147.558 316.846 147.253 316.513C146.952 316.18 146.717 315.773 146.549 315.289C146.385 314.806 146.303 314.257 146.303 313.642C146.303 312.822 146.442 312.124 146.72 311.55C146.998 310.971 147.394 310.532 147.909 310.231C148.429 309.925 149.046 309.773 149.762 309.773C150.445 309.773 151.042 309.925 151.553 310.231C152.068 310.536 152.466 310.978 152.749 311.557C153.036 312.131 153.18 312.826 153.18 313.642ZM147.479 313.642C147.479 314.244 147.558 314.765 147.718 315.207C147.877 315.649 148.123 315.991 148.456 316.233C148.789 316.474 149.217 316.595 149.741 316.595C150.261 316.595 150.687 316.474 151.02 316.233C151.357 315.991 151.605 315.649 151.765 315.207C151.924 314.765 152.004 314.244 152.004 313.642C152.004 313.045 151.924 312.53 151.765 312.097C151.605 311.66 151.359 311.322 151.026 311.085C150.694 310.848 150.263 310.73 149.734 310.73C148.955 310.73 148.383 310.987 148.019 311.502C147.659 312.017 147.479 312.731 147.479 313.642ZM158.143 317.538C157.468 317.538 156.873 317.399 156.358 317.121C155.843 316.843 155.442 316.42 155.155 315.85C154.868 315.28 154.725 314.563 154.725 313.697C154.725 312.79 154.875 312.049 155.176 311.475C155.481 310.896 155.9 310.468 156.434 310.19C156.967 309.912 157.573 309.773 158.252 309.773C158.626 309.773 158.986 309.812 159.332 309.889C159.683 309.962 159.97 310.055 160.193 310.169L159.852 311.12C159.624 311.028 159.359 310.946 159.059 310.873C158.762 310.8 158.484 310.764 158.225 310.764C157.705 310.764 157.272 310.876 156.926 311.099C156.584 311.322 156.326 311.65 156.153 312.083C155.985 312.516 155.9 313.05 155.9 313.683C155.9 314.289 155.982 314.806 156.146 315.235C156.315 315.663 156.563 315.991 156.892 316.219C157.224 316.442 157.639 316.554 158.136 316.554C158.532 316.554 158.89 316.513 159.209 316.431C159.528 316.344 159.817 316.244 160.077 316.13V317.142C159.826 317.27 159.546 317.368 159.236 317.436C158.931 317.504 158.566 317.538 158.143 317.538ZM162.982 306.765V312.288C162.982 312.471 162.976 312.694 162.962 312.958C162.948 313.218 162.937 313.448 162.928 313.649H162.976C163.071 313.53 163.21 313.355 163.393 313.122C163.579 312.89 163.737 312.703 163.864 312.562L166.353 309.91H167.686L164.671 313.109L167.904 317.402H166.537L163.892 313.854L162.982 314.688V317.402H161.854V306.765H162.982ZM174.057 315.351C174.057 315.829 173.936 316.233 173.694 316.561C173.457 316.884 173.116 317.128 172.669 317.292C172.227 317.456 171.698 317.538 171.083 317.538C170.559 317.538 170.105 317.497 169.723 317.415C169.34 317.333 169.005 317.217 168.718 317.067V316.021C169.023 316.171 169.388 316.308 169.812 316.431C170.235 316.554 170.668 316.616 171.11 316.616C171.757 316.616 172.227 316.511 172.519 316.301C172.81 316.092 172.956 315.807 172.956 315.447C172.956 315.242 172.897 315.062 172.778 314.907C172.664 314.747 172.471 314.594 172.197 314.449C171.924 314.298 171.546 314.134 171.062 313.956C170.584 313.774 170.169 313.594 169.818 313.416C169.472 313.234 169.203 313.013 169.012 312.753C168.825 312.494 168.731 312.156 168.731 311.742C168.731 311.108 168.987 310.623 169.497 310.286C170.012 309.944 170.687 309.773 171.521 309.773C171.972 309.773 172.393 309.818 172.785 309.91C173.182 309.996 173.551 310.115 173.893 310.265L173.51 311.174C173.2 311.042 172.869 310.93 172.519 310.839C172.168 310.748 171.81 310.703 171.445 310.703C170.921 310.703 170.518 310.789 170.235 310.962C169.957 311.135 169.818 311.372 169.818 311.673C169.818 311.906 169.882 312.097 170.01 312.247C170.142 312.398 170.352 312.539 170.639 312.671C170.926 312.803 171.304 312.958 171.773 313.136C172.243 313.309 172.648 313.489 172.99 313.676C173.332 313.858 173.594 314.082 173.776 314.346C173.963 314.606 174.057 314.941 174.057 315.351Z" fill="white"/>
<path d="M111.293 361.109C111.683 361.499 112.317 361.499 112.707 361.109L119.071 354.745C119.462 354.354 119.462 353.721 119.071 353.331C118.681 352.94 118.047 352.94 117.657 353.331L112 358.988L106.343 353.331C105.953 352.94 105.319 352.94 104.929 353.331C104.538 353.721 104.538 354.354 104.929 354.745L111.293 361.109ZM111 336.402L111 360.402L113 360.402L113 336.402L111 336.402Z" fill="#38373A"/>
<rect x="8" y="360.402" width="208" height="48" rx="24" fill="#38373A"/>
<path d="M67.7646 389.402H66.6025V379.408H72.167V380.433H67.7646V384.097H71.9004V385.116H67.7646V389.402ZM74.7988 381.91V389.402H73.6641V381.91H74.7988ZM74.2451 379.107C74.432 379.107 74.5915 379.168 74.7236 379.291C74.8604 379.41 74.9287 379.597 74.9287 379.852C74.9287 380.103 74.8604 380.289 74.7236 380.412C74.5915 380.536 74.432 380.597 74.2451 380.597C74.0492 380.597 73.8851 380.536 73.7529 380.412C73.6253 380.289 73.5615 380.103 73.5615 379.852C73.5615 379.597 73.6253 379.41 73.7529 379.291C73.8851 379.168 74.0492 379.107 74.2451 379.107ZM80.7529 381.773C81.6416 381.773 82.3138 381.992 82.7695 382.429C83.2253 382.862 83.4531 383.559 83.4531 384.521V389.402H82.332V384.596C82.332 383.972 82.1885 383.505 81.9014 383.195C81.6188 382.885 81.1836 382.73 80.5957 382.73C79.7663 382.73 79.1829 382.965 78.8457 383.434C78.5085 383.903 78.3398 384.585 78.3398 385.478V389.402H77.2051V381.91H78.1211L78.292 382.99H78.3535C78.513 382.725 78.7158 382.504 78.9619 382.327C79.208 382.144 79.4837 382.008 79.7891 381.916C80.0944 381.821 80.4157 381.773 80.7529 381.773ZM88.5938 381.786C89.487 381.786 90.1501 381.987 90.583 382.388C91.016 382.789 91.2324 383.429 91.2324 384.309V389.402H90.4053L90.1865 388.294H90.1318C89.9222 388.568 89.7035 388.798 89.4756 388.985C89.2477 389.167 88.9834 389.306 88.6826 389.402C88.3864 389.493 88.0218 389.538 87.5889 389.538C87.1331 389.538 86.7275 389.459 86.3721 389.299C86.0212 389.14 85.7432 388.898 85.5381 388.575C85.3376 388.251 85.2373 387.841 85.2373 387.344C85.2373 386.597 85.5335 386.023 86.126 385.621C86.7184 385.22 87.6208 385.002 88.833 384.965L90.125 384.911V384.453C90.125 383.805 89.986 383.352 89.708 383.092C89.43 382.832 89.0381 382.703 88.5322 382.703C88.1403 382.703 87.7666 382.759 87.4111 382.873C87.0557 382.987 86.7184 383.122 86.3994 383.277L86.0508 382.415C86.388 382.242 86.7754 382.094 87.2129 381.971C87.6504 381.848 88.1107 381.786 88.5938 381.786ZM90.1113 385.71L88.9697 385.758C88.0355 385.795 87.377 385.947 86.9941 386.216C86.6113 386.485 86.4199 386.866 86.4199 387.358C86.4199 387.786 86.5498 388.103 86.8096 388.308C87.0693 388.513 87.4134 388.616 87.8418 388.616C88.5072 388.616 89.0518 388.431 89.4756 388.062C89.8994 387.693 90.1113 387.139 90.1113 386.401V385.71ZM94.7119 389.402H93.5703V378.765H94.7119V389.402ZM108.493 389.402H107.331V384.692H102.081V389.402H100.919V379.408H102.081V383.666H107.331V379.408H108.493V389.402ZM113.873 381.786C114.766 381.786 115.429 381.987 115.862 382.388C116.295 382.789 116.512 383.429 116.512 384.309V389.402H115.685L115.466 388.294H115.411C115.201 388.568 114.983 388.798 114.755 388.985C114.527 389.167 114.263 389.306 113.962 389.402C113.666 389.493 113.301 389.538 112.868 389.538C112.412 389.538 112.007 389.459 111.651 389.299C111.3 389.14 111.022 388.898 110.817 388.575C110.617 388.251 110.517 387.841 110.517 387.344C110.517 386.597 110.813 386.023 111.405 385.621C111.998 385.22 112.9 385.002 114.112 384.965L115.404 384.911V384.453C115.404 383.805 115.265 383.352 114.987 383.092C114.709 382.832 114.317 382.703 113.812 382.703C113.42 382.703 113.046 382.759 112.69 382.873C112.335 382.987 111.998 383.122 111.679 383.277L111.33 382.415C111.667 382.242 112.055 382.094 112.492 381.971C112.93 381.848 113.39 381.786 113.873 381.786ZM115.391 385.71L114.249 385.758C113.315 385.795 112.656 385.947 112.273 386.216C111.891 386.485 111.699 386.866 111.699 387.358C111.699 387.786 111.829 388.103 112.089 388.308C112.349 388.513 112.693 388.616 113.121 388.616C113.786 388.616 114.331 388.431 114.755 388.062C115.179 387.693 115.391 387.139 115.391 386.401V385.71ZM122.397 381.773C123.286 381.773 123.958 381.992 124.414 382.429C124.87 382.862 125.098 383.559 125.098 384.521V389.402H123.977V384.596C123.977 383.972 123.833 383.505 123.546 383.195C123.263 382.885 122.828 382.73 122.24 382.73C121.411 382.73 120.827 382.965 120.49 383.434C120.153 383.903 119.984 384.585 119.984 385.478V389.402H118.85V381.91H119.766L119.937 382.99H119.998C120.158 382.725 120.36 382.504 120.606 382.327C120.853 382.144 121.128 382.008 121.434 381.916C121.739 381.821 122.06 381.773 122.397 381.773ZM130.102 389.538C129.154 389.538 128.402 389.215 127.846 388.568C127.294 387.921 127.019 386.959 127.019 385.683C127.019 384.393 127.301 383.42 127.866 382.764C128.431 382.103 129.183 381.773 130.122 381.773C130.519 381.773 130.865 381.825 131.161 381.93C131.457 382.035 131.713 382.176 131.927 382.354C132.141 382.527 132.321 382.725 132.467 382.949H132.549C132.531 382.807 132.512 382.614 132.494 382.368C132.476 382.121 132.467 381.921 132.467 381.766V378.765H133.602V389.402H132.686L132.515 388.335H132.467C132.326 388.559 132.146 388.761 131.927 388.944C131.713 389.126 131.455 389.272 131.154 389.381C130.858 389.486 130.507 389.538 130.102 389.538ZM130.279 388.595C131.081 388.595 131.649 388.367 131.981 387.911C132.314 387.456 132.48 386.779 132.48 385.881V385.676C132.48 384.724 132.321 383.992 132.002 383.482C131.688 382.971 131.113 382.716 130.279 382.716C129.582 382.716 129.06 382.985 128.714 383.523C128.368 384.056 128.194 384.785 128.194 385.71C128.194 386.631 128.365 387.342 128.707 387.843C129.053 388.344 129.577 388.595 130.279 388.595ZM148.483 384.391C148.483 385.161 148.385 385.863 148.189 386.496C147.993 387.125 147.702 387.668 147.314 388.123C146.932 388.575 146.455 388.923 145.886 389.169C145.316 389.415 144.655 389.538 143.903 389.538C143.129 389.538 142.452 389.415 141.873 389.169C141.299 388.923 140.82 388.572 140.438 388.117C140.059 387.661 139.774 387.116 139.583 386.483C139.396 385.849 139.303 385.148 139.303 384.377C139.303 383.356 139.471 382.461 139.809 381.691C140.146 380.921 140.656 380.321 141.34 379.893C142.028 379.465 142.889 379.25 143.924 379.25C144.913 379.25 145.744 379.462 146.419 379.886C147.098 380.31 147.611 380.907 147.957 381.677C148.308 382.443 148.483 383.347 148.483 384.391ZM140.526 384.391C140.526 385.239 140.647 385.972 140.889 386.592C141.13 387.212 141.499 387.69 141.996 388.028C142.497 388.365 143.133 388.534 143.903 388.534C144.678 388.534 145.312 388.365 145.804 388.028C146.3 387.69 146.667 387.212 146.904 386.592C147.141 385.972 147.26 385.239 147.26 384.391C147.26 383.101 146.989 382.094 146.446 381.37C145.909 380.64 145.068 380.276 143.924 380.276C143.149 380.276 142.511 380.442 142.01 380.775C141.508 381.107 141.135 381.581 140.889 382.197C140.647 382.807 140.526 383.539 140.526 384.391ZM153.877 382.798H152.011V389.402H150.876V382.798H149.55V382.251L150.876 381.875V381.376C150.876 380.747 150.969 380.237 151.156 379.845C151.343 379.449 151.614 379.157 151.97 378.97C152.325 378.783 152.758 378.69 153.269 378.69C153.556 378.69 153.818 378.715 154.055 378.765C154.296 378.815 154.508 378.872 154.69 378.936L154.396 379.831C154.242 379.781 154.066 379.736 153.87 379.695C153.679 379.649 153.483 379.626 153.282 379.626C152.849 379.626 152.528 379.768 152.318 380.05C152.113 380.328 152.011 380.766 152.011 381.363V381.91H153.877V382.798ZM158.587 382.798H156.721V389.402H155.586V382.798H154.26V382.251L155.586 381.875V381.376C155.586 380.747 155.679 380.237 155.866 379.845C156.053 379.449 156.324 379.157 156.68 378.97C157.035 378.783 157.468 378.69 157.979 378.69C158.266 378.69 158.528 378.715 158.765 378.765C159.006 378.815 159.218 378.872 159.4 378.936L159.106 379.831C158.951 379.781 158.776 379.736 158.58 379.695C158.389 379.649 158.193 379.626 157.992 379.626C157.559 379.626 157.238 379.768 157.028 380.05C156.823 380.328 156.721 380.766 156.721 381.363V381.91H158.587V382.798Z" fill="white"/>
</svg>
