<svg width="33" height="48" viewBox="0 0 33 48" fill="none" xmlns="http://www.w3.org/2000/svg">
<path d="M0 46.9821C2.57492 46.9107 4.46932 45.9821 5.68322 44.1964C6.93389 42.4107 7.55923 39.3929 7.55923 35.1429V5.67857C7.55923 4.32143 7.44887 3.33928 7.22817 2.73214C7.00746 2.125 6.58444 1.71429 5.9591 1.5C5.37055 1.28571 4.41415 1.14286 3.0899 1.07143V0C4.63486 0.107141 6.95228 0.160712 10.0422 0.160712C13.0585 0.160712 15.4311 0.107141 17.16 0V1.07143C15.8358 1.14286 14.861 1.28571 14.2356 1.5C13.6471 1.71429 13.2424 2.125 13.0217 2.73214C12.801 3.33928 12.6907 4.32143 12.6907 5.67857V25.2857C12.6907 28.3214 12.6355 31.0179 12.5251 33.375C12.4148 35.6964 12.1573 37.6607 11.7527 39.2679C11.0905 41.875 9.72952 43.9821 7.66958 45.5893C5.64643 47.1964 3.0899 48 0 48V46.9821Z" fill="#3B6075"/>
<path d="M27.7393 31.3016C26.5823 31.8773 24.883 32.1651 22.6413 32.1651H15.84V33.181H20.5804C26.4015 33.181 30.5414 33.2318 33 33.3334C32.7469 30.9291 32.6204 28.7619 32.6204 26.8318C32.6204 25.1048 32.6746 23.7164 32.7831 22.6667H31.5357C31.2826 25.1725 30.8849 27.0857 30.3425 28.4064C29.8002 29.727 28.9324 30.6921 27.7393 31.3016Z" fill="#3B6075"/>
</svg>
