<svg width="25" height="36" viewBox="0 0 25 36" fill="none" xmlns="http://www.w3.org/2000/svg">
<path d="M0 35.2366C1.9507 35.183 3.38585 34.4866 4.30547 33.1473C5.25295 31.808 5.72669 29.5446 5.72669 26.3571V4.25893C5.72669 3.24107 5.64309 2.50446 5.47588 2.04911C5.30868 1.59375 4.98821 1.28571 4.51447 1.125C4.0686 0.964284 3.34405 0.857141 2.34084 0.803571V0C3.51125 0.0803561 5.26688 0.120534 7.60772 0.120534C9.89282 0.120534 11.6902 0.0803561 13 0V0.803571C11.9968 0.857141 11.2583 0.964284 10.7846 1.125C10.3387 1.28571 10.0322 1.59375 9.86495 2.04911C9.69775 2.50446 9.61415 3.24107 9.61415 4.25893V18.9643C9.61415 21.2411 9.57235 23.2634 9.48875 25.0312C9.40514 26.7723 9.21007 28.2455 8.90354 29.4509C8.40193 31.4063 7.37085 32.9866 5.81029 34.192C4.2776 35.3973 2.34084 36 0 36V35.2366Z" fill="#93BEAE"/>
<path d="M21.0146 23.4762C20.1381 23.9079 18.8507 24.1238 17.1525 24.1238H12V24.8857H15.5912C20.0012 24.8857 23.1374 24.9238 25 25C24.8083 23.1968 24.7124 21.5714 24.7124 20.1238C24.7124 18.8286 24.7535 17.7873 24.8357 17H23.8907C23.6989 18.8794 23.3976 20.3143 22.9868 21.3048C22.5759 22.2952 21.9185 23.019 21.0146 23.4762Z" fill="#93BEAE"/>
</svg>
