<svg width="400" height="134" viewBox="0 0 400 134" fill="none" xmlns="http://www.w3.org/2000/svg">
<rect width="180" height="57" rx="8" fill="#162B9A"/>
<path d="M41.376 24.0059H44.4863C45.8171 24.0059 46.8242 24.1927 47.5078 24.5664C48.1914 24.9401 48.5332 25.5964 48.5332 26.5352C48.5332 26.9134 48.4717 27.2552 48.3486 27.5605C48.2301 27.8659 48.057 28.1165 47.8291 28.3125C47.6012 28.5085 47.3232 28.6361 46.9951 28.6953V28.7637C47.3278 28.832 47.6286 28.9505 47.8975 29.1191C48.1663 29.2832 48.3805 29.5247 48.54 29.8438C48.7041 30.1582 48.7861 30.5775 48.7861 31.1016C48.7861 31.7077 48.638 32.2272 48.3418 32.6602C48.0456 33.0931 47.6217 33.4258 47.0703 33.6582C46.5234 33.8861 45.8717 34 45.1152 34H41.376V24.0059ZM43.4951 27.9639H44.7256C45.3408 27.9639 45.7669 27.8682 46.0039 27.6768C46.2409 27.4808 46.3594 27.1937 46.3594 26.8154C46.3594 26.4326 46.2181 26.1592 45.9355 25.9951C45.6576 25.8265 45.2155 25.7422 44.6094 25.7422H43.4951V27.9639ZM43.4951 29.6455V32.25H44.876C45.514 32.25 45.9583 32.127 46.209 31.8809C46.4596 31.6348 46.585 31.3044 46.585 30.8896C46.585 30.6436 46.5303 30.4271 46.4209 30.2402C46.3115 30.0534 46.127 29.9076 45.8672 29.8027C45.612 29.6979 45.2588 29.6455 44.8076 29.6455H43.4951ZM49.5244 26.3574H51.8076L53.25 30.6572C53.2956 30.7939 53.3343 30.9329 53.3662 31.0742C53.3981 31.2155 53.4255 31.3613 53.4482 31.5117C53.471 31.6621 53.4893 31.8193 53.5029 31.9834H53.5439C53.5713 31.7373 53.6077 31.5072 53.6533 31.293C53.7035 31.0788 53.765 30.8669 53.8379 30.6572L55.2529 26.3574H57.4883L54.2549 34.9775C54.0589 35.5062 53.8037 35.946 53.4893 36.2969C53.1748 36.6523 52.8125 36.9189 52.4023 37.0967C51.9967 37.2744 51.5501 37.3633 51.0625 37.3633C50.8255 37.3633 50.6204 37.3496 50.4473 37.3223C50.2741 37.2995 50.126 37.2744 50.0029 37.2471V35.5928C50.0986 35.6156 50.2194 35.6361 50.3652 35.6543C50.5111 35.6725 50.6637 35.6816 50.8232 35.6816C51.1149 35.6816 51.3656 35.6201 51.5752 35.4971C51.7848 35.374 51.9603 35.2077 52.1016 34.998C52.2428 34.793 52.3545 34.5674 52.4365 34.3213L52.5596 33.9453L49.5244 26.3574ZM65.5 28.1211L67.585 24.0059H69.8682L66.5527 30.1104V34H64.4473V30.1787L61.1318 24.0059H63.4287L65.5 28.1211ZM74.1133 26.2139C74.8197 26.2139 75.4281 26.3506 75.9385 26.624C76.4489 26.8929 76.8431 27.2848 77.1211 27.7998C77.3991 28.3148 77.5381 28.9437 77.5381 29.6865V30.6982H72.6094C72.6322 31.2861 72.8076 31.7487 73.1357 32.0859C73.4684 32.4186 73.9287 32.585 74.5166 32.585C75.0042 32.585 75.4508 32.5348 75.8564 32.4346C76.262 32.3343 76.679 32.1839 77.1074 31.9834V33.5967C76.7292 33.7835 76.3327 33.9202 75.918 34.0068C75.5078 34.0934 75.0088 34.1367 74.4209 34.1367C73.6553 34.1367 72.9762 33.9954 72.3838 33.7129C71.7959 33.4303 71.3333 32.9997 70.9961 32.4209C70.6634 31.8421 70.4971 31.113 70.4971 30.2334C70.4971 29.3402 70.6475 28.5973 70.9482 28.0049C71.2536 27.4079 71.6774 26.9613 72.2197 26.665C72.762 26.3643 73.3932 26.2139 74.1133 26.2139ZM74.127 27.6973C73.7214 27.6973 73.3841 27.8271 73.1152 28.0869C72.8509 28.3467 72.6982 28.7546 72.6572 29.3105H75.583C75.5785 29.0007 75.5215 28.7249 75.4121 28.4834C75.3073 28.2419 75.1478 28.0505 74.9336 27.9092C74.724 27.7679 74.4551 27.6973 74.127 27.6973ZM82.3643 26.2002C83.3896 26.2002 84.1758 26.4235 84.7227 26.8701C85.2695 27.3167 85.543 27.9958 85.543 28.9072V34H84.0869L83.6836 32.9609H83.6289C83.4102 33.2344 83.1868 33.4577 82.959 33.6309C82.7311 33.804 82.4691 33.9316 82.1729 34.0137C81.8766 34.0957 81.5166 34.1367 81.0928 34.1367C80.6416 34.1367 80.236 34.0501 79.876 33.877C79.5205 33.7038 79.2402 33.4395 79.0352 33.084C78.8301 32.724 78.7275 32.2682 78.7275 31.7168C78.7275 30.9056 79.0124 30.3086 79.582 29.9258C80.1517 29.5384 81.0062 29.3242 82.1455 29.2832L83.4717 29.2422V28.9072C83.4717 28.5062 83.3669 28.2122 83.1572 28.0254C82.9476 27.8385 82.6559 27.7451 82.2822 27.7451C81.9131 27.7451 81.5508 27.7975 81.1953 27.9023C80.8398 28.0072 80.4844 28.1393 80.1289 28.2988L79.4385 26.8906C79.8441 26.6764 80.2975 26.5078 80.7988 26.3848C81.3047 26.2617 81.8265 26.2002 82.3643 26.2002ZM83.4717 30.459L82.665 30.4863C81.9906 30.5046 81.5212 30.6253 81.2568 30.8486C80.9971 31.0719 80.8672 31.3659 80.8672 31.7305C80.8672 32.0495 80.9606 32.2773 81.1475 32.4141C81.3343 32.5462 81.5781 32.6123 81.8789 32.6123C82.3255 32.6123 82.7015 32.4801 83.0068 32.2158C83.3167 31.9515 83.4717 31.5755 83.4717 31.0879V30.459ZM91.9619 26.2139C92.0667 26.2139 92.1875 26.2207 92.3242 26.2344C92.4655 26.2435 92.5794 26.2572 92.666 26.2754L92.5088 28.2305C92.4404 28.2077 92.3424 28.1917 92.2148 28.1826C92.0918 28.1689 91.9847 28.1621 91.8936 28.1621C91.6247 28.1621 91.3626 28.1963 91.1074 28.2646C90.8568 28.333 90.6312 28.4447 90.4307 28.5996C90.2301 28.75 90.0706 28.9505 89.9521 29.2012C89.8382 29.4473 89.7812 29.7503 89.7812 30.1104V34H87.6963V26.3574H89.2754L89.583 27.6426H89.6855C89.8359 27.3828 90.0228 27.1458 90.2461 26.9316C90.474 26.7129 90.7314 26.5397 91.0186 26.4121C91.3102 26.2799 91.6247 26.2139 91.9619 26.2139ZM102.086 34L99.6797 26.1592H99.6182C99.6273 26.346 99.641 26.6286 99.6592 27.0068C99.682 27.3805 99.7025 27.7793 99.7207 28.2031C99.7389 28.627 99.748 29.0098 99.748 29.3516V34H97.8545V24.0059H100.739L103.104 31.6484H103.146L105.654 24.0059H108.539V34H106.563V29.2695C106.563 28.9551 106.568 28.5928 106.577 28.1826C106.591 27.7725 106.607 27.3828 106.625 27.0137C106.643 26.64 106.657 26.3597 106.666 26.1729H106.604L104.027 34H102.086ZM117.843 30.165C117.843 30.8031 117.756 31.3682 117.583 31.8604C117.414 32.3525 117.166 32.7695 116.838 33.1113C116.514 33.4486 116.122 33.7038 115.662 33.877C115.206 34.0501 114.691 34.1367 114.117 34.1367C113.579 34.1367 113.085 34.0501 112.634 33.877C112.187 33.7038 111.798 33.4486 111.465 33.1113C111.137 32.7695 110.882 32.3525 110.699 31.8604C110.521 31.3682 110.433 30.8031 110.433 30.165C110.433 29.3174 110.583 28.5996 110.884 28.0117C111.185 27.4238 111.613 26.9772 112.169 26.6719C112.725 26.3665 113.388 26.2139 114.158 26.2139C114.874 26.2139 115.507 26.3665 116.059 26.6719C116.615 26.9772 117.05 27.4238 117.364 28.0117C117.683 28.5996 117.843 29.3174 117.843 30.165ZM112.559 30.165C112.559 30.6663 112.613 31.0879 112.723 31.4297C112.832 31.7715 113.003 32.029 113.235 32.2021C113.468 32.3753 113.771 32.4619 114.145 32.4619C114.514 32.4619 114.812 32.3753 115.04 32.2021C115.272 32.029 115.441 31.7715 115.546 31.4297C115.655 31.0879 115.71 30.6663 115.71 30.165C115.71 29.6592 115.655 29.2399 115.546 28.9072C115.441 28.57 115.272 28.3171 115.04 28.1484C114.808 27.9798 114.505 27.8955 114.131 27.8955C113.579 27.8955 113.178 28.0846 112.928 28.4629C112.682 28.8411 112.559 29.4085 112.559 30.165ZM121.985 34.1367C121.133 34.1367 120.438 33.804 119.9 33.1387C119.367 32.4688 119.101 31.4867 119.101 30.1924C119.101 28.8844 119.372 27.8955 119.914 27.2256C120.456 26.5511 121.165 26.2139 122.04 26.2139C122.405 26.2139 122.726 26.264 123.004 26.3643C123.282 26.4645 123.521 26.599 123.722 26.7676C123.927 26.9362 124.1 27.1253 124.241 27.335H124.31C124.282 27.1891 124.248 26.9749 124.207 26.6924C124.171 26.4053 124.152 26.1113 124.152 25.8105V23.3633H126.244V34H124.645L124.241 33.0088H124.152C124.02 33.2184 123.854 33.4098 123.653 33.583C123.457 33.7516 123.223 33.8861 122.949 33.9863C122.676 34.0866 122.354 34.1367 121.985 34.1367ZM122.717 32.4756C123.286 32.4756 123.688 32.307 123.92 31.9697C124.157 31.6279 124.282 31.1152 124.296 30.4316V30.2061C124.296 29.4632 124.182 28.8958 123.954 28.5039C123.726 28.1074 123.302 27.9092 122.683 27.9092C122.222 27.9092 121.862 28.1074 121.603 28.5039C121.343 28.9004 121.213 29.4723 121.213 30.2197C121.213 30.9671 121.343 31.5299 121.603 31.9082C121.867 32.2865 122.238 32.4756 122.717 32.4756ZM131.576 26.2139C132.283 26.2139 132.891 26.3506 133.401 26.624C133.912 26.8929 134.306 27.2848 134.584 27.7998C134.862 28.3148 135.001 28.9437 135.001 29.6865V30.6982H130.072C130.095 31.2861 130.271 31.7487 130.599 32.0859C130.931 32.4186 131.392 32.585 131.979 32.585C132.467 32.585 132.914 32.5348 133.319 32.4346C133.725 32.3343 134.142 32.1839 134.57 31.9834V33.5967C134.192 33.7835 133.796 33.9202 133.381 34.0068C132.971 34.0934 132.472 34.1367 131.884 34.1367C131.118 34.1367 130.439 33.9954 129.847 33.7129C129.259 33.4303 128.796 32.9997 128.459 32.4209C128.126 31.8421 127.96 31.113 127.96 30.2334C127.96 29.3402 128.11 28.5973 128.411 28.0049C128.716 27.4079 129.14 26.9613 129.683 26.665C130.225 26.3643 130.856 26.2139 131.576 26.2139ZM131.59 27.6973C131.184 27.6973 130.847 27.8271 130.578 28.0869C130.314 28.3467 130.161 28.7546 130.12 29.3105H133.046C133.041 29.0007 132.984 28.7249 132.875 28.4834C132.77 28.2419 132.611 28.0505 132.396 27.9092C132.187 27.7679 131.918 27.6973 131.59 27.6973ZM138.781 34H136.696V23.3633H138.781V34Z" fill="white"/>
<rect x="220" width="180" height="57" rx="8" fill="#162B9A"/>
<path d="M273.565 24.0059H276.676C278.007 24.0059 279.014 24.1927 279.697 24.5664C280.381 24.9401 280.723 25.5964 280.723 26.5352C280.723 26.9134 280.661 27.2552 280.538 27.5605C280.42 27.8659 280.246 28.1165 280.019 28.3125C279.791 28.5085 279.513 28.6361 279.185 28.6953V28.7637C279.517 28.832 279.818 28.9505 280.087 29.1191C280.356 29.2832 280.57 29.5247 280.729 29.8438C280.894 30.1582 280.976 30.5775 280.976 31.1016C280.976 31.7077 280.827 32.2272 280.531 32.6602C280.235 33.0931 279.811 33.4258 279.26 33.6582C278.713 33.8861 278.061 34 277.305 34H273.565V24.0059ZM275.685 27.9639H276.915C277.53 27.9639 277.956 27.8682 278.193 27.6768C278.43 27.4808 278.549 27.1937 278.549 26.8154C278.549 26.4326 278.408 26.1592 278.125 25.9951C277.847 25.8265 277.405 25.7422 276.799 25.7422H275.685V27.9639ZM275.685 29.6455V32.25H277.065C277.703 32.25 278.148 32.127 278.398 31.8809C278.649 31.6348 278.774 31.3044 278.774 30.8896C278.774 30.6436 278.72 30.4271 278.61 30.2402C278.501 30.0534 278.316 29.9076 278.057 29.8027C277.801 29.6979 277.448 29.6455 276.997 29.6455H275.685ZM281.714 26.3574H283.997L285.439 30.6572C285.485 30.7939 285.524 30.9329 285.556 31.0742C285.588 31.2155 285.615 31.3613 285.638 31.5117C285.66 31.6621 285.679 31.8193 285.692 31.9834H285.733C285.761 31.7373 285.797 31.5072 285.843 31.293C285.893 31.0788 285.954 30.8669 286.027 30.6572L287.442 26.3574H289.678L286.444 34.9775C286.248 35.5062 285.993 35.946 285.679 36.2969C285.364 36.6523 285.002 36.9189 284.592 37.0967C284.186 37.2744 283.74 37.3633 283.252 37.3633C283.015 37.3633 282.81 37.3496 282.637 37.3223C282.464 37.2995 282.315 37.2744 282.192 37.2471V35.5928C282.288 35.6156 282.409 35.6361 282.555 35.6543C282.701 35.6725 282.853 35.6816 283.013 35.6816C283.304 35.6816 283.555 35.6201 283.765 35.4971C283.974 35.374 284.15 35.2077 284.291 34.998C284.432 34.793 284.544 34.5674 284.626 34.3213L284.749 33.9453L281.714 26.3574ZM300.697 34L299.973 31.6211H296.329L295.604 34H293.321L296.849 23.9648H299.439L302.98 34H300.697ZM299.467 29.8438L298.742 27.5195C298.697 27.3646 298.635 27.1663 298.558 26.9248C298.485 26.6787 298.41 26.4303 298.332 26.1797C298.259 25.9245 298.2 25.7035 298.154 25.5166C298.109 25.7035 298.045 25.9359 297.963 26.2139C297.885 26.4873 297.81 26.7471 297.737 26.9932C297.664 27.2393 297.612 27.4147 297.58 27.5195L296.862 29.8438H299.467ZM306.501 34.1367C305.649 34.1367 304.954 33.804 304.416 33.1387C303.883 32.4688 303.616 31.4867 303.616 30.1924C303.616 28.8844 303.887 27.8955 304.43 27.2256C304.972 26.5511 305.681 26.2139 306.556 26.2139C306.92 26.2139 307.242 26.264 307.52 26.3643C307.798 26.4645 308.037 26.599 308.237 26.7676C308.442 26.9362 308.616 27.1253 308.757 27.335H308.825C308.798 27.1891 308.764 26.9749 308.723 26.6924C308.686 26.4053 308.668 26.1113 308.668 25.8105V23.3633H310.76V34H309.16L308.757 33.0088H308.668C308.536 33.2184 308.369 33.4098 308.169 33.583C307.973 33.7516 307.738 33.8861 307.465 33.9863C307.191 34.0866 306.87 34.1367 306.501 34.1367ZM307.232 32.4756C307.802 32.4756 308.203 32.307 308.436 31.9697C308.673 31.6279 308.798 31.1152 308.812 30.4316V30.2061C308.812 29.4632 308.698 28.8958 308.47 28.5039C308.242 28.1074 307.818 27.9092 307.198 27.9092C306.738 27.9092 306.378 28.1074 306.118 28.5039C305.858 28.9004 305.729 29.4723 305.729 30.2197C305.729 30.9671 305.858 31.5299 306.118 31.9082C306.382 32.2865 306.754 32.4756 307.232 32.4756ZM320.597 34H318.478V25.7695H315.764V24.0059H323.311V25.7695H320.597V34ZM323.591 26.3574H325.874L327.316 30.6572C327.362 30.7939 327.401 30.9329 327.433 31.0742C327.465 31.2155 327.492 31.3613 327.515 31.5117C327.537 31.6621 327.556 31.8193 327.569 31.9834H327.61C327.638 31.7373 327.674 31.5072 327.72 31.293C327.77 31.0788 327.831 30.8669 327.904 30.6572L329.319 26.3574H331.555L328.321 34.9775C328.125 35.5062 327.87 35.946 327.556 36.2969C327.241 36.6523 326.879 36.9189 326.469 37.0967C326.063 37.2744 325.617 37.3633 325.129 37.3633C324.892 37.3633 324.687 37.3496 324.514 37.3223C324.34 37.2995 324.192 37.2744 324.069 37.2471V35.5928C324.165 35.6156 324.286 35.6361 324.432 35.6543C324.577 35.6725 324.73 35.6816 324.89 35.6816C325.181 35.6816 325.432 35.6201 325.642 35.4971C325.851 35.374 326.027 35.2077 326.168 34.998C326.309 34.793 326.421 34.5674 326.503 34.3213L326.626 33.9453L323.591 26.3574ZM336.907 26.2139C337.769 26.2139 338.464 26.5488 338.992 27.2188C339.525 27.8887 339.792 28.8708 339.792 30.165C339.792 31.0309 339.667 31.7601 339.416 32.3525C339.165 32.9404 338.819 33.3848 338.377 33.6855C337.935 33.9863 337.427 34.1367 336.853 34.1367C336.483 34.1367 336.167 34.0911 335.902 34C335.638 33.9043 335.412 33.7835 335.226 33.6377C335.039 33.4873 334.877 33.3278 334.74 33.1592H334.631C334.667 33.3415 334.695 33.5283 334.713 33.7197C334.731 33.9111 334.74 34.098 334.74 34.2803V37.3633H332.655V26.3574H334.351L334.645 27.3486H334.74C334.877 27.1436 335.043 26.9544 335.239 26.7812C335.435 26.6081 335.67 26.4714 335.943 26.3711C336.221 26.2663 336.543 26.2139 336.907 26.2139ZM336.237 27.8818C335.873 27.8818 335.583 27.957 335.369 28.1074C335.155 28.2578 334.998 28.4834 334.897 28.7842C334.802 29.085 334.749 29.4655 334.74 29.9258V30.1514C334.74 30.6436 334.786 31.0605 334.877 31.4023C334.973 31.7441 335.13 32.0039 335.349 32.1816C335.572 32.3594 335.877 32.4482 336.265 32.4482C336.584 32.4482 336.846 32.3594 337.051 32.1816C337.256 32.0039 337.409 31.7441 337.509 31.4023C337.614 31.056 337.666 30.6344 337.666 30.1377C337.666 29.3903 337.55 28.8275 337.317 28.4492C337.085 28.071 336.725 27.8818 336.237 27.8818ZM344.666 26.2139C345.372 26.2139 345.981 26.3506 346.491 26.624C347.002 26.8929 347.396 27.2848 347.674 27.7998C347.952 28.3148 348.091 28.9437 348.091 29.6865V30.6982H343.162C343.185 31.2861 343.36 31.7487 343.688 32.0859C344.021 32.4186 344.481 32.585 345.069 32.585C345.557 32.585 346.004 32.5348 346.409 32.4346C346.815 32.3343 347.232 32.1839 347.66 31.9834V33.5967C347.282 33.7835 346.885 33.9202 346.471 34.0068C346.061 34.0934 345.562 34.1367 344.974 34.1367C344.208 34.1367 343.529 33.9954 342.937 33.7129C342.349 33.4303 341.886 32.9997 341.549 32.4209C341.216 31.8421 341.05 31.113 341.05 30.2334C341.05 29.3402 341.2 28.5973 341.501 28.0049C341.806 27.4079 342.23 26.9613 342.772 26.665C343.315 26.3643 343.946 26.2139 344.666 26.2139ZM344.68 27.6973C344.274 27.6973 343.937 27.8271 343.668 28.0869C343.404 28.3467 343.251 28.7546 343.21 29.3105H346.136C346.131 29.0007 346.074 28.7249 345.965 28.4834C345.86 28.2419 345.701 28.0505 345.486 27.9092C345.277 27.7679 345.008 27.6973 344.68 27.6973Z" fill="white"/>
<rect y="77" width="180" height="57" rx="8" fill="#162B9A"/>
<path d="M52.5459 101.006H55.6562C56.987 101.006 57.9941 101.193 58.6777 101.566C59.3613 101.94 59.7031 102.596 59.7031 103.535C59.7031 103.913 59.6416 104.255 59.5186 104.561C59.4001 104.866 59.2269 105.117 58.999 105.312C58.7712 105.508 58.4932 105.636 58.165 105.695V105.764C58.4977 105.832 58.7985 105.951 59.0674 106.119C59.3363 106.283 59.5505 106.525 59.71 106.844C59.874 107.158 59.9561 107.577 59.9561 108.102C59.9561 108.708 59.8079 109.227 59.5117 109.66C59.2155 110.093 58.7917 110.426 58.2402 110.658C57.6934 110.886 57.0417 111 56.2852 111H52.5459V101.006ZM54.665 104.964H55.8955C56.5107 104.964 56.9368 104.868 57.1738 104.677C57.4108 104.481 57.5293 104.194 57.5293 103.815C57.5293 103.433 57.388 103.159 57.1055 102.995C56.8275 102.826 56.3854 102.742 55.7793 102.742H54.665V104.964ZM54.665 106.646V109.25H56.0459C56.6839 109.25 57.1283 109.127 57.3789 108.881C57.6296 108.635 57.7549 108.304 57.7549 107.89C57.7549 107.644 57.7002 107.427 57.5908 107.24C57.4814 107.053 57.2969 106.908 57.0371 106.803C56.7819 106.698 56.4287 106.646 55.9775 106.646H54.665ZM60.6943 103.357H62.9775L64.4199 107.657C64.4655 107.794 64.5042 107.933 64.5361 108.074C64.568 108.215 64.5954 108.361 64.6182 108.512C64.641 108.662 64.6592 108.819 64.6729 108.983H64.7139C64.7412 108.737 64.7777 108.507 64.8232 108.293C64.8734 108.079 64.9349 107.867 65.0078 107.657L66.4229 103.357H68.6582L65.4248 111.978C65.2288 112.506 64.9736 112.946 64.6592 113.297C64.3447 113.652 63.9824 113.919 63.5723 114.097C63.1667 114.274 62.7201 114.363 62.2324 114.363C61.9954 114.363 61.7904 114.35 61.6172 114.322C61.444 114.299 61.2959 114.274 61.1729 114.247V112.593C61.2686 112.616 61.3893 112.636 61.5352 112.654C61.681 112.673 61.8337 112.682 61.9932 112.682C62.2848 112.682 62.5355 112.62 62.7451 112.497C62.9548 112.374 63.1302 112.208 63.2715 111.998C63.4128 111.793 63.5244 111.567 63.6064 111.321L63.7295 110.945L60.6943 103.357ZM77.8047 102.626C77.3991 102.626 77.0391 102.706 76.7246 102.865C76.4147 103.02 76.1527 103.246 75.9385 103.542C75.7288 103.838 75.5693 104.196 75.46 104.615C75.3506 105.035 75.2959 105.506 75.2959 106.03C75.2959 106.737 75.3825 107.34 75.5557 107.842C75.7334 108.339 76.0068 108.719 76.376 108.983C76.7451 109.243 77.2214 109.373 77.8047 109.373C78.2103 109.373 78.6159 109.327 79.0215 109.236C79.4316 109.145 79.876 109.015 80.3545 108.847V110.624C79.9124 110.806 79.4772 110.936 79.0488 111.014C78.6204 111.096 78.1396 111.137 77.6064 111.137C76.5765 111.137 75.7288 110.925 75.0635 110.501C74.4027 110.073 73.9128 109.476 73.5938 108.71C73.2747 107.94 73.1152 107.042 73.1152 106.017C73.1152 105.26 73.2178 104.567 73.4229 103.938C73.6279 103.31 73.9287 102.765 74.3252 102.305C74.7217 101.844 75.2116 101.489 75.7949 101.238C76.3783 100.988 77.0482 100.862 77.8047 100.862C78.3014 100.862 78.7982 100.926 79.2949 101.054C79.7962 101.177 80.2747 101.348 80.7305 101.566L80.0469 103.289C79.6732 103.111 79.2972 102.956 78.9189 102.824C78.5407 102.692 78.1693 102.626 77.8047 102.626ZM89.2686 107.165C89.2686 107.803 89.182 108.368 89.0088 108.86C88.8402 109.353 88.5918 109.77 88.2637 110.111C87.9401 110.449 87.5482 110.704 87.0879 110.877C86.6322 111.05 86.1172 111.137 85.543 111.137C85.0052 111.137 84.5107 111.05 84.0596 110.877C83.613 110.704 83.2233 110.449 82.8906 110.111C82.5625 109.77 82.3073 109.353 82.125 108.86C81.9473 108.368 81.8584 107.803 81.8584 107.165C81.8584 106.317 82.0088 105.6 82.3096 105.012C82.6104 104.424 83.0387 103.977 83.5947 103.672C84.1507 103.367 84.8138 103.214 85.584 103.214C86.2995 103.214 86.9329 103.367 87.4844 103.672C88.0404 103.977 88.4756 104.424 88.79 105.012C89.109 105.6 89.2686 106.317 89.2686 107.165ZM83.9844 107.165C83.9844 107.666 84.0391 108.088 84.1484 108.43C84.2578 108.771 84.4287 109.029 84.6611 109.202C84.8936 109.375 85.1966 109.462 85.5703 109.462C85.9395 109.462 86.238 109.375 86.4658 109.202C86.6982 109.029 86.8669 108.771 86.9717 108.43C87.0811 108.088 87.1357 107.666 87.1357 107.165C87.1357 106.659 87.0811 106.24 86.9717 105.907C86.8669 105.57 86.6982 105.317 86.4658 105.148C86.2334 104.98 85.9303 104.896 85.5566 104.896C85.0052 104.896 84.6042 105.085 84.3535 105.463C84.1074 105.841 83.9844 106.409 83.9844 107.165ZM98.0049 103.357V111H96.4053L96.125 110.022H96.0156C95.8516 110.282 95.6465 110.494 95.4004 110.658C95.1543 110.822 94.8831 110.943 94.5869 111.021C94.2907 111.098 93.9831 111.137 93.6641 111.137C93.1172 111.137 92.641 111.041 92.2354 110.85C91.8298 110.654 91.513 110.351 91.2852 109.94C91.0618 109.53 90.9502 108.997 90.9502 108.341V103.357H93.0352V107.821C93.0352 108.368 93.1331 108.781 93.3291 109.059C93.5251 109.337 93.8372 109.476 94.2656 109.476C94.6895 109.476 95.0221 109.38 95.2637 109.188C95.5052 108.993 95.6738 108.708 95.7695 108.334C95.8698 107.956 95.9199 107.495 95.9199 106.953V103.357H98.0049ZM104.533 103.214C105.349 103.214 106.005 103.437 106.502 103.884C106.999 104.326 107.247 105.037 107.247 106.017V111H105.162V106.536C105.162 105.989 105.062 105.577 104.861 105.299C104.665 105.021 104.355 104.882 103.932 104.882C103.294 104.882 102.858 105.098 102.626 105.531C102.394 105.964 102.277 106.589 102.277 107.404V111H100.192V103.357H101.785L102.065 104.335H102.182C102.346 104.071 102.549 103.856 102.79 103.692C103.036 103.528 103.307 103.408 103.604 103.33C103.904 103.253 104.214 103.214 104.533 103.214ZM112.613 109.476C112.841 109.476 113.062 109.453 113.276 109.407C113.495 109.362 113.712 109.305 113.926 109.236V110.788C113.702 110.888 113.424 110.97 113.092 111.034C112.764 111.103 112.404 111.137 112.012 111.137C111.556 111.137 111.146 111.064 110.781 110.918C110.421 110.768 110.136 110.51 109.927 110.146C109.722 109.776 109.619 109.264 109.619 108.607V104.923H108.621V104.041L109.77 103.344L110.371 101.73H111.704V103.357H113.844V104.923H111.704V108.607C111.704 108.899 111.786 109.118 111.95 109.264C112.119 109.405 112.34 109.476 112.613 109.476ZM119.743 103.214C119.848 103.214 119.969 103.221 120.105 103.234C120.247 103.243 120.361 103.257 120.447 103.275L120.29 105.23C120.222 105.208 120.124 105.192 119.996 105.183C119.873 105.169 119.766 105.162 119.675 105.162C119.406 105.162 119.144 105.196 118.889 105.265C118.638 105.333 118.412 105.445 118.212 105.6C118.011 105.75 117.852 105.951 117.733 106.201C117.619 106.447 117.562 106.75 117.562 107.11V111H115.478V103.357H117.057L117.364 104.643H117.467C117.617 104.383 117.804 104.146 118.027 103.932C118.255 103.713 118.513 103.54 118.8 103.412C119.091 103.28 119.406 103.214 119.743 103.214ZM120.741 103.357H123.024L124.467 107.657C124.512 107.794 124.551 107.933 124.583 108.074C124.615 108.215 124.642 108.361 124.665 108.512C124.688 108.662 124.706 108.819 124.72 108.983H124.761C124.788 108.737 124.825 108.507 124.87 108.293C124.92 108.079 124.982 107.867 125.055 107.657L126.47 103.357H128.705L125.472 111.978C125.276 112.506 125.021 112.946 124.706 113.297C124.392 113.652 124.029 113.919 123.619 114.097C123.214 114.274 122.767 114.363 122.279 114.363C122.042 114.363 121.837 114.35 121.664 114.322C121.491 114.299 121.343 114.274 121.22 114.247V112.593C121.315 112.616 121.436 112.636 121.582 112.654C121.728 112.673 121.881 112.682 122.04 112.682C122.332 112.682 122.582 112.62 122.792 112.497C123.002 112.374 123.177 112.208 123.318 111.998C123.46 111.793 123.571 111.567 123.653 111.321L123.776 110.945L120.741 103.357Z" fill="white"/>
<rect x="220" y="77" width="180" height="57" rx="8" fill="#162B9A"/>
<path d="M246.461 101.006H249.571C250.902 101.006 251.909 101.193 252.593 101.566C253.276 101.94 253.618 102.596 253.618 103.535C253.618 103.913 253.557 104.255 253.434 104.561C253.315 104.866 253.142 105.117 252.914 105.312C252.686 105.508 252.408 105.636 252.08 105.695V105.764C252.413 105.832 252.714 105.951 252.982 106.119C253.251 106.283 253.465 106.525 253.625 106.844C253.789 107.158 253.871 107.577 253.871 108.102C253.871 108.708 253.723 109.227 253.427 109.66C253.131 110.093 252.707 110.426 252.155 110.658C251.608 110.886 250.957 111 250.2 111H246.461V101.006ZM248.58 104.964H249.811C250.426 104.964 250.852 104.868 251.089 104.677C251.326 104.481 251.444 104.194 251.444 103.815C251.444 103.433 251.303 103.159 251.021 102.995C250.743 102.826 250.3 102.742 249.694 102.742H248.58V104.964ZM248.58 106.646V109.25H249.961C250.599 109.25 251.043 109.127 251.294 108.881C251.545 108.635 251.67 108.304 251.67 107.89C251.67 107.644 251.615 107.427 251.506 107.24C251.396 107.053 251.212 106.908 250.952 106.803C250.697 106.698 250.344 106.646 249.893 106.646H248.58ZM254.609 103.357H256.893L258.335 107.657C258.381 107.794 258.419 107.933 258.451 108.074C258.483 108.215 258.51 108.361 258.533 108.512C258.556 108.662 258.574 108.819 258.588 108.983H258.629C258.656 108.737 258.693 108.507 258.738 108.293C258.788 108.079 258.85 107.867 258.923 107.657L260.338 103.357H262.573L259.34 111.978C259.144 112.506 258.889 112.946 258.574 113.297C258.26 113.652 257.897 113.919 257.487 114.097C257.082 114.274 256.635 114.363 256.147 114.363C255.91 114.363 255.705 114.35 255.532 114.322C255.359 114.299 255.211 114.274 255.088 114.247V112.593C255.184 112.616 255.304 112.636 255.45 112.654C255.596 112.673 255.749 112.682 255.908 112.682C256.2 112.682 256.451 112.62 256.66 112.497C256.87 112.374 257.045 112.208 257.187 111.998C257.328 111.793 257.439 111.567 257.521 111.321L257.645 110.945L254.609 103.357ZM271.706 111L269.3 103.159H269.238C269.247 103.346 269.261 103.629 269.279 104.007C269.302 104.381 269.323 104.779 269.341 105.203C269.359 105.627 269.368 106.01 269.368 106.352V111H267.475V101.006H270.359L272.725 108.648H272.766L275.274 101.006H278.159V111H276.184V106.27C276.184 105.955 276.188 105.593 276.197 105.183C276.211 104.772 276.227 104.383 276.245 104.014C276.263 103.64 276.277 103.36 276.286 103.173H276.225L273.647 111H271.706ZM287.463 107.165C287.463 107.803 287.376 108.368 287.203 108.86C287.035 109.353 286.786 109.77 286.458 110.111C286.134 110.449 285.743 110.704 285.282 110.877C284.826 111.05 284.312 111.137 283.737 111.137C283.2 111.137 282.705 111.05 282.254 110.877C281.807 110.704 281.418 110.449 281.085 110.111C280.757 109.77 280.502 109.353 280.319 108.86C280.142 108.368 280.053 107.803 280.053 107.165C280.053 106.317 280.203 105.6 280.504 105.012C280.805 104.424 281.233 103.977 281.789 103.672C282.345 103.367 283.008 103.214 283.778 103.214C284.494 103.214 285.127 103.367 285.679 103.672C286.235 103.977 286.67 104.424 286.984 105.012C287.303 105.6 287.463 106.317 287.463 107.165ZM282.179 107.165C282.179 107.666 282.233 108.088 282.343 108.43C282.452 108.771 282.623 109.029 282.855 109.202C283.088 109.375 283.391 109.462 283.765 109.462C284.134 109.462 284.432 109.375 284.66 109.202C284.893 109.029 285.061 108.771 285.166 108.43C285.275 108.088 285.33 107.666 285.33 107.165C285.33 106.659 285.275 106.24 285.166 105.907C285.061 105.57 284.893 105.317 284.66 105.148C284.428 104.98 284.125 104.896 283.751 104.896C283.2 104.896 282.799 105.085 282.548 105.463C282.302 105.841 282.179 106.409 282.179 107.165ZM291.605 111.137C290.753 111.137 290.058 110.804 289.521 110.139C288.987 109.469 288.721 108.487 288.721 107.192C288.721 105.884 288.992 104.896 289.534 104.226C290.076 103.551 290.785 103.214 291.66 103.214C292.025 103.214 292.346 103.264 292.624 103.364C292.902 103.465 293.141 103.599 293.342 103.768C293.547 103.936 293.72 104.125 293.861 104.335H293.93C293.902 104.189 293.868 103.975 293.827 103.692C293.791 103.405 293.772 103.111 293.772 102.811V100.363H295.864V111H294.265L293.861 110.009H293.772C293.64 110.218 293.474 110.41 293.273 110.583C293.077 110.752 292.843 110.886 292.569 110.986C292.296 111.087 291.975 111.137 291.605 111.137ZM292.337 109.476C292.907 109.476 293.308 109.307 293.54 108.97C293.777 108.628 293.902 108.115 293.916 107.432V107.206C293.916 106.463 293.802 105.896 293.574 105.504C293.346 105.107 292.923 104.909 292.303 104.909C291.842 104.909 291.482 105.107 291.223 105.504C290.963 105.9 290.833 106.472 290.833 107.22C290.833 107.967 290.963 108.53 291.223 108.908C291.487 109.286 291.858 109.476 292.337 109.476ZM301.196 103.214C301.903 103.214 302.511 103.351 303.021 103.624C303.532 103.893 303.926 104.285 304.204 104.8C304.482 105.315 304.621 105.944 304.621 106.687V107.698H299.692C299.715 108.286 299.891 108.749 300.219 109.086C300.551 109.419 301.012 109.585 301.6 109.585C302.087 109.585 302.534 109.535 302.939 109.435C303.345 109.334 303.762 109.184 304.19 108.983V110.597C303.812 110.784 303.416 110.92 303.001 111.007C302.591 111.093 302.092 111.137 301.504 111.137C300.738 111.137 300.059 110.995 299.467 110.713C298.879 110.43 298.416 110 298.079 109.421C297.746 108.842 297.58 108.113 297.58 107.233C297.58 106.34 297.73 105.597 298.031 105.005C298.337 104.408 298.76 103.961 299.303 103.665C299.845 103.364 300.476 103.214 301.196 103.214ZM301.21 104.697C300.804 104.697 300.467 104.827 300.198 105.087C299.934 105.347 299.781 105.755 299.74 106.311H302.666C302.661 106.001 302.604 105.725 302.495 105.483C302.39 105.242 302.231 105.05 302.017 104.909C301.807 104.768 301.538 104.697 301.21 104.697ZM308.401 111H306.316V100.363H308.401V111ZM318.642 102.626C318.236 102.626 317.876 102.706 317.562 102.865C317.252 103.02 316.99 103.246 316.775 103.542C316.566 103.838 316.406 104.196 316.297 104.615C316.188 105.035 316.133 105.506 316.133 106.03C316.133 106.737 316.219 107.34 316.393 107.842C316.57 108.339 316.844 108.719 317.213 108.983C317.582 109.243 318.058 109.373 318.642 109.373C319.047 109.373 319.453 109.327 319.858 109.236C320.269 109.145 320.713 109.015 321.191 108.847V110.624C320.749 110.806 320.314 110.936 319.886 111.014C319.457 111.096 318.977 111.137 318.443 111.137C317.413 111.137 316.566 110.925 315.9 110.501C315.24 110.073 314.75 109.476 314.431 108.71C314.112 107.94 313.952 107.042 313.952 106.017C313.952 105.26 314.055 104.567 314.26 103.938C314.465 103.31 314.766 102.765 315.162 102.305C315.559 101.844 316.049 101.489 316.632 101.238C317.215 100.988 317.885 100.862 318.642 100.862C319.138 100.862 319.635 100.926 320.132 101.054C320.633 101.177 321.112 101.348 321.567 101.566L320.884 103.289C320.51 103.111 320.134 102.956 319.756 102.824C319.378 102.692 319.006 102.626 318.642 102.626ZM326.291 103.2C327.316 103.2 328.103 103.424 328.649 103.87C329.196 104.317 329.47 104.996 329.47 105.907V111H328.014L327.61 109.961H327.556C327.337 110.234 327.114 110.458 326.886 110.631C326.658 110.804 326.396 110.932 326.1 111.014C325.803 111.096 325.443 111.137 325.02 111.137C324.568 111.137 324.163 111.05 323.803 110.877C323.447 110.704 323.167 110.439 322.962 110.084C322.757 109.724 322.654 109.268 322.654 108.717C322.654 107.906 322.939 107.309 323.509 106.926C324.078 106.538 324.933 106.324 326.072 106.283L327.398 106.242V105.907C327.398 105.506 327.294 105.212 327.084 105.025C326.874 104.839 326.583 104.745 326.209 104.745C325.84 104.745 325.478 104.798 325.122 104.902C324.767 105.007 324.411 105.139 324.056 105.299L323.365 103.891C323.771 103.676 324.224 103.508 324.726 103.385C325.231 103.262 325.753 103.2 326.291 103.2ZM327.398 107.459L326.592 107.486C325.917 107.505 325.448 107.625 325.184 107.849C324.924 108.072 324.794 108.366 324.794 108.73C324.794 109.049 324.887 109.277 325.074 109.414C325.261 109.546 325.505 109.612 325.806 109.612C326.252 109.612 326.628 109.48 326.934 109.216C327.243 108.951 327.398 108.576 327.398 108.088V107.459ZM334.843 109.476C335.071 109.476 335.292 109.453 335.506 109.407C335.725 109.362 335.941 109.305 336.155 109.236V110.788C335.932 110.888 335.654 110.97 335.321 111.034C334.993 111.103 334.633 111.137 334.241 111.137C333.785 111.137 333.375 111.064 333.011 110.918C332.651 110.768 332.366 110.51 332.156 110.146C331.951 109.776 331.849 109.264 331.849 108.607V104.923H330.851V104.041L331.999 103.344L332.601 101.73H333.934V103.357H336.073V104.923H333.934V108.607C333.934 108.899 334.016 109.118 334.18 109.264C334.348 109.405 334.569 109.476 334.843 109.476ZM340.858 103.214C341.565 103.214 342.173 103.351 342.684 103.624C343.194 103.893 343.588 104.285 343.866 104.8C344.144 105.315 344.283 105.944 344.283 106.687V107.698H339.354C339.377 108.286 339.553 108.749 339.881 109.086C340.214 109.419 340.674 109.585 341.262 109.585C341.749 109.585 342.196 109.535 342.602 109.435C343.007 109.334 343.424 109.184 343.853 108.983V110.597C343.474 110.784 343.078 110.92 342.663 111.007C342.253 111.093 341.754 111.137 341.166 111.137C340.4 111.137 339.721 110.995 339.129 110.713C338.541 110.43 338.078 110 337.741 109.421C337.409 108.842 337.242 108.113 337.242 107.233C337.242 106.34 337.393 105.597 337.693 105.005C337.999 104.408 338.423 103.961 338.965 103.665C339.507 103.364 340.138 103.214 340.858 103.214ZM340.872 104.697C340.466 104.697 340.129 104.827 339.86 105.087C339.596 105.347 339.443 105.755 339.402 106.311H342.328C342.324 106.001 342.267 105.725 342.157 105.483C342.052 105.242 341.893 105.05 341.679 104.909C341.469 104.768 341.2 104.697 340.872 104.697ZM348.214 114.363C347.147 114.363 346.332 114.176 345.767 113.803C345.206 113.434 344.926 112.914 344.926 112.244C344.926 111.784 345.069 111.399 345.356 111.089C345.644 110.779 346.065 110.558 346.621 110.426C346.407 110.335 346.22 110.187 346.061 109.981C345.901 109.772 345.821 109.551 345.821 109.318C345.821 109.027 345.906 108.785 346.074 108.594C346.243 108.398 346.487 108.206 346.806 108.02C346.405 107.846 346.086 107.568 345.849 107.186C345.616 106.803 345.5 106.352 345.5 105.832C345.5 105.276 345.621 104.804 345.862 104.417C346.108 104.025 346.464 103.727 346.929 103.521C347.398 103.316 347.968 103.214 348.638 103.214C348.779 103.214 348.943 103.223 349.13 103.241C349.317 103.259 349.488 103.28 349.643 103.303C349.802 103.326 349.909 103.344 349.964 103.357H352.63V104.417L351.434 104.725C351.543 104.893 351.625 105.073 351.68 105.265C351.734 105.456 351.762 105.659 351.762 105.873C351.762 106.693 351.475 107.334 350.9 107.794C350.331 108.25 349.538 108.478 348.521 108.478C348.28 108.464 348.052 108.446 347.838 108.423C347.733 108.505 347.653 108.591 347.599 108.683C347.544 108.774 347.517 108.869 347.517 108.97C347.517 109.07 347.558 109.154 347.64 109.223C347.726 109.286 347.854 109.337 348.022 109.373C348.196 109.405 348.41 109.421 348.665 109.421H349.964C350.802 109.421 351.44 109.601 351.878 109.961C352.32 110.321 352.541 110.85 352.541 111.547C352.541 112.44 352.167 113.133 351.42 113.625C350.677 114.117 349.608 114.363 348.214 114.363ZM348.303 113.003C348.799 113.003 349.226 112.955 349.581 112.859C349.941 112.768 350.217 112.636 350.408 112.463C350.6 112.294 350.695 112.091 350.695 111.854C350.695 111.663 350.638 111.51 350.524 111.396C350.415 111.287 350.246 111.21 350.019 111.164C349.795 111.118 349.508 111.096 349.157 111.096H348.077C347.822 111.096 347.592 111.137 347.387 111.219C347.186 111.301 347.027 111.415 346.908 111.561C346.79 111.711 346.73 111.884 346.73 112.08C346.73 112.367 346.867 112.593 347.141 112.757C347.419 112.921 347.806 113.003 348.303 113.003ZM348.638 107.206C349.03 107.206 349.317 107.085 349.499 106.844C349.681 106.602 349.772 106.274 349.772 105.859C349.772 105.399 349.677 105.055 349.485 104.827C349.299 104.595 349.016 104.479 348.638 104.479C348.255 104.479 347.968 104.595 347.776 104.827C347.585 105.055 347.489 105.399 347.489 105.859C347.489 106.274 347.583 106.602 347.77 106.844C347.961 107.085 348.25 107.206 348.638 107.206ZM360.84 107.165C360.84 107.803 360.753 108.368 360.58 108.86C360.411 109.353 360.163 109.77 359.835 110.111C359.511 110.449 359.119 110.704 358.659 110.877C358.203 111.05 357.688 111.137 357.114 111.137C356.576 111.137 356.082 111.05 355.631 110.877C355.184 110.704 354.795 110.449 354.462 110.111C354.134 109.77 353.879 109.353 353.696 108.86C353.519 108.368 353.43 107.803 353.43 107.165C353.43 106.317 353.58 105.6 353.881 105.012C354.182 104.424 354.61 103.977 355.166 103.672C355.722 103.367 356.385 103.214 357.155 103.214C357.871 103.214 358.504 103.367 359.056 103.672C359.612 103.977 360.047 104.424 360.361 105.012C360.68 105.6 360.84 106.317 360.84 107.165ZM355.556 107.165C355.556 107.666 355.61 108.088 355.72 108.43C355.829 108.771 356 109.029 356.232 109.202C356.465 109.375 356.768 109.462 357.142 109.462C357.511 109.462 357.809 109.375 358.037 109.202C358.27 109.029 358.438 108.771 358.543 108.43C358.652 108.088 358.707 107.666 358.707 107.165C358.707 106.659 358.652 106.24 358.543 105.907C358.438 105.57 358.27 105.317 358.037 105.148C357.805 104.98 357.502 104.896 357.128 104.896C356.576 104.896 356.175 105.085 355.925 105.463C355.679 105.841 355.556 106.409 355.556 107.165ZM366.828 103.214C366.933 103.214 367.054 103.221 367.19 103.234C367.332 103.243 367.446 103.257 367.532 103.275L367.375 105.23C367.307 105.208 367.209 105.192 367.081 105.183C366.958 105.169 366.851 105.162 366.76 105.162C366.491 105.162 366.229 105.196 365.974 105.265C365.723 105.333 365.497 105.445 365.297 105.6C365.096 105.75 364.937 105.951 364.818 106.201C364.704 106.447 364.647 106.75 364.647 107.11V111H362.562V103.357H364.142L364.449 104.643H364.552C364.702 104.383 364.889 104.146 365.112 103.932C365.34 103.713 365.598 103.54 365.885 103.412C366.176 103.28 366.491 103.214 366.828 103.214ZM367.826 103.357H370.109L371.552 107.657C371.597 107.794 371.636 107.933 371.668 108.074C371.7 108.215 371.727 108.361 371.75 108.512C371.773 108.662 371.791 108.819 371.805 108.983H371.846C371.873 108.737 371.91 108.507 371.955 108.293C372.005 108.079 372.067 107.867 372.14 107.657L373.555 103.357H375.79L372.557 111.978C372.361 112.506 372.105 112.946 371.791 113.297C371.477 113.652 371.114 113.919 370.704 114.097C370.299 114.274 369.852 114.363 369.364 114.363C369.127 114.363 368.922 114.35 368.749 114.322C368.576 114.299 368.428 114.274 368.305 114.247V112.593C368.4 112.616 368.521 112.636 368.667 112.654C368.813 112.673 368.965 112.682 369.125 112.682C369.417 112.682 369.667 112.62 369.877 112.497C370.087 112.374 370.262 112.208 370.403 111.998C370.545 111.793 370.656 111.567 370.738 111.321L370.861 110.945L367.826 103.357Z" fill="white"/>
</svg>
