<svg width="48" height="48" viewBox="0 0 48 48" fill="none" xmlns="http://www.w3.org/2000/svg">
<circle cx="24" cy="24" r="24" fill="#E7E7E7"/>
<path fill-rule="evenodd" clip-rule="evenodd" d="M35.5597 16.4401C35.8405 16.7214 35.9983 17.1026 35.9983 17.5001C35.9983 17.8976 35.8405 18.2789 35.5597 18.5601L21.0597 33.0601C20.7784 33.3409 20.3972 33.4987 19.9997 33.4987C19.6022 33.4987 19.2209 33.3409 18.9397 33.0601L12.4397 26.5601C12.1747 26.2758 12.0305 25.8997 12.0373 25.5111C12.0442 25.1225 12.2016 24.7517 12.4765 24.4769C12.7513 24.2021 13.1221 24.0446 13.5107 24.0378C13.8993 24.0309 14.2753 24.1752 14.5597 24.4401L19.9997 29.8801L33.4397 16.4401C33.7209 16.1592 34.1021 16.0015 34.4997 16.0015C34.8971 16.0015 35.2785 16.1592 35.5597 16.4401Z" fill="#529E55"/>
</svg>
