<svg width="110" height="110" viewBox="0 0 110 110" fill="none" xmlns="http://www.w3.org/2000/svg">
<path d="M55 69.1936C62.826 69.1936 69.1936 62.826 69.1936 55C69.1936 47.174 62.826 40.8065 55 40.8065C47.174 40.8065 40.8065 47.174 40.8065 55C40.8065 62.826 47.174 69.1936 55 69.1936ZM55 44.3548C60.8708 44.3548 65.6452 49.1292 65.6452 55C65.6452 60.8708 60.8708 65.6452 55 65.6452C49.1292 65.6452 44.3548 60.8708 44.3548 55C44.3548 49.1292 49.1292 44.3548 55 44.3548Z" fill="white"/>
<path d="M55 62.0967C58.9138 62.0967 62.0967 58.9138 62.0967 55C62.0967 51.0861 58.9138 47.9032 55 47.9032C51.0861 47.9032 47.9032 51.0861 47.9032 55C47.9032 58.9138 51.0861 62.0967 55 62.0967ZM55 51.4516C56.9569 51.4516 58.5484 53.043 58.5484 55C58.5484 56.9569 56.9569 58.5484 55 58.5484C53.043 58.5484 51.4516 56.9569 51.4516 55C51.4516 53.043 53.043 51.4516 55 51.4516Z" fill="white"/>
<path d="M43.3435 75.9603L46.4448 74.4771C46.7216 74.5995 47.0002 74.7166 47.2805 74.8248L48.4213 78.0645H61.5769L62.7213 74.8248C62.9998 74.7148 63.2784 74.5995 63.5569 74.4771L66.6582 75.9603L75.9621 66.6564L74.4789 63.5552C74.6013 63.2784 74.7184 62.9998 74.8266 62.7195L78.0645 61.5787V48.4231L74.8248 47.2787C74.7148 47.0002 74.5995 46.7216 74.4771 46.4431L75.9603 43.3418L66.6564 34.0379L63.5552 35.5211C63.2784 35.3987 62.9998 35.2816 62.7195 35.1734L61.5787 31.9355H48.4231L47.2787 35.1752C47.0002 35.2852 46.7216 35.4005 46.4431 35.5229L43.3418 34.0397L34.0379 43.3435L35.5211 46.4448C35.3987 46.7216 35.2816 47.0002 35.1734 47.2805L31.9355 48.4213V61.5769L35.1752 62.7213C35.2852 62.9998 35.4005 63.2784 35.5229 63.5569L34.0397 66.6582L43.3435 75.9603ZM35.4839 59.0664V50.9318L37.9535 50.0606L38.2321 49.2481C38.4645 48.5685 38.7502 47.8837 39.0802 47.2131L39.4581 46.4413L38.3261 44.0745L44.0781 38.3226L46.4448 39.4545L47.2166 39.0766C47.8873 38.7466 48.5721 38.4627 49.2516 38.2286L50.0642 37.95L50.9335 35.4839H59.0682L59.9394 37.9535L60.7519 38.2321C61.4315 38.4645 62.1163 38.7502 62.7869 39.0802L63.5587 39.4581L65.9255 38.3261L71.6774 44.0781L70.5455 46.4448L70.9234 47.2166C71.2534 47.8873 71.5373 48.5721 71.7714 49.2516L72.05 50.0642L74.5161 50.9335V59.0682L72.0465 59.9393L71.7679 60.7519C71.5355 61.4314 71.2498 62.1163 70.9198 62.7869L70.5419 63.5587L71.6739 65.9255L65.9219 71.6774L63.5552 70.5455L62.7834 70.9234C62.1127 71.2534 61.4279 71.5372 60.7484 71.7714L59.9358 72.05L59.0664 74.5161H50.9318L50.0606 72.0464L49.2481 71.7679C48.5685 71.5355 47.8837 71.2498 47.2131 70.9198L46.4413 70.5419L44.0745 71.6739L38.3226 65.9219L39.4545 63.5552L39.0766 62.7834C38.7466 62.1127 38.4627 61.4279 38.2286 60.7484L37.95 59.9358L35.4839 59.0664Z" fill="white"/>
<path d="M23.0645 81.6129H5.32258C2.38806 81.6129 0 84.001 0 86.9355V104.677C0 107.612 2.38806 110 5.32258 110H23.0645C25.999 110 28.3871 107.612 28.3871 104.677V86.9355C28.3871 84.001 25.999 81.6129 23.0645 81.6129ZM24.8387 104.677C24.8387 105.655 24.0421 106.452 23.0645 106.452H5.32258C4.345 106.452 3.54839 105.655 3.54839 104.677V86.9355C3.54839 85.9579 4.345 85.1613 5.32258 85.1613H23.0645C24.0421 85.1613 24.8387 85.9579 24.8387 86.9355V104.677Z" fill="white"/>
<path d="M104.677 40.8065H86.9355C84.001 40.8065 81.6129 43.1945 81.6129 46.129V63.871C81.6129 66.8055 84.001 69.1936 86.9355 69.1936H104.677C107.612 69.1936 110 66.8055 110 63.871V46.129C110 43.1945 107.612 40.8065 104.677 40.8065ZM106.452 63.871C106.452 64.8486 105.655 65.6452 104.677 65.6452H86.9355C85.9579 65.6452 85.1613 64.8486 85.1613 63.871V46.129C85.1613 45.1515 85.9579 44.3548 86.9355 44.3548H104.677C105.655 44.3548 106.452 45.1515 106.452 46.129V63.871Z" fill="white"/>
<path d="M15.9677 28.3871H33.7097C36.6442 28.3871 39.0322 25.999 39.0322 23.0645V5.32258C39.0322 2.38806 36.6442 0 33.7097 0H15.9677C13.0332 0 10.6451 2.38806 10.6451 5.32258V23.0645C10.6451 25.999 13.0332 28.3871 15.9677 28.3871ZM14.1935 5.32258C14.1935 4.345 14.9901 3.54839 15.9677 3.54839H33.7097C34.6872 3.54839 35.4839 4.345 35.4839 5.32258V23.0645C35.4839 24.0421 34.6872 24.8387 33.7097 24.8387H15.9677C14.9901 24.8387 14.1935 24.0421 14.1935 23.0645V5.32258Z" fill="white"/>
<path d="M10.6451 98.6203L8.35112 96.3263L5.84241 98.835L10.6451 103.638L22.5447 91.7382L20.036 89.2295L10.6451 98.6203Z" fill="white"/>
<path d="M33.1898 10.1253L30.6811 7.61658L21.2903 17.0074L18.9963 14.7134L16.4875 17.2221L21.2903 22.0248L33.1898 10.1253Z" fill="white"/>
<path d="M92.2581 57.8138L89.964 55.5198L87.4553 58.0285L92.2581 62.8313L104.158 50.9317L101.649 48.423L92.2581 57.8138Z" fill="white"/>
<path d="M81.1818 78.1177L82.0423 81.5596L92.1268 79.0385C83.9814 91.6566 70.1144 99.3548 55 99.3548C48.5082 99.3548 42.2524 97.9851 36.4082 95.283L34.9197 98.5032C41.234 101.424 47.9902 102.903 55 102.903C71.0724 102.903 85.8337 94.8483 94.6834 81.6058L95.8206 90.7038L99.3406 90.2638L97.3181 74.0832L81.1818 78.1177Z" fill="white"/>
<path d="M19.4682 62.5085L16.0174 61.6835L13.8529 70.7425C11.7309 65.4909 10.6451 60.2127 10.6451 55.0001C10.6451 48.4533 12.0379 42.1496 14.7843 36.261L11.5677 34.7601C8.60127 41.1223 7.09675 47.9317 7.09675 55.0001C7.09675 60.6473 8.25885 66.3443 10.5298 71.9951L2.63111 67.6394L0.917236 70.7478L15.5685 78.824L19.4682 62.5085Z" fill="white"/>
<path d="M57.7589 14.4916L51.9892 10.6451H55C71.5976 10.6451 86.68 19.7964 94.3587 34.5276L97.5044 32.8864C89.2136 16.979 72.9265 7.09674 55 7.09674H51.9892L57.7589 3.25029L55.7913 0.298035L42.9302 8.87094L55.7895 17.4438L57.7589 14.4916Z" fill="white"/>
</svg>
