<svg width="46" height="88" viewBox="0 0 46 88" fill="none" xmlns="http://www.w3.org/2000/svg">
<path d="M5.98647 0.918945H39.3209C40.8669 1.01527 42.3162 1.68954 43.379 2.74911C44.4419 3.80867 45.0216 5.25354 45.1182 6.6984V81.8314C45.0216 83.3726 44.3453 84.9138 43.1858 85.9733C42.123 86.9366 40.7703 87.5145 39.3209 87.6108H5.98647C4.44053 87.5145 2.89458 86.8402 1.83175 85.6843C0.86553 84.6248 0.2858 83.2762 0.189178 81.8314V6.6984C0.2858 5.15722 0.962151 3.61603 2.12161 2.55646C3.08783 1.59322 4.53715 1.01527 5.98647 0.918945ZM3.08783 6.79473C3.08783 8.91386 3.08783 10.9367 3.08783 13.0558C16.2284 13.0558 29.2723 13.0558 42.4128 13.0558C42.4128 10.9367 42.4128 8.91386 42.4128 6.79473C42.3162 5.15722 40.8669 3.71235 39.2243 3.71235C28.2094 3.71235 17.2912 3.71235 6.27634 3.71235C4.53715 3.71235 3.08783 5.15722 3.08783 6.79473ZM3.08783 15.8492C3.08783 34.1508 3.08783 52.5488 3.08783 70.8504C16.2284 70.8504 29.2723 70.8504 42.4128 70.8504C42.4128 52.5488 42.4128 34.1508 42.4128 15.8492C29.1757 15.8492 16.0351 15.8492 3.08783 15.8492ZM3.08783 73.6438C3.08783 76.2446 3.08783 78.9416 3.08783 81.5424C3.08783 82.4093 3.47431 83.2762 4.05404 83.9505C4.63377 84.5285 5.50337 84.8174 6.27634 84.8174C17.1946 84.8174 28.1128 84.8174 39.1277 84.8174C40.7703 84.8174 42.2196 83.3726 42.3162 81.7351C42.3162 79.038 42.3162 76.3409 42.3162 73.6438C29.1757 73.6438 16.0351 73.6438 3.08783 73.6438Z" fill="white"/>
<path d="M17.5811 7.46901C17.7743 7.37268 17.8709 7.37268 18.0642 7.37268C21.1561 7.37268 24.248 7.37268 27.3399 7.37268C27.823 7.37268 28.3061 7.75798 28.3061 8.33592C28.3061 8.81755 27.9196 9.29917 27.3399 9.29917C24.248 9.29917 21.0594 9.29917 17.9675 9.29917C17.4844 9.29917 17.098 8.91387 17.0013 8.43225C16.9047 8.04695 17.1946 7.66165 17.5811 7.46901Z" fill="white"/>
<path d="M16.0351 31.55C18.6439 38.1001 21.1561 44.6502 23.7649 51.2002C23.0885 51.2002 22.4121 51.2002 21.7358 51.2002C20.8662 48.9848 19.9966 46.8656 19.2236 44.6502C17.098 44.6502 15.0689 44.6502 12.9432 44.6502C12.0736 46.8656 11.204 48.9848 10.4311 51.2002C9.75471 51.2002 9.07836 51.2002 8.40201 51.2002C10.9142 44.6502 13.523 38.1001 16.0351 31.55ZM16.0351 36.7516C15.2621 38.7744 14.3926 40.8935 13.6196 42.9163C15.2621 42.9163 16.8081 42.9163 18.4507 42.9163C17.6777 40.7972 16.9047 38.7744 16.0351 36.7516Z" fill="white"/>
<path d="M26.8567 41.7605C27.9196 40.7009 29.4655 40.0266 30.9148 40.0266C32.3642 40.0266 33.7169 40.6046 34.7797 41.5678C34.7797 41.0862 34.7797 40.5082 34.7797 40.0266C35.3594 40.0266 36.0358 40.0266 36.6155 40.0266C36.6155 43.7833 36.6155 47.4436 36.6155 51.2002C36.0358 51.2002 35.3594 51.2002 34.7797 51.2002C34.7797 50.7186 34.7797 50.1407 34.7797 49.659C33.8135 50.6223 32.4608 51.2002 31.1081 51.2002C29.6588 51.2966 28.1128 50.7186 27.05 49.659C25.9871 48.5995 25.3108 47.1546 25.3108 45.7097C25.3108 44.3612 25.7939 42.82 26.8567 41.7605ZM30.1419 42.0494C29.079 42.2421 28.1128 43.0127 27.6297 43.9759C27.1466 44.9392 27.05 45.9987 27.5331 47.0583C27.9196 48.0215 28.6926 48.7921 29.5621 49.1774C30.4317 49.5627 31.4946 49.5627 32.3642 49.1774C33.3304 48.7921 34.1034 48.0215 34.4899 46.962C34.8763 45.9987 34.7797 44.8428 34.2966 43.9759C33.427 42.531 31.6878 41.6641 30.1419 42.0494Z" fill="white"/>
<path d="M21.7358 75.3776C22.702 75.1849 23.6682 75.3776 24.4412 75.8592C25.2142 76.3408 25.8905 77.1114 26.1804 77.9784C26.4703 78.9416 26.4703 80.0012 26.0838 80.8681C25.6973 81.8313 24.8277 82.6019 23.8615 82.9872C22.8953 83.3725 21.8324 83.2762 20.8662 82.8909C19.9966 82.5056 19.3203 81.735 18.9338 80.8681C18.4507 79.8085 18.5473 78.46 19.127 77.4004C19.6101 76.3408 20.5763 75.5702 21.7358 75.3776ZM21.929 77.3041C21.2527 77.4967 20.673 78.0747 20.4797 78.8453C20.2865 79.5195 20.5763 80.3865 21.1561 80.8681C21.7358 81.3497 22.5088 81.446 23.1851 81.2534C23.8615 80.9644 24.3446 80.3865 24.4412 79.6159C24.5378 78.9416 24.248 78.2673 23.7649 77.7857C23.3784 77.2078 22.5088 77.1114 21.929 77.3041Z" fill="white"/>
</svg>
