<svg width="495" height="327" viewBox="0 0 495 327" fill="none" xmlns="http://www.w3.org/2000/svg">
<path d="M203.472 31.6487C141.539 6.26018 125.414 24.3451 53.586 70.6009C3.74614 102.721 -17.1426 151.983 16.2061 151.983C49.5549 151.983 113.141 149.113 65.5 190.5C17.8589 231.887 -17.1426 293.533 39.2937 298.402C95.7301 303.271 148.502 269.188 158.763 314.052C169.024 358.917 419 265.5 386 249C353 232.5 388.475 213.5 451 173.5C533.089 120.984 480.89 64.3408 440.945 52.1682C400.999 39.9956 428.118 0 351.16 0C274.201 0 265.406 57.0372 203.472 31.6487Z" fill="#3B6075"/>
</svg>
