<svg width="375" height="327" viewBox="0 0 375 327" fill="none" xmlns="http://www.w3.org/2000/svg">
<path d="M143.472 31.6487C81.5388 6.26018 65.4141 24.3451 -6.41396 70.6009C-56.2539 102.721 -77.1426 151.983 -43.7939 151.983C-10.4451 151.983 53.1411 149.113 5.5 190.5C-42.1411 231.887 -77.1426 293.533 -20.7063 298.402C35.7301 303.271 88.5018 269.188 98.7629 314.052C109.024 358.917 359 265.5 326 249C293 232.5 328.475 213.5 391 173.5C473.089 120.984 420.89 64.3408 380.945 52.1682C340.999 39.9956 368.118 0 291.16 0C214.201 0 205.406 57.0372 143.472 31.6487Z" fill="#3B6075"/>
</svg>
