<svg width="835" height="69" viewBox="0 0 835 69" fill="none" xmlns="http://www.w3.org/2000/svg">
<path d="M6.02213e-06 1.0969e-05L834.5 8.39233e-05L834.5 42.5001C827 47.0001 809.7 52.3001 804.5 35.5001C798 14.5001 759 7.73229e-05 679.5 23.5001C600 47.0001 628 9.00007 597.5 8.00007C586.404 7.63627 549.5 16.5001 531 43.0001C501.383 85.4245 440.5 30.0001 415.5 20.0001C390.5 10.0001 323 9.50004 227 38.5C131 67.5 95 80.5 61 56C33.8 36.4 9 38.5 2.35038e-06 42L6.02213e-06 1.0969e-05Z" fill="#38373A"/>
</svg>
