<svg width="834" height="69" viewBox="0 0 834 69" fill="none" xmlns="http://www.w3.org/2000/svg">
<path d="M0.500006 1.0969e-05L835 8.39233e-05L835 42.5001C827.5 47.0001 810.2 52.3001 805 35.5001C798.5 14.5001 759.5 7.73229e-05 680 23.5001C600.5 47.0001 628.5 9.00007 598 8.00007C586.904 7.63627 550 16.5001 531.5 43.0001C501.883 85.4245 441 30.0001 416 20.0001C391 10.0001 323.5 9.50004 227.5 38.5C131.5 67.5 95.5 80.5 61.5 56C34.3 36.4 9.5 38.5 0.500002 42L0.500006 1.0969e-05Z" fill="#38373A"/>
</svg>
