<svg width="1440" height="69" viewBox="0 0 1440 69" fill="none" xmlns="http://www.w3.org/2000/svg">
<path d="M6.03216e-06 3.81091e-06L1440 0.0001297L1440 42.5709C1427.06 47.0784 1397.21 52.3872 1388.23 35.5592C1377.02 14.5243 1309.72 0.00011831 1172.53 23.5392C1035.35 47.0784 1083.67 9.01509 1031.04 8.01342C1011.89 7.64901 948.209 16.5276 916.285 43.0717C865.179 85.5667 760.12 30.05 716.98 20.0334C673.841 10.0167 557.364 9.51586 391.708 38.5641C226.052 67.6124 163.931 80.6341 105.261 56.0933C58.3248 36.4606 15.5303 38.5641 2.35429e-06 42.0699L6.03216e-06 3.81091e-06Z" fill="#38373A"/>
</svg>
