<svg width="108" height="96" viewBox="0 0 108 96" fill="none" xmlns="http://www.w3.org/2000/svg">
<path d="M53.8358 44.2836C43.9851 44.2836 35.7761 52.3283 35.7761 62.1791C35.7761 72.0298 43.6567 80.2388 53.8358 80.2388C63.6866 80.2388 71.7314 72.194 71.7314 62.1791C71.7314 52.4925 63.6866 44.2836 53.8358 44.2836ZM44.3134 73.5075C45.9552 69.7313 49.7313 67.2686 53.8358 67.2686C57.9403 67.2686 61.7164 69.7313 63.3582 73.5075C60.7313 75.6418 57.4478 77.1194 53.8358 77.1194C50.2239 76.9552 46.9403 75.806 44.3134 73.5075ZM65.8209 70.8806C63.3582 66.6119 58.9254 63.9851 53.8358 63.9851C48.9105 63.9851 44.3134 66.6119 41.8508 70.8806C40.0448 68.4179 39.0597 65.4627 39.0597 62.3433C39.0597 54.2985 45.6269 47.7313 53.8358 47.7313C61.8806 47.7313 68.4478 54.2985 68.4478 62.3433C68.4478 65.4627 67.4627 68.4179 65.8209 70.8806Z" fill="white"/>
<path d="M53.8358 49.2089C49.8955 49.2089 46.6119 52.4925 46.6119 56.4328C46.6119 60.3731 49.8955 63.6567 53.8358 63.6567C57.7761 63.6567 61.0597 60.3731 61.0597 56.4328C61.0597 52.3283 57.7761 49.2089 53.8358 49.2089ZM53.8358 60.3731C51.7015 60.3731 49.8955 58.5671 49.8955 56.4328C49.8955 54.2985 51.7015 52.4925 53.8358 52.4925C55.9701 52.4925 57.7761 54.2985 57.7761 56.4328C57.7761 58.5671 55.9701 60.3731 53.8358 60.3731Z" fill="white"/>
<path d="M105.552 55.9403H96.0298C95.0448 55.9403 94.3881 56.597 94.3881 57.5821V60.7015H89.4627V42.1492C89.4627 39.3582 87.1642 37.2239 84.5373 37.2239H73.5373V22.4477H89.2985V25.5672C89.2985 26.5522 89.9552 27.2089 90.9403 27.2089H100.463C101.448 27.2089 102.104 26.5522 102.104 25.5672V16.0448C102.104 15.0597 101.448 14.403 100.463 14.403H90.9403C89.9552 14.403 89.2985 15.0597 89.2985 16.0448V19.1642H71.8955C70.9104 19.1642 70.2537 19.8209 70.2537 20.806V37.2239H54.9851V12.7612C57.7761 12.1045 59.7463 9.64178 59.7463 6.68655C59.7463 3.23879 56.9552 0.283569 53.3433 0.283569C49.7313 0.283569 46.9403 3.07461 46.9403 6.68655C46.9403 9.64178 48.9104 12.1045 51.7015 12.7612V37.0597H37.0895V20.6418C37.0895 19.6567 36.4328 19 35.4478 19H18.0448V15.8806C18.0448 14.8955 17.3881 14.2388 16.403 14.2388H6.88059C5.89552 14.2388 5.2388 14.8955 5.2388 15.8806V25.403C5.2388 26.388 5.89552 27.0448 6.88059 27.0448H16.403C17.3881 27.0448 18.0448 26.388 18.0448 25.403V22.2836H33.806V37.0597H23.2985C20.5075 37.0597 18.3731 39.3582 18.3731 41.9851V60.5373H13.1194C12.4627 57.7463 9.99999 55.7761 7.04477 55.7761C3.43283 55.7761 0.641785 58.7313 0.641785 62.1791C0.641785 63.8209 1.2985 65.4627 2.44775 66.6119C4.25372 68.4179 6.88059 69.0746 9.34328 67.9254C11.1492 67.1045 12.6269 65.6269 13.1194 63.6567H18.3731V83.8507H11.806C11.3134 83.8507 10.8209 84.0149 10.4925 84.5074C10.1642 84.8358 9.99999 85.4925 10.1642 85.9851L12.4627 94.6866C12.6269 95.3433 13.2836 95.8358 14.1045 95.8358H93.403C94.2239 95.8358 94.7164 95.3433 95.0448 94.6866L97.3433 85.9851C97.5075 85.4925 97.3433 85 97.0149 84.5074C96.6866 84.1791 96.194 83.8507 95.7015 83.8507H89.2985V63.9851H94.2239V67.1045C94.2239 68.0895 94.8806 68.7463 95.8657 68.7463H105.388C106.373 68.7463 107.03 68.0895 107.03 67.1045V57.5821C107.194 56.597 106.537 55.9403 105.552 55.9403ZM92.7463 17.6866H98.9851V23.9254H92.7463V17.6866ZM50.2239 6.68655C50.2239 5.04476 51.5373 3.56715 53.3433 3.56715C54.9851 3.56715 56.4627 4.88058 56.4627 6.68655C56.4627 8.32834 55.1492 9.80596 53.3433 9.80596C51.7015 9.80596 50.2239 8.32834 50.2239 6.68655ZM14.7612 23.9254H8.52238V17.6866H14.7612V23.9254ZM8.02984 65.1343C5.89552 66.1194 3.76119 64.3134 3.76119 62.3433C3.76119 60.7015 5.07462 59.2239 6.88059 59.2239C8.52238 59.2239 9.99999 60.7015 9.99999 62.3433C9.99999 63.8209 9.01492 64.806 8.02984 65.1343ZM92.2537 92.8806H15.4179L13.9403 87.4627H93.5672L92.2537 92.8806ZM21.4925 84.1791V42.1492C21.4925 41.1642 22.3134 40.5074 23.1343 40.5074H84.3731C85.3582 40.5074 86.0149 41.3283 86.0149 42.1492V84.1791H21.4925V84.1791ZM103.91 65.4627H97.6716V59.2239H103.91V65.4627Z" fill="white"/>
</svg>
