<svg width="87" height="87" viewBox="0 0 87 87" fill="none" xmlns="http://www.w3.org/2000/svg">
<path d="M39 7.5H48C48.3978 7.5 48.7793 7.34196 49.0607 7.06066C49.342 6.77935 49.5 6.39782 49.5 6C49.5 5.60218 49.342 5.22064 49.0607 4.93934C48.7793 4.65804 48.3978 4.5 48 4.5H39C38.6022 4.5 38.2206 4.65804 37.9393 4.93934C37.658 5.22064 37.5 5.60218 37.5 6C37.5 6.39782 37.658 6.77935 37.9393 7.06066C38.2206 7.34196 38.6022 7.5 39 7.5Z" fill="white"/>
<path d="M43.5 73.5C42.61 73.5 41.74 73.7639 40.9999 74.2584C40.2599 74.7529 39.6831 75.4557 39.3425 76.2779C39.0019 77.1002 38.9128 78.005 39.0865 78.8779C39.2601 79.7508 39.6887 80.5526 40.318 81.182C40.9474 81.8113 41.7492 82.2399 42.6221 82.4135C43.495 82.5872 44.3998 82.498 45.2221 82.1574C46.0443 81.8168 46.7471 81.2401 47.2416 80.5001C47.7361 79.76 48 78.89 48 78C48 76.8065 47.5259 75.6619 46.682 74.818C45.8381 73.9741 44.6935 73.5 43.5 73.5ZM43.5 79.5C43.2033 79.5 42.9133 79.412 42.6666 79.2472C42.42 79.0824 42.2277 78.8481 42.1142 78.574C42.0006 78.2999 41.9709 77.9983 42.0288 77.7074C42.0867 77.4164 42.2296 77.1491 42.4393 76.9393C42.6491 76.7296 42.9164 76.5867 43.2074 76.5288C43.4983 76.4709 43.7999 76.5006 44.074 76.6142C44.3481 76.7277 44.5824 76.92 44.7472 77.1666C44.912 77.4133 45 77.7033 45 78C45 78.3978 44.842 78.7793 44.5607 79.0607C44.2794 79.342 43.8978 79.5 43.5 79.5Z" fill="white"/>
<path d="M52.5 51H34.5C33.0903 50.9967 31.7247 51.4909 30.6437 52.3957C29.5626 53.3004 28.8355 54.5576 28.5905 55.9458C28.3454 57.334 28.5981 58.7642 29.3041 59.9844C30.01 61.2046 31.1239 62.1365 32.4495 62.616V62.616C32.5818 62.6795 32.7229 62.7229 32.868 62.745C33.3974 62.9058 33.9468 62.9916 34.5 63H52.5C54.0913 63 55.6174 62.3679 56.7426 61.2426C57.8678 60.1174 58.5 58.5913 58.5 57C58.5 55.4087 57.8678 53.8826 56.7426 52.7574C55.6174 51.6322 54.0913 51 52.5 51ZM41.427 60L44.427 54H47.073L44.073 60H41.427ZM35.427 60L38.427 54H41.073L38.073 60H35.427ZM34.5 54H35.0745L32.478 59.202C32.0307 58.7955 31.717 58.263 31.5785 57.6746C31.44 57.0863 31.483 56.4698 31.702 55.9064C31.921 55.343 32.3056 54.8593 32.8051 54.519C33.3046 54.1786 33.8956 53.9977 34.5 54V54ZM52.5 60H47.427L50.427 54H52.5C53.2956 54 54.0587 54.3161 54.6213 54.8787C55.1839 55.4413 55.5 56.2044 55.5 57C55.5 57.7957 55.1839 58.5587 54.6213 59.1213C54.0587 59.6839 53.2956 60 52.5 60Z" fill="white"/>
<path d="M45 22.5H49.5C49.8978 22.5 50.2794 22.342 50.5607 22.0607C50.842 21.7794 51 21.3978 51 21C51 20.6022 50.842 20.2206 50.5607 19.9393C50.2794 19.658 49.8978 19.5 49.5 19.5H45C44.6022 19.5 44.2206 19.658 43.9393 19.9393C43.658 20.2206 43.5 20.6022 43.5 21C43.5 21.3978 43.658 21.7794 43.9393 22.0607C44.2206 22.342 44.6022 22.5 45 22.5Z" fill="white"/>
<path d="M54 22.5H57C57.3978 22.5 57.7793 22.342 58.0607 22.0607C58.342 21.7794 58.5 21.3978 58.5 21C58.5 20.6022 58.342 20.2206 58.0607 19.9393C57.7793 19.658 57.3978 19.5 57 19.5H54C53.6022 19.5 53.2206 19.658 52.9393 19.9393C52.658 20.2206 52.5 20.6022 52.5 21C52.5 21.3978 52.658 21.7794 52.9393 22.0607C53.2206 22.342 53.6022 22.5 54 22.5Z" fill="white"/>
<path d="M45 28.5H57C57.3978 28.5 57.7794 28.342 58.0607 28.0607C58.342 27.7794 58.5 27.3978 58.5 27C58.5 26.6022 58.342 26.2206 58.0607 25.9393C57.7794 25.658 57.3978 25.5 57 25.5H45C44.6022 25.5 44.2206 25.658 43.9393 25.9393C43.658 26.2206 43.5 26.6022 43.5 27C43.5 27.3978 43.658 27.7794 43.9393 28.0607C44.2206 28.342 44.6022 28.5 45 28.5Z" fill="white"/>
<path d="M1.5 13.5H9C9.39782 13.5 9.77936 13.342 10.0607 13.0607C10.342 12.7794 10.5 12.3978 10.5 12C10.5 11.6022 10.342 11.2206 10.0607 10.9393C9.77936 10.658 9.39782 10.5 9 10.5H1.5C1.10218 10.5 0.720644 10.658 0.43934 10.9393C0.158035 11.2206 0 11.6022 0 12C0 12.3978 0.158035 12.7794 0.43934 13.0607C0.720644 13.342 1.10218 13.5 1.5 13.5V13.5Z" fill="white"/>
<path d="M1.5 7.5H9C9.39782 7.5 9.77936 7.34196 10.0607 7.06066C10.342 6.77935 10.5 6.39782 10.5 6C10.5 5.60218 10.342 5.22064 10.0607 4.93934C9.77936 4.65804 9.39782 4.5 9 4.5H1.5C1.10218 4.5 0.720644 4.65804 0.43934 4.93934C0.158035 5.22064 0 5.60218 0 6C0 6.39782 0.158035 6.77935 0.43934 7.06066C0.720644 7.34196 1.10218 7.5 1.5 7.5V7.5Z" fill="white"/>
<path d="M85.5 33H76.5C76.1022 33.0001 75.7207 33.1582 75.4395 33.4395L69.879 39H67.5V7.5C67.4976 5.51161 66.7067 3.60534 65.3007 2.19933C63.8947 0.793323 61.9884 0.00238179 60 0H27C25.0116 0.00238179 23.1053 0.793323 21.6993 2.19933C20.2933 3.60534 19.5024 5.51161 19.5 7.5V22.5H17.121L11.5605 16.9395C11.2793 16.6582 10.8978 16.5001 10.5 16.5H1.5C1.10218 16.5 0.720644 16.658 0.43934 16.9393C0.158035 17.2206 0 17.6022 0 18C0 18.3978 0.158035 18.7794 0.43934 19.0607C0.720644 19.342 1.10218 19.5 1.5 19.5H9.879L15.4395 25.0605C15.7207 25.3418 16.1022 25.4999 16.5 25.5H19.5V79.5C19.5024 81.4884 20.2933 83.3947 21.6993 84.8007C23.1053 86.2067 25.0116 86.9976 27 87H60C61.9884 86.9976 63.8947 86.2067 65.3007 84.8007C66.7067 83.3947 67.4976 81.4884 67.5 79.5V42H70.5C70.8978 41.9999 71.2793 41.8418 71.5605 41.5605L77.121 36H85.5C85.8978 36 86.2794 35.842 86.5607 35.5607C86.842 35.2794 87 34.8978 87 34.5C87 34.1022 86.842 33.7206 86.5607 33.4393C86.2794 33.158 85.8978 33 85.5 33ZM27 3H60C61.1935 3 62.3381 3.47411 63.182 4.31802C64.0259 5.16193 64.5 6.30653 64.5 7.5V9H22.5V7.5C22.5 6.30653 22.9741 5.16193 23.818 4.31802C24.6619 3.47411 25.8065 3 27 3ZM60 84H27C25.8065 84 24.6619 83.5259 23.818 82.682C22.9741 81.8381 22.5 80.6935 22.5 79.5V72H64.5V79.5C64.5 80.6935 64.0259 81.8381 63.182 82.682C62.3381 83.5259 61.1935 84 60 84V84ZM64.5 69H22.5V25.5H28.5V27C28.5 27.7956 28.8161 28.5587 29.3787 29.1213C29.9413 29.6839 30.7044 30 31.5 30H37.5C38.2956 30 39.0587 29.6839 39.6213 29.1213C40.1839 28.5587 40.5 27.7956 40.5 27V21C40.5 20.2044 40.1839 19.4413 39.6213 18.8787C39.0587 18.3161 38.2956 18 37.5 18H31.5C30.7044 18 29.9413 18.3161 29.3787 18.8787C28.8161 19.4413 28.5 20.2044 28.5 21V22.5H22.5V12H64.5V39H58.5V37.5C58.5 36.7044 58.1839 35.9413 57.6213 35.3787C57.0587 34.8161 56.2956 34.5 55.5 34.5H31.5C30.7044 34.5 29.9413 34.8161 29.3787 35.3787C28.8161 35.9413 28.5 36.7044 28.5 37.5V43.5C28.5 44.2956 28.8161 45.0587 29.3787 45.6213C29.9413 46.1839 30.7044 46.5 31.5 46.5H55.5C56.2956 46.5 57.0587 46.1839 57.6213 45.6213C58.1839 45.0587 58.5 44.2956 58.5 43.5V42H64.5V69ZM31.5 21H37.5V27H31.5V21ZM55.5 43.5H31.5V37.5H55.5V43.5Z" fill="white"/>
<path d="M85.5 27H78C77.6022 27 77.2206 27.158 76.9393 27.4393C76.658 27.7206 76.5 28.1022 76.5 28.5C76.5 28.8978 76.658 29.2794 76.9393 29.5607C77.2206 29.842 77.6022 30 78 30H85.5C85.8978 30 86.2794 29.842 86.5607 29.5607C86.842 29.2794 87 28.8978 87 28.5C87 28.1022 86.842 27.7206 86.5607 27.4393C86.2794 27.158 85.8978 27 85.5 27Z" fill="white"/>
<path d="M78 24H85.5C85.8978 24 86.2794 23.842 86.5607 23.5607C86.842 23.2794 87 22.8978 87 22.5C87 22.1022 86.842 21.7206 86.5607 21.4393C86.2794 21.158 85.8978 21 85.5 21H78C77.6022 21 77.2206 21.158 76.9393 21.4393C76.658 21.7206 76.5 22.1022 76.5 22.5C76.5 22.8978 76.658 23.2794 76.9393 23.5607C77.2206 23.842 77.6022 24 78 24Z" fill="white"/>
</svg>
