<svg width="108" height="77" viewBox="0 0 108 77" fill="none" xmlns="http://www.w3.org/2000/svg">
<path d="M48.9034 21.6768H23.6034C22.8334 21.6768 22.1734 22.3368 22.1734 23.1068V40.2668C22.1734 41.0368 22.8334 41.6968 23.6034 41.6968H48.9034C49.6734 41.6968 50.3334 41.0368 50.3334 40.2668V23.2168C50.3334 22.3368 49.6734 21.6768 48.9034 21.6768ZM25.0334 25.8568L33.7234 31.6868L25.0334 37.5168V25.8568ZM28.2234 24.6468H44.1734L36.1434 30.0368L28.2234 24.6468ZM36.2534 33.3368L44.2834 38.7268H28.2234L36.2534 33.3368ZM38.6734 31.6868L47.3634 25.8568V37.6268L38.6734 31.6868Z" fill="white"/>
<path d="M84.3233 21.4566H59.0233C58.2533 21.4566 57.5933 22.1166 57.5933 22.8866V39.9366C57.5933 40.7066 58.2533 41.3666 59.0233 41.3666H84.3233C85.0933 41.3666 85.7533 40.7066 85.7533 39.9366V22.8866C85.7533 22.1166 85.0933 21.4566 84.3233 21.4566ZM60.4533 25.5266L69.1433 31.3566L60.4533 37.1866V25.5266ZM63.6433 24.4266H79.5933L71.6733 29.8166L63.6433 24.4266ZM71.6733 33.1166L79.7033 38.5066H63.6433L71.6733 33.1166ZM74.0933 31.4666L82.7833 25.6366V37.4066L74.0933 31.4666Z" fill="white"/>
<path d="M49.0134 47.3068H23.7134C22.9434 47.3068 22.2834 47.9668 22.2834 48.7368V65.7868C22.2834 66.5568 22.9434 67.2168 23.7134 67.2168H49.0134C49.7834 67.2168 50.4434 66.5568 50.4434 65.7868V48.7368C50.5534 47.9668 49.8934 47.3068 49.0134 47.3068ZM25.2534 51.3768L33.9434 57.2068L25.2534 63.0368V51.3768V51.3768ZM28.3334 50.1668H44.2834L36.3634 55.6668L28.3334 50.1668ZM36.3634 58.9668L44.3934 64.3568H28.3334L36.3634 58.9668ZM38.8934 57.3168L47.5834 51.4868V63.2568L38.8934 57.3168Z" fill="white"/>
<path d="M84.4334 46.9767H59.1334C58.3634 46.9767 57.7034 47.6367 57.7034 48.4067V65.5667C57.7034 66.3367 58.3634 66.9967 59.1334 66.9967H84.4334C85.2034 66.9967 85.8634 66.3367 85.8634 65.5667V48.5167C85.9734 47.6367 85.3134 46.9767 84.4334 46.9767ZM60.5634 51.1567L69.2534 56.9867L60.5634 62.8167V51.1567ZM63.8634 49.9467H79.8134L71.7834 55.3367L63.8634 49.9467ZM71.7834 58.7467L79.8134 64.1367H63.8634L71.7834 58.7467ZM74.3134 56.9867L83.0034 51.1567V62.9267L74.3134 56.9867Z" fill="white"/>
<path d="M11.7233 12.9868C13.1206 12.9868 14.2533 11.8541 14.2533 10.4568C14.2533 9.05954 13.1206 7.92682 11.7233 7.92682C10.326 7.92682 9.19333 9.05954 9.19333 10.4568C9.19333 11.8541 10.326 12.9868 11.7233 12.9868Z" fill="white"/>
<path d="M20.1934 12.9868C21.5907 12.9868 22.7234 11.8541 22.7234 10.4568C22.7234 9.05954 21.5907 7.92682 20.1934 7.92682C18.7961 7.92682 17.6634 9.05954 17.6634 10.4568C17.6634 11.8541 18.7961 12.9868 20.1934 12.9868Z" fill="white"/>
<path d="M28.5534 12.9868C29.9507 12.9868 31.0834 11.8541 31.0834 10.4568C31.0834 9.05954 29.9507 7.92682 28.5534 7.92682C27.1561 7.92682 26.0234 9.05954 26.0234 10.4568C26.0234 11.8541 27.1561 12.9868 28.5534 12.9868Z" fill="white"/>
<path d="M97.4133 0.666687H10.5133C5.12334 0.666687 0.833344 5.06669 0.833344 10.3467V67.1067C0.833344 72.4967 5.23334 76.7867 10.5133 76.7867H97.5233C102.913 76.7867 107.203 72.3867 107.203 67.1067V10.3467C107.203 5.06669 102.803 0.666687 97.4133 0.666687ZM103.573 67.1067C103.573 70.5167 100.823 73.2667 97.4133 73.2667H10.4033C6.99334 73.2667 4.24334 70.5167 4.24334 67.1067V10.3467C4.24334 6.93669 6.99334 4.18669 10.4033 4.18669H97.4133C100.823 4.18669 103.573 6.93669 103.573 10.3467V67.1067Z" fill="white"/>
</svg>
