<svg width="224" height="840" viewBox="0 0 224 840" fill="none" xmlns="http://www.w3.org/2000/svg">
<rect x="8" width="208" height="48" rx="24" fill="#38373A"/>
<rect x="8" y="72" width="208" height="48" rx="24" fill="#38373A"/>
<rect x="8" y="144" width="208" height="48" rx="24" fill="#38373A"/>
<rect x="8" y="216" width="208" height="48" rx="24" fill="#38373A"/>
<rect x="8" y="288" width="208" height="48" rx="24" fill="#38373A"/>
<rect x="8" y="360" width="208" height="48" rx="24" fill="#38373A"/>
<rect x="8" y="432" width="208" height="48" rx="24" fill="#38373A"/>
<rect x="8" y="504" width="208" height="48" rx="24" fill="#38373A"/>
<rect x="8" y="576" width="208" height="48" rx="24" fill="#38373A"/>
<path d="M67.0742 21.918C67.0742 22.9297 66.7279 23.709 66.0352 24.2559C65.347 24.7982 64.3604 25.0693 63.0752 25.0693H61.8994V29H60.7373V19.0059H63.3281C65.8255 19.0059 67.0742 19.9766 67.0742 21.918ZM61.8994 24.0713H62.9453C63.9753 24.0713 64.7204 23.9049 65.1807 23.5723C65.641 23.2396 65.8711 22.7064 65.8711 21.9727C65.8711 21.3118 65.6546 20.8197 65.2217 20.4961C64.7887 20.1725 64.1143 20.0107 63.1982 20.0107H61.8994V24.0713ZM72.4199 21.3711C72.7526 21.3711 73.0511 21.3984 73.3154 21.4531L73.1582 22.5059C72.8483 22.4375 72.5749 22.4033 72.3379 22.4033C71.7318 22.4033 71.2122 22.6494 70.7793 23.1416C70.3509 23.6338 70.1367 24.2467 70.1367 24.9805V29H69.002V21.5078H69.9385L70.0684 22.8955H70.123C70.401 22.4079 70.736 22.0319 71.1279 21.7676C71.5199 21.5033 71.9505 21.3711 72.4199 21.3711ZM81.1836 25.2471C81.1836 26.4684 80.876 27.4232 80.2607 28.1113C79.6455 28.7949 78.7956 29.1367 77.7109 29.1367C77.041 29.1367 76.4463 28.9795 75.9268 28.665C75.4072 28.3506 75.0062 27.8994 74.7236 27.3115C74.4411 26.7236 74.2998 26.0355 74.2998 25.2471C74.2998 24.0257 74.6051 23.0755 75.2158 22.3965C75.8265 21.7129 76.6742 21.3711 77.7588 21.3711C78.807 21.3711 79.6387 21.7197 80.2539 22.417C80.8737 23.1143 81.1836 24.0576 81.1836 25.2471ZM75.4756 25.2471C75.4756 26.2041 75.667 26.9333 76.0498 27.4346C76.4326 27.9359 76.9954 28.1865 77.7383 28.1865C78.4811 28.1865 79.0439 27.9382 79.4268 27.4414C79.8141 26.9401 80.0078 26.2087 80.0078 25.2471C80.0078 24.2946 79.8141 23.5723 79.4268 23.0801C79.0439 22.5833 78.4766 22.335 77.7246 22.335C76.9818 22.335 76.4212 22.5788 76.043 23.0664C75.6647 23.554 75.4756 24.2809 75.4756 25.2471ZM88.2793 27.9951H88.2178C87.6937 28.7562 86.9098 29.1367 85.8662 29.1367C84.8864 29.1367 84.123 28.8018 83.5762 28.1318C83.0339 27.4619 82.7627 26.5094 82.7627 25.2744C82.7627 24.0394 83.0361 23.0801 83.583 22.3965C84.1299 21.7129 84.891 21.3711 85.8662 21.3711C86.8825 21.3711 87.6618 21.7402 88.2041 22.4785H88.293L88.2451 21.9385L88.2178 21.4121V18.3633H89.3525V29H88.4297L88.2793 27.9951ZM86.0098 28.1865C86.7845 28.1865 87.3451 27.9769 87.6914 27.5576C88.0423 27.1338 88.2178 26.4525 88.2178 25.5137V25.2744C88.2178 24.2126 88.04 23.4561 87.6846 23.0049C87.3337 22.5492 86.7708 22.3213 85.9961 22.3213C85.3307 22.3213 84.8203 22.5811 84.4648 23.1006C84.1139 23.6156 83.9385 24.3447 83.9385 25.2881C83.9385 26.2451 84.1139 26.9674 84.4648 27.4551C84.8158 27.9427 85.3307 28.1865 86.0098 28.1865ZM92.832 21.5078V26.3682C92.832 26.9788 92.971 27.4346 93.249 27.7354C93.527 28.0361 93.9622 28.1865 94.5547 28.1865C95.3385 28.1865 95.9105 27.9723 96.2705 27.5439C96.6351 27.1156 96.8174 26.416 96.8174 25.4453V21.5078H97.9521V29H97.0156L96.8516 27.9951H96.79C96.5576 28.3643 96.234 28.6468 95.8193 28.8428C95.4092 29.0387 94.9398 29.1367 94.4111 29.1367C93.4997 29.1367 92.8161 28.9202 92.3604 28.4873C91.9092 28.0544 91.6836 27.3617 91.6836 26.4092V21.5078H92.832ZM103.359 29.1367C102.275 29.1367 101.434 28.804 100.837 28.1387C100.244 27.4688 99.9482 26.5231 99.9482 25.3018C99.9482 24.0485 100.249 23.0801 100.851 22.3965C101.457 21.7129 102.318 21.3711 103.435 21.3711C103.795 21.3711 104.155 21.4098 104.515 21.4873C104.875 21.5648 105.157 21.6559 105.362 21.7607L105.014 22.7246C104.763 22.6243 104.49 22.5423 104.193 22.4785C103.897 22.4102 103.635 22.376 103.407 22.376C101.885 22.376 101.124 23.3467 101.124 25.2881C101.124 26.2087 101.309 26.915 101.678 27.4072C102.051 27.8994 102.603 28.1455 103.332 28.1455C103.956 28.1455 104.597 28.0111 105.253 27.7422V28.7471C104.752 29.0068 104.12 29.1367 103.359 29.1367ZM109.457 28.2002C109.658 28.2002 109.851 28.1865 110.038 28.1592C110.225 28.1273 110.373 28.0954 110.482 28.0635V28.9316C110.359 28.9909 110.177 29.0387 109.936 29.0752C109.699 29.1162 109.484 29.1367 109.293 29.1367C107.844 29.1367 107.119 28.3734 107.119 26.8467V22.3896H106.046V21.8428L107.119 21.3711L107.598 19.7715H108.254V21.5078H110.428V22.3896H108.254V26.7988C108.254 27.25 108.361 27.5964 108.575 27.8379C108.789 28.0794 109.083 28.2002 109.457 28.2002ZM123.013 29H121.646L118.002 24.1533L116.956 25.083V29H115.794V19.0059H116.956V23.9619L121.488 19.0059H122.862L118.843 23.3467L123.013 29ZM125.357 29H124.223V21.5078H125.357V29ZM124.127 19.4775C124.127 19.2178 124.191 19.0286 124.318 18.9102C124.446 18.7871 124.605 18.7256 124.797 18.7256C124.979 18.7256 125.136 18.7871 125.269 18.9102C125.401 19.0332 125.467 19.2223 125.467 19.4775C125.467 19.7327 125.401 19.9242 125.269 20.0518C125.136 20.1748 124.979 20.2363 124.797 20.2363C124.605 20.2363 124.446 20.1748 124.318 20.0518C124.191 19.9242 124.127 19.7327 124.127 19.4775ZM130.758 29.1367C129.673 29.1367 128.832 28.804 128.235 28.1387C127.643 27.4688 127.347 26.5231 127.347 25.3018C127.347 24.0485 127.647 23.0801 128.249 22.3965C128.855 21.7129 129.716 21.3711 130.833 21.3711C131.193 21.3711 131.553 21.4098 131.913 21.4873C132.273 21.5648 132.556 21.6559 132.761 21.7607L132.412 22.7246C132.161 22.6243 131.888 22.5423 131.592 22.4785C131.296 22.4102 131.034 22.376 130.806 22.376C129.284 22.376 128.522 23.3467 128.522 25.2881C128.522 26.2087 128.707 26.915 129.076 27.4072C129.45 27.8994 130.001 28.1455 130.73 28.1455C131.355 28.1455 131.995 28.0111 132.651 27.7422V28.7471C132.15 29.0068 131.519 29.1367 130.758 29.1367ZM135.557 25.165C135.753 24.887 136.051 24.5225 136.452 24.0713L138.872 21.5078H140.219L137.184 24.7002L140.431 29H139.057L136.411 25.459L135.557 26.1973V29H134.436V18.3633H135.557V24.0029C135.557 24.2536 135.538 24.641 135.502 25.165H135.557ZM154.273 23.9893C154.273 25.5889 153.868 26.8467 153.057 27.7627C152.25 28.6787 151.127 29.1367 149.687 29.1367C148.215 29.1367 147.077 28.6878 146.275 27.79C145.478 26.8877 145.079 25.6162 145.079 23.9756C145.079 22.3486 145.48 21.0885 146.282 20.1953C147.084 19.2975 148.224 18.8486 149.7 18.8486C151.136 18.8486 152.257 19.3044 153.063 20.2158C153.87 21.1273 154.273 22.3851 154.273 23.9893ZM146.31 23.9893C146.31 25.3428 146.597 26.3704 147.171 27.0723C147.75 27.7695 148.588 28.1182 149.687 28.1182C150.794 28.1182 151.63 27.7695 152.195 27.0723C152.76 26.375 153.043 25.3473 153.043 23.9893C153.043 22.6449 152.76 21.6263 152.195 20.9336C151.635 20.2363 150.803 19.8877 149.7 19.8877C148.593 19.8877 147.75 20.2386 147.171 20.9404C146.597 21.6377 146.31 22.654 146.31 23.9893ZM164.459 22.3896H162.552V29H161.417V22.3896H160.077V21.877L161.417 21.4668V21.0498C161.417 19.2087 162.221 18.2881 163.83 18.2881C164.227 18.2881 164.691 18.3678 165.225 18.5273L164.931 19.4365C164.493 19.2952 164.119 19.2246 163.81 19.2246C163.381 19.2246 163.064 19.3682 162.859 19.6553C162.654 19.9378 162.552 20.3936 162.552 21.0225V21.5078H164.459V22.3896ZM159.715 22.3896H157.808V29H156.673V22.3896H155.333V21.877L156.673 21.4668V21.0498C156.673 19.2087 157.477 18.2881 159.086 18.2881C159.482 18.2881 159.947 18.3678 160.48 18.5273L160.187 19.4365C159.749 19.2952 159.375 19.2246 159.065 19.2246C158.637 19.2246 158.32 19.3682 158.115 19.6553C157.91 19.9378 157.808 20.3936 157.808 21.0225V21.5078H159.715V22.3896Z" fill="white"/>
<path d="M84.6152 96.8438V101H83.4531V91.0059H86.1943C87.4202 91.0059 88.3249 91.2406 88.9082 91.71C89.4961 92.1794 89.79 92.8857 89.79 93.8291C89.79 95.1507 89.1201 96.0439 87.7803 96.5088L90.4941 101H89.1201L86.7002 96.8438H84.6152ZM84.6152 95.8457H86.208C87.0283 95.8457 87.6299 95.6839 88.0127 95.3604C88.3955 95.0322 88.5869 94.5423 88.5869 93.8906C88.5869 93.2298 88.391 92.7536 87.999 92.4619C87.6117 92.1702 86.9873 92.0244 86.126 92.0244H84.6152V95.8457ZM95.1016 101.137C93.9941 101.137 93.1191 100.799 92.4766 100.125C91.8385 99.4505 91.5195 98.514 91.5195 97.3154C91.5195 96.1077 91.8158 95.1484 92.4082 94.4375C93.0052 93.7266 93.805 93.3711 94.8076 93.3711C95.7464 93.3711 96.4893 93.681 97.0361 94.3008C97.583 94.916 97.8564 95.7295 97.8564 96.7412V97.459H92.6953C92.7181 98.3385 92.9391 99.0062 93.3584 99.4619C93.7822 99.9176 94.377 100.146 95.1426 100.146C95.9492 100.146 96.7467 99.9769 97.5352 99.6396V100.651C97.1341 100.825 96.7536 100.948 96.3936 101.021C96.0381 101.098 95.6074 101.137 95.1016 101.137ZM94.7939 94.3213C94.1924 94.3213 93.7116 94.5173 93.3516 94.9092C92.9961 95.3011 92.7865 95.8434 92.7227 96.5361H96.6396C96.6396 95.8206 96.4801 95.2738 96.1611 94.8955C95.8421 94.5127 95.3864 94.3213 94.7939 94.3213ZM104.631 98.9561C104.631 99.6533 104.371 100.191 103.852 100.569C103.332 100.948 102.603 101.137 101.664 101.137C100.671 101.137 99.8958 100.979 99.3398 100.665V99.6123C99.6999 99.7946 100.085 99.9382 100.495 100.043C100.91 100.148 101.309 100.2 101.691 100.2C102.284 100.2 102.74 100.107 103.059 99.9199C103.378 99.7285 103.537 99.4391 103.537 99.0518C103.537 98.7601 103.41 98.5117 103.154 98.3066C102.904 98.097 102.411 97.8509 101.678 97.5684C100.98 97.3086 100.484 97.083 100.188 96.8916C99.8958 96.6956 99.6771 96.4746 99.5312 96.2285C99.39 95.9824 99.3193 95.6885 99.3193 95.3467C99.3193 94.736 99.5677 94.2552 100.064 93.9043C100.561 93.5488 101.243 93.3711 102.108 93.3711C102.915 93.3711 103.703 93.5352 104.474 93.8633L104.07 94.7861C103.318 94.4762 102.637 94.3213 102.026 94.3213C101.489 94.3213 101.083 94.4056 100.81 94.5742C100.536 94.7428 100.399 94.9753 100.399 95.2715C100.399 95.472 100.45 95.6429 100.55 95.7842C100.655 95.9255 100.821 96.0599 101.049 96.1875C101.277 96.3151 101.714 96.4997 102.361 96.7412C103.25 97.0648 103.849 97.3906 104.159 97.7188C104.474 98.0469 104.631 98.4593 104.631 98.9561ZM109.648 101.137C108.541 101.137 107.666 100.799 107.023 100.125C106.385 99.4505 106.066 98.514 106.066 97.3154C106.066 96.1077 106.363 95.1484 106.955 94.4375C107.552 93.7266 108.352 93.3711 109.354 93.3711C110.293 93.3711 111.036 93.681 111.583 94.3008C112.13 94.916 112.403 95.7295 112.403 96.7412V97.459H107.242C107.265 98.3385 107.486 99.0062 107.905 99.4619C108.329 99.9176 108.924 100.146 109.689 100.146C110.496 100.146 111.294 99.9769 112.082 99.6396V100.651C111.681 100.825 111.3 100.948 110.94 101.021C110.585 101.098 110.154 101.137 109.648 101.137ZM109.341 94.3213C108.739 94.3213 108.258 94.5173 107.898 94.9092C107.543 95.3011 107.333 95.8434 107.27 96.5361H111.187C111.187 95.8206 111.027 95.2738 110.708 94.8955C110.389 94.5127 109.933 94.3213 109.341 94.3213ZM118.952 101L118.727 99.9336H118.672C118.298 100.403 117.924 100.722 117.551 100.891C117.182 101.055 116.719 101.137 116.163 101.137C115.42 101.137 114.837 100.945 114.413 100.562C113.994 100.18 113.784 99.6351 113.784 98.9287C113.784 97.4157 114.994 96.6227 117.414 96.5498L118.686 96.5088V96.0439C118.686 95.4561 118.558 95.0231 118.303 94.7451C118.052 94.4626 117.649 94.3213 117.093 94.3213C116.468 94.3213 115.762 94.5127 114.974 94.8955L114.625 94.0273C114.994 93.8268 115.397 93.6696 115.835 93.5557C116.277 93.4417 116.719 93.3848 117.161 93.3848C118.054 93.3848 118.715 93.583 119.144 93.9795C119.576 94.376 119.793 95.0117 119.793 95.8867V101H118.952ZM116.389 100.2C117.095 100.2 117.649 100.007 118.05 99.6191C118.455 99.2318 118.658 98.6895 118.658 97.9922V97.3154L117.523 97.3633C116.621 97.3952 115.969 97.5365 115.568 97.7871C115.172 98.0332 114.974 98.4183 114.974 98.9424C114.974 99.3525 115.097 99.6647 115.343 99.8789C115.593 100.093 115.942 100.2 116.389 100.2ZM125.556 93.3711C125.888 93.3711 126.187 93.3984 126.451 93.4531L126.294 94.5059C125.984 94.4375 125.711 94.4033 125.474 94.4033C124.868 94.4033 124.348 94.6494 123.915 95.1416C123.487 95.6338 123.272 96.2467 123.272 96.9805V101H122.138V93.5078H123.074L123.204 94.8955H123.259C123.537 94.4079 123.872 94.0319 124.264 93.7676C124.656 93.5033 125.086 93.3711 125.556 93.3711ZM130.847 101.137C129.762 101.137 128.921 100.804 128.324 100.139C127.732 99.4688 127.436 98.5231 127.436 97.3018C127.436 96.0485 127.736 95.0801 128.338 94.3965C128.944 93.7129 129.805 93.3711 130.922 93.3711C131.282 93.3711 131.642 93.4098 132.002 93.4873C132.362 93.5648 132.645 93.6559 132.85 93.7607L132.501 94.7246C132.25 94.6243 131.977 94.5423 131.681 94.4785C131.384 94.4102 131.122 94.376 130.895 94.376C129.372 94.376 128.611 95.3467 128.611 97.2881C128.611 98.2087 128.796 98.915 129.165 99.4072C129.539 99.8994 130.09 100.146 130.819 100.146C131.444 100.146 132.084 100.011 132.74 99.7422V100.747C132.239 101.007 131.608 101.137 130.847 101.137ZM139.651 101V96.1533C139.651 95.5426 139.512 95.0869 139.234 94.7861C138.956 94.4854 138.521 94.335 137.929 94.335C137.14 94.335 136.564 94.5492 136.199 94.9775C135.839 95.4059 135.659 96.1077 135.659 97.083V101H134.524V90.3633H135.659V93.583C135.659 93.9704 135.641 94.2917 135.604 94.5469H135.673C135.896 94.1868 136.213 93.9043 136.623 93.6992C137.038 93.4896 137.509 93.3848 138.038 93.3848C138.954 93.3848 139.64 93.6035 140.096 94.041C140.556 94.474 140.786 95.1644 140.786 96.1123V101H139.651Z" fill="white"/>
<path d="M77.7109 167.907C77.7109 169.557 77.262 170.819 76.3643 171.694C75.471 172.565 74.1836 173 72.502 173H69.7334V163.006H72.7959C74.3499 163.006 75.5576 163.437 76.4189 164.298C77.2803 165.159 77.7109 166.362 77.7109 167.907ZM76.4805 167.948C76.4805 166.645 76.1523 165.663 75.4961 165.002C74.8444 164.341 73.8737 164.011 72.584 164.011H70.8955V171.995H72.3105C73.696 171.995 74.7373 171.656 75.4346 170.977C76.1318 170.293 76.4805 169.284 76.4805 167.948ZM82.9404 173.137C81.833 173.137 80.958 172.799 80.3154 172.125C79.6774 171.451 79.3584 170.514 79.3584 169.315C79.3584 168.108 79.6546 167.148 80.2471 166.438C80.8441 165.727 81.6439 165.371 82.6465 165.371C83.5853 165.371 84.3281 165.681 84.875 166.301C85.4219 166.916 85.6953 167.729 85.6953 168.741V169.459H80.5342C80.557 170.339 80.778 171.006 81.1973 171.462C81.6211 171.918 82.2158 172.146 82.9814 172.146C83.7881 172.146 84.5856 171.977 85.374 171.64V172.651C84.973 172.825 84.5924 172.948 84.2324 173.021C83.877 173.098 83.4463 173.137 82.9404 173.137ZM82.6328 166.321C82.0312 166.321 81.5505 166.517 81.1904 166.909C80.835 167.301 80.6253 167.843 80.5615 168.536H84.4785C84.4785 167.821 84.319 167.274 84 166.896C83.681 166.513 83.2253 166.321 82.6328 166.321ZM92.4697 170.956C92.4697 171.653 92.21 172.191 91.6904 172.569C91.1709 172.948 90.4417 173.137 89.5029 173.137C88.5094 173.137 87.7347 172.979 87.1787 172.665V171.612C87.5387 171.795 87.9238 171.938 88.334 172.043C88.7487 172.148 89.1475 172.2 89.5303 172.2C90.1227 172.2 90.5785 172.107 90.8975 171.92C91.2165 171.729 91.376 171.439 91.376 171.052C91.376 170.76 91.2484 170.512 90.9932 170.307C90.7425 170.097 90.2503 169.851 89.5166 169.568C88.8193 169.309 88.3226 169.083 88.0264 168.892C87.7347 168.696 87.516 168.475 87.3701 168.229C87.2288 167.982 87.1582 167.688 87.1582 167.347C87.1582 166.736 87.4066 166.255 87.9033 165.904C88.4001 165.549 89.0814 165.371 89.9473 165.371C90.7539 165.371 91.5423 165.535 92.3125 165.863L91.9092 166.786C91.1572 166.476 90.4759 166.321 89.8652 166.321C89.3275 166.321 88.9219 166.406 88.6484 166.574C88.375 166.743 88.2383 166.975 88.2383 167.271C88.2383 167.472 88.2884 167.643 88.3887 167.784C88.4935 167.925 88.6598 168.06 88.8877 168.188C89.1156 168.315 89.5531 168.5 90.2002 168.741C91.0889 169.065 91.6882 169.391 91.998 169.719C92.3125 170.047 92.4697 170.459 92.4697 170.956ZM95.457 173H94.3223V165.508H95.457V173ZM94.2266 163.478C94.2266 163.218 94.2904 163.029 94.418 162.91C94.5456 162.787 94.7051 162.726 94.8965 162.726C95.0788 162.726 95.236 162.787 95.3682 162.91C95.5003 163.033 95.5664 163.222 95.5664 163.478C95.5664 163.733 95.5003 163.924 95.3682 164.052C95.236 164.175 95.0788 164.236 94.8965 164.236C94.7051 164.236 94.5456 164.175 94.418 164.052C94.2904 163.924 94.2266 163.733 94.2266 163.478ZM103.995 165.508V166.226L102.607 166.39C102.735 166.549 102.849 166.759 102.949 167.019C103.049 167.274 103.1 167.563 103.1 167.887C103.1 168.62 102.849 169.206 102.348 169.644C101.846 170.081 101.158 170.3 100.283 170.3C100.06 170.3 99.8503 170.282 99.6543 170.245C99.1712 170.5 98.9297 170.822 98.9297 171.209C98.9297 171.414 99.014 171.567 99.1826 171.667C99.3512 171.763 99.6406 171.811 100.051 171.811H101.377C102.188 171.811 102.81 171.981 103.243 172.323C103.681 172.665 103.899 173.162 103.899 173.813C103.899 174.643 103.567 175.274 102.901 175.707C102.236 176.145 101.265 176.363 99.9893 176.363C99.0094 176.363 98.2529 176.181 97.7197 175.816C97.1911 175.452 96.9268 174.937 96.9268 174.271C96.9268 173.816 97.0726 173.422 97.3643 173.089C97.6559 172.756 98.0661 172.531 98.5947 172.412C98.4033 172.326 98.2415 172.191 98.1094 172.009C97.9818 171.826 97.918 171.615 97.918 171.373C97.918 171.1 97.9909 170.86 98.1367 170.655C98.2826 170.45 98.5127 170.252 98.8271 170.061C98.4398 169.901 98.123 169.63 97.877 169.247C97.6354 168.864 97.5146 168.427 97.5146 167.935C97.5146 167.114 97.7607 166.483 98.2529 166.041C98.7451 165.594 99.4424 165.371 100.345 165.371C100.737 165.371 101.09 165.417 101.404 165.508H103.995ZM98.0205 174.258C98.0205 174.663 98.1914 174.971 98.5332 175.181C98.875 175.39 99.3649 175.495 100.003 175.495C100.955 175.495 101.66 175.352 102.115 175.064C102.576 174.782 102.806 174.397 102.806 173.909C102.806 173.504 102.68 173.221 102.43 173.062C102.179 172.907 101.707 172.829 101.015 172.829H99.6543C99.1393 172.829 98.7383 172.952 98.4512 173.198C98.1641 173.444 98.0205 173.798 98.0205 174.258ZM98.6357 167.907C98.6357 168.431 98.7839 168.828 99.0801 169.097C99.3763 169.366 99.7887 169.5 100.317 169.5C101.425 169.5 101.979 168.962 101.979 167.887C101.979 166.761 101.418 166.198 100.297 166.198C99.7637 166.198 99.3535 166.342 99.0664 166.629C98.7793 166.916 98.6357 167.342 98.6357 167.907ZM110.66 173V168.153C110.66 167.543 110.521 167.087 110.243 166.786C109.965 166.485 109.53 166.335 108.938 166.335C108.154 166.335 107.579 166.547 107.215 166.971C106.85 167.395 106.668 168.094 106.668 169.069V173H105.533V165.508H106.456L106.641 166.533H106.695C106.928 166.164 107.254 165.879 107.673 165.679C108.092 165.474 108.559 165.371 109.074 165.371C109.977 165.371 110.656 165.59 111.111 166.027C111.567 166.46 111.795 167.155 111.795 168.112V173H110.66ZM123.58 170.341C123.58 171.22 123.261 171.906 122.623 172.398C121.985 172.891 121.119 173.137 120.025 173.137C118.84 173.137 117.929 172.984 117.291 172.679V171.558C117.701 171.731 118.148 171.868 118.631 171.968C119.114 172.068 119.592 172.118 120.066 172.118C120.841 172.118 121.424 171.972 121.816 171.681C122.208 171.384 122.404 170.974 122.404 170.45C122.404 170.104 122.334 169.821 122.192 169.603C122.056 169.379 121.823 169.174 121.495 168.987C121.172 168.8 120.677 168.589 120.012 168.352C119.082 168.019 118.417 167.625 118.016 167.169C117.619 166.713 117.421 166.118 117.421 165.385C117.421 164.615 117.71 164.002 118.289 163.546C118.868 163.09 119.633 162.862 120.586 162.862C121.579 162.862 122.493 163.045 123.327 163.409L122.965 164.421C122.14 164.075 121.338 163.901 120.559 163.901C119.943 163.901 119.463 164.034 119.116 164.298C118.77 164.562 118.597 164.929 118.597 165.398C118.597 165.745 118.66 166.03 118.788 166.253C118.916 166.472 119.13 166.674 119.431 166.861C119.736 167.044 120.201 167.246 120.825 167.47C121.873 167.843 122.593 168.244 122.985 168.673C123.382 169.101 123.58 169.657 123.58 170.341ZM128.939 173.137C128.452 173.137 128.005 173.048 127.6 172.87C127.199 172.688 126.861 172.41 126.588 172.036H126.506C126.561 172.474 126.588 172.888 126.588 173.28V176.363H125.453V165.508H126.376L126.533 166.533H126.588C126.88 166.123 127.219 165.827 127.606 165.645C127.994 165.462 128.438 165.371 128.939 165.371C129.933 165.371 130.699 165.711 131.236 166.39C131.779 167.069 132.05 168.021 132.05 169.247C132.05 170.478 131.774 171.435 131.223 172.118C130.676 172.797 129.915 173.137 128.939 173.137ZM128.775 166.335C128.01 166.335 127.456 166.547 127.114 166.971C126.772 167.395 126.597 168.069 126.588 168.994V169.247C126.588 170.3 126.763 171.054 127.114 171.51C127.465 171.961 128.028 172.187 128.803 172.187C129.45 172.187 129.956 171.924 130.32 171.4C130.689 170.876 130.874 170.154 130.874 169.233C130.874 168.299 130.689 167.584 130.32 167.087C129.956 166.586 129.441 166.335 128.775 166.335ZM137.457 165.371C137.79 165.371 138.088 165.398 138.353 165.453L138.195 166.506C137.885 166.438 137.612 166.403 137.375 166.403C136.769 166.403 136.249 166.649 135.816 167.142C135.388 167.634 135.174 168.247 135.174 168.98V173H134.039V165.508H134.976L135.105 166.896H135.16C135.438 166.408 135.773 166.032 136.165 165.768C136.557 165.503 136.988 165.371 137.457 165.371ZM140.889 173H139.754V165.508H140.889V173ZM139.658 163.478C139.658 163.218 139.722 163.029 139.85 162.91C139.977 162.787 140.137 162.726 140.328 162.726C140.51 162.726 140.668 162.787 140.8 162.91C140.932 163.033 140.998 163.222 140.998 163.478C140.998 163.733 140.932 163.924 140.8 164.052C140.668 164.175 140.51 164.236 140.328 164.236C140.137 164.236 139.977 164.175 139.85 164.052C139.722 163.924 139.658 163.733 139.658 163.478ZM148.422 173V168.153C148.422 167.543 148.283 167.087 148.005 166.786C147.727 166.485 147.292 166.335 146.699 166.335C145.915 166.335 145.341 166.547 144.977 166.971C144.612 167.395 144.43 168.094 144.43 169.069V173H143.295V165.508H144.218L144.402 166.533H144.457C144.689 166.164 145.015 165.879 145.435 165.679C145.854 165.474 146.321 165.371 146.836 165.371C147.738 165.371 148.417 165.59 148.873 166.027C149.329 166.46 149.557 167.155 149.557 168.112V173H148.422ZM154.314 172.2C154.515 172.2 154.709 172.187 154.896 172.159C155.082 172.127 155.23 172.095 155.34 172.063V172.932C155.217 172.991 155.035 173.039 154.793 173.075C154.556 173.116 154.342 173.137 154.15 173.137C152.701 173.137 151.977 172.373 151.977 170.847V166.39H150.903V165.843L151.977 165.371L152.455 163.771H153.111V165.508H155.285V166.39H153.111V170.799C153.111 171.25 153.218 171.596 153.433 171.838C153.647 172.079 153.941 172.2 154.314 172.2Z" fill="white"/>
<path d="M52.6641 245H51.5566V237.877C51.5566 237.285 51.5749 236.724 51.6113 236.195C51.5156 236.291 51.4085 236.391 51.29 236.496C51.1715 236.601 50.6292 237.045 49.6631 237.829L49.0615 237.05L51.707 235.006H52.6641V245ZM61.8242 242.956C61.8242 243.653 61.5645 244.191 61.0449 244.569C60.5254 244.948 59.7962 245.137 58.8574 245.137C57.8639 245.137 57.0892 244.979 56.5332 244.665V243.612C56.8932 243.795 57.2783 243.938 57.6885 244.043C58.1032 244.148 58.502 244.2 58.8848 244.2C59.4772 244.2 59.9329 244.107 60.252 243.92C60.571 243.729 60.7305 243.439 60.7305 243.052C60.7305 242.76 60.6029 242.512 60.3477 242.307C60.097 242.097 59.6048 241.851 58.8711 241.568C58.1738 241.309 57.6771 241.083 57.3809 240.892C57.0892 240.696 56.8704 240.475 56.7246 240.229C56.5833 239.982 56.5127 239.688 56.5127 239.347C56.5127 238.736 56.7611 238.255 57.2578 237.904C57.7546 237.549 58.4359 237.371 59.3018 237.371C60.1084 237.371 60.8968 237.535 61.667 237.863L61.2637 238.786C60.5117 238.476 59.8304 238.321 59.2197 238.321C58.682 238.321 58.2764 238.406 58.0029 238.574C57.7295 238.743 57.5928 238.975 57.5928 239.271C57.5928 239.472 57.6429 239.643 57.7432 239.784C57.848 239.925 58.0143 240.06 58.2422 240.188C58.4701 240.315 58.9076 240.5 59.5547 240.741C60.4434 241.065 61.0426 241.391 61.3525 241.719C61.667 242.047 61.8242 242.459 61.8242 242.956ZM66.0967 244.2C66.2972 244.2 66.4909 244.187 66.6777 244.159C66.8646 244.127 67.0127 244.095 67.1221 244.063V244.932C66.999 244.991 66.8167 245.039 66.5752 245.075C66.3382 245.116 66.124 245.137 65.9326 245.137C64.4834 245.137 63.7588 244.373 63.7588 242.847V238.39H62.6855V237.843L63.7588 237.371L64.2373 235.771H64.8936V237.508H67.0674V238.39H64.8936V242.799C64.8936 243.25 65.0007 243.596 65.2148 243.838C65.429 244.079 65.723 244.2 66.0967 244.2ZM81.8125 245V240.126C81.8125 239.529 81.6849 239.082 81.4297 238.786C81.1745 238.485 80.778 238.335 80.2402 238.335C79.5339 238.335 79.012 238.538 78.6748 238.943C78.3376 239.349 78.1689 239.973 78.1689 240.816V245H77.0342V240.126C77.0342 239.529 76.9066 239.082 76.6514 238.786C76.3962 238.485 75.9974 238.335 75.4551 238.335C74.7441 238.335 74.2223 238.549 73.8896 238.978C73.5615 239.401 73.3975 240.099 73.3975 241.069V245H72.2627V237.508H73.1855L73.3701 238.533H73.4248C73.639 238.169 73.9398 237.884 74.3271 237.679C74.7191 237.474 75.1566 237.371 75.6396 237.371C76.8109 237.371 77.5765 237.795 77.9365 238.643H77.9912C78.2145 238.251 78.5381 237.941 78.9619 237.713C79.3857 237.485 79.8688 237.371 80.4111 237.371C81.2588 237.371 81.8923 237.59 82.3115 238.027C82.7354 238.46 82.9473 239.155 82.9473 240.112V245H81.8125ZM86.4268 245H85.292V237.508H86.4268V245ZM85.1963 235.478C85.1963 235.218 85.2601 235.029 85.3877 234.91C85.5153 234.787 85.6748 234.726 85.8662 234.726C86.0485 234.726 86.2057 234.787 86.3379 234.91C86.4701 235.033 86.5361 235.222 86.5361 235.478C86.5361 235.733 86.4701 235.924 86.3379 236.052C86.2057 236.175 86.0485 236.236 85.8662 236.236C85.6748 236.236 85.5153 236.175 85.3877 236.052C85.2601 235.924 85.1963 235.733 85.1963 235.478ZM93.9326 243.995H93.8711C93.347 244.756 92.5632 245.137 91.5195 245.137C90.5397 245.137 89.7764 244.802 89.2295 244.132C88.6872 243.462 88.416 242.509 88.416 241.274C88.416 240.039 88.6895 239.08 89.2363 238.396C89.7832 237.713 90.5443 237.371 91.5195 237.371C92.5358 237.371 93.3151 237.74 93.8574 238.479H93.9463L93.8984 237.938L93.8711 237.412V234.363H95.0059V245H94.083L93.9326 243.995ZM91.6631 244.187C92.4378 244.187 92.9984 243.977 93.3447 243.558C93.6956 243.134 93.8711 242.452 93.8711 241.514V241.274C93.8711 240.213 93.6934 239.456 93.3379 239.005C92.987 238.549 92.4242 238.321 91.6494 238.321C90.984 238.321 90.4736 238.581 90.1182 239.101C89.7673 239.616 89.5918 240.345 89.5918 241.288C89.5918 242.245 89.7673 242.967 90.1182 243.455C90.4691 243.943 90.984 244.187 91.6631 244.187ZM96.79 241.767V240.728H100.146V241.767H96.79ZM105.308 238.39H103.4V245H102.266V238.39H100.926V237.877L102.266 237.467V237.05C102.266 235.209 103.07 234.288 104.679 234.288C105.075 234.288 105.54 234.368 106.073 234.527L105.779 235.437C105.342 235.295 104.968 235.225 104.658 235.225C104.23 235.225 103.913 235.368 103.708 235.655C103.503 235.938 103.4 236.394 103.4 237.022V237.508H105.308V238.39ZM107.81 245H106.675V237.508H107.81V245ZM106.579 235.478C106.579 235.218 106.643 235.029 106.771 234.91C106.898 234.787 107.058 234.726 107.249 234.726C107.431 234.726 107.589 234.787 107.721 234.91C107.853 235.033 107.919 235.222 107.919 235.478C107.919 235.733 107.853 235.924 107.721 236.052C107.589 236.175 107.431 236.236 107.249 236.236C107.058 236.236 106.898 236.175 106.771 236.052C106.643 235.924 106.579 235.733 106.579 235.478ZM121.57 235.006V241.473C121.57 242.612 121.226 243.507 120.538 244.159C119.85 244.811 118.904 245.137 117.701 245.137C116.498 245.137 115.566 244.809 114.905 244.152C114.249 243.496 113.921 242.594 113.921 241.445V235.006H115.083V241.527C115.083 242.361 115.311 243.002 115.767 243.448C116.222 243.895 116.892 244.118 117.776 244.118C118.619 244.118 119.269 243.895 119.725 243.448C120.18 242.997 120.408 242.352 120.408 241.514V235.006H121.57ZM124.223 245V235.006H125.385V245H124.223ZM132.932 240.844V245H131.77V235.006H134.511C135.737 235.006 136.641 235.241 137.225 235.71C137.812 236.179 138.106 236.886 138.106 237.829C138.106 239.151 137.437 240.044 136.097 240.509L138.811 245H137.437L135.017 240.844H132.932ZM132.932 239.846H134.524C135.345 239.846 135.946 239.684 136.329 239.36C136.712 239.032 136.903 238.542 136.903 237.891C136.903 237.23 136.707 236.754 136.315 236.462C135.928 236.17 135.304 236.024 134.442 236.024H132.932V239.846ZM143.418 245.137C142.311 245.137 141.436 244.799 140.793 244.125C140.155 243.451 139.836 242.514 139.836 241.315C139.836 240.108 140.132 239.148 140.725 238.438C141.322 237.727 142.121 237.371 143.124 237.371C144.063 237.371 144.806 237.681 145.353 238.301C145.899 238.916 146.173 239.729 146.173 240.741V241.459H141.012C141.035 242.339 141.256 243.006 141.675 243.462C142.099 243.918 142.693 244.146 143.459 244.146C144.266 244.146 145.063 243.977 145.852 243.64V244.651C145.451 244.825 145.07 244.948 144.71 245.021C144.354 245.098 143.924 245.137 143.418 245.137ZM143.11 238.321C142.509 238.321 142.028 238.517 141.668 238.909C141.312 239.301 141.103 239.843 141.039 240.536H144.956C144.956 239.821 144.797 239.274 144.478 238.896C144.159 238.513 143.703 238.321 143.11 238.321ZM149.755 245L146.911 237.508H148.128L149.741 241.951C150.106 242.99 150.32 243.665 150.384 243.975H150.438C150.489 243.733 150.646 243.234 150.91 242.478C151.179 241.716 151.778 240.06 152.708 237.508H153.925L151.081 245H149.755ZM156.263 245H155.128V237.508H156.263V245ZM155.032 235.478C155.032 235.218 155.096 235.029 155.224 234.91C155.351 234.787 155.511 234.726 155.702 234.726C155.884 234.726 156.042 234.787 156.174 234.91C156.306 235.033 156.372 235.222 156.372 235.478C156.372 235.733 156.306 235.924 156.174 236.052C156.042 236.175 155.884 236.236 155.702 236.236C155.511 236.236 155.351 236.175 155.224 236.052C155.096 235.924 155.032 235.733 155.032 235.478ZM161.834 245.137C160.727 245.137 159.852 244.799 159.209 244.125C158.571 243.451 158.252 242.514 158.252 241.315C158.252 240.108 158.548 239.148 159.141 238.438C159.738 237.727 160.537 237.371 161.54 237.371C162.479 237.371 163.222 237.681 163.769 238.301C164.315 238.916 164.589 239.729 164.589 240.741V241.459H159.428C159.451 242.339 159.672 243.006 160.091 243.462C160.515 243.918 161.109 244.146 161.875 244.146C162.682 244.146 163.479 243.977 164.268 243.64V244.651C163.867 244.825 163.486 244.948 163.126 245.021C162.771 245.098 162.34 245.137 161.834 245.137ZM161.526 238.321C160.925 238.321 160.444 238.517 160.084 238.909C159.729 239.301 159.519 239.843 159.455 240.536H163.372C163.372 239.821 163.213 239.274 162.894 238.896C162.575 238.513 162.119 238.321 161.526 238.321ZM172.648 245L171.274 240.604C171.188 240.336 171.026 239.725 170.789 238.772H170.734C170.552 239.57 170.393 240.185 170.256 240.618L168.841 245H167.528L165.484 237.508H166.674C167.157 239.39 167.524 240.823 167.774 241.808C168.03 242.792 168.175 243.455 168.212 243.797H168.267C168.317 243.537 168.396 243.202 168.506 242.792C168.62 242.377 168.718 242.049 168.8 241.808L170.174 237.508H171.404L172.744 241.808C172.999 242.591 173.173 243.25 173.264 243.783H173.318C173.337 243.619 173.384 243.366 173.462 243.024C173.544 242.683 174.02 240.844 174.891 237.508H176.066L173.995 245H172.648Z" fill="white"/>
<path d="M52.2539 317H45.6846V316.022L48.3164 313.377C49.1185 312.566 49.6471 311.987 49.9023 311.641C50.1576 311.294 50.349 310.957 50.4766 310.629C50.6042 310.301 50.668 309.948 50.668 309.569C50.668 309.036 50.5062 308.615 50.1826 308.305C49.859 307.99 49.4102 307.833 48.8359 307.833C48.4212 307.833 48.027 307.901 47.6533 308.038C47.2842 308.175 46.8717 308.423 46.416 308.783L45.8145 308.011C46.735 307.245 47.7376 306.862 48.8223 306.862C49.7611 306.862 50.4971 307.104 51.0303 307.587C51.5635 308.065 51.8301 308.71 51.8301 309.521C51.8301 310.155 51.6523 310.782 51.2969 311.401C50.9414 312.021 50.276 312.805 49.3008 313.753L47.1133 315.893V315.947H52.2539V317ZM59.3428 317V312.153C59.3428 311.543 59.2038 311.087 58.9258 310.786C58.6478 310.485 58.2126 310.335 57.6201 310.335C56.8363 310.335 56.262 310.547 55.8975 310.971C55.5329 311.395 55.3506 312.094 55.3506 313.069V317H54.2158V309.508H55.1387L55.3232 310.533H55.3779C55.6104 310.164 55.9362 309.879 56.3555 309.679C56.7747 309.474 57.2419 309.371 57.7568 309.371C58.6592 309.371 59.3382 309.59 59.7939 310.027C60.2497 310.46 60.4775 311.155 60.4775 312.112V317H59.3428ZM67.915 315.995H67.8535C67.3294 316.756 66.5456 317.137 65.502 317.137C64.5221 317.137 63.7588 316.802 63.2119 316.132C62.6696 315.462 62.3984 314.509 62.3984 313.274C62.3984 312.039 62.6719 311.08 63.2188 310.396C63.7656 309.713 64.5267 309.371 65.502 309.371C66.5182 309.371 67.2975 309.74 67.8398 310.479H67.9287L67.8809 309.938L67.8535 309.412V306.363H68.9883V317H68.0654L67.915 315.995ZM65.6455 316.187C66.4202 316.187 66.9808 315.977 67.3271 315.558C67.6781 315.134 67.8535 314.452 67.8535 313.514V313.274C67.8535 312.213 67.6758 311.456 67.3203 311.005C66.9694 310.549 66.4066 310.321 65.6318 310.321C64.9665 310.321 64.4561 310.581 64.1006 311.101C63.7497 311.616 63.5742 312.345 63.5742 313.288C63.5742 314.245 63.7497 314.967 64.1006 315.455C64.4515 315.943 64.9665 316.187 65.6455 316.187ZM84.5879 317V312.126C84.5879 311.529 84.4603 311.082 84.2051 310.786C83.9499 310.485 83.5534 310.335 83.0156 310.335C82.3092 310.335 81.7874 310.538 81.4502 310.943C81.113 311.349 80.9443 311.973 80.9443 312.816V317H79.8096V312.126C79.8096 311.529 79.682 311.082 79.4268 310.786C79.1715 310.485 78.7728 310.335 78.2305 310.335C77.5195 310.335 76.9977 310.549 76.665 310.978C76.3369 311.401 76.1729 312.099 76.1729 313.069V317H75.0381V309.508H75.9609L76.1455 310.533H76.2002C76.4144 310.169 76.7152 309.884 77.1025 309.679C77.4945 309.474 77.932 309.371 78.415 309.371C79.5863 309.371 80.3519 309.795 80.7119 310.643H80.7666C80.9899 310.251 81.3135 309.941 81.7373 309.713C82.1611 309.485 82.6442 309.371 83.1865 309.371C84.0342 309.371 84.6676 309.59 85.0869 310.027C85.5107 310.46 85.7227 311.155 85.7227 312.112V317H84.5879ZM89.2021 317H88.0674V309.508H89.2021V317ZM87.9717 307.478C87.9717 307.218 88.0355 307.029 88.1631 306.91C88.2907 306.787 88.4502 306.726 88.6416 306.726C88.8239 306.726 88.9811 306.787 89.1133 306.91C89.2454 307.033 89.3115 307.222 89.3115 307.478C89.3115 307.733 89.2454 307.924 89.1133 308.052C88.9811 308.175 88.8239 308.236 88.6416 308.236C88.4502 308.236 88.2907 308.175 88.1631 308.052C88.0355 307.924 87.9717 307.733 87.9717 307.478ZM96.708 315.995H96.6465C96.1224 316.756 95.3385 317.137 94.2949 317.137C93.3151 317.137 92.5518 316.802 92.0049 316.132C91.4626 315.462 91.1914 314.509 91.1914 313.274C91.1914 312.039 91.4648 311.08 92.0117 310.396C92.5586 309.713 93.3197 309.371 94.2949 309.371C95.3112 309.371 96.0905 309.74 96.6328 310.479H96.7217L96.6738 309.938L96.6465 309.412V306.363H97.7812V317H96.8584L96.708 315.995ZM94.4385 316.187C95.2132 316.187 95.7738 315.977 96.1201 315.558C96.471 315.134 96.6465 314.452 96.6465 313.514V313.274C96.6465 312.213 96.4688 311.456 96.1133 311.005C95.7624 310.549 95.1995 310.321 94.4248 310.321C93.7594 310.321 93.249 310.581 92.8936 311.101C92.5426 311.616 92.3672 312.345 92.3672 313.288C92.3672 314.245 92.5426 314.967 92.8936 315.455C93.2445 315.943 93.7594 316.187 94.4385 316.187ZM99.5654 313.767V312.728H102.922V313.767H99.5654ZM108.083 310.39H106.176V317H105.041V310.39H103.701V309.877L105.041 309.467V309.05C105.041 307.209 105.845 306.288 107.454 306.288C107.851 306.288 108.315 306.368 108.849 306.527L108.555 307.437C108.117 307.295 107.743 307.225 107.434 307.225C107.005 307.225 106.688 307.368 106.483 307.655C106.278 307.938 106.176 308.394 106.176 309.022V309.508H108.083V310.39ZM110.585 317H109.45V309.508H110.585V317ZM109.354 307.478C109.354 307.218 109.418 307.029 109.546 306.91C109.674 306.787 109.833 306.726 110.024 306.726C110.207 306.726 110.364 306.787 110.496 306.91C110.628 307.033 110.694 307.222 110.694 307.478C110.694 307.733 110.628 307.924 110.496 308.052C110.364 308.175 110.207 308.236 110.024 308.236C109.833 308.236 109.674 308.175 109.546 308.052C109.418 307.924 109.354 307.733 109.354 307.478ZM124.346 307.006V313.473C124.346 314.612 124.002 315.507 123.313 316.159C122.625 316.811 121.68 317.137 120.477 317.137C119.273 317.137 118.341 316.809 117.681 316.152C117.024 315.496 116.696 314.594 116.696 313.445V307.006H117.858V313.527C117.858 314.361 118.086 315.002 118.542 315.448C118.998 315.895 119.668 316.118 120.552 316.118C121.395 316.118 122.044 315.895 122.5 315.448C122.956 314.997 123.184 314.352 123.184 313.514V307.006H124.346ZM126.998 317V307.006H128.16V317H126.998ZM135.707 312.844V317H134.545V307.006H137.286C138.512 307.006 139.417 307.241 140 307.71C140.588 308.179 140.882 308.886 140.882 309.829C140.882 311.151 140.212 312.044 138.872 312.509L141.586 317H140.212L137.792 312.844H135.707ZM135.707 311.846H137.3C138.12 311.846 138.722 311.684 139.104 311.36C139.487 311.032 139.679 310.542 139.679 309.891C139.679 309.23 139.483 308.754 139.091 308.462C138.703 308.17 138.079 308.024 137.218 308.024H135.707V311.846ZM146.193 317.137C145.086 317.137 144.211 316.799 143.568 316.125C142.93 315.451 142.611 314.514 142.611 313.315C142.611 312.108 142.908 311.148 143.5 310.438C144.097 309.727 144.897 309.371 145.899 309.371C146.838 309.371 147.581 309.681 148.128 310.301C148.675 310.916 148.948 311.729 148.948 312.741V313.459H143.787C143.81 314.339 144.031 315.006 144.45 315.462C144.874 315.918 145.469 316.146 146.234 316.146C147.041 316.146 147.839 315.977 148.627 315.64V316.651C148.226 316.825 147.845 316.948 147.485 317.021C147.13 317.098 146.699 317.137 146.193 317.137ZM145.886 310.321C145.284 310.321 144.803 310.517 144.443 310.909C144.088 311.301 143.878 311.843 143.814 312.536H147.731C147.731 311.821 147.572 311.274 147.253 310.896C146.934 310.513 146.478 310.321 145.886 310.321ZM152.53 317L149.687 309.508H150.903L152.517 313.951C152.881 314.99 153.095 315.665 153.159 315.975H153.214C153.264 315.733 153.421 315.234 153.686 314.478C153.954 313.716 154.554 312.06 155.483 309.508H156.7L153.856 317H152.53ZM159.038 317H157.903V309.508H159.038V317ZM157.808 307.478C157.808 307.218 157.871 307.029 157.999 306.91C158.127 306.787 158.286 306.726 158.478 306.726C158.66 306.726 158.817 306.787 158.949 306.91C159.081 307.033 159.147 307.222 159.147 307.478C159.147 307.733 159.081 307.924 158.949 308.052C158.817 308.175 158.66 308.236 158.478 308.236C158.286 308.236 158.127 308.175 157.999 308.052C157.871 307.924 157.808 307.733 157.808 307.478ZM164.609 317.137C163.502 317.137 162.627 316.799 161.984 316.125C161.346 315.451 161.027 314.514 161.027 313.315C161.027 312.108 161.324 311.148 161.916 310.438C162.513 309.727 163.313 309.371 164.315 309.371C165.254 309.371 165.997 309.681 166.544 310.301C167.091 310.916 167.364 311.729 167.364 312.741V313.459H162.203C162.226 314.339 162.447 315.006 162.866 315.462C163.29 315.918 163.885 316.146 164.65 316.146C165.457 316.146 166.255 315.977 167.043 315.64V316.651C166.642 316.825 166.261 316.948 165.901 317.021C165.546 317.098 165.115 317.137 164.609 317.137ZM164.302 310.321C163.7 310.321 163.219 310.517 162.859 310.909C162.504 311.301 162.294 311.843 162.23 312.536H166.147C166.147 311.821 165.988 311.274 165.669 310.896C165.35 310.513 164.894 310.321 164.302 310.321ZM175.424 317L174.05 312.604C173.963 312.336 173.801 311.725 173.564 310.772H173.51C173.327 311.57 173.168 312.185 173.031 312.618L171.616 317H170.304L168.26 309.508H169.449C169.932 311.39 170.299 312.823 170.55 313.808C170.805 314.792 170.951 315.455 170.987 315.797H171.042C171.092 315.537 171.172 315.202 171.281 314.792C171.395 314.377 171.493 314.049 171.575 313.808L172.949 309.508H174.18L175.52 313.808C175.775 314.591 175.948 315.25 176.039 315.783H176.094C176.112 315.619 176.16 315.366 176.237 315.024C176.319 314.683 176.796 312.844 177.666 309.508H178.842L176.771 317H175.424Z" fill="white"/>
<path d="M39.2793 381.918C39.2793 382.93 38.9329 383.709 38.2402 384.256C37.5521 384.798 36.5654 385.069 35.2803 385.069H34.1045V389H32.9424V379.006H35.5332C38.0306 379.006 39.2793 379.977 39.2793 381.918ZM34.1045 384.071H35.1504C36.1803 384.071 36.9255 383.905 37.3857 383.572C37.846 383.24 38.0762 382.706 38.0762 381.973C38.0762 381.312 37.8597 380.82 37.4268 380.496C36.9938 380.173 36.3193 380.011 35.4033 380.011H34.1045V384.071ZM44.625 381.371C44.9577 381.371 45.2562 381.398 45.5205 381.453L45.3633 382.506C45.0534 382.438 44.7799 382.403 44.543 382.403C43.9368 382.403 43.4173 382.649 42.9844 383.142C42.556 383.634 42.3418 384.247 42.3418 384.98V389H41.207V381.508H42.1436L42.2734 382.896H42.3281C42.6061 382.408 42.9411 382.032 43.333 381.768C43.7249 381.503 44.1556 381.371 44.625 381.371ZM50.0869 389.137C48.9795 389.137 48.1045 388.799 47.4619 388.125C46.8239 387.451 46.5049 386.514 46.5049 385.315C46.5049 384.108 46.8011 383.148 47.3936 382.438C47.9906 381.727 48.7904 381.371 49.793 381.371C50.7318 381.371 51.4746 381.681 52.0215 382.301C52.5684 382.916 52.8418 383.729 52.8418 384.741V385.459H47.6807C47.7035 386.339 47.9245 387.006 48.3438 387.462C48.7676 387.918 49.3623 388.146 50.1279 388.146C50.9346 388.146 51.7321 387.977 52.5205 387.64V388.651C52.1195 388.825 51.7389 388.948 51.3789 389.021C51.0234 389.098 50.5928 389.137 50.0869 389.137ZM49.7793 382.321C49.1777 382.321 48.6969 382.517 48.3369 382.909C47.9814 383.301 47.7718 383.843 47.708 384.536H51.625C51.625 383.821 51.4655 383.274 51.1465 382.896C50.8275 382.513 50.3717 382.321 49.7793 382.321ZM55.918 389H54.7832V378.363H55.918V389ZM59.459 389H58.3242V381.508H59.459V389ZM58.2285 379.478C58.2285 379.218 58.2923 379.029 58.4199 378.91C58.5475 378.787 58.707 378.726 58.8984 378.726C59.0807 378.726 59.238 378.787 59.3701 378.91C59.5023 379.033 59.5684 379.222 59.5684 379.478C59.5684 379.733 59.5023 379.924 59.3701 380.052C59.238 380.175 59.0807 380.236 58.8984 380.236C58.707 380.236 58.5475 380.175 58.4199 380.052C58.2923 379.924 58.2285 379.733 58.2285 379.478ZM71.415 389V384.126C71.415 383.529 71.2874 383.082 71.0322 382.786C70.777 382.485 70.3805 382.335 69.8428 382.335C69.1364 382.335 68.6146 382.538 68.2773 382.943C67.9401 383.349 67.7715 383.973 67.7715 384.816V389H66.6367V384.126C66.6367 383.529 66.5091 383.082 66.2539 382.786C65.9987 382.485 65.5999 382.335 65.0576 382.335C64.3467 382.335 63.8249 382.549 63.4922 382.978C63.1641 383.401 63 384.099 63 385.069V389H61.8652V381.508H62.7881L62.9727 382.533H63.0273C63.2415 382.169 63.5423 381.884 63.9297 381.679C64.3216 381.474 64.7591 381.371 65.2422 381.371C66.4134 381.371 67.179 381.795 67.5391 382.643H67.5938C67.8171 382.251 68.1406 381.941 68.5645 381.713C68.9883 381.485 69.4714 381.371 70.0137 381.371C70.8613 381.371 71.4948 381.59 71.9141 382.027C72.3379 382.46 72.5498 383.155 72.5498 384.112V389H71.415ZM76.0293 389H74.8945V381.508H76.0293V389ZM74.7988 379.478C74.7988 379.218 74.8626 379.029 74.9902 378.91C75.1178 378.787 75.2773 378.726 75.4688 378.726C75.651 378.726 75.8083 378.787 75.9404 378.91C76.0726 379.033 76.1387 379.222 76.1387 379.478C76.1387 379.733 76.0726 379.924 75.9404 380.052C75.8083 380.175 75.651 380.236 75.4688 380.236C75.2773 380.236 75.1178 380.175 74.9902 380.052C74.8626 379.924 74.7988 379.733 74.7988 379.478ZM83.5625 389V384.153C83.5625 383.543 83.4235 383.087 83.1455 382.786C82.8675 382.485 82.4323 382.335 81.8398 382.335C81.056 382.335 80.4818 382.547 80.1172 382.971C79.7526 383.395 79.5703 384.094 79.5703 385.069V389H78.4355V381.508H79.3584L79.543 382.533H79.5977C79.8301 382.164 80.1559 381.879 80.5752 381.679C80.9945 381.474 81.4616 381.371 81.9766 381.371C82.8789 381.371 83.5579 381.59 84.0137 382.027C84.4694 382.46 84.6973 383.155 84.6973 384.112V389H83.5625ZM91.6426 389L91.417 387.934H91.3623C90.9886 388.403 90.6149 388.722 90.2412 388.891C89.8721 389.055 89.4095 389.137 88.8535 389.137C88.1107 389.137 87.5273 388.945 87.1035 388.562C86.6842 388.18 86.4746 387.635 86.4746 386.929C86.4746 385.416 87.6846 384.623 90.1045 384.55L91.376 384.509V384.044C91.376 383.456 91.2484 383.023 90.9932 382.745C90.7425 382.463 90.3392 382.321 89.7832 382.321C89.1589 382.321 88.4525 382.513 87.6641 382.896L87.3154 382.027C87.6846 381.827 88.0879 381.67 88.5254 381.556C88.9674 381.442 89.4095 381.385 89.8516 381.385C90.7448 381.385 91.4056 381.583 91.834 381.979C92.2669 382.376 92.4834 383.012 92.4834 383.887V389H91.6426ZM89.0791 388.2C89.7855 388.2 90.3392 388.007 90.7402 387.619C91.1458 387.232 91.3486 386.689 91.3486 385.992V385.315L90.2139 385.363C89.3115 385.395 88.6598 385.536 88.2588 385.787C87.8623 386.033 87.6641 386.418 87.6641 386.942C87.6641 387.353 87.7871 387.665 88.0332 387.879C88.2839 388.093 88.6325 388.2 89.0791 388.2ZM98.2461 381.371C98.5788 381.371 98.8773 381.398 99.1416 381.453L98.9844 382.506C98.6745 382.438 98.401 382.403 98.1641 382.403C97.5579 382.403 97.0384 382.649 96.6055 383.142C96.1771 383.634 95.9629 384.247 95.9629 384.98V389H94.8281V381.508H95.7646L95.8945 382.896H95.9492C96.2272 382.408 96.5622 382.032 96.9541 381.768C97.346 381.503 97.7767 381.371 98.2461 381.371ZM99.3535 381.508H100.57L102.211 385.78C102.571 386.756 102.794 387.46 102.881 387.893H102.936C102.995 387.66 103.118 387.264 103.305 386.703C103.496 386.138 104.116 384.406 105.164 381.508H106.381L103.161 390.039C102.842 390.882 102.468 391.479 102.04 391.83C101.616 392.186 101.094 392.363 100.475 392.363C100.128 392.363 99.7865 392.325 99.4492 392.247V391.338C99.6999 391.393 99.9801 391.42 100.29 391.42C101.069 391.42 101.625 390.982 101.958 390.107L102.375 389.041L99.3535 381.508ZM115.685 379.901C114.586 379.901 113.718 380.268 113.08 381.002C112.447 381.731 112.13 382.731 112.13 384.003C112.13 385.311 112.435 386.323 113.046 387.038C113.661 387.749 114.536 388.104 115.671 388.104C116.368 388.104 117.163 387.979 118.057 387.729V388.747C117.364 389.007 116.509 389.137 115.493 389.137C114.021 389.137 112.884 388.69 112.082 387.797C111.285 386.904 110.886 385.634 110.886 383.989C110.886 382.959 111.077 382.057 111.46 381.282C111.847 380.507 112.403 379.91 113.128 379.491C113.857 379.072 114.714 378.862 115.698 378.862C116.746 378.862 117.662 379.054 118.446 379.437L117.954 380.435C117.198 380.079 116.441 379.901 115.685 379.901ZM126.533 385.247C126.533 386.468 126.226 387.423 125.61 388.111C124.995 388.795 124.145 389.137 123.061 389.137C122.391 389.137 121.796 388.979 121.276 388.665C120.757 388.351 120.356 387.899 120.073 387.312C119.791 386.724 119.649 386.035 119.649 385.247C119.649 384.026 119.955 383.076 120.565 382.396C121.176 381.713 122.024 381.371 123.108 381.371C124.157 381.371 124.988 381.72 125.604 382.417C126.223 383.114 126.533 384.058 126.533 385.247ZM120.825 385.247C120.825 386.204 121.017 386.933 121.399 387.435C121.782 387.936 122.345 388.187 123.088 388.187C123.831 388.187 124.394 387.938 124.776 387.441C125.164 386.94 125.357 386.209 125.357 385.247C125.357 384.295 125.164 383.572 124.776 383.08C124.394 382.583 123.826 382.335 123.074 382.335C122.331 382.335 121.771 382.579 121.393 383.066C121.014 383.554 120.825 384.281 120.825 385.247ZM132.016 389.137C131.528 389.137 131.081 389.048 130.676 388.87C130.275 388.688 129.938 388.41 129.664 388.036H129.582C129.637 388.474 129.664 388.888 129.664 389.28V392.363H128.529V381.508H129.452L129.609 382.533H129.664C129.956 382.123 130.295 381.827 130.683 381.645C131.07 381.462 131.514 381.371 132.016 381.371C133.009 381.371 133.775 381.711 134.312 382.39C134.855 383.069 135.126 384.021 135.126 385.247C135.126 386.478 134.85 387.435 134.299 388.118C133.752 388.797 132.991 389.137 132.016 389.137ZM131.852 382.335C131.086 382.335 130.532 382.547 130.19 382.971C129.849 383.395 129.673 384.069 129.664 384.994V385.247C129.664 386.3 129.84 387.054 130.19 387.51C130.541 387.961 131.104 388.187 131.879 388.187C132.526 388.187 133.032 387.924 133.396 387.4C133.766 386.876 133.95 386.154 133.95 385.233C133.95 384.299 133.766 383.584 133.396 383.087C133.032 382.586 132.517 382.335 131.852 382.335ZM135.926 381.508H137.143L138.783 385.78C139.143 386.756 139.367 387.46 139.453 387.893H139.508C139.567 387.66 139.69 387.264 139.877 386.703C140.068 386.138 140.688 384.406 141.736 381.508H142.953L139.733 390.039C139.414 390.882 139.041 391.479 138.612 391.83C138.188 392.186 137.667 392.363 137.047 392.363C136.701 392.363 136.359 392.325 136.021 392.247V391.338C136.272 391.393 136.552 391.42 136.862 391.42C137.642 391.42 138.198 390.982 138.53 390.107L138.947 389.041L135.926 381.508ZM149.14 384.844V389H147.978V379.006H150.719C151.945 379.006 152.849 379.241 153.433 379.71C154.021 380.179 154.314 380.886 154.314 381.829C154.314 383.151 153.645 384.044 152.305 384.509L155.019 389H153.645L151.225 384.844H149.14ZM149.14 383.846H150.732C151.553 383.846 152.154 383.684 152.537 383.36C152.92 383.032 153.111 382.542 153.111 381.891C153.111 381.23 152.915 380.754 152.523 380.462C152.136 380.17 151.512 380.024 150.65 380.024H149.14V383.846ZM159.626 389.137C158.519 389.137 157.644 388.799 157.001 388.125C156.363 387.451 156.044 386.514 156.044 385.315C156.044 384.108 156.34 383.148 156.933 382.438C157.53 381.727 158.329 381.371 159.332 381.371C160.271 381.371 161.014 381.681 161.561 382.301C162.107 382.916 162.381 383.729 162.381 384.741V385.459H157.22C157.243 386.339 157.464 387.006 157.883 387.462C158.307 387.918 158.901 388.146 159.667 388.146C160.474 388.146 161.271 387.977 162.06 387.64V388.651C161.659 388.825 161.278 388.948 160.918 389.021C160.562 389.098 160.132 389.137 159.626 389.137ZM159.318 382.321C158.717 382.321 158.236 382.517 157.876 382.909C157.521 383.301 157.311 383.843 157.247 384.536H161.164C161.164 383.821 161.005 383.274 160.686 382.896C160.367 382.513 159.911 382.321 159.318 382.321ZM165.963 389L163.119 381.508H164.336L165.949 385.951C166.314 386.99 166.528 387.665 166.592 387.975H166.646C166.697 387.733 166.854 387.234 167.118 386.478C167.387 385.716 167.986 384.06 168.916 381.508H170.133L167.289 389H165.963ZM172.471 389H171.336V381.508H172.471V389ZM171.24 379.478C171.24 379.218 171.304 379.029 171.432 378.91C171.559 378.787 171.719 378.726 171.91 378.726C172.092 378.726 172.25 378.787 172.382 378.91C172.514 379.033 172.58 379.222 172.58 379.478C172.58 379.733 172.514 379.924 172.382 380.052C172.25 380.175 172.092 380.236 171.91 380.236C171.719 380.236 171.559 380.175 171.432 380.052C171.304 379.924 171.24 379.733 171.24 379.478ZM178.042 389.137C176.935 389.137 176.06 388.799 175.417 388.125C174.779 387.451 174.46 386.514 174.46 385.315C174.46 384.108 174.756 383.148 175.349 382.438C175.946 381.727 176.745 381.371 177.748 381.371C178.687 381.371 179.43 381.681 179.977 382.301C180.523 382.916 180.797 383.729 180.797 384.741V385.459H175.636C175.659 386.339 175.88 387.006 176.299 387.462C176.723 387.918 177.317 388.146 178.083 388.146C178.89 388.146 179.687 387.977 180.476 387.64V388.651C180.075 388.825 179.694 388.948 179.334 389.021C178.979 389.098 178.548 389.137 178.042 389.137ZM177.734 382.321C177.133 382.321 176.652 382.517 176.292 382.909C175.937 383.301 175.727 383.843 175.663 384.536H179.58C179.58 383.821 179.421 383.274 179.102 382.896C178.783 382.513 178.327 382.321 177.734 382.321ZM188.856 389L187.482 384.604C187.396 384.336 187.234 383.725 186.997 382.772H186.942C186.76 383.57 186.601 384.185 186.464 384.618L185.049 389H183.736L181.692 381.508H182.882C183.365 383.39 183.732 384.823 183.982 385.808C184.238 386.792 184.383 387.455 184.42 387.797H184.475C184.525 387.537 184.604 387.202 184.714 386.792C184.828 386.377 184.926 386.049 185.008 385.808L186.382 381.508H187.612L188.952 385.808C189.207 386.591 189.381 387.25 189.472 387.783H189.526C189.545 387.619 189.592 387.366 189.67 387.024C189.752 386.683 190.228 384.844 191.099 381.508H192.274L190.203 389H188.856Z" fill="white"/>
<path d="M51.3516 461V451.006H52.5137V459.947H56.9229V461H51.3516ZM61.6191 461.137C60.5117 461.137 59.6367 460.799 58.9941 460.125C58.3561 459.451 58.0371 458.514 58.0371 457.315C58.0371 456.108 58.3333 455.148 58.9258 454.438C59.5228 453.727 60.3226 453.371 61.3252 453.371C62.264 453.371 63.0068 453.681 63.5537 454.301C64.1006 454.916 64.374 455.729 64.374 456.741V457.459H59.2129C59.2357 458.339 59.4567 459.006 59.876 459.462C60.2998 459.918 60.8945 460.146 61.6602 460.146C62.4668 460.146 63.2643 459.977 64.0527 459.64V460.651C63.6517 460.825 63.2712 460.948 62.9111 461.021C62.5557 461.098 62.125 461.137 61.6191 461.137ZM61.3115 454.321C60.71 454.321 60.2292 454.517 59.8691 454.909C59.5137 455.301 59.304 455.843 59.2402 456.536H63.1572C63.1572 455.821 62.9977 455.274 62.6787 454.896C62.3597 454.513 61.904 454.321 61.3115 454.321ZM72.4473 453.508V454.226L71.0596 454.39C71.1872 454.549 71.3011 454.759 71.4014 455.019C71.5016 455.274 71.5518 455.563 71.5518 455.887C71.5518 456.62 71.3011 457.206 70.7998 457.644C70.2985 458.081 69.6104 458.3 68.7354 458.3C68.512 458.3 68.3024 458.282 68.1064 458.245C67.6234 458.5 67.3818 458.822 67.3818 459.209C67.3818 459.414 67.4661 459.567 67.6348 459.667C67.8034 459.763 68.0928 459.811 68.5029 459.811H69.8291C70.6403 459.811 71.2624 459.981 71.6953 460.323C72.1328 460.665 72.3516 461.162 72.3516 461.813C72.3516 462.643 72.0189 463.274 71.3535 463.707C70.6882 464.145 69.7174 464.363 68.4414 464.363C67.4616 464.363 66.7051 464.181 66.1719 463.816C65.6432 463.452 65.3789 462.937 65.3789 462.271C65.3789 461.816 65.5247 461.422 65.8164 461.089C66.1081 460.756 66.5182 460.531 67.0469 460.412C66.8555 460.326 66.6937 460.191 66.5615 460.009C66.4339 459.826 66.3701 459.615 66.3701 459.373C66.3701 459.1 66.443 458.86 66.5889 458.655C66.7347 458.45 66.9648 458.252 67.2793 458.061C66.8919 457.901 66.5752 457.63 66.3291 457.247C66.0876 456.864 65.9668 456.427 65.9668 455.935C65.9668 455.114 66.2129 454.483 66.7051 454.041C67.1973 453.594 67.8945 453.371 68.7969 453.371C69.1888 453.371 69.542 453.417 69.8564 453.508H72.4473ZM66.4727 462.258C66.4727 462.663 66.6436 462.971 66.9854 463.181C67.3271 463.39 67.8171 463.495 68.4551 463.495C69.4076 463.495 70.1117 463.352 70.5674 463.064C71.0277 462.782 71.2578 462.397 71.2578 461.909C71.2578 461.504 71.1325 461.221 70.8818 461.062C70.6312 460.907 70.1595 460.829 69.4668 460.829H68.1064C67.5915 460.829 67.1904 460.952 66.9033 461.198C66.6162 461.444 66.4727 461.798 66.4727 462.258ZM67.0879 455.907C67.0879 456.431 67.236 456.828 67.5322 457.097C67.8285 457.366 68.2409 457.5 68.7695 457.5C69.877 457.5 70.4307 456.962 70.4307 455.887C70.4307 454.761 69.8701 454.198 68.749 454.198C68.2158 454.198 67.8057 454.342 67.5186 454.629C67.2314 454.916 67.0879 455.342 67.0879 455.907ZM78.5928 461L78.3672 459.934H78.3125C77.9388 460.403 77.5651 460.722 77.1914 460.891C76.8223 461.055 76.3597 461.137 75.8037 461.137C75.0609 461.137 74.4775 460.945 74.0537 460.562C73.6344 460.18 73.4248 459.635 73.4248 458.929C73.4248 457.416 74.6348 456.623 77.0547 456.55L78.3262 456.509V456.044C78.3262 455.456 78.1986 455.023 77.9434 454.745C77.6927 454.463 77.2894 454.321 76.7334 454.321C76.109 454.321 75.4027 454.513 74.6143 454.896L74.2656 454.027C74.6348 453.827 75.0381 453.67 75.4756 453.556C75.9176 453.442 76.3597 453.385 76.8018 453.385C77.695 453.385 78.3558 453.583 78.7842 453.979C79.2171 454.376 79.4336 455.012 79.4336 455.887V461H78.5928ZM76.0293 460.2C76.7357 460.2 77.2894 460.007 77.6904 459.619C78.096 459.232 78.2988 458.689 78.2988 457.992V457.315L77.1641 457.363C76.2617 457.395 75.61 457.536 75.209 457.787C74.8125 458.033 74.6143 458.418 74.6143 458.942C74.6143 459.353 74.7373 459.665 74.9834 459.879C75.234 460.093 75.5827 460.2 76.0293 460.2ZM82.9131 461H81.7783V450.363H82.9131V461ZM93.4062 451.901C92.3079 451.901 91.4398 452.268 90.8018 453.002C90.1683 453.731 89.8516 454.731 89.8516 456.003C89.8516 457.311 90.1569 458.323 90.7676 459.038C91.3828 459.749 92.2578 460.104 93.3926 460.104C94.0898 460.104 94.8851 459.979 95.7783 459.729V460.747C95.0856 461.007 94.2311 461.137 93.2148 461.137C91.7428 461.137 90.6058 460.69 89.8037 459.797C89.0062 458.904 88.6074 457.634 88.6074 455.989C88.6074 454.959 88.7988 454.057 89.1816 453.282C89.569 452.507 90.125 451.91 90.8496 451.491C91.5788 451.072 92.4355 450.862 93.4199 450.862C94.4681 450.862 95.3841 451.054 96.168 451.437L95.6758 452.435C94.9193 452.079 94.1628 451.901 93.4062 451.901ZM104.255 457.247C104.255 458.468 103.947 459.423 103.332 460.111C102.717 460.795 101.867 461.137 100.782 461.137C100.112 461.137 99.5176 460.979 98.998 460.665C98.4785 460.351 98.0775 459.899 97.7949 459.312C97.5124 458.724 97.3711 458.035 97.3711 457.247C97.3711 456.026 97.6764 455.076 98.2871 454.396C98.8978 453.713 99.7454 453.371 100.83 453.371C101.878 453.371 102.71 453.72 103.325 454.417C103.945 455.114 104.255 456.058 104.255 457.247ZM98.5469 457.247C98.5469 458.204 98.7383 458.933 99.1211 459.435C99.5039 459.936 100.067 460.187 100.81 460.187C101.552 460.187 102.115 459.938 102.498 459.441C102.885 458.94 103.079 458.209 103.079 457.247C103.079 456.295 102.885 455.572 102.498 455.08C102.115 454.583 101.548 454.335 100.796 454.335C100.053 454.335 99.4925 454.579 99.1143 455.066C98.736 455.554 98.5469 456.281 98.5469 457.247ZM111.378 461V456.153C111.378 455.543 111.239 455.087 110.961 454.786C110.683 454.485 110.248 454.335 109.655 454.335C108.871 454.335 108.297 454.547 107.933 454.971C107.568 455.395 107.386 456.094 107.386 457.069V461H106.251V453.508H107.174L107.358 454.533H107.413C107.646 454.164 107.971 453.879 108.391 453.679C108.81 453.474 109.277 453.371 109.792 453.371C110.694 453.371 111.373 453.59 111.829 454.027C112.285 454.46 112.513 455.155 112.513 456.112V461H111.378ZM118.228 454.39H116.32V461H115.186V454.39H113.846V453.877L115.186 453.467V453.05C115.186 451.209 115.99 450.288 117.599 450.288C117.995 450.288 118.46 450.368 118.993 450.527L118.699 451.437C118.262 451.295 117.888 451.225 117.578 451.225C117.15 451.225 116.833 451.368 116.628 451.655C116.423 451.938 116.32 452.394 116.32 453.022V453.508H118.228V454.39ZM120.729 461H119.595V453.508H120.729V461ZM119.499 451.478C119.499 451.218 119.563 451.029 119.69 450.91C119.818 450.787 119.978 450.726 120.169 450.726C120.351 450.726 120.508 450.787 120.641 450.91C120.773 451.033 120.839 451.222 120.839 451.478C120.839 451.733 120.773 451.924 120.641 452.052C120.508 452.175 120.351 452.236 120.169 452.236C119.978 452.236 119.818 452.175 119.69 452.052C119.563 451.924 119.499 451.733 119.499 451.478ZM126.554 453.371C126.886 453.371 127.185 453.398 127.449 453.453L127.292 454.506C126.982 454.438 126.709 454.403 126.472 454.403C125.866 454.403 125.346 454.649 124.913 455.142C124.485 455.634 124.271 456.247 124.271 456.98V461H123.136V453.508H124.072L124.202 454.896H124.257C124.535 454.408 124.87 454.032 125.262 453.768C125.654 453.503 126.084 453.371 126.554 453.371ZM138.4 461V456.126C138.4 455.529 138.273 455.082 138.018 454.786C137.762 454.485 137.366 454.335 136.828 454.335C136.122 454.335 135.6 454.538 135.263 454.943C134.925 455.349 134.757 455.973 134.757 456.816V461H133.622V456.126C133.622 455.529 133.494 455.082 133.239 454.786C132.984 454.485 132.585 454.335 132.043 454.335C131.332 454.335 130.81 454.549 130.478 454.978C130.149 455.401 129.985 456.099 129.985 457.069V461H128.851V453.508H129.773L129.958 454.533H130.013C130.227 454.169 130.528 453.884 130.915 453.679C131.307 453.474 131.744 453.371 132.228 453.371C133.399 453.371 134.164 453.795 134.524 454.643H134.579C134.802 454.251 135.126 453.941 135.55 453.713C135.974 453.485 136.457 453.371 136.999 453.371C137.847 453.371 138.48 453.59 138.899 454.027C139.323 454.46 139.535 455.155 139.535 456.112V461H138.4ZM146.487 461L146.262 459.934H146.207C145.833 460.403 145.46 460.722 145.086 460.891C144.717 461.055 144.254 461.137 143.698 461.137C142.955 461.137 142.372 460.945 141.948 460.562C141.529 460.18 141.319 459.635 141.319 458.929C141.319 457.416 142.529 456.623 144.949 456.55L146.221 456.509V456.044C146.221 455.456 146.093 455.023 145.838 454.745C145.587 454.463 145.184 454.321 144.628 454.321C144.004 454.321 143.297 454.513 142.509 454.896L142.16 454.027C142.529 453.827 142.933 453.67 143.37 453.556C143.812 453.442 144.254 453.385 144.696 453.385C145.59 453.385 146.25 453.583 146.679 453.979C147.112 454.376 147.328 455.012 147.328 455.887V461H146.487ZM143.924 460.2C144.63 460.2 145.184 460.007 145.585 459.619C145.991 459.232 146.193 458.689 146.193 457.992V457.315L145.059 457.363C144.156 457.395 143.505 457.536 143.104 457.787C142.707 458.033 142.509 458.418 142.509 458.942C142.509 459.353 142.632 459.665 142.878 459.879C143.129 460.093 143.477 460.2 143.924 460.2ZM152.093 460.2C152.293 460.2 152.487 460.187 152.674 460.159C152.861 460.127 153.009 460.095 153.118 460.063V460.932C152.995 460.991 152.813 461.039 152.571 461.075C152.334 461.116 152.12 461.137 151.929 461.137C150.479 461.137 149.755 460.373 149.755 458.847V454.39H148.682V453.843L149.755 453.371L150.233 451.771H150.89V453.508H153.063V454.39H150.89V458.799C150.89 459.25 150.997 459.596 151.211 459.838C151.425 460.079 151.719 460.2 152.093 460.2ZM155.757 461H154.622V453.508H155.757V461ZM154.526 451.478C154.526 451.218 154.59 451.029 154.718 450.91C154.845 450.787 155.005 450.726 155.196 450.726C155.379 450.726 155.536 450.787 155.668 450.91C155.8 451.033 155.866 451.222 155.866 451.478C155.866 451.733 155.8 451.924 155.668 452.052C155.536 452.175 155.379 452.236 155.196 452.236C155.005 452.236 154.845 452.175 154.718 452.052C154.59 451.924 154.526 451.733 154.526 451.478ZM164.63 457.247C164.63 458.468 164.322 459.423 163.707 460.111C163.092 460.795 162.242 461.137 161.157 461.137C160.487 461.137 159.893 460.979 159.373 460.665C158.854 460.351 158.452 459.899 158.17 459.312C157.887 458.724 157.746 458.035 157.746 457.247C157.746 456.026 158.051 455.076 158.662 454.396C159.273 453.713 160.12 453.371 161.205 453.371C162.253 453.371 163.085 453.72 163.7 454.417C164.32 455.114 164.63 456.058 164.63 457.247ZM158.922 457.247C158.922 458.204 159.113 458.933 159.496 459.435C159.879 459.936 160.442 460.187 161.185 460.187C161.927 460.187 162.49 459.938 162.873 459.441C163.26 458.94 163.454 458.209 163.454 457.247C163.454 456.295 163.26 455.572 162.873 455.08C162.49 454.583 161.923 454.335 161.171 454.335C160.428 454.335 159.868 454.579 159.489 455.066C159.111 455.554 158.922 456.281 158.922 457.247ZM171.753 461V456.153C171.753 455.543 171.614 455.087 171.336 454.786C171.058 454.485 170.623 454.335 170.03 454.335C169.246 454.335 168.672 454.547 168.308 454.971C167.943 455.395 167.761 456.094 167.761 457.069V461H166.626V453.508H167.549L167.733 454.533H167.788C168.021 454.164 168.346 453.879 168.766 453.679C169.185 453.474 169.652 453.371 170.167 453.371C171.069 453.371 171.748 453.59 172.204 454.027C172.66 454.46 172.888 455.155 172.888 456.112V461H171.753Z" fill="white"/>
<path d="M78.7568 533L77.5127 529.821H73.5068L72.2764 533H71.1006L75.0518 522.965H76.0293L79.96 533H78.7568ZM77.1504 528.775L75.9883 525.679C75.8379 525.287 75.6829 524.806 75.5234 524.236C75.4232 524.674 75.2796 525.155 75.0928 525.679L73.917 528.775H77.1504ZM90.0088 527.989C90.0088 529.589 89.6032 530.847 88.792 531.763C87.9854 532.679 86.862 533.137 85.4219 533.137C83.9499 533.137 82.8128 532.688 82.0107 531.79C81.2132 530.888 80.8145 529.616 80.8145 527.976C80.8145 526.349 81.2155 525.089 82.0176 524.195C82.8197 523.298 83.959 522.849 85.4355 522.849C86.8711 522.849 87.9922 523.304 88.7988 524.216C89.6055 525.127 90.0088 526.385 90.0088 527.989ZM82.0449 527.989C82.0449 529.343 82.332 530.37 82.9062 531.072C83.485 531.77 84.3236 532.118 85.4219 532.118C86.5293 532.118 87.3656 531.77 87.9307 531.072C88.4958 530.375 88.7783 529.347 88.7783 527.989C88.7783 526.645 88.4958 525.626 87.9307 524.934C87.3701 524.236 86.5384 523.888 85.4355 523.888C84.3281 523.888 83.485 524.239 82.9062 524.94C82.332 525.638 82.0449 526.654 82.0449 527.989ZM100.222 527.907C100.222 529.557 99.7728 530.819 98.875 531.694C97.9818 532.565 96.6943 533 95.0127 533H92.2441V523.006H95.3066C96.8607 523.006 98.0684 523.437 98.9297 524.298C99.791 525.159 100.222 526.362 100.222 527.907ZM98.9912 527.948C98.9912 526.645 98.6631 525.663 98.0068 525.002C97.3551 524.341 96.3844 524.011 95.0947 524.011H93.4062V531.995H94.8213C96.2067 531.995 97.248 531.656 97.9453 530.977C98.6426 530.293 98.9912 529.284 98.9912 527.948ZM108.739 533L107.495 529.821H103.489L102.259 533H101.083L105.034 522.965H106.012L109.942 533H108.739ZM107.133 528.775L105.971 525.679C105.82 525.287 105.665 524.806 105.506 524.236C105.406 524.674 105.262 525.155 105.075 525.679L103.899 528.775H107.133ZM119.232 523.901C118.134 523.901 117.266 524.268 116.628 525.002C115.994 525.731 115.678 526.731 115.678 528.003C115.678 529.311 115.983 530.323 116.594 531.038C117.209 531.749 118.084 532.104 119.219 532.104C119.916 532.104 120.711 531.979 121.604 531.729V532.747C120.912 533.007 120.057 533.137 119.041 533.137C117.569 533.137 116.432 532.69 115.63 531.797C114.832 530.904 114.434 529.634 114.434 527.989C114.434 526.959 114.625 526.057 115.008 525.282C115.395 524.507 115.951 523.91 116.676 523.491C117.405 523.072 118.262 522.862 119.246 522.862C120.294 522.862 121.21 523.054 121.994 523.437L121.502 524.435C120.745 524.079 119.989 523.901 119.232 523.901ZM128.741 533V528.153C128.741 527.543 128.602 527.087 128.324 526.786C128.046 526.485 127.611 526.335 127.019 526.335C126.23 526.335 125.654 526.549 125.289 526.978C124.929 527.406 124.749 528.108 124.749 529.083V533H123.614V522.363H124.749V525.583C124.749 525.97 124.731 526.292 124.694 526.547H124.763C124.986 526.187 125.303 525.904 125.713 525.699C126.128 525.49 126.599 525.385 127.128 525.385C128.044 525.385 128.73 525.604 129.186 526.041C129.646 526.474 129.876 527.164 129.876 528.112V533H128.741ZM135.379 533.137C134.271 533.137 133.396 532.799 132.754 532.125C132.116 531.451 131.797 530.514 131.797 529.315C131.797 528.108 132.093 527.148 132.686 526.438C133.283 525.727 134.082 525.371 135.085 525.371C136.024 525.371 136.767 525.681 137.313 526.301C137.86 526.916 138.134 527.729 138.134 528.741V529.459H132.973C132.995 530.339 133.216 531.006 133.636 531.462C134.06 531.918 134.654 532.146 135.42 532.146C136.227 532.146 137.024 531.977 137.812 531.64V532.651C137.411 532.825 137.031 532.948 136.671 533.021C136.315 533.098 135.885 533.137 135.379 533.137ZM135.071 526.321C134.47 526.321 133.989 526.517 133.629 526.909C133.273 527.301 133.064 527.843 133 528.536H136.917C136.917 527.821 136.757 527.274 136.438 526.896C136.119 526.513 135.664 526.321 135.071 526.321ZM143.069 533.137C141.985 533.137 141.144 532.804 140.547 532.139C139.954 531.469 139.658 530.523 139.658 529.302C139.658 528.049 139.959 527.08 140.561 526.396C141.167 525.713 142.028 525.371 143.145 525.371C143.505 525.371 143.865 525.41 144.225 525.487C144.585 525.565 144.867 525.656 145.072 525.761L144.724 526.725C144.473 526.624 144.2 526.542 143.903 526.479C143.607 526.41 143.345 526.376 143.117 526.376C141.595 526.376 140.834 527.347 140.834 529.288C140.834 530.209 141.019 530.915 141.388 531.407C141.761 531.899 142.313 532.146 143.042 532.146C143.666 532.146 144.307 532.011 144.963 531.742V532.747C144.462 533.007 143.83 533.137 143.069 533.137ZM147.868 529.165C148.064 528.887 148.363 528.522 148.764 528.071L151.184 525.508H152.53L149.495 528.7L152.742 533H151.368L148.723 529.459L147.868 530.197V533H146.747V522.363H147.868V528.003C147.868 528.254 147.85 528.641 147.813 529.165H147.868Z" fill="white"/>
<path d="M87.4727 597.918C87.4727 598.93 87.1263 599.709 86.4336 600.256C85.7454 600.798 84.7588 601.069 83.4736 601.069H82.2979V605H81.1357V595.006H83.7266C86.224 595.006 87.4727 595.977 87.4727 597.918ZM82.2979 600.071H83.3438C84.3737 600.071 85.1188 599.905 85.5791 599.572C86.0394 599.24 86.2695 598.706 86.2695 597.973C86.2695 597.312 86.0531 596.82 85.6201 596.496C85.1872 596.173 84.5127 596.011 83.5967 596.011H82.2979V600.071ZM92.8184 597.371C93.151 597.371 93.4495 597.398 93.7139 597.453L93.5566 598.506C93.2467 598.438 92.9733 598.403 92.7363 598.403C92.1302 598.403 91.6107 598.649 91.1777 599.142C90.7493 599.634 90.5352 600.247 90.5352 600.98V605H89.4004V597.508H90.3369L90.4668 598.896H90.5215C90.7995 598.408 91.1344 598.032 91.5264 597.768C91.9183 597.503 92.349 597.371 92.8184 597.371ZM101.582 601.247C101.582 602.468 101.274 603.423 100.659 604.111C100.044 604.795 99.194 605.137 98.1094 605.137C97.4395 605.137 96.8447 604.979 96.3252 604.665C95.8057 604.351 95.4046 603.899 95.1221 603.312C94.8395 602.724 94.6982 602.035 94.6982 601.247C94.6982 600.026 95.0036 599.076 95.6143 598.396C96.2249 597.713 97.0726 597.371 98.1572 597.371C99.2054 597.371 100.037 597.72 100.652 598.417C101.272 599.114 101.582 600.058 101.582 601.247ZM95.874 601.247C95.874 602.204 96.0654 602.933 96.4482 603.435C96.8311 603.936 97.3939 604.187 98.1367 604.187C98.8796 604.187 99.4424 603.938 99.8252 603.441C100.213 602.94 100.406 602.209 100.406 601.247C100.406 600.295 100.213 599.572 99.8252 599.08C99.4424 598.583 98.875 598.335 98.123 598.335C97.3802 598.335 96.8197 598.579 96.4414 599.066C96.0632 599.554 95.874 600.281 95.874 601.247ZM105.998 604.2C106.199 604.2 106.392 604.187 106.579 604.159C106.766 604.127 106.914 604.095 107.023 604.063V604.932C106.9 604.991 106.718 605.039 106.477 605.075C106.24 605.116 106.025 605.137 105.834 605.137C104.385 605.137 103.66 604.373 103.66 602.847V598.39H102.587V597.843L103.66 597.371L104.139 595.771H104.795V597.508H106.969V598.39H104.795V602.799C104.795 603.25 104.902 603.596 105.116 603.838C105.33 604.079 105.624 604.2 105.998 604.2ZM114.994 601.247C114.994 602.468 114.687 603.423 114.071 604.111C113.456 604.795 112.606 605.137 111.521 605.137C110.852 605.137 110.257 604.979 109.737 604.665C109.218 604.351 108.817 603.899 108.534 603.312C108.252 602.724 108.11 602.035 108.11 601.247C108.11 600.026 108.416 599.076 109.026 598.396C109.637 597.713 110.485 597.371 111.569 597.371C112.618 597.371 113.449 597.72 114.064 598.417C114.684 599.114 114.994 600.058 114.994 601.247ZM109.286 601.247C109.286 602.204 109.478 602.933 109.86 603.435C110.243 603.936 110.806 604.187 111.549 604.187C112.292 604.187 112.854 603.938 113.237 603.441C113.625 602.94 113.818 602.209 113.818 601.247C113.818 600.295 113.625 599.572 113.237 599.08C112.854 598.583 112.287 598.335 111.535 598.335C110.792 598.335 110.232 598.579 109.854 599.066C109.475 599.554 109.286 600.281 109.286 601.247ZM119.41 604.2C119.611 604.2 119.804 604.187 119.991 604.159C120.178 604.127 120.326 604.095 120.436 604.063V604.932C120.312 604.991 120.13 605.039 119.889 605.075C119.652 605.116 119.438 605.137 119.246 605.137C117.797 605.137 117.072 604.373 117.072 602.847V598.39H115.999V597.843L117.072 597.371L117.551 595.771H118.207V597.508H120.381V598.39H118.207V602.799C118.207 603.25 118.314 603.596 118.528 603.838C118.743 604.079 119.036 604.2 119.41 604.2ZM120.75 597.508H121.967L123.607 601.78C123.967 602.756 124.191 603.46 124.277 603.893H124.332C124.391 603.66 124.514 603.264 124.701 602.703C124.893 602.138 125.512 600.406 126.561 597.508H127.777L124.558 606.039C124.239 606.882 123.865 607.479 123.437 607.83C123.013 608.186 122.491 608.363 121.871 608.363C121.525 608.363 121.183 608.325 120.846 608.247V607.338C121.096 607.393 121.377 607.42 121.687 607.42C122.466 607.42 123.022 606.982 123.354 606.107L123.771 605.041L120.75 597.508ZM132.48 605.137C131.993 605.137 131.546 605.048 131.141 604.87C130.74 604.688 130.402 604.41 130.129 604.036H130.047C130.102 604.474 130.129 604.888 130.129 605.28V608.363H128.994V597.508H129.917L130.074 598.533H130.129C130.421 598.123 130.76 597.827 131.147 597.645C131.535 597.462 131.979 597.371 132.48 597.371C133.474 597.371 134.24 597.711 134.777 598.39C135.32 599.069 135.591 600.021 135.591 601.247C135.591 602.478 135.315 603.435 134.764 604.118C134.217 604.797 133.456 605.137 132.48 605.137ZM132.316 598.335C131.551 598.335 130.997 598.547 130.655 598.971C130.313 599.395 130.138 600.069 130.129 600.994V601.247C130.129 602.3 130.304 603.054 130.655 603.51C131.006 603.961 131.569 604.187 132.344 604.187C132.991 604.187 133.497 603.924 133.861 603.4C134.23 602.876 134.415 602.154 134.415 601.233C134.415 600.299 134.23 599.584 133.861 599.087C133.497 598.586 132.982 598.335 132.316 598.335ZM140.745 605.137C139.638 605.137 138.763 604.799 138.12 604.125C137.482 603.451 137.163 602.514 137.163 601.315C137.163 600.108 137.459 599.148 138.052 598.438C138.649 597.727 139.449 597.371 140.451 597.371C141.39 597.371 142.133 597.681 142.68 598.301C143.227 598.916 143.5 599.729 143.5 600.741V601.459H138.339C138.362 602.339 138.583 603.006 139.002 603.462C139.426 603.918 140.021 604.146 140.786 604.146C141.593 604.146 142.39 603.977 143.179 603.64V604.651C142.778 604.825 142.397 604.948 142.037 605.021C141.682 605.098 141.251 605.137 140.745 605.137ZM140.438 598.321C139.836 598.321 139.355 598.517 138.995 598.909C138.64 599.301 138.43 599.843 138.366 600.536H142.283C142.283 599.821 142.124 599.274 141.805 598.896C141.486 598.513 141.03 598.321 140.438 598.321Z" fill="white"/>
<path d="M110.939 73.0607C111.525 73.6464 112.475 73.6464 113.061 73.0607L122.607 63.5147C123.192 62.9289 123.192 61.9792 122.607 61.3934C122.021 60.8076 121.071 60.8076 120.485 61.3934L112 69.8787L103.515 61.3934C102.929 60.8076 101.979 60.8076 101.393 61.3934C100.808 61.9792 100.808 62.9289 101.393 63.5147L110.939 73.0607ZM110.5 48L110.5 72L113.5 72L113.5 48L110.5 48Z" fill="#38373A"/>
<path d="M110.939 145.061C111.525 145.646 112.475 145.646 113.061 145.061L122.607 135.515C123.192 134.929 123.192 133.979 122.607 133.393C122.021 132.808 121.071 132.808 120.485 133.393L112 141.879L103.515 133.393C102.929 132.808 101.979 132.808 101.393 133.393C100.808 133.979 100.808 134.929 101.393 135.515L110.939 145.061ZM110.5 120L110.5 144L113.5 144L113.5 120L110.5 120Z" fill="#38373A"/>
<path d="M111.293 216.707C111.683 217.098 112.317 217.098 112.707 216.707L119.071 210.343C119.462 209.953 119.462 209.319 119.071 208.929C118.681 208.538 118.047 208.538 117.657 208.929L112 214.586L106.343 208.929C105.953 208.538 105.319 208.538 104.929 208.929C104.538 209.319 104.538 209.953 104.929 210.343L111.293 216.707ZM111 192L111 216L113 216L113 192L111 192Z" fill="#38373A"/>
<path d="M111.293 288.707C111.683 289.098 112.317 289.098 112.707 288.707L119.071 282.343C119.462 281.953 119.462 281.319 119.071 280.929C118.681 280.538 118.047 280.538 117.657 280.929L112 286.586L106.343 280.929C105.953 280.538 105.319 280.538 104.929 280.929C104.538 281.319 104.538 281.953 104.929 282.343L111.293 288.707ZM111 264L111 288L113 288L113 264L111 264Z" fill="#38373A"/>
<path d="M111.293 360.707C111.683 361.098 112.317 361.098 112.707 360.707L119.071 354.343C119.462 353.953 119.462 353.319 119.071 352.929C118.681 352.538 118.047 352.538 117.657 352.929L112 358.586L106.343 352.929C105.953 352.538 105.319 352.538 104.929 352.929C104.538 353.319 104.538 353.953 104.929 354.343L111.293 360.707ZM111 336L111 360L113 360L113 336L111 336Z" fill="#38373A"/>
<path d="M111.293 432.707C111.683 433.098 112.317 433.098 112.707 432.707L119.071 426.343C119.462 425.953 119.462 425.319 119.071 424.929C118.681 424.538 118.047 424.538 117.657 424.929L112 430.586L106.343 424.929C105.953 424.538 105.319 424.538 104.929 424.929C104.538 425.319 104.538 425.953 104.929 426.343L111.293 432.707ZM111 408L111 432L113 432L113 408L111 408Z" fill="#38373A"/>
<path d="M111.293 504.707C111.683 505.098 112.317 505.098 112.707 504.707L119.071 498.343C119.462 497.953 119.462 497.319 119.071 496.929C118.681 496.538 118.047 496.538 117.657 496.929L112 502.586L106.343 496.929C105.953 496.538 105.319 496.538 104.929 496.929C104.538 497.319 104.538 497.953 104.929 498.343L111.293 504.707ZM111 480L111 504L113 504L113 480L111 480Z" fill="#38373A"/>
<path d="M111.293 576.707C111.683 577.098 112.317 577.098 112.707 576.707L119.071 570.343C119.462 569.953 119.462 569.319 119.071 568.929C118.681 568.538 118.047 568.538 117.657 568.929L112 574.586L106.343 568.929C105.953 568.538 105.319 568.538 104.929 568.929C104.538 569.319 104.538 569.953 104.929 570.343L111.293 576.707ZM111 552L111 576L113 576L113 552L111 552Z" fill="#38373A"/>
<rect x="8" y="648" width="208" height="48" rx="24" fill="#38373A"/>
<rect x="8" y="720" width="208" height="48" rx="24" fill="#38373A"/>
<rect x="8" y="792" width="208" height="48" rx="24" fill="#38373A"/>
<path d="M90.248 667.006V673.473C90.248 674.612 89.904 675.507 89.2158 676.159C88.5277 676.811 87.582 677.137 86.3789 677.137C85.1758 677.137 84.2438 676.809 83.583 676.152C82.9268 675.496 82.5986 674.594 82.5986 673.445V667.006H83.7607V673.527C83.7607 674.361 83.9886 675.002 84.4443 675.448C84.9001 675.895 85.57 676.118 86.4541 676.118C87.2972 676.118 87.9466 675.895 88.4023 675.448C88.8581 674.997 89.0859 674.352 89.0859 673.514V667.006H90.248ZM97.5625 674.956C97.5625 675.653 97.3027 676.191 96.7832 676.569C96.2637 676.948 95.5345 677.137 94.5957 677.137C93.6022 677.137 92.8275 676.979 92.2715 676.665V675.612C92.6315 675.795 93.0166 675.938 93.4268 676.043C93.8415 676.148 94.2402 676.2 94.623 676.2C95.2155 676.2 95.6712 676.107 95.9902 675.92C96.3092 675.729 96.4688 675.439 96.4688 675.052C96.4688 674.76 96.3411 674.512 96.0859 674.307C95.8353 674.097 95.3431 673.851 94.6094 673.568C93.9121 673.309 93.4154 673.083 93.1191 672.892C92.8275 672.696 92.6087 672.475 92.4629 672.229C92.3216 671.982 92.251 671.688 92.251 671.347C92.251 670.736 92.4993 670.255 92.9961 669.904C93.4928 669.549 94.1742 669.371 95.04 669.371C95.8467 669.371 96.6351 669.535 97.4053 669.863L97.002 670.786C96.25 670.476 95.5687 670.321 94.958 670.321C94.4202 670.321 94.0146 670.406 93.7412 670.574C93.4678 670.743 93.3311 670.975 93.3311 671.271C93.3311 671.472 93.3812 671.643 93.4814 671.784C93.5863 671.925 93.7526 672.06 93.9805 672.188C94.2083 672.315 94.6458 672.5 95.293 672.741C96.1816 673.065 96.7809 673.391 97.0908 673.719C97.4053 674.047 97.5625 674.459 97.5625 674.956ZM102.58 677.137C101.473 677.137 100.598 676.799 99.9551 676.125C99.3171 675.451 98.998 674.514 98.998 673.315C98.998 672.108 99.2943 671.148 99.8867 670.438C100.484 669.727 101.284 669.371 102.286 669.371C103.225 669.371 103.968 669.681 104.515 670.301C105.062 670.916 105.335 671.729 105.335 672.741V673.459H100.174C100.197 674.339 100.418 675.006 100.837 675.462C101.261 675.918 101.855 676.146 102.621 676.146C103.428 676.146 104.225 675.977 105.014 675.64V676.651C104.613 676.825 104.232 676.948 103.872 677.021C103.517 677.098 103.086 677.137 102.58 677.137ZM102.272 670.321C101.671 670.321 101.19 670.517 100.83 670.909C100.475 671.301 100.265 671.843 100.201 672.536H104.118C104.118 671.821 103.959 671.274 103.64 670.896C103.321 670.513 102.865 670.321 102.272 670.321ZM110.694 669.371C111.027 669.371 111.326 669.398 111.59 669.453L111.433 670.506C111.123 670.438 110.849 670.403 110.612 670.403C110.006 670.403 109.487 670.649 109.054 671.142C108.625 671.634 108.411 672.247 108.411 672.98V677H107.276V669.508H108.213L108.343 670.896H108.397C108.675 670.408 109.01 670.032 109.402 669.768C109.794 669.503 110.225 669.371 110.694 669.371ZM119.875 677H118.713V668.038H115.548V667.006H123.04V668.038H119.875V677ZM127.545 677.137C126.438 677.137 125.562 676.799 124.92 676.125C124.282 675.451 123.963 674.514 123.963 673.315C123.963 672.108 124.259 671.148 124.852 670.438C125.449 669.727 126.248 669.371 127.251 669.371C128.19 669.371 128.933 669.681 129.479 670.301C130.026 670.916 130.3 671.729 130.3 672.741V673.459H125.139C125.161 674.339 125.382 675.006 125.802 675.462C126.226 675.918 126.82 676.146 127.586 676.146C128.393 676.146 129.19 675.977 129.979 675.64V676.651C129.577 676.825 129.197 676.948 128.837 677.021C128.481 677.098 128.051 677.137 127.545 677.137ZM127.237 670.321C126.636 670.321 126.155 670.517 125.795 670.909C125.439 671.301 125.23 671.843 125.166 672.536H129.083C129.083 671.821 128.924 671.274 128.604 670.896C128.285 670.513 127.83 670.321 127.237 670.321ZM137.074 674.956C137.074 675.653 136.814 676.191 136.295 676.569C135.775 676.948 135.046 677.137 134.107 677.137C133.114 677.137 132.339 676.979 131.783 676.665V675.612C132.143 675.795 132.528 675.938 132.938 676.043C133.353 676.148 133.752 676.2 134.135 676.2C134.727 676.2 135.183 676.107 135.502 675.92C135.821 675.729 135.98 675.439 135.98 675.052C135.98 674.76 135.853 674.512 135.598 674.307C135.347 674.097 134.855 673.851 134.121 673.568C133.424 673.309 132.927 673.083 132.631 672.892C132.339 672.696 132.12 672.475 131.975 672.229C131.833 671.982 131.763 671.688 131.763 671.347C131.763 670.736 132.011 670.255 132.508 669.904C133.005 669.549 133.686 669.371 134.552 669.371C135.358 669.371 136.147 669.535 136.917 669.863L136.514 670.786C135.762 670.476 135.08 670.321 134.47 670.321C133.932 670.321 133.526 670.406 133.253 670.574C132.979 670.743 132.843 670.975 132.843 671.271C132.843 671.472 132.893 671.643 132.993 671.784C133.098 671.925 133.264 672.06 133.492 672.188C133.72 672.315 134.158 672.5 134.805 672.741C135.693 673.065 136.293 673.391 136.603 673.719C136.917 674.047 137.074 674.459 137.074 674.956ZM141.347 676.2C141.547 676.2 141.741 676.187 141.928 676.159C142.115 676.127 142.263 676.095 142.372 676.063V676.932C142.249 676.991 142.067 677.039 141.825 677.075C141.588 677.116 141.374 677.137 141.183 677.137C139.733 677.137 139.009 676.373 139.009 674.847V670.39H137.936V669.843L139.009 669.371L139.487 667.771H140.144V669.508H142.317V670.39H140.144V674.799C140.144 675.25 140.251 675.596 140.465 675.838C140.679 676.079 140.973 676.2 141.347 676.2Z" fill="white"/>
<path d="M32.9697 749H31.8076V739.006H37.3789V740.038H32.9697V743.695H37.1123V744.728H32.9697V749ZM40.0039 749H38.8691V741.508H40.0039V749ZM38.7734 739.478C38.7734 739.218 38.8372 739.029 38.9648 738.91C39.0924 738.787 39.252 738.726 39.4434 738.726C39.6257 738.726 39.7829 738.787 39.915 738.91C40.0472 739.033 40.1133 739.222 40.1133 739.478C40.1133 739.733 40.0472 739.924 39.915 740.052C39.7829 740.175 39.6257 740.236 39.4434 740.236C39.252 740.236 39.0924 740.175 38.9648 740.052C38.8372 739.924 38.7734 739.733 38.7734 739.478ZM47.5371 749V744.153C47.5371 743.543 47.3981 743.087 47.1201 742.786C46.8421 742.485 46.4069 742.335 45.8145 742.335C45.0306 742.335 44.4564 742.547 44.0918 742.971C43.7272 743.395 43.5449 744.094 43.5449 745.069V749H42.4102V741.508H43.333L43.5176 742.533H43.5723C43.8047 742.164 44.1305 741.879 44.5498 741.679C44.9691 741.474 45.4362 741.371 45.9512 741.371C46.8535 741.371 47.5326 741.59 47.9883 742.027C48.444 742.46 48.6719 743.155 48.6719 744.112V749H47.5371ZM55.6172 749L55.3916 747.934H55.3369C54.9632 748.403 54.5895 748.722 54.2158 748.891C53.8467 749.055 53.3841 749.137 52.8281 749.137C52.0853 749.137 51.502 748.945 51.0781 748.562C50.6589 748.18 50.4492 747.635 50.4492 746.929C50.4492 745.416 51.6592 744.623 54.0791 744.55L55.3506 744.509V744.044C55.3506 743.456 55.223 743.023 54.9678 742.745C54.7171 742.463 54.3138 742.321 53.7578 742.321C53.1335 742.321 52.4271 742.513 51.6387 742.896L51.29 742.027C51.6592 741.827 52.0625 741.67 52.5 741.556C52.9421 741.442 53.3841 741.385 53.8262 741.385C54.7194 741.385 55.3802 741.583 55.8086 741.979C56.2415 742.376 56.458 743.012 56.458 743.887V749H55.6172ZM53.0537 748.2C53.7601 748.2 54.3138 748.007 54.7148 747.619C55.1204 747.232 55.3232 746.689 55.3232 745.992V745.315L54.1885 745.363C53.2861 745.395 52.6344 745.536 52.2334 745.787C51.8369 746.033 51.6387 746.418 51.6387 746.942C51.6387 747.353 51.7617 747.665 52.0078 747.879C52.2585 748.093 52.6071 748.2 53.0537 748.2ZM59.9375 749H58.8027V738.363H59.9375V749ZM63.4785 749H62.3438V741.508H63.4785V749ZM62.248 739.478C62.248 739.218 62.3118 739.029 62.4395 738.91C62.5671 738.787 62.7266 738.726 62.918 738.726C63.1003 738.726 63.2575 738.787 63.3896 738.91C63.5218 739.033 63.5879 739.222 63.5879 739.478C63.5879 739.733 63.5218 739.924 63.3896 740.052C63.2575 740.175 63.1003 740.236 62.918 740.236C62.7266 740.236 62.5671 740.175 62.4395 740.052C62.3118 739.924 62.248 739.733 62.248 739.478ZM70.6768 749H65.2422V748.228L69.3301 742.39H65.4951V741.508H70.5742V742.39L66.541 748.118H70.6768V749ZM75.5986 749.137C74.4912 749.137 73.6162 748.799 72.9736 748.125C72.3356 747.451 72.0166 746.514 72.0166 745.315C72.0166 744.108 72.3128 743.148 72.9053 742.438C73.5023 741.727 74.3021 741.371 75.3047 741.371C76.2435 741.371 76.9863 741.681 77.5332 742.301C78.0801 742.916 78.3535 743.729 78.3535 744.741V745.459H73.1924C73.2152 746.339 73.4362 747.006 73.8555 747.462C74.2793 747.918 74.874 748.146 75.6396 748.146C76.4463 748.146 77.2438 747.977 78.0322 747.64V748.651C77.6312 748.825 77.2507 748.948 76.8906 749.021C76.5352 749.098 76.1045 749.137 75.5986 749.137ZM75.291 742.321C74.6895 742.321 74.2087 742.517 73.8486 742.909C73.4932 743.301 73.2835 743.843 73.2197 744.536H77.1367C77.1367 743.821 76.9772 743.274 76.6582 742.896C76.3392 742.513 75.8835 742.321 75.291 742.321ZM91.6494 739.006V745.473C91.6494 746.612 91.3053 747.507 90.6172 748.159C89.929 748.811 88.9834 749.137 87.7803 749.137C86.5771 749.137 85.6452 748.809 84.9844 748.152C84.3281 747.496 84 746.594 84 745.445V739.006H85.1621V745.527C85.1621 746.361 85.39 747.002 85.8457 747.448C86.3014 747.895 86.9714 748.118 87.8555 748.118C88.6986 748.118 89.348 747.895 89.8037 747.448C90.2594 746.997 90.4873 746.352 90.4873 745.514V739.006H91.6494ZM94.3018 749V739.006H95.4639V749H94.3018ZM106.285 749L106.06 747.934H106.005C105.631 748.403 105.257 748.722 104.884 748.891C104.515 749.055 104.052 749.137 103.496 749.137C102.753 749.137 102.17 748.945 101.746 748.562C101.327 748.18 101.117 747.635 101.117 746.929C101.117 745.416 102.327 744.623 104.747 744.55L106.019 744.509V744.044C106.019 743.456 105.891 743.023 105.636 742.745C105.385 742.463 104.982 742.321 104.426 742.321C103.801 742.321 103.095 742.513 102.307 742.896L101.958 742.027C102.327 741.827 102.73 741.67 103.168 741.556C103.61 741.442 104.052 741.385 104.494 741.385C105.387 741.385 106.048 741.583 106.477 741.979C106.91 742.376 107.126 743.012 107.126 743.887V749H106.285ZM103.722 748.2C104.428 748.2 104.982 748.007 105.383 747.619C105.788 747.232 105.991 746.689 105.991 745.992V745.315L104.856 745.363C103.954 745.395 103.302 745.536 102.901 745.787C102.505 746.033 102.307 746.418 102.307 746.942C102.307 747.353 102.43 747.665 102.676 747.879C102.926 748.093 103.275 748.2 103.722 748.2ZM114.598 749V744.153C114.598 743.543 114.459 743.087 114.181 742.786C113.903 742.485 113.467 742.335 112.875 742.335C112.091 742.335 111.517 742.547 111.152 742.971C110.788 743.395 110.605 744.094 110.605 745.069V749H109.471V741.508H110.394L110.578 742.533H110.633C110.865 742.164 111.191 741.879 111.61 741.679C112.03 741.474 112.497 741.371 113.012 741.371C113.914 741.371 114.593 741.59 115.049 742.027C115.505 742.46 115.732 743.155 115.732 744.112V749H114.598ZM123.17 747.995H123.108C122.584 748.756 121.8 749.137 120.757 749.137C119.777 749.137 119.014 748.802 118.467 748.132C117.924 747.462 117.653 746.509 117.653 745.274C117.653 744.039 117.927 743.08 118.474 742.396C119.021 741.713 119.782 741.371 120.757 741.371C121.773 741.371 122.552 741.74 123.095 742.479H123.184L123.136 741.938L123.108 741.412V738.363H124.243V749H123.32L123.17 747.995ZM120.9 748.187C121.675 748.187 122.236 747.977 122.582 747.558C122.933 747.134 123.108 746.452 123.108 745.514V745.274C123.108 744.213 122.931 743.456 122.575 743.005C122.224 742.549 121.661 742.321 120.887 742.321C120.221 742.321 119.711 742.581 119.355 743.101C119.005 743.616 118.829 744.345 118.829 745.288C118.829 746.245 119.005 746.967 119.355 747.455C119.706 747.943 120.221 748.187 120.9 748.187ZM136.801 741.918C136.801 742.93 136.454 743.709 135.762 744.256C135.074 744.798 134.087 745.069 132.802 745.069H131.626V749H130.464V739.006H133.055C135.552 739.006 136.801 739.977 136.801 741.918ZM131.626 744.071H132.672C133.702 744.071 134.447 743.905 134.907 743.572C135.368 743.24 135.598 742.706 135.598 741.973C135.598 741.312 135.381 740.82 134.948 740.496C134.515 740.173 133.841 740.011 132.925 740.011H131.626V744.071ZM142.146 741.371C142.479 741.371 142.778 741.398 143.042 741.453L142.885 742.506C142.575 742.438 142.301 742.403 142.064 742.403C141.458 742.403 140.939 742.649 140.506 743.142C140.077 743.634 139.863 744.247 139.863 744.98V749H138.729V741.508H139.665L139.795 742.896H139.85C140.128 742.408 140.463 742.032 140.854 741.768C141.246 741.503 141.677 741.371 142.146 741.371ZM150.91 745.247C150.91 746.468 150.603 747.423 149.987 748.111C149.372 748.795 148.522 749.137 147.438 749.137C146.768 749.137 146.173 748.979 145.653 748.665C145.134 748.351 144.733 747.899 144.45 747.312C144.168 746.724 144.026 746.035 144.026 745.247C144.026 744.026 144.332 743.076 144.942 742.396C145.553 741.713 146.401 741.371 147.485 741.371C148.534 741.371 149.365 741.72 149.98 742.417C150.6 743.114 150.91 744.058 150.91 745.247ZM145.202 745.247C145.202 746.204 145.394 746.933 145.776 747.435C146.159 747.936 146.722 748.187 147.465 748.187C148.208 748.187 148.771 747.938 149.153 747.441C149.541 746.94 149.734 746.209 149.734 745.247C149.734 744.295 149.541 743.572 149.153 743.08C148.771 742.583 148.203 742.335 147.451 742.335C146.708 742.335 146.148 742.579 145.77 743.066C145.391 743.554 145.202 744.281 145.202 745.247ZM155.326 748.2C155.527 748.2 155.72 748.187 155.907 748.159C156.094 748.127 156.242 748.095 156.352 748.063V748.932C156.229 748.991 156.046 749.039 155.805 749.075C155.568 749.116 155.354 749.137 155.162 749.137C153.713 749.137 152.988 748.373 152.988 746.847V742.39H151.915V741.843L152.988 741.371L153.467 739.771H154.123V741.508H156.297V742.39H154.123V746.799C154.123 747.25 154.23 747.596 154.444 747.838C154.659 748.079 154.952 748.2 155.326 748.2ZM164.322 745.247C164.322 746.468 164.015 747.423 163.399 748.111C162.784 748.795 161.934 749.137 160.85 749.137C160.18 749.137 159.585 748.979 159.065 748.665C158.546 748.351 158.145 747.899 157.862 747.312C157.58 746.724 157.438 746.035 157.438 745.247C157.438 744.026 157.744 743.076 158.354 742.396C158.965 741.713 159.813 741.371 160.897 741.371C161.946 741.371 162.777 741.72 163.393 742.417C164.012 743.114 164.322 744.058 164.322 745.247ZM158.614 745.247C158.614 746.204 158.806 746.933 159.188 747.435C159.571 747.936 160.134 748.187 160.877 748.187C161.62 748.187 162.183 747.938 162.565 747.441C162.953 746.94 163.146 746.209 163.146 745.247C163.146 744.295 162.953 743.572 162.565 743.08C162.183 742.583 161.615 742.335 160.863 742.335C160.12 742.335 159.56 742.579 159.182 743.066C158.803 743.554 158.614 744.281 158.614 745.247ZM168.738 748.2C168.939 748.2 169.132 748.187 169.319 748.159C169.506 748.127 169.654 748.095 169.764 748.063V748.932C169.641 748.991 169.458 749.039 169.217 749.075C168.98 749.116 168.766 749.137 168.574 749.137C167.125 749.137 166.4 748.373 166.4 746.847V742.39H165.327V741.843L166.4 741.371L166.879 739.771H167.535V741.508H169.709V742.39H167.535V746.799C167.535 747.25 167.642 747.596 167.856 747.838C168.071 748.079 168.365 748.2 168.738 748.2ZM170.078 741.508H171.295L172.936 745.78C173.296 746.756 173.519 747.46 173.605 747.893H173.66C173.719 747.66 173.842 747.264 174.029 746.703C174.221 746.138 174.84 744.406 175.889 741.508H177.105L173.886 750.039C173.567 750.882 173.193 751.479 172.765 751.83C172.341 752.186 171.819 752.363 171.199 752.363C170.853 752.363 170.511 752.325 170.174 752.247V751.338C170.424 751.393 170.705 751.42 171.015 751.42C171.794 751.42 172.35 750.982 172.683 750.107L173.1 749.041L170.078 741.508ZM181.809 749.137C181.321 749.137 180.874 749.048 180.469 748.87C180.068 748.688 179.73 748.41 179.457 748.036H179.375C179.43 748.474 179.457 748.888 179.457 749.28V752.363H178.322V741.508H179.245L179.402 742.533H179.457C179.749 742.123 180.088 741.827 180.476 741.645C180.863 741.462 181.307 741.371 181.809 741.371C182.802 741.371 183.568 741.711 184.105 742.39C184.648 743.069 184.919 744.021 184.919 745.247C184.919 746.478 184.643 747.435 184.092 748.118C183.545 748.797 182.784 749.137 181.809 749.137ZM181.645 742.335C180.879 742.335 180.325 742.547 179.983 742.971C179.642 743.395 179.466 744.069 179.457 744.994V745.247C179.457 746.3 179.632 747.054 179.983 747.51C180.334 747.961 180.897 748.187 181.672 748.187C182.319 748.187 182.825 747.924 183.189 747.4C183.559 746.876 183.743 746.154 183.743 745.233C183.743 744.299 183.559 743.584 183.189 743.087C182.825 742.586 182.31 742.335 181.645 742.335ZM190.073 749.137C188.966 749.137 188.091 748.799 187.448 748.125C186.81 747.451 186.491 746.514 186.491 745.315C186.491 744.108 186.787 743.148 187.38 742.438C187.977 741.727 188.777 741.371 189.779 741.371C190.718 741.371 191.461 741.681 192.008 742.301C192.555 742.916 192.828 743.729 192.828 744.741V745.459H187.667C187.69 746.339 187.911 747.006 188.33 747.462C188.754 747.918 189.349 748.146 190.114 748.146C190.921 748.146 191.718 747.977 192.507 747.64V748.651C192.106 748.825 191.725 748.948 191.365 749.021C191.01 749.098 190.579 749.137 190.073 749.137ZM189.766 742.321C189.164 742.321 188.683 742.517 188.323 742.909C187.968 743.301 187.758 743.843 187.694 744.536H191.611C191.611 743.821 191.452 743.274 191.133 742.896C190.814 742.513 190.358 742.321 189.766 742.321Z" fill="white"/>
<path d="M67.6826 821H66.5205V811.006H72.0918V812.038H67.6826V815.695H71.8252V816.728H67.6826V821ZM74.7168 821H73.582V813.508H74.7168V821ZM73.4863 811.478C73.4863 811.218 73.5501 811.029 73.6777 810.91C73.8053 810.787 73.9648 810.726 74.1562 810.726C74.3385 810.726 74.4958 810.787 74.6279 810.91C74.7601 811.033 74.8262 811.222 74.8262 811.478C74.8262 811.733 74.7601 811.924 74.6279 812.052C74.4958 812.175 74.3385 812.236 74.1562 812.236C73.9648 812.236 73.8053 812.175 73.6777 812.052C73.5501 811.924 73.4863 811.733 73.4863 811.478ZM82.25 821V816.153C82.25 815.543 82.111 815.087 81.833 814.786C81.555 814.485 81.1198 814.335 80.5273 814.335C79.7435 814.335 79.1693 814.547 78.8047 814.971C78.4401 815.395 78.2578 816.094 78.2578 817.069V821H77.123V813.508H78.0459L78.2305 814.533H78.2852C78.5176 814.164 78.8434 813.879 79.2627 813.679C79.682 813.474 80.1491 813.371 80.6641 813.371C81.5664 813.371 82.2454 813.59 82.7012 814.027C83.1569 814.46 83.3848 815.155 83.3848 816.112V821H82.25ZM90.3301 821L90.1045 819.934H90.0498C89.6761 820.403 89.3024 820.722 88.9287 820.891C88.5596 821.055 88.097 821.137 87.541 821.137C86.7982 821.137 86.2148 820.945 85.791 820.562C85.3717 820.18 85.1621 819.635 85.1621 818.929C85.1621 817.416 86.3721 816.623 88.792 816.55L90.0635 816.509V816.044C90.0635 815.456 89.9359 815.023 89.6807 814.745C89.43 814.463 89.0267 814.321 88.4707 814.321C87.8464 814.321 87.14 814.513 86.3516 814.896L86.0029 814.027C86.3721 813.827 86.7754 813.67 87.2129 813.556C87.6549 813.442 88.097 813.385 88.5391 813.385C89.4323 813.385 90.0931 813.583 90.5215 813.979C90.9544 814.376 91.1709 815.012 91.1709 815.887V821H90.3301ZM87.7666 820.2C88.473 820.2 89.0267 820.007 89.4277 819.619C89.8333 819.232 90.0361 818.689 90.0361 817.992V817.315L88.9014 817.363C87.999 817.395 87.3473 817.536 86.9463 817.787C86.5498 818.033 86.3516 818.418 86.3516 818.942C86.3516 819.353 86.4746 819.665 86.7207 819.879C86.9714 820.093 87.32 820.2 87.7666 820.2ZM94.6504 821H93.5156V810.363H94.6504V821ZM108.452 821H107.29V816.297H102.026V821H100.864V811.006H102.026V815.258H107.29V811.006H108.452V821ZM115.637 821L115.411 819.934H115.356C114.983 820.403 114.609 820.722 114.235 820.891C113.866 821.055 113.404 821.137 112.848 821.137C112.105 821.137 111.521 820.945 111.098 820.562C110.678 820.18 110.469 819.635 110.469 818.929C110.469 817.416 111.679 816.623 114.099 816.55L115.37 816.509V816.044C115.37 815.456 115.243 815.023 114.987 814.745C114.737 814.463 114.333 814.321 113.777 814.321C113.153 814.321 112.447 814.513 111.658 814.896L111.31 814.027C111.679 813.827 112.082 813.67 112.52 813.556C112.962 813.442 113.404 813.385 113.846 813.385C114.739 813.385 115.4 813.583 115.828 813.979C116.261 814.376 116.478 815.012 116.478 815.887V821H115.637ZM113.073 820.2C113.78 820.2 114.333 820.007 114.734 819.619C115.14 819.232 115.343 818.689 115.343 817.992V817.315L114.208 817.363C113.306 817.395 112.654 817.536 112.253 817.787C111.856 818.033 111.658 818.418 111.658 818.942C111.658 819.353 111.781 819.665 112.027 819.879C112.278 820.093 112.627 820.2 113.073 820.2ZM123.949 821V816.153C123.949 815.543 123.81 815.087 123.532 814.786C123.254 814.485 122.819 814.335 122.227 814.335C121.443 814.335 120.868 814.547 120.504 814.971C120.139 815.395 119.957 816.094 119.957 817.069V821H118.822V813.508H119.745L119.93 814.533H119.984C120.217 814.164 120.543 813.879 120.962 813.679C121.381 813.474 121.848 813.371 122.363 813.371C123.266 813.371 123.945 813.59 124.4 814.027C124.856 814.46 125.084 815.155 125.084 816.112V821H123.949ZM132.521 819.995H132.46C131.936 820.756 131.152 821.137 130.108 821.137C129.129 821.137 128.365 820.802 127.818 820.132C127.276 819.462 127.005 818.509 127.005 817.274C127.005 816.039 127.278 815.08 127.825 814.396C128.372 813.713 129.133 813.371 130.108 813.371C131.125 813.371 131.904 813.74 132.446 814.479H132.535L132.487 813.938L132.46 813.412V810.363H133.595V821H132.672L132.521 819.995ZM130.252 820.187C131.027 820.187 131.587 819.977 131.934 819.558C132.285 819.134 132.46 818.452 132.46 817.514V817.274C132.46 816.213 132.282 815.456 131.927 815.005C131.576 814.549 131.013 814.321 130.238 814.321C129.573 814.321 129.062 814.581 128.707 815.101C128.356 815.616 128.181 816.345 128.181 817.288C128.181 818.245 128.356 818.967 128.707 819.455C129.058 819.943 129.573 820.187 130.252 820.187ZM148.49 815.989C148.49 817.589 148.085 818.847 147.273 819.763C146.467 820.679 145.343 821.137 143.903 821.137C142.431 821.137 141.294 820.688 140.492 819.79C139.695 818.888 139.296 817.616 139.296 815.976C139.296 814.349 139.697 813.089 140.499 812.195C141.301 811.298 142.44 810.849 143.917 810.849C145.353 810.849 146.474 811.304 147.28 812.216C148.087 813.127 148.49 814.385 148.49 815.989ZM140.526 815.989C140.526 817.343 140.813 818.37 141.388 819.072C141.966 819.77 142.805 820.118 143.903 820.118C145.011 820.118 145.847 819.77 146.412 819.072C146.977 818.375 147.26 817.347 147.26 815.989C147.26 814.645 146.977 813.626 146.412 812.934C145.852 812.236 145.02 811.888 143.917 811.888C142.81 811.888 141.966 812.239 141.388 812.94C140.813 813.638 140.526 814.654 140.526 815.989ZM158.676 814.39H156.769V821H155.634V814.39H154.294V813.877L155.634 813.467V813.05C155.634 811.209 156.438 810.288 158.047 810.288C158.443 810.288 158.908 810.368 159.441 810.527L159.147 811.437C158.71 811.295 158.336 811.225 158.026 811.225C157.598 811.225 157.281 811.368 157.076 811.655C156.871 811.938 156.769 812.394 156.769 813.022V813.508H158.676V814.39ZM153.932 814.39H152.024V821H150.89V814.39H149.55V813.877L150.89 813.467V813.05C150.89 811.209 151.694 810.288 153.303 810.288C153.699 810.288 154.164 810.368 154.697 810.527L154.403 811.437C153.966 811.295 153.592 811.225 153.282 811.225C152.854 811.225 152.537 811.368 152.332 811.655C152.127 811.938 152.024 812.394 152.024 813.022V813.508H153.932V814.39Z" fill="white"/>
<path d="M111.293 648.707C111.683 649.098 112.317 649.098 112.707 648.707L119.071 642.343C119.462 641.953 119.462 641.319 119.071 640.929C118.681 640.538 118.047 640.538 117.657 640.929L112 646.586L106.343 640.929C105.953 640.538 105.319 640.538 104.929 640.929C104.538 641.319 104.538 641.953 104.929 642.343L111.293 648.707ZM111 624L111 648L113 648L113 624L111 624Z" fill="#38373A"/>
<path d="M111.293 720.707C111.683 721.098 112.317 721.098 112.707 720.707L119.071 714.343C119.462 713.953 119.462 713.319 119.071 712.929C118.681 712.538 118.047 712.538 117.657 712.929L112 718.586L106.343 712.929C105.953 712.538 105.319 712.538 104.929 712.929C104.538 713.319 104.538 713.953 104.929 714.343L111.293 720.707ZM111 696L111 720L113 720L113 696L111 696Z" fill="#38373A"/>
<path d="M111.293 791.707C111.683 792.098 112.317 792.098 112.707 791.707L119.071 785.343C119.462 784.953 119.462 784.319 119.071 783.929C118.681 783.538 118.047 783.538 117.657 783.929L112 789.586L106.343 783.929C105.953 783.538 105.319 783.538 104.929 783.929C104.538 784.319 104.538 784.953 104.929 785.343L111.293 791.707ZM111 767L111 791L113 791L113 767L111 767Z" fill="#38373A"/>
</svg>
