<svg width="224" height="696" viewBox="0 0 224 696" fill="none" xmlns="http://www.w3.org/2000/svg">
<rect x="8" width="208" height="48" rx="24" fill="#38373A"/>
<rect x="8" y="72" width="208" height="48" rx="24" fill="#38373A"/>
<rect x="8" y="144" width="208" height="48" rx="24" fill="#38373A"/>
<rect x="8" y="216" width="208" height="48" rx="24" fill="#38373A"/>
<rect x="8" y="288" width="208" height="48" rx="24" fill="#38373A"/>
<rect x="8" y="360" width="208" height="48" rx="24" fill="#38373A"/>
<rect x="8" y="432" width="208" height="48" rx="24" fill="#38373A"/>
<rect x="8" y="504" width="208" height="48" rx="24" fill="#38373A"/>
<rect x="8" y="576" width="208" height="48" rx="24" fill="#38373A"/>
<rect x="8" y="648" width="208" height="48" rx="24" fill="#38373A"/>
<path d="M67.0742 21.918C67.0742 22.9297 66.7279 23.709 66.0352 24.2559C65.347 24.7982 64.3604 25.0693 63.0752 25.0693H61.8994V29H60.7373V19.0059H63.3281C65.8255 19.0059 67.0742 19.9766 67.0742 21.918ZM61.8994 24.0713H62.9453C63.9753 24.0713 64.7204 23.9049 65.1807 23.5723C65.641 23.2396 65.8711 22.7064 65.8711 21.9727C65.8711 21.3118 65.6546 20.8197 65.2217 20.4961C64.7887 20.1725 64.1143 20.0107 63.1982 20.0107H61.8994V24.0713ZM72.4199 21.3711C72.7526 21.3711 73.0511 21.3984 73.3154 21.4531L73.1582 22.5059C72.8483 22.4375 72.5749 22.4033 72.3379 22.4033C71.7318 22.4033 71.2122 22.6494 70.7793 23.1416C70.3509 23.6338 70.1367 24.2467 70.1367 24.9805V29H69.002V21.5078H69.9385L70.0684 22.8955H70.123C70.401 22.4079 70.736 22.0319 71.1279 21.7676C71.5199 21.5033 71.9505 21.3711 72.4199 21.3711ZM81.1836 25.2471C81.1836 26.4684 80.876 27.4232 80.2607 28.1113C79.6455 28.7949 78.7956 29.1367 77.7109 29.1367C77.041 29.1367 76.4463 28.9795 75.9268 28.665C75.4072 28.3506 75.0062 27.8994 74.7236 27.3115C74.4411 26.7236 74.2998 26.0355 74.2998 25.2471C74.2998 24.0257 74.6051 23.0755 75.2158 22.3965C75.8265 21.7129 76.6742 21.3711 77.7588 21.3711C78.807 21.3711 79.6387 21.7197 80.2539 22.417C80.8737 23.1143 81.1836 24.0576 81.1836 25.2471ZM75.4756 25.2471C75.4756 26.2041 75.667 26.9333 76.0498 27.4346C76.4326 27.9359 76.9954 28.1865 77.7383 28.1865C78.4811 28.1865 79.0439 27.9382 79.4268 27.4414C79.8141 26.9401 80.0078 26.2087 80.0078 25.2471C80.0078 24.2946 79.8141 23.5723 79.4268 23.0801C79.0439 22.5833 78.4766 22.335 77.7246 22.335C76.9818 22.335 76.4212 22.5788 76.043 23.0664C75.6647 23.554 75.4756 24.2809 75.4756 25.2471ZM88.2793 27.9951H88.2178C87.6937 28.7562 86.9098 29.1367 85.8662 29.1367C84.8864 29.1367 84.123 28.8018 83.5762 28.1318C83.0339 27.4619 82.7627 26.5094 82.7627 25.2744C82.7627 24.0394 83.0361 23.0801 83.583 22.3965C84.1299 21.7129 84.891 21.3711 85.8662 21.3711C86.8825 21.3711 87.6618 21.7402 88.2041 22.4785H88.293L88.2451 21.9385L88.2178 21.4121V18.3633H89.3525V29H88.4297L88.2793 27.9951ZM86.0098 28.1865C86.7845 28.1865 87.3451 27.9769 87.6914 27.5576C88.0423 27.1338 88.2178 26.4525 88.2178 25.5137V25.2744C88.2178 24.2126 88.04 23.4561 87.6846 23.0049C87.3337 22.5492 86.7708 22.3213 85.9961 22.3213C85.3307 22.3213 84.8203 22.5811 84.4648 23.1006C84.1139 23.6156 83.9385 24.3447 83.9385 25.2881C83.9385 26.2451 84.1139 26.9674 84.4648 27.4551C84.8158 27.9427 85.3307 28.1865 86.0098 28.1865ZM92.832 21.5078V26.3682C92.832 26.9788 92.971 27.4346 93.249 27.7354C93.527 28.0361 93.9622 28.1865 94.5547 28.1865C95.3385 28.1865 95.9105 27.9723 96.2705 27.5439C96.6351 27.1156 96.8174 26.416 96.8174 25.4453V21.5078H97.9521V29H97.0156L96.8516 27.9951H96.79C96.5576 28.3643 96.234 28.6468 95.8193 28.8428C95.4092 29.0387 94.9398 29.1367 94.4111 29.1367C93.4997 29.1367 92.8161 28.9202 92.3604 28.4873C91.9092 28.0544 91.6836 27.3617 91.6836 26.4092V21.5078H92.832ZM103.359 29.1367C102.275 29.1367 101.434 28.804 100.837 28.1387C100.244 27.4688 99.9482 26.5231 99.9482 25.3018C99.9482 24.0485 100.249 23.0801 100.851 22.3965C101.457 21.7129 102.318 21.3711 103.435 21.3711C103.795 21.3711 104.155 21.4098 104.515 21.4873C104.875 21.5648 105.157 21.6559 105.362 21.7607L105.014 22.7246C104.763 22.6243 104.49 22.5423 104.193 22.4785C103.897 22.4102 103.635 22.376 103.407 22.376C101.885 22.376 101.124 23.3467 101.124 25.2881C101.124 26.2087 101.309 26.915 101.678 27.4072C102.051 27.8994 102.603 28.1455 103.332 28.1455C103.956 28.1455 104.597 28.0111 105.253 27.7422V28.7471C104.752 29.0068 104.12 29.1367 103.359 29.1367ZM109.457 28.2002C109.658 28.2002 109.851 28.1865 110.038 28.1592C110.225 28.1273 110.373 28.0954 110.482 28.0635V28.9316C110.359 28.9909 110.177 29.0387 109.936 29.0752C109.699 29.1162 109.484 29.1367 109.293 29.1367C107.844 29.1367 107.119 28.3734 107.119 26.8467V22.3896H106.046V21.8428L107.119 21.3711L107.598 19.7715H108.254V21.5078H110.428V22.3896H108.254V26.7988C108.254 27.25 108.361 27.5964 108.575 27.8379C108.789 28.0794 109.083 28.2002 109.457 28.2002ZM123.013 29H121.646L118.002 24.1533L116.956 25.083V29H115.794V19.0059H116.956V23.9619L121.488 19.0059H122.862L118.843 23.3467L123.013 29ZM125.357 29H124.223V21.5078H125.357V29ZM124.127 19.4775C124.127 19.2178 124.191 19.0286 124.318 18.9102C124.446 18.7871 124.605 18.7256 124.797 18.7256C124.979 18.7256 125.136 18.7871 125.269 18.9102C125.401 19.0332 125.467 19.2223 125.467 19.4775C125.467 19.7327 125.401 19.9242 125.269 20.0518C125.136 20.1748 124.979 20.2363 124.797 20.2363C124.605 20.2363 124.446 20.1748 124.318 20.0518C124.191 19.9242 124.127 19.7327 124.127 19.4775ZM130.758 29.1367C129.673 29.1367 128.832 28.804 128.235 28.1387C127.643 27.4688 127.347 26.5231 127.347 25.3018C127.347 24.0485 127.647 23.0801 128.249 22.3965C128.855 21.7129 129.716 21.3711 130.833 21.3711C131.193 21.3711 131.553 21.4098 131.913 21.4873C132.273 21.5648 132.556 21.6559 132.761 21.7607L132.412 22.7246C132.161 22.6243 131.888 22.5423 131.592 22.4785C131.296 22.4102 131.034 22.376 130.806 22.376C129.284 22.376 128.522 23.3467 128.522 25.2881C128.522 26.2087 128.707 26.915 129.076 27.4072C129.45 27.8994 130.001 28.1455 130.73 28.1455C131.355 28.1455 131.995 28.0111 132.651 27.7422V28.7471C132.15 29.0068 131.519 29.1367 130.758 29.1367ZM135.557 25.165C135.753 24.887 136.051 24.5225 136.452 24.0713L138.872 21.5078H140.219L137.184 24.7002L140.431 29H139.057L136.411 25.459L135.557 26.1973V29H134.436V18.3633H135.557V24.0029C135.557 24.2536 135.538 24.641 135.502 25.165H135.557ZM154.273 23.9893C154.273 25.5889 153.868 26.8467 153.057 27.7627C152.25 28.6787 151.127 29.1367 149.687 29.1367C148.215 29.1367 147.077 28.6878 146.275 27.79C145.478 26.8877 145.079 25.6162 145.079 23.9756C145.079 22.3486 145.48 21.0885 146.282 20.1953C147.084 19.2975 148.224 18.8486 149.7 18.8486C151.136 18.8486 152.257 19.3044 153.063 20.2158C153.87 21.1273 154.273 22.3851 154.273 23.9893ZM146.31 23.9893C146.31 25.3428 146.597 26.3704 147.171 27.0723C147.75 27.7695 148.588 28.1182 149.687 28.1182C150.794 28.1182 151.63 27.7695 152.195 27.0723C152.76 26.375 153.043 25.3473 153.043 23.9893C153.043 22.6449 152.76 21.6263 152.195 20.9336C151.635 20.2363 150.803 19.8877 149.7 19.8877C148.593 19.8877 147.75 20.2386 147.171 20.9404C146.597 21.6377 146.31 22.654 146.31 23.9893ZM164.459 22.3896H162.552V29H161.417V22.3896H160.077V21.877L161.417 21.4668V21.0498C161.417 19.2087 162.221 18.2881 163.83 18.2881C164.227 18.2881 164.691 18.3678 165.225 18.5273L164.931 19.4365C164.493 19.2952 164.119 19.2246 163.81 19.2246C163.381 19.2246 163.064 19.3682 162.859 19.6553C162.654 19.9378 162.552 20.3936 162.552 21.0225V21.5078H164.459V22.3896ZM159.715 22.3896H157.808V29H156.673V22.3896H155.333V21.877L156.673 21.4668V21.0498C156.673 19.2087 157.477 18.2881 159.086 18.2881C159.482 18.2881 159.947 18.3678 160.48 18.5273L160.187 19.4365C159.749 19.2952 159.375 19.2246 159.065 19.2246C158.637 19.2246 158.32 19.3682 158.115 19.6553C157.91 19.9378 157.808 20.3936 157.808 21.0225V21.5078H159.715V22.3896Z" fill="white"/>
<path d="M84.6152 96.8438V101H83.4531V91.0059H86.1943C87.4202 91.0059 88.3249 91.2406 88.9082 91.71C89.4961 92.1794 89.79 92.8857 89.79 93.8291C89.79 95.1507 89.1201 96.0439 87.7803 96.5088L90.4941 101H89.1201L86.7002 96.8438H84.6152ZM84.6152 95.8457H86.208C87.0283 95.8457 87.6299 95.6839 88.0127 95.3604C88.3955 95.0322 88.5869 94.5423 88.5869 93.8906C88.5869 93.2298 88.391 92.7536 87.999 92.4619C87.6117 92.1702 86.9873 92.0244 86.126 92.0244H84.6152V95.8457ZM95.1016 101.137C93.9941 101.137 93.1191 100.799 92.4766 100.125C91.8385 99.4505 91.5195 98.514 91.5195 97.3154C91.5195 96.1077 91.8158 95.1484 92.4082 94.4375C93.0052 93.7266 93.805 93.3711 94.8076 93.3711C95.7464 93.3711 96.4893 93.681 97.0361 94.3008C97.583 94.916 97.8564 95.7295 97.8564 96.7412V97.459H92.6953C92.7181 98.3385 92.9391 99.0062 93.3584 99.4619C93.7822 99.9176 94.377 100.146 95.1426 100.146C95.9492 100.146 96.7467 99.9769 97.5352 99.6396V100.651C97.1341 100.825 96.7536 100.948 96.3936 101.021C96.0381 101.098 95.6074 101.137 95.1016 101.137ZM94.7939 94.3213C94.1924 94.3213 93.7116 94.5173 93.3516 94.9092C92.9961 95.3011 92.7865 95.8434 92.7227 96.5361H96.6396C96.6396 95.8206 96.4801 95.2738 96.1611 94.8955C95.8421 94.5127 95.3864 94.3213 94.7939 94.3213ZM104.631 98.9561C104.631 99.6533 104.371 100.191 103.852 100.569C103.332 100.948 102.603 101.137 101.664 101.137C100.671 101.137 99.8958 100.979 99.3398 100.665V99.6123C99.6999 99.7946 100.085 99.9382 100.495 100.043C100.91 100.148 101.309 100.2 101.691 100.2C102.284 100.2 102.74 100.107 103.059 99.9199C103.378 99.7285 103.537 99.4391 103.537 99.0518C103.537 98.7601 103.41 98.5117 103.154 98.3066C102.904 98.097 102.411 97.8509 101.678 97.5684C100.98 97.3086 100.484 97.083 100.188 96.8916C99.8958 96.6956 99.6771 96.4746 99.5312 96.2285C99.39 95.9824 99.3193 95.6885 99.3193 95.3467C99.3193 94.736 99.5677 94.2552 100.064 93.9043C100.561 93.5488 101.243 93.3711 102.108 93.3711C102.915 93.3711 103.703 93.5352 104.474 93.8633L104.07 94.7861C103.318 94.4762 102.637 94.3213 102.026 94.3213C101.489 94.3213 101.083 94.4056 100.81 94.5742C100.536 94.7428 100.399 94.9753 100.399 95.2715C100.399 95.472 100.45 95.6429 100.55 95.7842C100.655 95.9255 100.821 96.0599 101.049 96.1875C101.277 96.3151 101.714 96.4997 102.361 96.7412C103.25 97.0648 103.849 97.3906 104.159 97.7188C104.474 98.0469 104.631 98.4593 104.631 98.9561ZM109.648 101.137C108.541 101.137 107.666 100.799 107.023 100.125C106.385 99.4505 106.066 98.514 106.066 97.3154C106.066 96.1077 106.363 95.1484 106.955 94.4375C107.552 93.7266 108.352 93.3711 109.354 93.3711C110.293 93.3711 111.036 93.681 111.583 94.3008C112.13 94.916 112.403 95.7295 112.403 96.7412V97.459H107.242C107.265 98.3385 107.486 99.0062 107.905 99.4619C108.329 99.9176 108.924 100.146 109.689 100.146C110.496 100.146 111.294 99.9769 112.082 99.6396V100.651C111.681 100.825 111.3 100.948 110.94 101.021C110.585 101.098 110.154 101.137 109.648 101.137ZM109.341 94.3213C108.739 94.3213 108.258 94.5173 107.898 94.9092C107.543 95.3011 107.333 95.8434 107.27 96.5361H111.187C111.187 95.8206 111.027 95.2738 110.708 94.8955C110.389 94.5127 109.933 94.3213 109.341 94.3213ZM118.952 101L118.727 99.9336H118.672C118.298 100.403 117.924 100.722 117.551 100.891C117.182 101.055 116.719 101.137 116.163 101.137C115.42 101.137 114.837 100.945 114.413 100.562C113.994 100.18 113.784 99.6351 113.784 98.9287C113.784 97.4157 114.994 96.6227 117.414 96.5498L118.686 96.5088V96.0439C118.686 95.4561 118.558 95.0231 118.303 94.7451C118.052 94.4626 117.649 94.3213 117.093 94.3213C116.468 94.3213 115.762 94.5127 114.974 94.8955L114.625 94.0273C114.994 93.8268 115.397 93.6696 115.835 93.5557C116.277 93.4417 116.719 93.3848 117.161 93.3848C118.054 93.3848 118.715 93.583 119.144 93.9795C119.576 94.376 119.793 95.0117 119.793 95.8867V101H118.952ZM116.389 100.2C117.095 100.2 117.649 100.007 118.05 99.6191C118.455 99.2318 118.658 98.6895 118.658 97.9922V97.3154L117.523 97.3633C116.621 97.3952 115.969 97.5365 115.568 97.7871C115.172 98.0332 114.974 98.4183 114.974 98.9424C114.974 99.3525 115.097 99.6647 115.343 99.8789C115.593 100.093 115.942 100.2 116.389 100.2ZM125.556 93.3711C125.888 93.3711 126.187 93.3984 126.451 93.4531L126.294 94.5059C125.984 94.4375 125.711 94.4033 125.474 94.4033C124.868 94.4033 124.348 94.6494 123.915 95.1416C123.487 95.6338 123.272 96.2467 123.272 96.9805V101H122.138V93.5078H123.074L123.204 94.8955H123.259C123.537 94.4079 123.872 94.0319 124.264 93.7676C124.656 93.5033 125.086 93.3711 125.556 93.3711ZM130.847 101.137C129.762 101.137 128.921 100.804 128.324 100.139C127.732 99.4688 127.436 98.5231 127.436 97.3018C127.436 96.0485 127.736 95.0801 128.338 94.3965C128.944 93.7129 129.805 93.3711 130.922 93.3711C131.282 93.3711 131.642 93.4098 132.002 93.4873C132.362 93.5648 132.645 93.6559 132.85 93.7607L132.501 94.7246C132.25 94.6243 131.977 94.5423 131.681 94.4785C131.384 94.4102 131.122 94.376 130.895 94.376C129.372 94.376 128.611 95.3467 128.611 97.2881C128.611 98.2087 128.796 98.915 129.165 99.4072C129.539 99.8994 130.09 100.146 130.819 100.146C131.444 100.146 132.084 100.011 132.74 99.7422V100.747C132.239 101.007 131.608 101.137 130.847 101.137ZM139.651 101V96.1533C139.651 95.5426 139.512 95.0869 139.234 94.7861C138.956 94.4854 138.521 94.335 137.929 94.335C137.14 94.335 136.564 94.5492 136.199 94.9775C135.839 95.4059 135.659 96.1077 135.659 97.083V101H134.524V90.3633H135.659V93.583C135.659 93.9704 135.641 94.2917 135.604 94.5469H135.673C135.896 94.1868 136.213 93.9043 136.623 93.6992C137.038 93.4896 137.509 93.3848 138.038 93.3848C138.954 93.3848 139.64 93.6035 140.096 94.041C140.556 94.474 140.786 95.1644 140.786 96.1123V101H139.651Z" fill="white"/>
<path d="M77.7109 167.907C77.7109 169.557 77.262 170.819 76.3643 171.694C75.471 172.565 74.1836 173 72.502 173H69.7334V163.006H72.7959C74.3499 163.006 75.5576 163.437 76.4189 164.298C77.2803 165.159 77.7109 166.362 77.7109 167.907ZM76.4805 167.948C76.4805 166.645 76.1523 165.663 75.4961 165.002C74.8444 164.341 73.8737 164.011 72.584 164.011H70.8955V171.995H72.3105C73.696 171.995 74.7373 171.656 75.4346 170.977C76.1318 170.293 76.4805 169.284 76.4805 167.948ZM82.9404 173.137C81.833 173.137 80.958 172.799 80.3154 172.125C79.6774 171.451 79.3584 170.514 79.3584 169.315C79.3584 168.108 79.6546 167.148 80.2471 166.438C80.8441 165.727 81.6439 165.371 82.6465 165.371C83.5853 165.371 84.3281 165.681 84.875 166.301C85.4219 166.916 85.6953 167.729 85.6953 168.741V169.459H80.5342C80.557 170.339 80.778 171.006 81.1973 171.462C81.6211 171.918 82.2158 172.146 82.9814 172.146C83.7881 172.146 84.5856 171.977 85.374 171.64V172.651C84.973 172.825 84.5924 172.948 84.2324 173.021C83.877 173.098 83.4463 173.137 82.9404 173.137ZM82.6328 166.321C82.0312 166.321 81.5505 166.517 81.1904 166.909C80.835 167.301 80.6253 167.843 80.5615 168.536H84.4785C84.4785 167.821 84.319 167.274 84 166.896C83.681 166.513 83.2253 166.321 82.6328 166.321ZM92.4697 170.956C92.4697 171.653 92.21 172.191 91.6904 172.569C91.1709 172.948 90.4417 173.137 89.5029 173.137C88.5094 173.137 87.7347 172.979 87.1787 172.665V171.612C87.5387 171.795 87.9238 171.938 88.334 172.043C88.7487 172.148 89.1475 172.2 89.5303 172.2C90.1227 172.2 90.5785 172.107 90.8975 171.92C91.2165 171.729 91.376 171.439 91.376 171.052C91.376 170.76 91.2484 170.512 90.9932 170.307C90.7425 170.097 90.2503 169.851 89.5166 169.568C88.8193 169.309 88.3226 169.083 88.0264 168.892C87.7347 168.696 87.516 168.475 87.3701 168.229C87.2288 167.982 87.1582 167.688 87.1582 167.347C87.1582 166.736 87.4066 166.255 87.9033 165.904C88.4001 165.549 89.0814 165.371 89.9473 165.371C90.7539 165.371 91.5423 165.535 92.3125 165.863L91.9092 166.786C91.1572 166.476 90.4759 166.321 89.8652 166.321C89.3275 166.321 88.9219 166.406 88.6484 166.574C88.375 166.743 88.2383 166.975 88.2383 167.271C88.2383 167.472 88.2884 167.643 88.3887 167.784C88.4935 167.925 88.6598 168.06 88.8877 168.188C89.1156 168.315 89.5531 168.5 90.2002 168.741C91.0889 169.065 91.6882 169.391 91.998 169.719C92.3125 170.047 92.4697 170.459 92.4697 170.956ZM95.457 173H94.3223V165.508H95.457V173ZM94.2266 163.478C94.2266 163.218 94.2904 163.029 94.418 162.91C94.5456 162.787 94.7051 162.726 94.8965 162.726C95.0788 162.726 95.236 162.787 95.3682 162.91C95.5003 163.033 95.5664 163.222 95.5664 163.478C95.5664 163.733 95.5003 163.924 95.3682 164.052C95.236 164.175 95.0788 164.236 94.8965 164.236C94.7051 164.236 94.5456 164.175 94.418 164.052C94.2904 163.924 94.2266 163.733 94.2266 163.478ZM103.995 165.508V166.226L102.607 166.39C102.735 166.549 102.849 166.759 102.949 167.019C103.049 167.274 103.1 167.563 103.1 167.887C103.1 168.62 102.849 169.206 102.348 169.644C101.846 170.081 101.158 170.3 100.283 170.3C100.06 170.3 99.8503 170.282 99.6543 170.245C99.1712 170.5 98.9297 170.822 98.9297 171.209C98.9297 171.414 99.014 171.567 99.1826 171.667C99.3512 171.763 99.6406 171.811 100.051 171.811H101.377C102.188 171.811 102.81 171.981 103.243 172.323C103.681 172.665 103.899 173.162 103.899 173.813C103.899 174.643 103.567 175.274 102.901 175.707C102.236 176.145 101.265 176.363 99.9893 176.363C99.0094 176.363 98.2529 176.181 97.7197 175.816C97.1911 175.452 96.9268 174.937 96.9268 174.271C96.9268 173.816 97.0726 173.422 97.3643 173.089C97.6559 172.756 98.0661 172.531 98.5947 172.412C98.4033 172.326 98.2415 172.191 98.1094 172.009C97.9818 171.826 97.918 171.615 97.918 171.373C97.918 171.1 97.9909 170.86 98.1367 170.655C98.2826 170.45 98.5127 170.252 98.8271 170.061C98.4398 169.901 98.123 169.63 97.877 169.247C97.6354 168.864 97.5146 168.427 97.5146 167.935C97.5146 167.114 97.7607 166.483 98.2529 166.041C98.7451 165.594 99.4424 165.371 100.345 165.371C100.737 165.371 101.09 165.417 101.404 165.508H103.995ZM98.0205 174.258C98.0205 174.663 98.1914 174.971 98.5332 175.181C98.875 175.39 99.3649 175.495 100.003 175.495C100.955 175.495 101.66 175.352 102.115 175.064C102.576 174.782 102.806 174.397 102.806 173.909C102.806 173.504 102.68 173.221 102.43 173.062C102.179 172.907 101.707 172.829 101.015 172.829H99.6543C99.1393 172.829 98.7383 172.952 98.4512 173.198C98.1641 173.444 98.0205 173.798 98.0205 174.258ZM98.6357 167.907C98.6357 168.431 98.7839 168.828 99.0801 169.097C99.3763 169.366 99.7887 169.5 100.317 169.5C101.425 169.5 101.979 168.962 101.979 167.887C101.979 166.761 101.418 166.198 100.297 166.198C99.7637 166.198 99.3535 166.342 99.0664 166.629C98.7793 166.916 98.6357 167.342 98.6357 167.907ZM110.66 173V168.153C110.66 167.543 110.521 167.087 110.243 166.786C109.965 166.485 109.53 166.335 108.938 166.335C108.154 166.335 107.579 166.547 107.215 166.971C106.85 167.395 106.668 168.094 106.668 169.069V173H105.533V165.508H106.456L106.641 166.533H106.695C106.928 166.164 107.254 165.879 107.673 165.679C108.092 165.474 108.559 165.371 109.074 165.371C109.977 165.371 110.656 165.59 111.111 166.027C111.567 166.46 111.795 167.155 111.795 168.112V173H110.66ZM123.58 170.341C123.58 171.22 123.261 171.906 122.623 172.398C121.985 172.891 121.119 173.137 120.025 173.137C118.84 173.137 117.929 172.984 117.291 172.679V171.558C117.701 171.731 118.148 171.868 118.631 171.968C119.114 172.068 119.592 172.118 120.066 172.118C120.841 172.118 121.424 171.972 121.816 171.681C122.208 171.384 122.404 170.974 122.404 170.45C122.404 170.104 122.334 169.821 122.192 169.603C122.056 169.379 121.823 169.174 121.495 168.987C121.172 168.8 120.677 168.589 120.012 168.352C119.082 168.019 118.417 167.625 118.016 167.169C117.619 166.713 117.421 166.118 117.421 165.385C117.421 164.615 117.71 164.002 118.289 163.546C118.868 163.09 119.633 162.862 120.586 162.862C121.579 162.862 122.493 163.045 123.327 163.409L122.965 164.421C122.14 164.075 121.338 163.901 120.559 163.901C119.943 163.901 119.463 164.034 119.116 164.298C118.77 164.562 118.597 164.929 118.597 165.398C118.597 165.745 118.66 166.03 118.788 166.253C118.916 166.472 119.13 166.674 119.431 166.861C119.736 167.044 120.201 167.246 120.825 167.47C121.873 167.843 122.593 168.244 122.985 168.673C123.382 169.101 123.58 169.657 123.58 170.341ZM128.939 173.137C128.452 173.137 128.005 173.048 127.6 172.87C127.199 172.688 126.861 172.41 126.588 172.036H126.506C126.561 172.474 126.588 172.888 126.588 173.28V176.363H125.453V165.508H126.376L126.533 166.533H126.588C126.88 166.123 127.219 165.827 127.606 165.645C127.994 165.462 128.438 165.371 128.939 165.371C129.933 165.371 130.699 165.711 131.236 166.39C131.779 167.069 132.05 168.021 132.05 169.247C132.05 170.478 131.774 171.435 131.223 172.118C130.676 172.797 129.915 173.137 128.939 173.137ZM128.775 166.335C128.01 166.335 127.456 166.547 127.114 166.971C126.772 167.395 126.597 168.069 126.588 168.994V169.247C126.588 170.3 126.763 171.054 127.114 171.51C127.465 171.961 128.028 172.187 128.803 172.187C129.45 172.187 129.956 171.924 130.32 171.4C130.689 170.876 130.874 170.154 130.874 169.233C130.874 168.299 130.689 167.584 130.32 167.087C129.956 166.586 129.441 166.335 128.775 166.335ZM137.457 165.371C137.79 165.371 138.088 165.398 138.353 165.453L138.195 166.506C137.885 166.438 137.612 166.403 137.375 166.403C136.769 166.403 136.249 166.649 135.816 167.142C135.388 167.634 135.174 168.247 135.174 168.98V173H134.039V165.508H134.976L135.105 166.896H135.16C135.438 166.408 135.773 166.032 136.165 165.768C136.557 165.503 136.988 165.371 137.457 165.371ZM140.889 173H139.754V165.508H140.889V173ZM139.658 163.478C139.658 163.218 139.722 163.029 139.85 162.91C139.977 162.787 140.137 162.726 140.328 162.726C140.51 162.726 140.668 162.787 140.8 162.91C140.932 163.033 140.998 163.222 140.998 163.478C140.998 163.733 140.932 163.924 140.8 164.052C140.668 164.175 140.51 164.236 140.328 164.236C140.137 164.236 139.977 164.175 139.85 164.052C139.722 163.924 139.658 163.733 139.658 163.478ZM148.422 173V168.153C148.422 167.543 148.283 167.087 148.005 166.786C147.727 166.485 147.292 166.335 146.699 166.335C145.915 166.335 145.341 166.547 144.977 166.971C144.612 167.395 144.43 168.094 144.43 169.069V173H143.295V165.508H144.218L144.402 166.533H144.457C144.689 166.164 145.015 165.879 145.435 165.679C145.854 165.474 146.321 165.371 146.836 165.371C147.738 165.371 148.417 165.59 148.873 166.027C149.329 166.46 149.557 167.155 149.557 168.112V173H148.422ZM154.314 172.2C154.515 172.2 154.709 172.187 154.896 172.159C155.082 172.127 155.23 172.095 155.34 172.063V172.932C155.217 172.991 155.035 173.039 154.793 173.075C154.556 173.116 154.342 173.137 154.15 173.137C152.701 173.137 151.977 172.373 151.977 170.847V166.39H150.903V165.843L151.977 165.371L152.455 163.771H153.111V165.508H155.285V166.39H153.111V170.799C153.111 171.25 153.218 171.596 153.433 171.838C153.647 172.079 153.941 172.2 154.314 172.2Z" fill="white"/>
<path d="M84.1436 245H82.9951L80.9785 238.308C80.8828 238.011 80.7757 237.638 80.6572 237.187C80.5387 236.735 80.4772 236.464 80.4727 236.373C80.3724 236.975 80.2129 237.633 79.9941 238.349L78.0391 245H76.8906L74.2314 235.006H75.4619L77.041 241.179C77.2598 242.045 77.4193 242.828 77.5195 243.53C77.6426 242.696 77.8249 241.881 78.0664 241.083L79.8574 235.006H81.0879L82.9678 241.138C83.1865 241.844 83.3711 242.642 83.5215 243.53C83.6081 242.883 83.7721 242.095 84.0137 241.165L85.5859 235.006H86.8164L84.1436 245ZM89.3457 245H88.2109V237.508H89.3457V245ZM88.1152 235.478C88.1152 235.218 88.179 235.029 88.3066 234.91C88.4342 234.787 88.5938 234.726 88.7852 234.726C88.9674 234.726 89.1247 234.787 89.2568 234.91C89.389 235.033 89.4551 235.222 89.4551 235.478C89.4551 235.733 89.389 235.924 89.2568 236.052C89.1247 236.175 88.9674 236.236 88.7852 236.236C88.5938 236.236 88.4342 236.175 88.3066 236.052C88.179 235.924 88.1152 235.733 88.1152 235.478ZM95.1699 237.371C95.5026 237.371 95.8011 237.398 96.0654 237.453L95.9082 238.506C95.5983 238.438 95.3249 238.403 95.0879 238.403C94.4818 238.403 93.9622 238.649 93.5293 239.142C93.1009 239.634 92.8867 240.247 92.8867 240.98V245H91.752V237.508H92.6885L92.8184 238.896H92.873C93.151 238.408 93.486 238.032 93.8779 237.768C94.2699 237.503 94.7005 237.371 95.1699 237.371ZM100.632 245.137C99.5244 245.137 98.6494 244.799 98.0068 244.125C97.3688 243.451 97.0498 242.514 97.0498 241.315C97.0498 240.108 97.346 239.148 97.9385 238.438C98.5355 237.727 99.3353 237.371 100.338 237.371C101.277 237.371 102.02 237.681 102.566 238.301C103.113 238.916 103.387 239.729 103.387 240.741V241.459H98.2256C98.2484 242.339 98.4694 243.006 98.8887 243.462C99.3125 243.918 99.9072 244.146 100.673 244.146C101.479 244.146 102.277 243.977 103.065 243.64V244.651C102.664 244.825 102.284 244.948 101.924 245.021C101.568 245.098 101.138 245.137 100.632 245.137ZM100.324 238.321C99.7227 238.321 99.2419 238.517 98.8818 238.909C98.5264 239.301 98.3167 239.843 98.2529 240.536H102.17C102.17 239.821 102.01 239.274 101.691 238.896C101.372 238.513 100.917 238.321 100.324 238.321ZM108.705 238.39H106.798V245H105.663V238.39H104.323V237.877L105.663 237.467V237.05C105.663 235.209 106.467 234.288 108.076 234.288C108.473 234.288 108.938 234.368 109.471 234.527L109.177 235.437C108.739 235.295 108.366 235.225 108.056 235.225C107.627 235.225 107.311 235.368 107.105 235.655C106.9 235.938 106.798 236.394 106.798 237.022V237.508H108.705V238.39ZM113.49 237.371C113.823 237.371 114.121 237.398 114.386 237.453L114.229 238.506C113.919 238.438 113.645 238.403 113.408 238.403C112.802 238.403 112.283 238.649 111.85 239.142C111.421 239.634 111.207 240.247 111.207 240.98V245H110.072V237.508H111.009L111.139 238.896H111.193C111.471 238.408 111.806 238.032 112.198 237.768C112.59 237.503 113.021 237.371 113.49 237.371ZM120.395 245L120.169 243.934H120.114C119.741 244.403 119.367 244.722 118.993 244.891C118.624 245.055 118.161 245.137 117.605 245.137C116.863 245.137 116.279 244.945 115.855 244.562C115.436 244.18 115.227 243.635 115.227 242.929C115.227 241.416 116.437 240.623 118.856 240.55L120.128 240.509V240.044C120.128 239.456 120 239.023 119.745 238.745C119.494 238.463 119.091 238.321 118.535 238.321C117.911 238.321 117.204 238.513 116.416 238.896L116.067 238.027C116.437 237.827 116.84 237.67 117.277 237.556C117.719 237.442 118.161 237.385 118.604 237.385C119.497 237.385 120.158 237.583 120.586 237.979C121.019 238.376 121.235 239.012 121.235 239.887V245H120.395ZM117.831 244.2C118.537 244.2 119.091 244.007 119.492 243.619C119.898 243.232 120.101 242.689 120.101 241.992V241.315L118.966 241.363C118.063 241.395 117.412 241.536 117.011 241.787C116.614 242.033 116.416 242.418 116.416 242.942C116.416 243.353 116.539 243.665 116.785 243.879C117.036 244.093 117.384 244.2 117.831 244.2ZM133.13 245V240.126C133.13 239.529 133.002 239.082 132.747 238.786C132.492 238.485 132.095 238.335 131.558 238.335C130.851 238.335 130.329 238.538 129.992 238.943C129.655 239.349 129.486 239.973 129.486 240.816V245H128.352V240.126C128.352 239.529 128.224 239.082 127.969 238.786C127.714 238.485 127.315 238.335 126.772 238.335C126.062 238.335 125.54 238.549 125.207 238.978C124.879 239.401 124.715 240.099 124.715 241.069V245H123.58V237.508H124.503L124.688 238.533H124.742C124.956 238.169 125.257 237.884 125.645 237.679C126.036 237.474 126.474 237.371 126.957 237.371C128.128 237.371 128.894 237.795 129.254 238.643H129.309C129.532 238.251 129.855 237.941 130.279 237.713C130.703 237.485 131.186 237.371 131.729 237.371C132.576 237.371 133.21 237.59 133.629 238.027C134.053 238.46 134.265 239.155 134.265 240.112V245H133.13ZM139.774 245.137C138.667 245.137 137.792 244.799 137.149 244.125C136.511 243.451 136.192 242.514 136.192 241.315C136.192 240.108 136.489 239.148 137.081 238.438C137.678 237.727 138.478 237.371 139.48 237.371C140.419 237.371 141.162 237.681 141.709 238.301C142.256 238.916 142.529 239.729 142.529 240.741V241.459H137.368C137.391 242.339 137.612 243.006 138.031 243.462C138.455 243.918 139.05 244.146 139.815 244.146C140.622 244.146 141.42 243.977 142.208 243.64V244.651C141.807 244.825 141.426 244.948 141.066 245.021C140.711 245.098 140.28 245.137 139.774 245.137ZM139.467 238.321C138.865 238.321 138.384 238.517 138.024 238.909C137.669 239.301 137.459 239.843 137.396 240.536H141.312C141.312 239.821 141.153 239.274 140.834 238.896C140.515 238.513 140.059 238.321 139.467 238.321ZM149.304 242.956C149.304 243.653 149.044 244.191 148.524 244.569C148.005 244.948 147.276 245.137 146.337 245.137C145.343 245.137 144.569 244.979 144.013 244.665V243.612C144.373 243.795 144.758 243.938 145.168 244.043C145.583 244.148 145.981 244.2 146.364 244.2C146.957 244.2 147.412 244.107 147.731 243.92C148.05 243.729 148.21 243.439 148.21 243.052C148.21 242.76 148.082 242.512 147.827 242.307C147.576 242.097 147.084 241.851 146.351 241.568C145.653 241.309 145.157 241.083 144.86 240.892C144.569 240.696 144.35 240.475 144.204 240.229C144.063 239.982 143.992 239.688 143.992 239.347C143.992 238.736 144.241 238.255 144.737 237.904C145.234 237.549 145.915 237.371 146.781 237.371C147.588 237.371 148.376 237.535 149.146 237.863L148.743 238.786C147.991 238.476 147.31 238.321 146.699 238.321C146.161 238.321 145.756 238.406 145.482 238.574C145.209 238.743 145.072 238.975 145.072 239.271C145.072 239.472 145.122 239.643 145.223 239.784C145.327 239.925 145.494 240.06 145.722 240.188C145.95 240.315 146.387 240.5 147.034 240.741C147.923 241.065 148.522 241.391 148.832 241.719C149.146 242.047 149.304 242.459 149.304 242.956Z" fill="white"/>
<path d="M87.4727 309.918C87.4727 310.93 87.1263 311.709 86.4336 312.256C85.7454 312.798 84.7588 313.069 83.4736 313.069H82.2979V317H81.1357V307.006H83.7266C86.224 307.006 87.4727 307.977 87.4727 309.918ZM82.2979 312.071H83.3438C84.3737 312.071 85.1188 311.905 85.5791 311.572C86.0394 311.24 86.2695 310.706 86.2695 309.973C86.2695 309.312 86.0531 308.82 85.6201 308.496C85.1872 308.173 84.5127 308.011 83.5967 308.011H82.2979V312.071ZM92.8184 309.371C93.151 309.371 93.4495 309.398 93.7139 309.453L93.5566 310.506C93.2467 310.438 92.9733 310.403 92.7363 310.403C92.1302 310.403 91.6107 310.649 91.1777 311.142C90.7493 311.634 90.5352 312.247 90.5352 312.98V317H89.4004V309.508H90.3369L90.4668 310.896H90.5215C90.7995 310.408 91.1344 310.032 91.5264 309.768C91.9183 309.503 92.349 309.371 92.8184 309.371ZM101.582 313.247C101.582 314.468 101.274 315.423 100.659 316.111C100.044 316.795 99.194 317.137 98.1094 317.137C97.4395 317.137 96.8447 316.979 96.3252 316.665C95.8057 316.351 95.4046 315.899 95.1221 315.312C94.8395 314.724 94.6982 314.035 94.6982 313.247C94.6982 312.026 95.0036 311.076 95.6143 310.396C96.2249 309.713 97.0726 309.371 98.1572 309.371C99.2054 309.371 100.037 309.72 100.652 310.417C101.272 311.114 101.582 312.058 101.582 313.247ZM95.874 313.247C95.874 314.204 96.0654 314.933 96.4482 315.435C96.8311 315.936 97.3939 316.187 98.1367 316.187C98.8796 316.187 99.4424 315.938 99.8252 315.441C100.213 314.94 100.406 314.209 100.406 313.247C100.406 312.295 100.213 311.572 99.8252 311.08C99.4424 310.583 98.875 310.335 98.123 310.335C97.3802 310.335 96.8197 310.579 96.4414 311.066C96.0632 311.554 95.874 312.281 95.874 313.247ZM105.998 316.2C106.199 316.2 106.392 316.187 106.579 316.159C106.766 316.127 106.914 316.095 107.023 316.063V316.932C106.9 316.991 106.718 317.039 106.477 317.075C106.24 317.116 106.025 317.137 105.834 317.137C104.385 317.137 103.66 316.373 103.66 314.847V310.39H102.587V309.843L103.66 309.371L104.139 307.771H104.795V309.508H106.969V310.39H104.795V314.799C104.795 315.25 104.902 315.596 105.116 315.838C105.33 316.079 105.624 316.2 105.998 316.2ZM114.994 313.247C114.994 314.468 114.687 315.423 114.071 316.111C113.456 316.795 112.606 317.137 111.521 317.137C110.852 317.137 110.257 316.979 109.737 316.665C109.218 316.351 108.817 315.899 108.534 315.312C108.252 314.724 108.11 314.035 108.11 313.247C108.11 312.026 108.416 311.076 109.026 310.396C109.637 309.713 110.485 309.371 111.569 309.371C112.618 309.371 113.449 309.72 114.064 310.417C114.684 311.114 114.994 312.058 114.994 313.247ZM109.286 313.247C109.286 314.204 109.478 314.933 109.86 315.435C110.243 315.936 110.806 316.187 111.549 316.187C112.292 316.187 112.854 315.938 113.237 315.441C113.625 314.94 113.818 314.209 113.818 313.247C113.818 312.295 113.625 311.572 113.237 311.08C112.854 310.583 112.287 310.335 111.535 310.335C110.792 310.335 110.232 310.579 109.854 311.066C109.475 311.554 109.286 312.281 109.286 313.247ZM119.41 316.2C119.611 316.2 119.804 316.187 119.991 316.159C120.178 316.127 120.326 316.095 120.436 316.063V316.932C120.312 316.991 120.13 317.039 119.889 317.075C119.652 317.116 119.438 317.137 119.246 317.137C117.797 317.137 117.072 316.373 117.072 314.847V310.39H115.999V309.843L117.072 309.371L117.551 307.771H118.207V309.508H120.381V310.39H118.207V314.799C118.207 315.25 118.314 315.596 118.528 315.838C118.743 316.079 119.036 316.2 119.41 316.2ZM120.75 309.508H121.967L123.607 313.78C123.967 314.756 124.191 315.46 124.277 315.893H124.332C124.391 315.66 124.514 315.264 124.701 314.703C124.893 314.138 125.512 312.406 126.561 309.508H127.777L124.558 318.039C124.239 318.882 123.865 319.479 123.437 319.83C123.013 320.186 122.491 320.363 121.871 320.363C121.525 320.363 121.183 320.325 120.846 320.247V319.338C121.096 319.393 121.377 319.42 121.687 319.42C122.466 319.42 123.022 318.982 123.354 318.107L123.771 317.041L120.75 309.508ZM132.48 317.137C131.993 317.137 131.546 317.048 131.141 316.87C130.74 316.688 130.402 316.41 130.129 316.036H130.047C130.102 316.474 130.129 316.888 130.129 317.28V320.363H128.994V309.508H129.917L130.074 310.533H130.129C130.421 310.123 130.76 309.827 131.147 309.645C131.535 309.462 131.979 309.371 132.48 309.371C133.474 309.371 134.24 309.711 134.777 310.39C135.32 311.069 135.591 312.021 135.591 313.247C135.591 314.478 135.315 315.435 134.764 316.118C134.217 316.797 133.456 317.137 132.48 317.137ZM132.316 310.335C131.551 310.335 130.997 310.547 130.655 310.971C130.313 311.395 130.138 312.069 130.129 312.994V313.247C130.129 314.3 130.304 315.054 130.655 315.51C131.006 315.961 131.569 316.187 132.344 316.187C132.991 316.187 133.497 315.924 133.861 315.4C134.23 314.876 134.415 314.154 134.415 313.233C134.415 312.299 134.23 311.584 133.861 311.087C133.497 310.586 132.982 310.335 132.316 310.335ZM140.745 317.137C139.638 317.137 138.763 316.799 138.12 316.125C137.482 315.451 137.163 314.514 137.163 313.315C137.163 312.108 137.459 311.148 138.052 310.438C138.649 309.727 139.449 309.371 140.451 309.371C141.39 309.371 142.133 309.681 142.68 310.301C143.227 310.916 143.5 311.729 143.5 312.741V313.459H138.339C138.362 314.339 138.583 315.006 139.002 315.462C139.426 315.918 140.021 316.146 140.786 316.146C141.593 316.146 142.39 315.977 143.179 315.64V316.651C142.778 316.825 142.397 316.948 142.037 317.021C141.682 317.098 141.251 317.137 140.745 317.137ZM140.438 310.321C139.836 310.321 139.355 310.517 138.995 310.909C138.64 311.301 138.43 311.843 138.366 312.536H142.283C142.283 311.821 142.124 311.274 141.805 310.896C141.486 310.513 141.03 310.321 140.438 310.321Z" fill="white"/>
<path d="M49.7041 379.006V385.473C49.7041 386.612 49.36 387.507 48.6719 388.159C47.9837 388.811 47.0381 389.137 45.835 389.137C44.6318 389.137 43.6999 388.809 43.0391 388.152C42.3828 387.496 42.0547 386.594 42.0547 385.445V379.006H43.2168V385.527C43.2168 386.361 43.4447 387.002 43.9004 387.448C44.3561 387.895 45.026 388.118 45.9102 388.118C46.7533 388.118 47.4027 387.895 47.8584 387.448C48.3141 386.997 48.542 386.352 48.542 385.514V379.006H49.7041ZM57.0186 386.956C57.0186 387.653 56.7588 388.191 56.2393 388.569C55.7197 388.948 54.9906 389.137 54.0518 389.137C53.0583 389.137 52.2835 388.979 51.7275 388.665V387.612C52.0876 387.795 52.4727 387.938 52.8828 388.043C53.2975 388.148 53.6963 388.2 54.0791 388.2C54.6715 388.2 55.1273 388.107 55.4463 387.92C55.7653 387.729 55.9248 387.439 55.9248 387.052C55.9248 386.76 55.7972 386.512 55.542 386.307C55.2913 386.097 54.7992 385.851 54.0654 385.568C53.3682 385.309 52.8714 385.083 52.5752 384.892C52.2835 384.696 52.0648 384.475 51.9189 384.229C51.7777 383.982 51.707 383.688 51.707 383.347C51.707 382.736 51.9554 382.255 52.4521 381.904C52.9489 381.549 53.6302 381.371 54.4961 381.371C55.3027 381.371 56.0911 381.535 56.8613 381.863L56.458 382.786C55.7061 382.476 55.0247 382.321 54.4141 382.321C53.8763 382.321 53.4707 382.406 53.1973 382.574C52.9238 382.743 52.7871 382.975 52.7871 383.271C52.7871 383.472 52.8372 383.643 52.9375 383.784C53.0423 383.925 53.2087 384.06 53.4365 384.188C53.6644 384.315 54.1019 384.5 54.749 384.741C55.6377 385.065 56.237 385.391 56.5469 385.719C56.8613 386.047 57.0186 386.459 57.0186 386.956ZM62.0361 389.137C60.9287 389.137 60.0537 388.799 59.4111 388.125C58.7731 387.451 58.4541 386.514 58.4541 385.315C58.4541 384.108 58.7503 383.148 59.3428 382.438C59.9398 381.727 60.7396 381.371 61.7422 381.371C62.681 381.371 63.4238 381.681 63.9707 382.301C64.5176 382.916 64.791 383.729 64.791 384.741V385.459H59.6299C59.6527 386.339 59.8737 387.006 60.293 387.462C60.7168 387.918 61.3115 388.146 62.0771 388.146C62.8838 388.146 63.6813 387.977 64.4697 387.64V388.651C64.0687 388.825 63.6882 388.948 63.3281 389.021C62.9727 389.098 62.542 389.137 62.0361 389.137ZM61.7285 382.321C61.127 382.321 60.6462 382.517 60.2861 382.909C59.9307 383.301 59.721 383.843 59.6572 384.536H63.5742C63.5742 383.821 63.4147 383.274 63.0957 382.896C62.7767 382.513 62.321 382.321 61.7285 382.321ZM70.1504 381.371C70.4831 381.371 70.7816 381.398 71.0459 381.453L70.8887 382.506C70.5788 382.438 70.3053 382.403 70.0684 382.403C69.4622 382.403 68.9427 382.649 68.5098 383.142C68.0814 383.634 67.8672 384.247 67.8672 384.98V389H66.7324V381.508H67.6689L67.7988 382.896H67.8535C68.1315 382.408 68.4665 382.032 68.8584 381.768C69.2503 381.503 69.681 381.371 70.1504 381.371ZM79.3311 389H78.1689V380.038H75.0039V379.006H82.4961V380.038H79.3311V389ZM87.001 389.137C85.8936 389.137 85.0186 388.799 84.376 388.125C83.738 387.451 83.4189 386.514 83.4189 385.315C83.4189 384.108 83.7152 383.148 84.3076 382.438C84.9046 381.727 85.7044 381.371 86.707 381.371C87.6458 381.371 88.3887 381.681 88.9355 382.301C89.4824 382.916 89.7559 383.729 89.7559 384.741V385.459H84.5947C84.6175 386.339 84.8385 387.006 85.2578 387.462C85.6816 387.918 86.2764 388.146 87.042 388.146C87.8486 388.146 88.6462 387.977 89.4346 387.64V388.651C89.0335 388.825 88.653 388.948 88.293 389.021C87.9375 389.098 87.5068 389.137 87.001 389.137ZM86.6934 382.321C86.0918 382.321 85.611 382.517 85.251 382.909C84.8955 383.301 84.6859 383.843 84.6221 384.536H88.5391C88.5391 383.821 88.3796 383.274 88.0605 382.896C87.7415 382.513 87.2858 382.321 86.6934 382.321ZM96.5303 386.956C96.5303 387.653 96.2705 388.191 95.751 388.569C95.2314 388.948 94.5023 389.137 93.5635 389.137C92.57 389.137 91.7952 388.979 91.2393 388.665V387.612C91.5993 387.795 91.9844 387.938 92.3945 388.043C92.8092 388.148 93.208 388.2 93.5908 388.2C94.1833 388.2 94.639 388.107 94.958 387.92C95.277 387.729 95.4365 387.439 95.4365 387.052C95.4365 386.76 95.3089 386.512 95.0537 386.307C94.8031 386.097 94.3109 385.851 93.5771 385.568C92.8799 385.309 92.3831 385.083 92.0869 384.892C91.7952 384.696 91.5765 384.475 91.4307 384.229C91.2894 383.982 91.2188 383.688 91.2188 383.347C91.2188 382.736 91.4671 382.255 91.9639 381.904C92.4606 381.549 93.1419 381.371 94.0078 381.371C94.8145 381.371 95.6029 381.535 96.373 381.863L95.9697 382.786C95.2178 382.476 94.5365 382.321 93.9258 382.321C93.388 382.321 92.9824 382.406 92.709 382.574C92.4355 382.743 92.2988 382.975 92.2988 383.271C92.2988 383.472 92.349 383.643 92.4492 383.784C92.554 383.925 92.7204 384.06 92.9482 384.188C93.1761 384.315 93.6136 384.5 94.2607 384.741C95.1494 385.065 95.7487 385.391 96.0586 385.719C96.373 386.047 96.5303 386.459 96.5303 386.956ZM100.803 388.2C101.003 388.2 101.197 388.187 101.384 388.159C101.571 388.127 101.719 388.095 101.828 388.063V388.932C101.705 388.991 101.523 389.039 101.281 389.075C101.044 389.116 100.83 389.137 100.639 389.137C99.1895 389.137 98.4648 388.373 98.4648 386.847V382.39H97.3916V381.843L98.4648 381.371L98.9434 379.771H99.5996V381.508H101.773V382.39H99.5996V386.799C99.5996 387.25 99.7067 387.596 99.9209 387.838C100.135 388.079 100.429 388.2 100.803 388.2ZM113.477 381.918C113.477 382.93 113.13 383.709 112.438 384.256C111.749 384.798 110.763 385.069 109.478 385.069H108.302V389H107.14V379.006H109.73C112.228 379.006 113.477 379.977 113.477 381.918ZM108.302 384.071H109.348C110.378 384.071 111.123 383.905 111.583 383.572C112.043 383.24 112.273 382.706 112.273 381.973C112.273 381.312 112.057 380.82 111.624 380.496C111.191 380.173 110.517 380.011 109.601 380.011H108.302V384.071ZM118.822 381.371C119.155 381.371 119.453 381.398 119.718 381.453L119.561 382.506C119.251 382.438 118.977 382.403 118.74 382.403C118.134 382.403 117.615 382.649 117.182 383.142C116.753 383.634 116.539 384.247 116.539 384.98V389H115.404V381.508H116.341L116.471 382.896H116.525C116.803 382.408 117.138 382.032 117.53 381.768C117.922 381.503 118.353 381.371 118.822 381.371ZM124.284 389.137C123.177 389.137 122.302 388.799 121.659 388.125C121.021 387.451 120.702 386.514 120.702 385.315C120.702 384.108 120.998 383.148 121.591 382.438C122.188 381.727 122.988 381.371 123.99 381.371C124.929 381.371 125.672 381.681 126.219 382.301C126.766 382.916 127.039 383.729 127.039 384.741V385.459H121.878C121.901 386.339 122.122 387.006 122.541 387.462C122.965 387.918 123.56 388.146 124.325 388.146C125.132 388.146 125.929 387.977 126.718 387.64V388.651C126.317 388.825 125.936 388.948 125.576 389.021C125.221 389.098 124.79 389.137 124.284 389.137ZM123.977 382.321C123.375 382.321 122.894 382.517 122.534 382.909C122.179 383.301 121.969 383.843 121.905 384.536H125.822C125.822 383.821 125.663 383.274 125.344 382.896C125.025 382.513 124.569 382.321 123.977 382.321ZM132.467 389.137C131.979 389.137 131.533 389.048 131.127 388.87C130.726 388.688 130.389 388.41 130.115 388.036H130.033C130.088 388.474 130.115 388.888 130.115 389.28V392.363H128.98V381.508H129.903L130.061 382.533H130.115C130.407 382.123 130.746 381.827 131.134 381.645C131.521 381.462 131.965 381.371 132.467 381.371C133.46 381.371 134.226 381.711 134.764 382.39C135.306 383.069 135.577 384.021 135.577 385.247C135.577 386.478 135.301 387.435 134.75 388.118C134.203 388.797 133.442 389.137 132.467 389.137ZM132.303 382.335C131.537 382.335 130.983 382.547 130.642 382.971C130.3 383.395 130.124 384.069 130.115 384.994V385.247C130.115 386.3 130.291 387.054 130.642 387.51C130.993 387.961 131.555 388.187 132.33 388.187C132.977 388.187 133.483 387.924 133.848 387.4C134.217 386.876 134.401 386.154 134.401 385.233C134.401 384.299 134.217 383.584 133.848 383.087C133.483 382.586 132.968 382.335 132.303 382.335ZM142.174 389L141.948 387.934H141.894C141.52 388.403 141.146 388.722 140.772 388.891C140.403 389.055 139.941 389.137 139.385 389.137C138.642 389.137 138.059 388.945 137.635 388.562C137.215 388.18 137.006 387.635 137.006 386.929C137.006 385.416 138.216 384.623 140.636 384.55L141.907 384.509V384.044C141.907 383.456 141.78 383.023 141.524 382.745C141.274 382.463 140.87 382.321 140.314 382.321C139.69 382.321 138.984 382.513 138.195 382.896L137.847 382.027C138.216 381.827 138.619 381.67 139.057 381.556C139.499 381.442 139.941 381.385 140.383 381.385C141.276 381.385 141.937 381.583 142.365 381.979C142.798 382.376 143.015 383.012 143.015 383.887V389H142.174ZM139.61 388.2C140.317 388.2 140.87 388.007 141.271 387.619C141.677 387.232 141.88 386.689 141.88 385.992V385.315L140.745 385.363C139.843 385.395 139.191 385.536 138.79 385.787C138.394 386.033 138.195 386.418 138.195 386.942C138.195 387.353 138.318 387.665 138.564 387.879C138.815 388.093 139.164 388.2 139.61 388.2ZM148.777 381.371C149.11 381.371 149.409 381.398 149.673 381.453L149.516 382.506C149.206 382.438 148.932 382.403 148.695 382.403C148.089 382.403 147.57 382.649 147.137 383.142C146.708 383.634 146.494 384.247 146.494 384.98V389H145.359V381.508H146.296L146.426 382.896H146.48C146.758 382.408 147.093 382.032 147.485 381.768C147.877 381.503 148.308 381.371 148.777 381.371ZM155.682 389L155.456 387.934H155.401C155.028 388.403 154.654 388.722 154.28 388.891C153.911 389.055 153.449 389.137 152.893 389.137C152.15 389.137 151.566 388.945 151.143 388.562C150.723 388.18 150.514 387.635 150.514 386.929C150.514 385.416 151.724 384.623 154.144 384.55L155.415 384.509V384.044C155.415 383.456 155.287 383.023 155.032 382.745C154.782 382.463 154.378 382.321 153.822 382.321C153.198 382.321 152.492 382.513 151.703 382.896L151.354 382.027C151.724 381.827 152.127 381.67 152.564 381.556C153.007 381.442 153.449 381.385 153.891 381.385C154.784 381.385 155.445 381.583 155.873 381.979C156.306 382.376 156.522 383.012 156.522 383.887V389H155.682ZM153.118 388.2C153.825 388.2 154.378 388.007 154.779 387.619C155.185 387.232 155.388 386.689 155.388 385.992V385.315L154.253 385.363C153.351 385.395 152.699 385.536 152.298 385.787C151.901 386.033 151.703 386.418 151.703 386.942C151.703 387.353 151.826 387.665 152.072 387.879C152.323 388.093 152.672 388.2 153.118 388.2ZM161.287 388.2C161.488 388.2 161.681 388.187 161.868 388.159C162.055 388.127 162.203 388.095 162.312 388.063V388.932C162.189 388.991 162.007 389.039 161.766 389.075C161.529 389.116 161.314 389.137 161.123 389.137C159.674 389.137 158.949 388.373 158.949 386.847V382.39H157.876V381.843L158.949 381.371L159.428 379.771H160.084V381.508H162.258V382.39H160.084V386.799C160.084 387.25 160.191 387.596 160.405 387.838C160.619 388.079 160.913 388.2 161.287 388.2ZM164.951 389H163.816V381.508H164.951V389ZM163.721 379.478C163.721 379.218 163.785 379.029 163.912 378.91C164.04 378.787 164.199 378.726 164.391 378.726C164.573 378.726 164.73 378.787 164.862 378.91C164.994 379.033 165.061 379.222 165.061 379.478C165.061 379.733 164.994 379.924 164.862 380.052C164.73 380.175 164.573 380.236 164.391 380.236C164.199 380.236 164.04 380.175 163.912 380.052C163.785 379.924 163.721 379.733 163.721 379.478ZM173.824 385.247C173.824 386.468 173.517 387.423 172.901 388.111C172.286 388.795 171.436 389.137 170.352 389.137C169.682 389.137 169.087 388.979 168.567 388.665C168.048 388.351 167.647 387.899 167.364 387.312C167.082 386.724 166.94 386.035 166.94 385.247C166.94 384.026 167.246 383.076 167.856 382.396C168.467 381.713 169.315 381.371 170.399 381.371C171.448 381.371 172.279 381.72 172.895 382.417C173.514 383.114 173.824 384.058 173.824 385.247ZM168.116 385.247C168.116 386.204 168.308 386.933 168.69 387.435C169.073 387.936 169.636 388.187 170.379 388.187C171.122 388.187 171.685 387.938 172.067 387.441C172.455 386.94 172.648 386.209 172.648 385.247C172.648 384.295 172.455 383.572 172.067 383.08C171.685 382.583 171.117 382.335 170.365 382.335C169.622 382.335 169.062 382.579 168.684 383.066C168.305 383.554 168.116 384.281 168.116 385.247ZM180.947 389V384.153C180.947 383.543 180.808 383.087 180.53 382.786C180.252 382.485 179.817 382.335 179.225 382.335C178.441 382.335 177.867 382.547 177.502 382.971C177.137 383.395 176.955 384.094 176.955 385.069V389H175.82V381.508H176.743L176.928 382.533H176.982C177.215 382.164 177.541 381.879 177.96 381.679C178.379 381.474 178.846 381.371 179.361 381.371C180.264 381.371 180.943 381.59 181.398 382.027C181.854 382.46 182.082 383.155 182.082 384.112V389H180.947Z" fill="white"/>
<path d="M49.0752 461L45.6846 452.141H45.6299C45.6937 452.842 45.7256 453.676 45.7256 454.643V461H44.6523V451.006H46.4023L49.5674 459.25H49.6221L52.8145 451.006H54.5508V461H53.3887V454.561C53.3887 453.822 53.4206 453.02 53.4844 452.154H53.4297L50.0117 461H49.0752ZM63.5947 457.247C63.5947 458.468 63.2871 459.423 62.6719 460.111C62.0566 460.795 61.2067 461.137 60.1221 461.137C59.4521 461.137 58.8574 460.979 58.3379 460.665C57.8184 460.351 57.4173 459.899 57.1348 459.312C56.8522 458.724 56.7109 458.035 56.7109 457.247C56.7109 456.026 57.0163 455.076 57.627 454.396C58.2376 453.713 59.0853 453.371 60.1699 453.371C61.2181 453.371 62.0498 453.72 62.665 454.417C63.2848 455.114 63.5947 456.058 63.5947 457.247ZM57.8867 457.247C57.8867 458.204 58.0781 458.933 58.4609 459.435C58.8438 459.936 59.4066 460.187 60.1494 460.187C60.8923 460.187 61.4551 459.938 61.8379 459.441C62.2253 458.94 62.4189 458.209 62.4189 457.247C62.4189 456.295 62.2253 455.572 61.8379 455.08C61.4551 454.583 60.8877 454.335 60.1357 454.335C59.3929 454.335 58.8324 454.579 58.4541 455.066C58.0758 455.554 57.8867 456.281 57.8867 457.247ZM70.6904 459.995H70.6289C70.1048 460.756 69.321 461.137 68.2773 461.137C67.2975 461.137 66.5342 460.802 65.9873 460.132C65.445 459.462 65.1738 458.509 65.1738 457.274C65.1738 456.039 65.4473 455.08 65.9941 454.396C66.541 453.713 67.3021 453.371 68.2773 453.371C69.2936 453.371 70.0729 453.74 70.6152 454.479H70.7041L70.6562 453.938L70.6289 453.412V450.363H71.7637V461H70.8408L70.6904 459.995ZM68.4209 460.187C69.1956 460.187 69.7562 459.977 70.1025 459.558C70.4535 459.134 70.6289 458.452 70.6289 457.514V457.274C70.6289 456.213 70.4512 455.456 70.0957 455.005C69.7448 454.549 69.182 454.321 68.4072 454.321C67.7419 454.321 67.2314 454.581 66.876 455.101C66.5251 455.616 66.3496 456.345 66.3496 457.288C66.3496 458.245 66.5251 458.967 66.876 459.455C67.2269 459.943 67.7419 460.187 68.4209 460.187ZM77.3418 461.137C76.2344 461.137 75.3594 460.799 74.7168 460.125C74.0788 459.451 73.7598 458.514 73.7598 457.315C73.7598 456.108 74.056 455.148 74.6484 454.438C75.2454 453.727 76.0452 453.371 77.0479 453.371C77.9867 453.371 78.7295 453.681 79.2764 454.301C79.8232 454.916 80.0967 455.729 80.0967 456.741V457.459H74.9355C74.9583 458.339 75.1794 459.006 75.5986 459.462C76.0225 459.918 76.6172 460.146 77.3828 460.146C78.1895 460.146 78.987 459.977 79.7754 459.64V460.651C79.3743 460.825 78.9938 460.948 78.6338 461.021C78.2783 461.098 77.8477 461.137 77.3418 461.137ZM77.0342 454.321C76.4326 454.321 75.9518 454.517 75.5918 454.909C75.2363 455.301 75.0267 455.843 74.9629 456.536H78.8799C78.8799 455.821 78.7204 455.274 78.4014 454.896C78.0824 454.513 77.6266 454.321 77.0342 454.321ZM85.4561 453.371C85.7887 453.371 86.0872 453.398 86.3516 453.453L86.1943 454.506C85.8844 454.438 85.611 454.403 85.374 454.403C84.7679 454.403 84.2484 454.649 83.8154 455.142C83.387 455.634 83.1729 456.247 83.1729 456.98V461H82.0381V453.508H82.9746L83.1045 454.896H83.1592C83.4372 454.408 83.7721 454.032 84.1641 453.768C84.556 453.503 84.9867 453.371 85.4561 453.371ZM92.3604 461L92.1348 459.934H92.0801C91.7064 460.403 91.3327 460.722 90.959 460.891C90.5898 461.055 90.1273 461.137 89.5713 461.137C88.8285 461.137 88.2451 460.945 87.8213 460.562C87.402 460.18 87.1924 459.635 87.1924 458.929C87.1924 457.416 88.4023 456.623 90.8223 456.55L92.0938 456.509V456.044C92.0938 455.456 91.9661 455.023 91.7109 454.745C91.4603 454.463 91.057 454.321 90.501 454.321C89.8766 454.321 89.1702 454.513 88.3818 454.896L88.0332 454.027C88.4023 453.827 88.8057 453.67 89.2432 453.556C89.6852 453.442 90.1273 453.385 90.5693 453.385C91.4626 453.385 92.1234 453.583 92.5518 453.979C92.9847 454.376 93.2012 455.012 93.2012 455.887V461H92.3604ZM89.7969 460.2C90.5033 460.2 91.057 460.007 91.458 459.619C91.8636 459.232 92.0664 458.689 92.0664 457.992V457.315L90.9316 457.363C90.0293 457.395 89.3776 457.536 88.9766 457.787C88.5801 458.033 88.3818 458.418 88.3818 458.942C88.3818 459.353 88.5049 459.665 88.751 459.879C89.0016 460.093 89.3503 460.2 89.7969 460.2ZM97.9658 460.2C98.1663 460.2 98.36 460.187 98.5469 460.159C98.7337 460.127 98.8818 460.095 98.9912 460.063V460.932C98.8682 460.991 98.6859 461.039 98.4443 461.075C98.2074 461.116 97.9932 461.137 97.8018 461.137C96.3525 461.137 95.6279 460.373 95.6279 458.847V454.39H94.5547V453.843L95.6279 453.371L96.1064 451.771H96.7627V453.508H98.9365V454.39H96.7627V458.799C96.7627 459.25 96.8698 459.596 97.084 459.838C97.2982 460.079 97.5921 460.2 97.9658 460.2ZM103.66 461.137C102.553 461.137 101.678 460.799 101.035 460.125C100.397 459.451 100.078 458.514 100.078 457.315C100.078 456.108 100.374 455.148 100.967 454.438C101.564 453.727 102.364 453.371 103.366 453.371C104.305 453.371 105.048 453.681 105.595 454.301C106.142 454.916 106.415 455.729 106.415 456.741V457.459H101.254C101.277 458.339 101.498 459.006 101.917 459.462C102.341 459.918 102.936 460.146 103.701 460.146C104.508 460.146 105.305 459.977 106.094 459.64V460.651C105.693 460.825 105.312 460.948 104.952 461.021C104.597 461.098 104.166 461.137 103.66 461.137ZM103.353 454.321C102.751 454.321 102.27 454.517 101.91 454.909C101.555 455.301 101.345 455.843 101.281 456.536H105.198C105.198 455.821 105.039 455.274 104.72 454.896C104.401 454.513 103.945 454.321 103.353 454.321ZM113.456 459.995H113.395C112.87 460.756 112.087 461.137 111.043 461.137C110.063 461.137 109.3 460.802 108.753 460.132C108.211 459.462 107.939 458.509 107.939 457.274C107.939 456.039 108.213 455.08 108.76 454.396C109.307 453.713 110.068 453.371 111.043 453.371C112.059 453.371 112.839 453.74 113.381 454.479H113.47L113.422 453.938L113.395 453.412V450.363H114.529V461H113.606L113.456 459.995ZM111.187 460.187C111.961 460.187 112.522 459.977 112.868 459.558C113.219 459.134 113.395 458.452 113.395 457.514V457.274C113.395 456.213 113.217 455.456 112.861 455.005C112.51 454.549 111.948 454.321 111.173 454.321C110.507 454.321 109.997 454.581 109.642 455.101C109.291 455.616 109.115 456.345 109.115 457.288C109.115 458.245 109.291 458.967 109.642 459.455C109.993 459.943 110.507 460.187 111.187 460.187ZM128.297 451.006V457.473C128.297 458.612 127.953 459.507 127.265 460.159C126.576 460.811 125.631 461.137 124.428 461.137C123.225 461.137 122.293 460.809 121.632 460.152C120.976 459.496 120.647 458.594 120.647 457.445V451.006H121.81V457.527C121.81 458.361 122.037 459.002 122.493 459.448C122.949 459.895 123.619 460.118 124.503 460.118C125.346 460.118 125.995 459.895 126.451 459.448C126.907 458.997 127.135 458.352 127.135 457.514V451.006H128.297ZM135.611 458.956C135.611 459.653 135.352 460.191 134.832 460.569C134.312 460.948 133.583 461.137 132.645 461.137C131.651 461.137 130.876 460.979 130.32 460.665V459.612C130.68 459.795 131.065 459.938 131.476 460.043C131.89 460.148 132.289 460.2 132.672 460.2C133.264 460.2 133.72 460.107 134.039 459.92C134.358 459.729 134.518 459.439 134.518 459.052C134.518 458.76 134.39 458.512 134.135 458.307C133.884 458.097 133.392 457.851 132.658 457.568C131.961 457.309 131.464 457.083 131.168 456.892C130.876 456.696 130.658 456.475 130.512 456.229C130.37 455.982 130.3 455.688 130.3 455.347C130.3 454.736 130.548 454.255 131.045 453.904C131.542 453.549 132.223 453.371 133.089 453.371C133.896 453.371 134.684 453.535 135.454 453.863L135.051 454.786C134.299 454.476 133.618 454.321 133.007 454.321C132.469 454.321 132.063 454.406 131.79 454.574C131.517 454.743 131.38 454.975 131.38 455.271C131.38 455.472 131.43 455.643 131.53 455.784C131.635 455.925 131.801 456.06 132.029 456.188C132.257 456.315 132.695 456.5 133.342 456.741C134.23 457.065 134.83 457.391 135.14 457.719C135.454 458.047 135.611 458.459 135.611 458.956ZM140.629 461.137C139.521 461.137 138.646 460.799 138.004 460.125C137.366 459.451 137.047 458.514 137.047 457.315C137.047 456.108 137.343 455.148 137.936 454.438C138.533 453.727 139.332 453.371 140.335 453.371C141.274 453.371 142.017 453.681 142.563 454.301C143.11 454.916 143.384 455.729 143.384 456.741V457.459H138.223C138.245 458.339 138.466 459.006 138.886 459.462C139.31 459.918 139.904 460.146 140.67 460.146C141.477 460.146 142.274 459.977 143.062 459.64V460.651C142.661 460.825 142.281 460.948 141.921 461.021C141.565 461.098 141.135 461.137 140.629 461.137ZM140.321 454.321C139.72 454.321 139.239 454.517 138.879 454.909C138.523 455.301 138.314 455.843 138.25 456.536H142.167C142.167 455.821 142.007 455.274 141.688 454.896C141.369 454.513 140.914 454.321 140.321 454.321ZM148.743 453.371C149.076 453.371 149.374 453.398 149.639 453.453L149.481 454.506C149.172 454.438 148.898 454.403 148.661 454.403C148.055 454.403 147.535 454.649 147.103 455.142C146.674 455.634 146.46 456.247 146.46 456.98V461H145.325V453.508H146.262L146.392 454.896H146.446C146.724 454.408 147.059 454.032 147.451 453.768C147.843 453.503 148.274 453.371 148.743 453.371ZM157.924 461H156.762V452.038H153.597V451.006H161.089V452.038H157.924V461ZM165.594 461.137C164.486 461.137 163.611 460.799 162.969 460.125C162.331 459.451 162.012 458.514 162.012 457.315C162.012 456.108 162.308 455.148 162.9 454.438C163.497 453.727 164.297 453.371 165.3 453.371C166.239 453.371 166.981 453.681 167.528 454.301C168.075 454.916 168.349 455.729 168.349 456.741V457.459H163.188C163.21 458.339 163.431 459.006 163.851 459.462C164.274 459.918 164.869 460.146 165.635 460.146C166.441 460.146 167.239 459.977 168.027 459.64V460.651C167.626 460.825 167.246 460.948 166.886 461.021C166.53 461.098 166.1 461.137 165.594 461.137ZM165.286 454.321C164.685 454.321 164.204 454.517 163.844 454.909C163.488 455.301 163.279 455.843 163.215 456.536H167.132C167.132 455.821 166.972 455.274 166.653 454.896C166.334 454.513 165.879 454.321 165.286 454.321ZM175.123 458.956C175.123 459.653 174.863 460.191 174.344 460.569C173.824 460.948 173.095 461.137 172.156 461.137C171.163 461.137 170.388 460.979 169.832 460.665V459.612C170.192 459.795 170.577 459.938 170.987 460.043C171.402 460.148 171.801 460.2 172.184 460.2C172.776 460.2 173.232 460.107 173.551 459.92C173.87 459.729 174.029 459.439 174.029 459.052C174.029 458.76 173.902 458.512 173.646 458.307C173.396 458.097 172.904 457.851 172.17 457.568C171.473 457.309 170.976 457.083 170.68 456.892C170.388 456.696 170.169 456.475 170.023 456.229C169.882 455.982 169.812 455.688 169.812 455.347C169.812 454.736 170.06 454.255 170.557 453.904C171.053 453.549 171.735 453.371 172.601 453.371C173.407 453.371 174.196 453.535 174.966 453.863L174.562 454.786C173.811 454.476 173.129 454.321 172.519 454.321C171.981 454.321 171.575 454.406 171.302 454.574C171.028 454.743 170.892 454.975 170.892 455.271C170.892 455.472 170.942 455.643 171.042 455.784C171.147 455.925 171.313 456.06 171.541 456.188C171.769 456.315 172.206 456.5 172.854 456.741C173.742 457.065 174.341 457.391 174.651 457.719C174.966 458.047 175.123 458.459 175.123 458.956ZM179.396 460.2C179.596 460.2 179.79 460.187 179.977 460.159C180.163 460.127 180.312 460.095 180.421 460.063V460.932C180.298 460.991 180.116 461.039 179.874 461.075C179.637 461.116 179.423 461.137 179.231 461.137C177.782 461.137 177.058 460.373 177.058 458.847V454.39H175.984V453.843L177.058 453.371L177.536 451.771H178.192V453.508H180.366V454.39H178.192V458.799C178.192 459.25 178.299 459.596 178.514 459.838C178.728 460.079 179.022 460.2 179.396 460.2Z" fill="white"/>
<path d="M21.957 533V523.006H23.1191V533H21.957ZM30.8232 533V528.153C30.8232 527.543 30.6842 527.087 30.4062 526.786C30.1283 526.485 29.693 526.335 29.1006 526.335C28.3167 526.335 27.7425 526.547 27.3779 526.971C27.0133 527.395 26.8311 528.094 26.8311 529.069V533H25.6963V525.508H26.6191L26.8037 526.533H26.8584C27.0908 526.164 27.4167 525.879 27.8359 525.679C28.2552 525.474 28.7223 525.371 29.2373 525.371C30.1396 525.371 30.8187 525.59 31.2744 526.027C31.7301 526.46 31.958 527.155 31.958 528.112V533H30.8232ZM37.6729 526.39H35.7656V533H34.6309V526.39H33.291V525.877L34.6309 525.467V525.05C34.6309 523.209 35.4352 522.288 37.0439 522.288C37.4404 522.288 37.9053 522.368 38.4385 522.527L38.1445 523.437C37.707 523.295 37.3333 523.225 37.0234 523.225C36.5951 523.225 36.2783 523.368 36.0732 523.655C35.8682 523.938 35.7656 524.394 35.7656 525.022V525.508H37.6729V526.39ZM40.1748 533H39.04V525.508H40.1748V533ZM38.9443 523.478C38.9443 523.218 39.0081 523.029 39.1357 522.91C39.2633 522.787 39.4229 522.726 39.6143 522.726C39.7965 522.726 39.9538 522.787 40.0859 522.91C40.2181 523.033 40.2842 523.222 40.2842 523.478C40.2842 523.733 40.2181 523.924 40.0859 524.052C39.9538 524.175 39.7965 524.236 39.6143 524.236C39.4229 524.236 39.2633 524.175 39.1357 524.052C39.0081 523.924 38.9443 523.733 38.9443 523.478ZM47.708 533V528.153C47.708 527.543 47.569 527.087 47.291 526.786C47.013 526.485 46.5778 526.335 45.9854 526.335C45.2015 526.335 44.6273 526.547 44.2627 526.971C43.8981 527.395 43.7158 528.094 43.7158 529.069V533H42.5811V525.508H43.5039L43.6885 526.533H43.7432C43.9756 526.164 44.3014 525.879 44.7207 525.679C45.14 525.474 45.6071 525.371 46.1221 525.371C47.0244 525.371 47.7035 525.59 48.1592 526.027C48.6149 526.46 48.8428 527.155 48.8428 528.112V533H47.708ZM52.3154 533H51.1807V525.508H52.3154V533ZM51.085 523.478C51.085 523.218 51.1488 523.029 51.2764 522.91C51.404 522.787 51.5635 522.726 51.7549 522.726C51.9372 522.726 52.0944 522.787 52.2266 522.91C52.3587 523.033 52.4248 523.222 52.4248 523.478C52.4248 523.733 52.3587 523.924 52.2266 524.052C52.0944 524.175 51.9372 524.236 51.7549 524.236C51.5635 524.236 51.404 524.175 51.2764 524.052C51.1488 523.924 51.085 523.733 51.085 523.478ZM57.1416 532.2C57.3421 532.2 57.5358 532.187 57.7227 532.159C57.9095 532.127 58.0576 532.095 58.167 532.063V532.932C58.0439 532.991 57.8617 533.039 57.6201 533.075C57.3831 533.116 57.1689 533.137 56.9775 533.137C55.5283 533.137 54.8037 532.373 54.8037 530.847V526.39H53.7305V525.843L54.8037 525.371L55.2822 523.771H55.9385V525.508H58.1123V526.39H55.9385V530.799C55.9385 531.25 56.0456 531.596 56.2598 531.838C56.474 532.079 56.7679 532.2 57.1416 532.2ZM58.4814 525.508H59.6982L61.3389 529.78C61.6989 530.756 61.9222 531.46 62.0088 531.893H62.0635C62.1227 531.66 62.2458 531.264 62.4326 530.703C62.624 530.138 63.2438 528.406 64.292 525.508H65.5088L62.2891 534.039C61.9701 534.882 61.5964 535.479 61.168 535.83C60.7441 536.186 60.2223 536.363 59.6025 536.363C59.2562 536.363 58.9144 536.325 58.5771 536.247V535.338C58.8278 535.393 59.1081 535.42 59.418 535.42C60.1973 535.42 60.7533 534.982 61.0859 534.107L61.5029 533.041L58.4814 525.508ZM74.9561 533L71.5654 524.141H71.5107C71.5745 524.842 71.6064 525.676 71.6064 526.643V533H70.5332V523.006H72.2832L75.4482 531.25H75.5029L78.6953 523.006H80.4316V533H79.2695V526.561C79.2695 525.822 79.3014 525.02 79.3652 524.154H79.3105L75.8926 533H74.9561ZM87.6162 533L87.3906 531.934H87.3359C86.9622 532.403 86.5885 532.722 86.2148 532.891C85.8457 533.055 85.3831 533.137 84.8271 533.137C84.0843 533.137 83.501 532.945 83.0771 532.562C82.6579 532.18 82.4482 531.635 82.4482 530.929C82.4482 529.416 83.6582 528.623 86.0781 528.55L87.3496 528.509V528.044C87.3496 527.456 87.222 527.023 86.9668 526.745C86.7161 526.463 86.3128 526.321 85.7568 526.321C85.1325 526.321 84.4261 526.513 83.6377 526.896L83.2891 526.027C83.6582 525.827 84.0615 525.67 84.499 525.556C84.9411 525.442 85.3831 525.385 85.8252 525.385C86.7184 525.385 87.3792 525.583 87.8076 525.979C88.2406 526.376 88.457 527.012 88.457 527.887V533H87.6162ZM85.0527 532.2C85.7591 532.2 86.3128 532.007 86.7139 531.619C87.1195 531.232 87.3223 530.689 87.3223 529.992V529.315L86.1875 529.363C85.2852 529.395 84.6335 529.536 84.2324 529.787C83.8359 530.033 83.6377 530.418 83.6377 530.942C83.6377 531.353 83.7607 531.665 84.0068 531.879C84.2575 532.093 84.6061 532.2 85.0527 532.2ZM94.2881 533.137C93.8005 533.137 93.3538 533.048 92.9482 532.87C92.5472 532.688 92.21 532.41 91.9365 532.036H91.8545C91.9092 532.474 91.9365 532.888 91.9365 533.28V536.363H90.8018V525.508H91.7246L91.8818 526.533H91.9365C92.2282 526.123 92.5677 525.827 92.9551 525.645C93.3424 525.462 93.7868 525.371 94.2881 525.371C95.2816 525.371 96.0472 525.711 96.585 526.39C97.1273 527.069 97.3984 528.021 97.3984 529.247C97.3984 530.478 97.1227 531.435 96.5713 532.118C96.0244 532.797 95.2633 533.137 94.2881 533.137ZM94.124 526.335C93.3584 526.335 92.8047 526.547 92.4629 526.971C92.1211 527.395 91.9456 528.069 91.9365 528.994V529.247C91.9365 530.3 92.112 531.054 92.4629 531.51C92.8138 531.961 93.3766 532.187 94.1514 532.187C94.7985 532.187 95.3044 531.924 95.6689 531.4C96.0381 530.876 96.2227 530.154 96.2227 529.233C96.2227 528.299 96.0381 527.584 95.6689 527.087C95.3044 526.586 94.7894 526.335 94.124 526.335ZM102.874 533.137C102.386 533.137 101.94 533.048 101.534 532.87C101.133 532.688 100.796 532.41 100.522 532.036H100.44C100.495 532.474 100.522 532.888 100.522 533.28V536.363H99.3877V525.508H100.311L100.468 526.533H100.522C100.814 526.123 101.154 525.827 101.541 525.645C101.928 525.462 102.373 525.371 102.874 525.371C103.868 525.371 104.633 525.711 105.171 526.39C105.713 527.069 105.984 528.021 105.984 529.247C105.984 530.478 105.709 531.435 105.157 532.118C104.61 532.797 103.849 533.137 102.874 533.137ZM102.71 526.335C101.944 526.335 101.391 526.547 101.049 526.971C100.707 527.395 100.532 528.069 100.522 528.994V529.247C100.522 530.3 100.698 531.054 101.049 531.51C101.4 531.961 101.963 532.187 102.737 532.187C103.384 532.187 103.89 531.924 104.255 531.4C104.624 530.876 104.809 530.154 104.809 529.233C104.809 528.299 104.624 527.584 104.255 527.087C103.89 526.586 103.375 526.335 102.71 526.335ZM109.108 533H107.974V525.508H109.108V533ZM107.878 523.478C107.878 523.218 107.942 523.029 108.069 522.91C108.197 522.787 108.356 522.726 108.548 522.726C108.73 522.726 108.887 522.787 109.02 522.91C109.152 523.033 109.218 523.222 109.218 523.478C109.218 523.733 109.152 523.924 109.02 524.052C108.887 524.175 108.73 524.236 108.548 524.236C108.356 524.236 108.197 524.175 108.069 524.052C107.942 523.924 107.878 523.733 107.878 523.478ZM116.642 533V528.153C116.642 527.543 116.503 527.087 116.225 526.786C115.947 526.485 115.511 526.335 114.919 526.335C114.135 526.335 113.561 526.547 113.196 526.971C112.832 527.395 112.649 528.094 112.649 529.069V533H111.515V525.508H112.438L112.622 526.533H112.677C112.909 526.164 113.235 525.879 113.654 525.679C114.074 525.474 114.541 525.371 115.056 525.371C115.958 525.371 116.637 525.59 117.093 526.027C117.549 526.46 117.776 527.155 117.776 528.112V533H116.642ZM126.246 525.508V526.226L124.858 526.39C124.986 526.549 125.1 526.759 125.2 527.019C125.3 527.274 125.351 527.563 125.351 527.887C125.351 528.62 125.1 529.206 124.599 529.644C124.097 530.081 123.409 530.3 122.534 530.3C122.311 530.3 122.101 530.282 121.905 530.245C121.422 530.5 121.181 530.822 121.181 531.209C121.181 531.414 121.265 531.567 121.434 531.667C121.602 531.763 121.892 531.811 122.302 531.811H123.628C124.439 531.811 125.061 531.981 125.494 532.323C125.932 532.665 126.15 533.162 126.15 533.813C126.15 534.643 125.818 535.274 125.152 535.707C124.487 536.145 123.516 536.363 122.24 536.363C121.26 536.363 120.504 536.181 119.971 535.816C119.442 535.452 119.178 534.937 119.178 534.271C119.178 533.816 119.324 533.422 119.615 533.089C119.907 532.756 120.317 532.531 120.846 532.412C120.654 532.326 120.493 532.191 120.36 532.009C120.233 531.826 120.169 531.615 120.169 531.373C120.169 531.1 120.242 530.86 120.388 530.655C120.534 530.45 120.764 530.252 121.078 530.061C120.691 529.901 120.374 529.63 120.128 529.247C119.886 528.864 119.766 528.427 119.766 527.935C119.766 527.114 120.012 526.483 120.504 526.041C120.996 525.594 121.693 525.371 122.596 525.371C122.988 525.371 123.341 525.417 123.655 525.508H126.246ZM120.271 534.258C120.271 534.663 120.442 534.971 120.784 535.181C121.126 535.39 121.616 535.495 122.254 535.495C123.206 535.495 123.91 535.352 124.366 535.064C124.826 534.782 125.057 534.397 125.057 533.909C125.057 533.504 124.931 533.221 124.681 533.062C124.43 532.907 123.958 532.829 123.266 532.829H121.905C121.39 532.829 120.989 532.952 120.702 533.198C120.415 533.444 120.271 533.798 120.271 534.258ZM120.887 527.907C120.887 528.431 121.035 528.828 121.331 529.097C121.627 529.366 122.04 529.5 122.568 529.5C123.676 529.5 124.229 528.962 124.229 527.887C124.229 526.761 123.669 526.198 122.548 526.198C122.015 526.198 121.604 526.342 121.317 526.629C121.03 526.916 120.887 527.342 120.887 527.907ZM134.798 526.39H132.891V533H131.756V526.39H130.416V525.877L131.756 525.467V525.05C131.756 523.209 132.56 522.288 134.169 522.288C134.565 522.288 135.03 522.368 135.563 522.527L135.27 523.437C134.832 523.295 134.458 523.225 134.148 523.225C133.72 523.225 133.403 523.368 133.198 523.655C132.993 523.938 132.891 524.394 132.891 525.022V525.508H134.798V526.39ZM142.632 529.247C142.632 530.468 142.324 531.423 141.709 532.111C141.094 532.795 140.244 533.137 139.159 533.137C138.489 533.137 137.895 532.979 137.375 532.665C136.855 532.351 136.454 531.899 136.172 531.312C135.889 530.724 135.748 530.035 135.748 529.247C135.748 528.026 136.053 527.076 136.664 526.396C137.275 525.713 138.122 525.371 139.207 525.371C140.255 525.371 141.087 525.72 141.702 526.417C142.322 527.114 142.632 528.058 142.632 529.247ZM136.924 529.247C136.924 530.204 137.115 530.933 137.498 531.435C137.881 531.936 138.444 532.187 139.187 532.187C139.929 532.187 140.492 531.938 140.875 531.441C141.262 530.94 141.456 530.209 141.456 529.247C141.456 528.295 141.262 527.572 140.875 527.08C140.492 526.583 139.925 526.335 139.173 526.335C138.43 526.335 137.869 526.579 137.491 527.066C137.113 527.554 136.924 528.281 136.924 529.247ZM148.046 525.371C148.379 525.371 148.677 525.398 148.941 525.453L148.784 526.506C148.474 526.438 148.201 526.403 147.964 526.403C147.358 526.403 146.838 526.649 146.405 527.142C145.977 527.634 145.763 528.247 145.763 528.98V533H144.628V525.508H145.564L145.694 526.896H145.749C146.027 526.408 146.362 526.032 146.754 525.768C147.146 525.503 147.576 525.371 148.046 525.371ZM154.15 533V523.006H155.312V533H154.15ZM163.017 533V528.153C163.017 527.543 162.878 527.087 162.6 526.786C162.322 526.485 161.886 526.335 161.294 526.335C160.51 526.335 159.936 526.547 159.571 526.971C159.207 527.395 159.024 528.094 159.024 529.069V533H157.89V525.508H158.812L158.997 526.533H159.052C159.284 526.164 159.61 525.879 160.029 525.679C160.449 525.474 160.916 525.371 161.431 525.371C162.333 525.371 163.012 525.59 163.468 526.027C163.924 526.46 164.151 527.155 164.151 528.112V533H163.017ZM171.322 530.956C171.322 531.653 171.062 532.191 170.543 532.569C170.023 532.948 169.294 533.137 168.355 533.137C167.362 533.137 166.587 532.979 166.031 532.665V531.612C166.391 531.795 166.776 531.938 167.187 532.043C167.601 532.148 168 532.2 168.383 532.2C168.975 532.2 169.431 532.107 169.75 531.92C170.069 531.729 170.229 531.439 170.229 531.052C170.229 530.76 170.101 530.512 169.846 530.307C169.595 530.097 169.103 529.851 168.369 529.568C167.672 529.309 167.175 529.083 166.879 528.892C166.587 528.696 166.368 528.475 166.223 528.229C166.081 527.982 166.011 527.688 166.011 527.347C166.011 526.736 166.259 526.255 166.756 525.904C167.253 525.549 167.934 525.371 168.8 525.371C169.606 525.371 170.395 525.535 171.165 525.863L170.762 526.786C170.01 526.476 169.328 526.321 168.718 526.321C168.18 526.321 167.774 526.406 167.501 526.574C167.228 526.743 167.091 526.975 167.091 527.271C167.091 527.472 167.141 527.643 167.241 527.784C167.346 527.925 167.512 528.06 167.74 528.188C167.968 528.315 168.406 528.5 169.053 528.741C169.941 529.065 170.541 529.391 170.851 529.719C171.165 530.047 171.322 530.459 171.322 530.956ZM174.31 533H173.175V525.508H174.31V533ZM173.079 523.478C173.079 523.218 173.143 523.029 173.271 522.91C173.398 522.787 173.558 522.726 173.749 522.726C173.931 522.726 174.089 522.787 174.221 522.91C174.353 523.033 174.419 523.222 174.419 523.478C174.419 523.733 174.353 523.924 174.221 524.052C174.089 524.175 173.931 524.236 173.749 524.236C173.558 524.236 173.398 524.175 173.271 524.052C173.143 523.924 173.079 523.733 173.079 523.478ZM182.848 525.508V526.226L181.46 526.39C181.588 526.549 181.701 526.759 181.802 527.019C181.902 527.274 181.952 527.563 181.952 527.887C181.952 528.62 181.701 529.206 181.2 529.644C180.699 530.081 180.011 530.3 179.136 530.3C178.912 530.3 178.703 530.282 178.507 530.245C178.024 530.5 177.782 530.822 177.782 531.209C177.782 531.414 177.867 531.567 178.035 531.667C178.204 531.763 178.493 531.811 178.903 531.811H180.229C181.041 531.811 181.663 531.981 182.096 532.323C182.533 532.665 182.752 533.162 182.752 533.813C182.752 534.643 182.419 535.274 181.754 535.707C181.089 536.145 180.118 536.363 178.842 536.363C177.862 536.363 177.105 536.181 176.572 535.816C176.044 535.452 175.779 534.937 175.779 534.271C175.779 533.816 175.925 533.422 176.217 533.089C176.508 532.756 176.919 532.531 177.447 532.412C177.256 532.326 177.094 532.191 176.962 532.009C176.834 531.826 176.771 531.615 176.771 531.373C176.771 531.1 176.843 530.86 176.989 530.655C177.135 530.45 177.365 530.252 177.68 530.061C177.292 529.901 176.976 529.63 176.729 529.247C176.488 528.864 176.367 528.427 176.367 527.935C176.367 527.114 176.613 526.483 177.105 526.041C177.598 525.594 178.295 525.371 179.197 525.371C179.589 525.371 179.942 525.417 180.257 525.508H182.848ZM176.873 534.258C176.873 534.663 177.044 534.971 177.386 535.181C177.728 535.39 178.217 535.495 178.855 535.495C179.808 535.495 180.512 535.352 180.968 535.064C181.428 534.782 181.658 534.397 181.658 533.909C181.658 533.504 181.533 533.221 181.282 533.062C181.032 532.907 180.56 532.829 179.867 532.829H178.507C177.992 532.829 177.591 532.952 177.304 533.198C177.017 533.444 176.873 533.798 176.873 534.258ZM177.488 527.907C177.488 528.431 177.636 528.828 177.933 529.097C178.229 529.366 178.641 529.5 179.17 529.5C180.277 529.5 180.831 528.962 180.831 527.887C180.831 526.761 180.271 526.198 179.149 526.198C178.616 526.198 178.206 526.342 177.919 526.629C177.632 526.916 177.488 527.342 177.488 527.907ZM189.513 533V528.153C189.513 527.543 189.374 527.087 189.096 526.786C188.818 526.485 188.382 526.335 187.79 526.335C187.002 526.335 186.425 526.549 186.061 526.978C185.701 527.406 185.521 528.108 185.521 529.083V533H184.386V522.363H185.521V525.583C185.521 525.97 185.502 526.292 185.466 526.547H185.534C185.757 526.187 186.074 525.904 186.484 525.699C186.899 525.49 187.371 525.385 187.899 525.385C188.815 525.385 189.501 525.604 189.957 526.041C190.417 526.474 190.647 527.164 190.647 528.112V533H189.513ZM195.405 532.2C195.606 532.2 195.799 532.187 195.986 532.159C196.173 532.127 196.321 532.095 196.431 532.063V532.932C196.308 532.991 196.125 533.039 195.884 533.075C195.647 533.116 195.433 533.137 195.241 533.137C193.792 533.137 193.067 532.373 193.067 530.847V526.39H191.994V525.843L193.067 525.371L193.546 523.771H194.202V525.508H196.376V526.39H194.202V530.799C194.202 531.25 194.309 531.596 194.523 531.838C194.738 532.079 195.032 532.2 195.405 532.2ZM202.768 530.956C202.768 531.653 202.508 532.191 201.988 532.569C201.469 532.948 200.74 533.137 199.801 533.137C198.807 533.137 198.033 532.979 197.477 532.665V531.612C197.837 531.795 198.222 531.938 198.632 532.043C199.047 532.148 199.445 532.2 199.828 532.2C200.421 532.2 200.876 532.107 201.195 531.92C201.514 531.729 201.674 531.439 201.674 531.052C201.674 530.76 201.546 530.512 201.291 530.307C201.04 530.097 200.548 529.851 199.814 529.568C199.117 529.309 198.62 529.083 198.324 528.892C198.033 528.696 197.814 528.475 197.668 528.229C197.527 527.982 197.456 527.688 197.456 527.347C197.456 526.736 197.704 526.255 198.201 525.904C198.698 525.549 199.379 525.371 200.245 525.371C201.052 525.371 201.84 525.535 202.61 525.863L202.207 526.786C201.455 526.476 200.774 526.321 200.163 526.321C199.625 526.321 199.22 526.406 198.946 526.574C198.673 526.743 198.536 526.975 198.536 527.271C198.536 527.472 198.586 527.643 198.687 527.784C198.791 527.925 198.958 528.06 199.186 528.188C199.413 528.315 199.851 528.5 200.498 528.741C201.387 529.065 201.986 529.391 202.296 529.719C202.61 530.047 202.768 530.459 202.768 530.956Z" fill="white"/>
<path d="M39.6963 595.006V601.473C39.6963 602.612 39.3522 603.507 38.6641 604.159C37.9759 604.811 37.0303 605.137 35.8271 605.137C34.624 605.137 33.6921 604.809 33.0312 604.152C32.375 603.496 32.0469 602.594 32.0469 601.445V595.006H33.209V601.527C33.209 602.361 33.4368 603.002 33.8926 603.448C34.3483 603.895 35.0182 604.118 35.9023 604.118C36.7454 604.118 37.3949 603.895 37.8506 603.448C38.3063 602.997 38.5342 602.352 38.5342 601.514V595.006H39.6963ZM45.6641 605.137C45.1764 605.137 44.7298 605.048 44.3242 604.87C43.9232 604.688 43.5859 604.41 43.3125 604.036H43.2305C43.2852 604.474 43.3125 604.888 43.3125 605.28V608.363H42.1777V597.508H43.1006L43.2578 598.533H43.3125C43.6042 598.123 43.9437 597.827 44.3311 597.645C44.7184 597.462 45.1628 597.371 45.6641 597.371C46.6576 597.371 47.4232 597.711 47.9609 598.39C48.5033 599.069 48.7744 600.021 48.7744 601.247C48.7744 602.478 48.4987 603.435 47.9473 604.118C47.4004 604.797 46.6393 605.137 45.6641 605.137ZM45.5 598.335C44.7344 598.335 44.1807 598.547 43.8389 598.971C43.4971 599.395 43.3216 600.069 43.3125 600.994V601.247C43.3125 602.3 43.488 603.054 43.8389 603.51C44.1898 603.961 44.7526 604.187 45.5273 604.187C46.1745 604.187 46.6803 603.924 47.0449 603.4C47.4141 602.876 47.5986 602.154 47.5986 601.233C47.5986 600.299 47.4141 599.584 47.0449 599.087C46.6803 598.586 46.1654 598.335 45.5 598.335ZM55.8633 603.995H55.8018C55.2777 604.756 54.4938 605.137 53.4502 605.137C52.4704 605.137 51.707 604.802 51.1602 604.132C50.6178 603.462 50.3467 602.509 50.3467 601.274C50.3467 600.039 50.6201 599.08 51.167 598.396C51.7139 597.713 52.4749 597.371 53.4502 597.371C54.4665 597.371 55.2458 597.74 55.7881 598.479H55.877L55.8291 597.938L55.8018 597.412V594.363H56.9365V605H56.0137L55.8633 603.995ZM53.5938 604.187C54.3685 604.187 54.929 603.977 55.2754 603.558C55.6263 603.134 55.8018 602.452 55.8018 601.514V601.274C55.8018 600.213 55.624 599.456 55.2686 599.005C54.9176 598.549 54.3548 598.321 53.5801 598.321C52.9147 598.321 52.4043 598.581 52.0488 599.101C51.6979 599.616 51.5225 600.345 51.5225 601.288C51.5225 602.245 51.6979 602.967 52.0488 603.455C52.3997 603.943 52.9147 604.187 53.5938 604.187ZM63.957 605L63.7314 603.934H63.6768C63.3031 604.403 62.9294 604.722 62.5557 604.891C62.1865 605.055 61.724 605.137 61.168 605.137C60.4251 605.137 59.8418 604.945 59.418 604.562C58.9987 604.18 58.7891 603.635 58.7891 602.929C58.7891 601.416 59.999 600.623 62.4189 600.55L63.6904 600.509V600.044C63.6904 599.456 63.5628 599.023 63.3076 598.745C63.057 598.463 62.6536 598.321 62.0977 598.321C61.4733 598.321 60.7669 598.513 59.9785 598.896L59.6299 598.027C59.999 597.827 60.4023 597.67 60.8398 597.556C61.2819 597.442 61.724 597.385 62.166 597.385C63.0592 597.385 63.7201 597.583 64.1484 597.979C64.5814 598.376 64.7979 599.012 64.7979 599.887V605H63.957ZM61.3936 604.2C62.0999 604.2 62.6536 604.007 63.0547 603.619C63.4603 603.232 63.6631 602.689 63.6631 601.992V601.315L62.5283 601.363C61.626 601.395 60.9743 601.536 60.5732 601.787C60.1768 602.033 59.9785 602.418 59.9785 602.942C59.9785 603.353 60.1016 603.665 60.3477 603.879C60.5983 604.093 60.9469 604.2 61.3936 604.2ZM69.5625 604.2C69.763 604.2 69.9567 604.187 70.1436 604.159C70.3304 604.127 70.4785 604.095 70.5879 604.063V604.932C70.4648 604.991 70.2826 605.039 70.041 605.075C69.804 605.116 69.5898 605.137 69.3984 605.137C67.9492 605.137 67.2246 604.373 67.2246 602.847V598.39H66.1514V597.843L67.2246 597.371L67.7031 595.771H68.3594V597.508H70.5332V598.39H68.3594V602.799C68.3594 603.25 68.4665 603.596 68.6807 603.838C68.8949 604.079 69.1888 604.2 69.5625 604.2ZM75.2568 605.137C74.1494 605.137 73.2744 604.799 72.6318 604.125C71.9938 603.451 71.6748 602.514 71.6748 601.315C71.6748 600.108 71.971 599.148 72.5635 598.438C73.1605 597.727 73.9603 597.371 74.9629 597.371C75.9017 597.371 76.6445 597.681 77.1914 598.301C77.7383 598.916 78.0117 599.729 78.0117 600.741V601.459H72.8506C72.8734 602.339 73.0944 603.006 73.5137 603.462C73.9375 603.918 74.5322 604.146 75.2979 604.146C76.1045 604.146 76.902 603.977 77.6904 603.64V604.651C77.2894 604.825 76.9089 604.948 76.5488 605.021C76.1934 605.098 75.7627 605.137 75.2568 605.137ZM74.9492 598.321C74.3477 598.321 73.8669 598.517 73.5068 598.909C73.1514 599.301 72.9417 599.843 72.8779 600.536H76.7949C76.7949 599.821 76.6354 599.274 76.3164 598.896C75.9974 598.513 75.5417 598.321 74.9492 598.321ZM91.3076 595.006V601.473C91.3076 602.612 90.9635 603.507 90.2754 604.159C89.5872 604.811 88.6416 605.137 87.4385 605.137C86.2354 605.137 85.3034 604.809 84.6426 604.152C83.9863 603.496 83.6582 602.594 83.6582 601.445V595.006H84.8203V601.527C84.8203 602.361 85.0482 603.002 85.5039 603.448C85.9596 603.895 86.6296 604.118 87.5137 604.118C88.3568 604.118 89.0062 603.895 89.4619 603.448C89.9176 602.997 90.1455 602.352 90.1455 601.514V595.006H91.3076ZM93.96 605V595.006H95.1221V605H93.96ZM105.943 605L105.718 603.934H105.663C105.289 604.403 104.916 604.722 104.542 604.891C104.173 605.055 103.71 605.137 103.154 605.137C102.411 605.137 101.828 604.945 101.404 604.562C100.985 604.18 100.775 603.635 100.775 602.929C100.775 601.416 101.985 600.623 104.405 600.55L105.677 600.509V600.044C105.677 599.456 105.549 599.023 105.294 598.745C105.043 598.463 104.64 598.321 104.084 598.321C103.46 598.321 102.753 598.513 101.965 598.896L101.616 598.027C101.985 597.827 102.389 597.67 102.826 597.556C103.268 597.442 103.71 597.385 104.152 597.385C105.046 597.385 105.706 597.583 106.135 597.979C106.568 598.376 106.784 599.012 106.784 599.887V605H105.943ZM103.38 604.2C104.086 604.2 104.64 604.007 105.041 603.619C105.447 603.232 105.649 602.689 105.649 601.992V601.315L104.515 601.363C103.612 601.395 102.961 601.536 102.56 601.787C102.163 602.033 101.965 602.418 101.965 602.942C101.965 603.353 102.088 603.665 102.334 603.879C102.585 604.093 102.933 604.2 103.38 604.2ZM114.256 605V600.153C114.256 599.543 114.117 599.087 113.839 598.786C113.561 598.485 113.126 598.335 112.533 598.335C111.749 598.335 111.175 598.547 110.811 598.971C110.446 599.395 110.264 600.094 110.264 601.069V605H109.129V597.508H110.052L110.236 598.533H110.291C110.523 598.164 110.849 597.879 111.269 597.679C111.688 597.474 112.155 597.371 112.67 597.371C113.572 597.371 114.251 597.59 114.707 598.027C115.163 598.46 115.391 599.155 115.391 600.112V605H114.256ZM122.828 603.995H122.767C122.243 604.756 121.459 605.137 120.415 605.137C119.435 605.137 118.672 604.802 118.125 604.132C117.583 603.462 117.312 602.509 117.312 601.274C117.312 600.039 117.585 599.08 118.132 598.396C118.679 597.713 119.44 597.371 120.415 597.371C121.431 597.371 122.211 597.74 122.753 598.479H122.842L122.794 597.938L122.767 597.412V594.363H123.901V605H122.979L122.828 603.995ZM120.559 604.187C121.333 604.187 121.894 603.977 122.24 603.558C122.591 603.134 122.767 602.452 122.767 601.514V601.274C122.767 600.213 122.589 599.456 122.233 599.005C121.882 598.549 121.32 598.321 120.545 598.321C119.88 598.321 119.369 598.581 119.014 599.101C118.663 599.616 118.487 600.345 118.487 601.288C118.487 602.245 118.663 602.967 119.014 603.455C119.365 603.943 119.88 604.187 120.559 604.187ZM136.459 597.918C136.459 598.93 136.113 599.709 135.42 600.256C134.732 600.798 133.745 601.069 132.46 601.069H131.284V605H130.122V595.006H132.713C135.21 595.006 136.459 595.977 136.459 597.918ZM131.284 600.071H132.33C133.36 600.071 134.105 599.905 134.565 599.572C135.026 599.24 135.256 598.706 135.256 597.973C135.256 597.312 135.039 596.82 134.606 596.496C134.174 596.173 133.499 596.011 132.583 596.011H131.284V600.071ZM141.805 597.371C142.137 597.371 142.436 597.398 142.7 597.453L142.543 598.506C142.233 598.438 141.96 598.403 141.723 598.403C141.117 598.403 140.597 598.649 140.164 599.142C139.736 599.634 139.521 600.247 139.521 600.98V605H138.387V597.508H139.323L139.453 598.896H139.508C139.786 598.408 140.121 598.032 140.513 597.768C140.905 597.503 141.335 597.371 141.805 597.371ZM150.568 601.247C150.568 602.468 150.261 603.423 149.646 604.111C149.03 604.795 148.18 605.137 147.096 605.137C146.426 605.137 145.831 604.979 145.312 604.665C144.792 604.351 144.391 603.899 144.108 603.312C143.826 602.724 143.685 602.035 143.685 601.247C143.685 600.026 143.99 599.076 144.601 598.396C145.211 597.713 146.059 597.371 147.144 597.371C148.192 597.371 149.023 597.72 149.639 598.417C150.258 599.114 150.568 600.058 150.568 601.247ZM144.86 601.247C144.86 602.204 145.052 602.933 145.435 603.435C145.817 603.936 146.38 604.187 147.123 604.187C147.866 604.187 148.429 603.938 148.812 603.441C149.199 602.94 149.393 602.209 149.393 601.247C149.393 600.295 149.199 599.572 148.812 599.08C148.429 598.583 147.861 598.335 147.109 598.335C146.367 598.335 145.806 598.579 145.428 599.066C145.049 599.554 144.86 600.281 144.86 601.247ZM154.984 604.2C155.185 604.2 155.379 604.187 155.565 604.159C155.752 604.127 155.9 604.095 156.01 604.063V604.932C155.887 604.991 155.704 605.039 155.463 605.075C155.226 605.116 155.012 605.137 154.82 605.137C153.371 605.137 152.646 604.373 152.646 602.847V598.39H151.573V597.843L152.646 597.371L153.125 595.771H153.781V597.508H155.955V598.39H153.781V602.799C153.781 603.25 153.888 603.596 154.103 603.838C154.317 604.079 154.611 604.2 154.984 604.2ZM163.98 601.247C163.98 602.468 163.673 603.423 163.058 604.111C162.442 604.795 161.592 605.137 160.508 605.137C159.838 605.137 159.243 604.979 158.724 604.665C158.204 604.351 157.803 603.899 157.521 603.312C157.238 602.724 157.097 602.035 157.097 601.247C157.097 600.026 157.402 599.076 158.013 598.396C158.623 597.713 159.471 597.371 160.556 597.371C161.604 597.371 162.436 597.72 163.051 598.417C163.671 599.114 163.98 600.058 163.98 601.247ZM158.272 601.247C158.272 602.204 158.464 602.933 158.847 603.435C159.229 603.936 159.792 604.187 160.535 604.187C161.278 604.187 161.841 603.938 162.224 603.441C162.611 602.94 162.805 602.209 162.805 601.247C162.805 600.295 162.611 599.572 162.224 599.08C161.841 598.583 161.273 598.335 160.521 598.335C159.779 598.335 159.218 598.579 158.84 599.066C158.462 599.554 158.272 600.281 158.272 601.247ZM168.396 604.2C168.597 604.2 168.791 604.187 168.978 604.159C169.164 604.127 169.312 604.095 169.422 604.063V604.932C169.299 604.991 169.117 605.039 168.875 605.075C168.638 605.116 168.424 605.137 168.232 605.137C166.783 605.137 166.059 604.373 166.059 602.847V598.39H164.985V597.843L166.059 597.371L166.537 595.771H167.193V597.508H169.367V598.39H167.193V602.799C167.193 603.25 167.3 603.596 167.515 603.838C167.729 604.079 168.023 604.2 168.396 604.2ZM169.736 597.508H170.953L172.594 601.78C172.954 602.756 173.177 603.46 173.264 603.893H173.318C173.378 603.66 173.501 603.264 173.688 602.703C173.879 602.138 174.499 600.406 175.547 597.508H176.764L173.544 606.039C173.225 606.882 172.851 607.479 172.423 607.83C171.999 608.186 171.477 608.363 170.857 608.363C170.511 608.363 170.169 608.325 169.832 608.247V607.338C170.083 607.393 170.363 607.42 170.673 607.42C171.452 607.42 172.008 606.982 172.341 606.107L172.758 605.041L169.736 597.508ZM181.467 605.137C180.979 605.137 180.533 605.048 180.127 604.87C179.726 604.688 179.389 604.41 179.115 604.036H179.033C179.088 604.474 179.115 604.888 179.115 605.28V608.363H177.98V597.508H178.903L179.061 598.533H179.115C179.407 598.123 179.746 597.827 180.134 597.645C180.521 597.462 180.965 597.371 181.467 597.371C182.46 597.371 183.226 597.711 183.764 598.39C184.306 599.069 184.577 600.021 184.577 601.247C184.577 602.478 184.301 603.435 183.75 604.118C183.203 604.797 182.442 605.137 181.467 605.137ZM181.303 598.335C180.537 598.335 179.983 598.547 179.642 598.971C179.3 599.395 179.124 600.069 179.115 600.994V601.247C179.115 602.3 179.291 603.054 179.642 603.51C179.993 603.961 180.555 604.187 181.33 604.187C181.977 604.187 182.483 603.924 182.848 603.4C183.217 602.876 183.401 602.154 183.401 601.233C183.401 600.299 183.217 599.584 182.848 599.087C182.483 598.586 181.968 598.335 181.303 598.335ZM189.731 605.137C188.624 605.137 187.749 604.799 187.106 604.125C186.468 603.451 186.149 602.514 186.149 601.315C186.149 600.108 186.446 599.148 187.038 598.438C187.635 597.727 188.435 597.371 189.438 597.371C190.376 597.371 191.119 597.681 191.666 598.301C192.213 598.916 192.486 599.729 192.486 600.741V601.459H187.325C187.348 602.339 187.569 603.006 187.988 603.462C188.412 603.918 189.007 604.146 189.772 604.146C190.579 604.146 191.377 603.977 192.165 603.64V604.651C191.764 604.825 191.383 604.948 191.023 605.021C190.668 605.098 190.237 605.137 189.731 605.137ZM189.424 598.321C188.822 598.321 188.341 598.517 187.981 598.909C187.626 599.301 187.416 599.843 187.353 600.536H191.27C191.27 599.821 191.11 599.274 190.791 598.896C190.472 598.513 190.016 598.321 189.424 598.321Z" fill="white"/>
<path d="M91.2803 677H90.1182V672.297H84.8545V677H83.6924V667.006H84.8545V671.258H90.1182V667.006H91.2803V677ZM98.4648 677L98.2393 675.934H98.1846C97.8109 676.403 97.4372 676.722 97.0635 676.891C96.6943 677.055 96.2318 677.137 95.6758 677.137C94.9329 677.137 94.3496 676.945 93.9258 676.562C93.5065 676.18 93.2969 675.635 93.2969 674.929C93.2969 673.416 94.5068 672.623 96.9268 672.55L98.1982 672.509V672.044C98.1982 671.456 98.0706 671.023 97.8154 670.745C97.5648 670.463 97.1615 670.321 96.6055 670.321C95.9811 670.321 95.2747 670.513 94.4863 670.896L94.1377 670.027C94.5068 669.827 94.9102 669.67 95.3477 669.556C95.7897 669.442 96.2318 669.385 96.6738 669.385C97.5671 669.385 98.2279 669.583 98.6562 669.979C99.0892 670.376 99.3057 671.012 99.3057 671.887V677H98.4648ZM95.9014 676.2C96.6077 676.2 97.1615 676.007 97.5625 675.619C97.9681 675.232 98.1709 674.689 98.1709 673.992V673.315L97.0361 673.363C96.1338 673.395 95.4821 673.536 95.0811 673.787C94.6846 674.033 94.4863 674.418 94.4863 674.942C94.4863 675.353 94.6094 675.665 94.8555 675.879C95.1061 676.093 95.4548 676.2 95.9014 676.2ZM106.777 677V672.153C106.777 671.543 106.638 671.087 106.36 670.786C106.082 670.485 105.647 670.335 105.055 670.335C104.271 670.335 103.697 670.547 103.332 670.971C102.967 671.395 102.785 672.094 102.785 673.069V677H101.65V669.508H102.573L102.758 670.533H102.812C103.045 670.164 103.371 669.879 103.79 669.679C104.209 669.474 104.676 669.371 105.191 669.371C106.094 669.371 106.773 669.59 107.229 670.027C107.684 670.46 107.912 671.155 107.912 672.112V677H106.777ZM115.35 675.995H115.288C114.764 676.756 113.98 677.137 112.937 677.137C111.957 677.137 111.193 676.802 110.646 676.132C110.104 675.462 109.833 674.509 109.833 673.274C109.833 672.039 110.106 671.08 110.653 670.396C111.2 669.713 111.961 669.371 112.937 669.371C113.953 669.371 114.732 669.74 115.274 670.479H115.363L115.315 669.938L115.288 669.412V666.363H116.423V677H115.5L115.35 675.995ZM113.08 676.187C113.855 676.187 114.415 675.977 114.762 675.558C115.113 675.134 115.288 674.452 115.288 673.514V673.274C115.288 672.213 115.11 671.456 114.755 671.005C114.404 670.549 113.841 670.321 113.066 670.321C112.401 670.321 111.891 670.581 111.535 671.101C111.184 671.616 111.009 672.345 111.009 673.288C111.009 674.245 111.184 674.967 111.535 675.455C111.886 675.943 112.401 676.187 113.08 676.187ZM131.318 671.989C131.318 673.589 130.913 674.847 130.102 675.763C129.295 676.679 128.172 677.137 126.731 677.137C125.259 677.137 124.122 676.688 123.32 675.79C122.523 674.888 122.124 673.616 122.124 671.976C122.124 670.349 122.525 669.089 123.327 668.195C124.129 667.298 125.269 666.849 126.745 666.849C128.181 666.849 129.302 667.304 130.108 668.216C130.915 669.127 131.318 670.385 131.318 671.989ZM123.354 671.989C123.354 673.343 123.642 674.37 124.216 675.072C124.795 675.77 125.633 676.118 126.731 676.118C127.839 676.118 128.675 675.77 129.24 675.072C129.805 674.375 130.088 673.347 130.088 671.989C130.088 670.645 129.805 669.626 129.24 668.934C128.68 668.236 127.848 667.888 126.745 667.888C125.638 667.888 124.795 668.239 124.216 668.94C123.642 669.638 123.354 670.654 123.354 671.989ZM141.504 670.39H139.597V677H138.462V670.39H137.122V669.877L138.462 669.467V669.05C138.462 667.209 139.266 666.288 140.875 666.288C141.271 666.288 141.736 666.368 142.27 666.527L141.976 667.437C141.538 667.295 141.164 667.225 140.854 667.225C140.426 667.225 140.109 667.368 139.904 667.655C139.699 667.938 139.597 668.394 139.597 669.022V669.508H141.504V670.39ZM136.76 670.39H134.853V677H133.718V670.39H132.378V669.877L133.718 669.467V669.05C133.718 667.209 134.522 666.288 136.131 666.288C136.527 666.288 136.992 666.368 137.525 666.527L137.231 667.437C136.794 667.295 136.42 667.225 136.11 667.225C135.682 667.225 135.365 667.368 135.16 667.655C134.955 667.938 134.853 668.394 134.853 669.022V669.508H136.76V670.39Z" fill="white"/>
<path d="M110.939 73.0607C111.525 73.6464 112.475 73.6464 113.061 73.0607L122.607 63.5147C123.192 62.9289 123.192 61.9792 122.607 61.3934C122.021 60.8076 121.071 60.8076 120.485 61.3934L112 69.8787L103.515 61.3934C102.929 60.8076 101.979 60.8076 101.393 61.3934C100.808 61.9792 100.808 62.9289 101.393 63.5147L110.939 73.0607ZM110.5 48L110.5 72L113.5 72L113.5 48L110.5 48Z" fill="#38373A"/>
<path d="M110.939 145.061C111.525 145.646 112.475 145.646 113.061 145.061L122.607 135.515C123.192 134.929 123.192 133.979 122.607 133.393C122.021 132.808 121.071 132.808 120.485 133.393L112 141.879L103.515 133.393C102.929 132.808 101.979 132.808 101.393 133.393C100.808 133.979 100.808 134.929 101.393 135.515L110.939 145.061ZM110.5 120L110.5 144L113.5 144L113.5 120L110.5 120Z" fill="#38373A"/>
<path d="M111.293 216.707C111.683 217.098 112.317 217.098 112.707 216.707L119.071 210.343C119.462 209.953 119.462 209.319 119.071 208.929C118.681 208.538 118.047 208.538 117.657 208.929L112 214.586L106.343 208.929C105.953 208.538 105.319 208.538 104.929 208.929C104.538 209.319 104.538 209.953 104.929 210.343L111.293 216.707ZM111 192L111 216L113 216L113 192L111 192Z" fill="#38373A"/>
<path d="M111.293 288.707C111.683 289.098 112.317 289.098 112.707 288.707L119.071 282.343C119.462 281.953 119.462 281.319 119.071 280.929C118.681 280.538 118.047 280.538 117.657 280.929L112 286.586L106.343 280.929C105.953 280.538 105.319 280.538 104.929 280.929C104.538 281.319 104.538 281.953 104.929 282.343L111.293 288.707ZM111 264L111 288L113 288L113 264L111 264Z" fill="#38373A"/>
<path d="M111.293 360.707C111.683 361.098 112.317 361.098 112.707 360.707L119.071 354.343C119.462 353.953 119.462 353.319 119.071 352.929C118.681 352.538 118.047 352.538 117.657 352.929L112 358.586L106.343 352.929C105.953 352.538 105.319 352.538 104.929 352.929C104.538 353.319 104.538 353.953 104.929 354.343L111.293 360.707ZM111 336L111 360L113 360L113 336L111 336Z" fill="#38373A"/>
<path d="M111.293 432.707C111.683 433.098 112.317 433.098 112.707 432.707L119.071 426.343C119.462 425.953 119.462 425.319 119.071 424.929C118.681 424.538 118.047 424.538 117.657 424.929L112 430.586L106.343 424.929C105.953 424.538 105.319 424.538 104.929 424.929C104.538 425.319 104.538 425.953 104.929 426.343L111.293 432.707ZM111 408L111 432L113 432L113 408L111 408Z" fill="#38373A"/>
<path d="M111.293 504.707C111.683 505.098 112.317 505.098 112.707 504.707L119.071 498.343C119.462 497.953 119.462 497.319 119.071 496.929C118.681 496.538 118.047 496.538 117.657 496.929L112 502.586L106.343 496.929C105.953 496.538 105.319 496.538 104.929 496.929C104.538 497.319 104.538 497.953 104.929 498.343L111.293 504.707ZM111 480L111 504L113 504L113 480L111 480Z" fill="#38373A"/>
<path d="M111.293 576.707C111.683 577.098 112.317 577.098 112.707 576.707L119.071 570.343C119.462 569.953 119.462 569.319 119.071 568.929C118.681 568.538 118.047 568.538 117.657 568.929L112 574.586L106.343 568.929C105.953 568.538 105.319 568.538 104.929 568.929C104.538 569.319 104.538 569.953 104.929 570.343L111.293 576.707ZM111 552L111 576L113 576L113 552L111 552Z" fill="#38373A"/>
<path d="M111.293 648.707C111.683 649.098 112.317 649.098 112.707 648.707L119.071 642.343C119.462 641.953 119.462 641.319 119.071 640.929C118.681 640.538 118.047 640.538 117.657 640.929L112 646.586L106.343 640.929C105.953 640.538 105.319 640.538 104.929 640.929C104.538 641.319 104.538 641.953 104.929 642.343L111.293 648.707ZM111 624L111 648L113 648L113 624L111 624Z" fill="#38373A"/>
</svg>
