<svg width="224" height="624" viewBox="0 0 224 624" fill="none" xmlns="http://www.w3.org/2000/svg">
<rect x="8" width="208" height="48" rx="24" fill="#38373A"/>
<rect x="8" y="72" width="208" height="48" rx="24" fill="#38373A"/>
<rect x="8" y="144" width="208" height="48" rx="24" fill="#38373A"/>
<rect x="8" y="216" width="208" height="48" rx="24" fill="#38373A"/>
<rect x="8" y="288" width="208" height="48" rx="24" fill="#38373A"/>
<rect x="8" y="360" width="208" height="48" rx="24" fill="#38373A"/>
<rect x="8" y="432" width="208" height="48" rx="24" fill="#38373A"/>
<rect x="8" y="504" width="208" height="48" rx="24" fill="#38373A"/>
<rect x="8" y="576" width="208" height="48" rx="24" fill="#38373A"/>
<path d="M67.0742 21.918C67.0742 22.9297 66.7279 23.709 66.0352 24.2559C65.347 24.7982 64.3604 25.0693 63.0752 25.0693H61.8994V29H60.7373V19.0059H63.3281C65.8255 19.0059 67.0742 19.9766 67.0742 21.918ZM61.8994 24.0713H62.9453C63.9753 24.0713 64.7204 23.9049 65.1807 23.5723C65.641 23.2396 65.8711 22.7064 65.8711 21.9727C65.8711 21.3118 65.6546 20.8197 65.2217 20.4961C64.7887 20.1725 64.1143 20.0107 63.1982 20.0107H61.8994V24.0713ZM72.4199 21.3711C72.7526 21.3711 73.0511 21.3984 73.3154 21.4531L73.1582 22.5059C72.8483 22.4375 72.5749 22.4033 72.3379 22.4033C71.7318 22.4033 71.2122 22.6494 70.7793 23.1416C70.3509 23.6338 70.1367 24.2467 70.1367 24.9805V29H69.002V21.5078H69.9385L70.0684 22.8955H70.123C70.401 22.4079 70.736 22.0319 71.1279 21.7676C71.5199 21.5033 71.9505 21.3711 72.4199 21.3711ZM81.1836 25.2471C81.1836 26.4684 80.876 27.4232 80.2607 28.1113C79.6455 28.7949 78.7956 29.1367 77.7109 29.1367C77.041 29.1367 76.4463 28.9795 75.9268 28.665C75.4072 28.3506 75.0062 27.8994 74.7236 27.3115C74.4411 26.7236 74.2998 26.0355 74.2998 25.2471C74.2998 24.0257 74.6051 23.0755 75.2158 22.3965C75.8265 21.7129 76.6742 21.3711 77.7588 21.3711C78.807 21.3711 79.6387 21.7197 80.2539 22.417C80.8737 23.1143 81.1836 24.0576 81.1836 25.2471ZM75.4756 25.2471C75.4756 26.2041 75.667 26.9333 76.0498 27.4346C76.4326 27.9359 76.9954 28.1865 77.7383 28.1865C78.4811 28.1865 79.0439 27.9382 79.4268 27.4414C79.8141 26.9401 80.0078 26.2087 80.0078 25.2471C80.0078 24.2946 79.8141 23.5723 79.4268 23.0801C79.0439 22.5833 78.4766 22.335 77.7246 22.335C76.9818 22.335 76.4212 22.5788 76.043 23.0664C75.6647 23.554 75.4756 24.2809 75.4756 25.2471ZM88.2793 27.9951H88.2178C87.6937 28.7562 86.9098 29.1367 85.8662 29.1367C84.8864 29.1367 84.123 28.8018 83.5762 28.1318C83.0339 27.4619 82.7627 26.5094 82.7627 25.2744C82.7627 24.0394 83.0361 23.0801 83.583 22.3965C84.1299 21.7129 84.891 21.3711 85.8662 21.3711C86.8825 21.3711 87.6618 21.7402 88.2041 22.4785H88.293L88.2451 21.9385L88.2178 21.4121V18.3633H89.3525V29H88.4297L88.2793 27.9951ZM86.0098 28.1865C86.7845 28.1865 87.3451 27.9769 87.6914 27.5576C88.0423 27.1338 88.2178 26.4525 88.2178 25.5137V25.2744C88.2178 24.2126 88.04 23.4561 87.6846 23.0049C87.3337 22.5492 86.7708 22.3213 85.9961 22.3213C85.3307 22.3213 84.8203 22.5811 84.4648 23.1006C84.1139 23.6156 83.9385 24.3447 83.9385 25.2881C83.9385 26.2451 84.1139 26.9674 84.4648 27.4551C84.8158 27.9427 85.3307 28.1865 86.0098 28.1865ZM92.832 21.5078V26.3682C92.832 26.9788 92.971 27.4346 93.249 27.7354C93.527 28.0361 93.9622 28.1865 94.5547 28.1865C95.3385 28.1865 95.9105 27.9723 96.2705 27.5439C96.6351 27.1156 96.8174 26.416 96.8174 25.4453V21.5078H97.9521V29H97.0156L96.8516 27.9951H96.79C96.5576 28.3643 96.234 28.6468 95.8193 28.8428C95.4092 29.0387 94.9398 29.1367 94.4111 29.1367C93.4997 29.1367 92.8161 28.9202 92.3604 28.4873C91.9092 28.0544 91.6836 27.3617 91.6836 26.4092V21.5078H92.832ZM103.359 29.1367C102.275 29.1367 101.434 28.804 100.837 28.1387C100.244 27.4688 99.9482 26.5231 99.9482 25.3018C99.9482 24.0485 100.249 23.0801 100.851 22.3965C101.457 21.7129 102.318 21.3711 103.435 21.3711C103.795 21.3711 104.155 21.4098 104.515 21.4873C104.875 21.5648 105.157 21.6559 105.362 21.7607L105.014 22.7246C104.763 22.6243 104.49 22.5423 104.193 22.4785C103.897 22.4102 103.635 22.376 103.407 22.376C101.885 22.376 101.124 23.3467 101.124 25.2881C101.124 26.2087 101.309 26.915 101.678 27.4072C102.051 27.8994 102.603 28.1455 103.332 28.1455C103.956 28.1455 104.597 28.0111 105.253 27.7422V28.7471C104.752 29.0068 104.12 29.1367 103.359 29.1367ZM109.457 28.2002C109.658 28.2002 109.851 28.1865 110.038 28.1592C110.225 28.1273 110.373 28.0954 110.482 28.0635V28.9316C110.359 28.9909 110.177 29.0387 109.936 29.0752C109.699 29.1162 109.484 29.1367 109.293 29.1367C107.844 29.1367 107.119 28.3734 107.119 26.8467V22.3896H106.046V21.8428L107.119 21.3711L107.598 19.7715H108.254V21.5078H110.428V22.3896H108.254V26.7988C108.254 27.25 108.361 27.5964 108.575 27.8379C108.789 28.0794 109.083 28.2002 109.457 28.2002ZM123.013 29H121.646L118.002 24.1533L116.956 25.083V29H115.794V19.0059H116.956V23.9619L121.488 19.0059H122.862L118.843 23.3467L123.013 29ZM125.357 29H124.223V21.5078H125.357V29ZM124.127 19.4775C124.127 19.2178 124.191 19.0286 124.318 18.9102C124.446 18.7871 124.605 18.7256 124.797 18.7256C124.979 18.7256 125.136 18.7871 125.269 18.9102C125.401 19.0332 125.467 19.2223 125.467 19.4775C125.467 19.7327 125.401 19.9242 125.269 20.0518C125.136 20.1748 124.979 20.2363 124.797 20.2363C124.605 20.2363 124.446 20.1748 124.318 20.0518C124.191 19.9242 124.127 19.7327 124.127 19.4775ZM130.758 29.1367C129.673 29.1367 128.832 28.804 128.235 28.1387C127.643 27.4688 127.347 26.5231 127.347 25.3018C127.347 24.0485 127.647 23.0801 128.249 22.3965C128.855 21.7129 129.716 21.3711 130.833 21.3711C131.193 21.3711 131.553 21.4098 131.913 21.4873C132.273 21.5648 132.556 21.6559 132.761 21.7607L132.412 22.7246C132.161 22.6243 131.888 22.5423 131.592 22.4785C131.296 22.4102 131.034 22.376 130.806 22.376C129.284 22.376 128.522 23.3467 128.522 25.2881C128.522 26.2087 128.707 26.915 129.076 27.4072C129.45 27.8994 130.001 28.1455 130.73 28.1455C131.355 28.1455 131.995 28.0111 132.651 27.7422V28.7471C132.15 29.0068 131.519 29.1367 130.758 29.1367ZM135.557 25.165C135.753 24.887 136.051 24.5225 136.452 24.0713L138.872 21.5078H140.219L137.184 24.7002L140.431 29H139.057L136.411 25.459L135.557 26.1973V29H134.436V18.3633H135.557V24.0029C135.557 24.2536 135.538 24.641 135.502 25.165H135.557ZM154.273 23.9893C154.273 25.5889 153.868 26.8467 153.057 27.7627C152.25 28.6787 151.127 29.1367 149.687 29.1367C148.215 29.1367 147.077 28.6878 146.275 27.79C145.478 26.8877 145.079 25.6162 145.079 23.9756C145.079 22.3486 145.48 21.0885 146.282 20.1953C147.084 19.2975 148.224 18.8486 149.7 18.8486C151.136 18.8486 152.257 19.3044 153.063 20.2158C153.87 21.1273 154.273 22.3851 154.273 23.9893ZM146.31 23.9893C146.31 25.3428 146.597 26.3704 147.171 27.0723C147.75 27.7695 148.588 28.1182 149.687 28.1182C150.794 28.1182 151.63 27.7695 152.195 27.0723C152.76 26.375 153.043 25.3473 153.043 23.9893C153.043 22.6449 152.76 21.6263 152.195 20.9336C151.635 20.2363 150.803 19.8877 149.7 19.8877C148.593 19.8877 147.75 20.2386 147.171 20.9404C146.597 21.6377 146.31 22.654 146.31 23.9893ZM164.459 22.3896H162.552V29H161.417V22.3896H160.077V21.877L161.417 21.4668V21.0498C161.417 19.2087 162.221 18.2881 163.83 18.2881C164.227 18.2881 164.691 18.3678 165.225 18.5273L164.931 19.4365C164.493 19.2952 164.119 19.2246 163.81 19.2246C163.381 19.2246 163.064 19.3682 162.859 19.6553C162.654 19.9378 162.552 20.3936 162.552 21.0225V21.5078H164.459V22.3896ZM159.715 22.3896H157.808V29H156.673V22.3896H155.333V21.877L156.673 21.4668V21.0498C156.673 19.2087 157.477 18.2881 159.086 18.2881C159.482 18.2881 159.947 18.3678 160.48 18.5273L160.187 19.4365C159.749 19.2952 159.375 19.2246 159.065 19.2246C158.637 19.2246 158.32 19.3682 158.115 19.6553C157.91 19.9378 157.808 20.3936 157.808 21.0225V21.5078H159.715V22.3896Z" fill="white"/>
<path d="M28.875 96.8438V101H27.7129V91.0059H30.4541C31.68 91.0059 32.5846 91.2406 33.168 91.71C33.7559 92.1794 34.0498 92.8857 34.0498 93.8291C34.0498 95.1507 33.3799 96.0439 32.04 96.5088L34.7539 101H33.3799L30.96 96.8438H28.875ZM28.875 95.8457H30.4678C31.2881 95.8457 31.8896 95.6839 32.2725 95.3604C32.6553 95.0322 32.8467 94.5423 32.8467 93.8906C32.8467 93.2298 32.6507 92.7536 32.2588 92.4619C31.8714 92.1702 31.2471 92.0244 30.3857 92.0244H28.875V95.8457ZM39.3613 101.137C38.2539 101.137 37.3789 100.799 36.7363 100.125C36.0983 99.4505 35.7793 98.514 35.7793 97.3154C35.7793 96.1077 36.0755 95.1484 36.668 94.4375C37.265 93.7266 38.0648 93.3711 39.0674 93.3711C40.0062 93.3711 40.749 93.681 41.2959 94.3008C41.8428 94.916 42.1162 95.7295 42.1162 96.7412V97.459H36.9551C36.9779 98.3385 37.1989 99.0062 37.6182 99.4619C38.042 99.9176 38.6367 100.146 39.4023 100.146C40.209 100.146 41.0065 99.9769 41.7949 99.6396V100.651C41.3939 100.825 41.0133 100.948 40.6533 101.021C40.2979 101.098 39.8672 101.137 39.3613 101.137ZM39.0537 94.3213C38.4521 94.3213 37.9714 94.5173 37.6113 94.9092C37.2559 95.3011 37.0462 95.8434 36.9824 96.5361H40.8994C40.8994 95.8206 40.7399 95.2738 40.4209 94.8955C40.1019 94.5127 39.6462 94.3213 39.0537 94.3213ZM48.8906 98.9561C48.8906 99.6533 48.6309 100.191 48.1113 100.569C47.5918 100.948 46.8626 101.137 45.9238 101.137C44.9303 101.137 44.1556 100.979 43.5996 100.665V99.6123C43.9596 99.7946 44.3447 99.9382 44.7549 100.043C45.1696 100.148 45.5684 100.2 45.9512 100.2C46.5436 100.2 46.9993 100.107 47.3184 99.9199C47.6374 99.7285 47.7969 99.4391 47.7969 99.0518C47.7969 98.7601 47.6693 98.5117 47.4141 98.3066C47.1634 98.097 46.6712 97.8509 45.9375 97.5684C45.2402 97.3086 44.7435 97.083 44.4473 96.8916C44.1556 96.6956 43.9368 96.4746 43.791 96.2285C43.6497 95.9824 43.5791 95.6885 43.5791 95.3467C43.5791 94.736 43.8275 94.2552 44.3242 93.9043C44.821 93.5488 45.5023 93.3711 46.3682 93.3711C47.1748 93.3711 47.9632 93.5352 48.7334 93.8633L48.3301 94.7861C47.5781 94.4762 46.8968 94.3213 46.2861 94.3213C45.7484 94.3213 45.3428 94.4056 45.0693 94.5742C44.7959 94.7428 44.6592 94.9753 44.6592 95.2715C44.6592 95.472 44.7093 95.6429 44.8096 95.7842C44.9144 95.9255 45.0807 96.0599 45.3086 96.1875C45.5365 96.3151 45.974 96.4997 46.6211 96.7412C47.5098 97.0648 48.109 97.3906 48.4189 97.7188C48.7334 98.0469 48.8906 98.4593 48.8906 98.9561ZM53.9082 101.137C52.8008 101.137 51.9258 100.799 51.2832 100.125C50.6452 99.4505 50.3262 98.514 50.3262 97.3154C50.3262 96.1077 50.6224 95.1484 51.2148 94.4375C51.8118 93.7266 52.6117 93.3711 53.6143 93.3711C54.5531 93.3711 55.2959 93.681 55.8428 94.3008C56.3896 94.916 56.6631 95.7295 56.6631 96.7412V97.459H51.502C51.5247 98.3385 51.7458 99.0062 52.165 99.4619C52.5889 99.9176 53.1836 100.146 53.9492 100.146C54.7559 100.146 55.5534 99.9769 56.3418 99.6396V100.651C55.9408 100.825 55.5602 100.948 55.2002 101.021C54.8447 101.098 54.4141 101.137 53.9082 101.137ZM53.6006 94.3213C52.999 94.3213 52.5182 94.5173 52.1582 94.9092C51.8027 95.3011 51.5931 95.8434 51.5293 96.5361H55.4463C55.4463 95.8206 55.2868 95.2738 54.9678 94.8955C54.6488 94.5127 54.193 94.3213 53.6006 94.3213ZM63.2119 101L62.9863 99.9336H62.9316C62.5579 100.403 62.1842 100.722 61.8105 100.891C61.4414 101.055 60.9788 101.137 60.4229 101.137C59.68 101.137 59.0967 100.945 58.6729 100.562C58.2536 100.18 58.0439 99.6351 58.0439 98.9287C58.0439 97.4157 59.2539 96.6227 61.6738 96.5498L62.9453 96.5088V96.0439C62.9453 95.4561 62.8177 95.0231 62.5625 94.7451C62.3118 94.4626 61.9085 94.3213 61.3525 94.3213C60.7282 94.3213 60.0218 94.5127 59.2334 94.8955L58.8848 94.0273C59.2539 93.8268 59.6572 93.6696 60.0947 93.5557C60.5368 93.4417 60.9788 93.3848 61.4209 93.3848C62.3141 93.3848 62.9749 93.583 63.4033 93.9795C63.8363 94.376 64.0527 95.0117 64.0527 95.8867V101H63.2119ZM60.6484 100.2C61.3548 100.2 61.9085 100.007 62.3096 99.6191C62.7152 99.2318 62.918 98.6895 62.918 97.9922V97.3154L61.7832 97.3633C60.8809 97.3952 60.2292 97.5365 59.8281 97.7871C59.4316 98.0332 59.2334 98.4183 59.2334 98.9424C59.2334 99.3525 59.3564 99.6647 59.6025 99.8789C59.8532 100.093 60.2018 100.2 60.6484 100.2ZM69.8154 93.3711C70.1481 93.3711 70.4466 93.3984 70.7109 93.4531L70.5537 94.5059C70.2438 94.4375 69.9704 94.4033 69.7334 94.4033C69.1273 94.4033 68.6077 94.6494 68.1748 95.1416C67.7464 95.6338 67.5322 96.2467 67.5322 96.9805V101H66.3975V93.5078H67.334L67.4639 94.8955H67.5186C67.7965 94.4079 68.1315 94.0319 68.5234 93.7676C68.9154 93.5033 69.346 93.3711 69.8154 93.3711ZM75.1064 101.137C74.0218 101.137 73.181 100.804 72.584 100.139C71.9915 99.4688 71.6953 98.5231 71.6953 97.3018C71.6953 96.0485 71.9961 95.0801 72.5977 94.3965C73.2038 93.7129 74.0651 93.3711 75.1816 93.3711C75.5417 93.3711 75.9017 93.4098 76.2617 93.4873C76.6217 93.5648 76.9043 93.6559 77.1094 93.7607L76.7607 94.7246C76.5101 94.6243 76.2367 94.5423 75.9404 94.4785C75.6442 94.4102 75.3822 94.376 75.1543 94.376C73.6322 94.376 72.8711 95.3467 72.8711 97.2881C72.8711 98.2087 73.0557 98.915 73.4248 99.4072C73.7985 99.8994 74.3499 100.146 75.0791 100.146C75.7035 100.146 76.3438 100.011 77 99.7422V100.747C76.4987 101.007 75.8675 101.137 75.1064 101.137ZM83.9111 101V96.1533C83.9111 95.5426 83.7721 95.0869 83.4941 94.7861C83.2161 94.4854 82.7809 94.335 82.1885 94.335C81.4001 94.335 80.8236 94.5492 80.459 94.9775C80.099 95.4059 79.9189 96.1077 79.9189 97.083V101H78.7842V90.3633H79.9189V93.583C79.9189 93.9704 79.9007 94.2917 79.8643 94.5469H79.9326C80.1559 94.1868 80.4727 93.9043 80.8828 93.6992C81.2975 93.4896 81.7692 93.3848 82.2979 93.3848C83.2139 93.3848 83.8997 93.6035 84.3555 94.041C84.8158 94.474 85.0459 95.1644 85.0459 96.1123V101H83.9111ZM97.4873 97.2471C97.4873 98.4684 97.1797 99.4232 96.5645 100.111C95.9492 100.795 95.0993 101.137 94.0146 101.137C93.3447 101.137 92.75 100.979 92.2305 100.665C91.7109 100.351 91.3099 99.8994 91.0273 99.3115C90.7448 98.7236 90.6035 98.0355 90.6035 97.2471C90.6035 96.0257 90.9089 95.0755 91.5195 94.3965C92.1302 93.7129 92.9779 93.3711 94.0625 93.3711C95.1107 93.3711 95.9424 93.7197 96.5576 94.417C97.1774 95.1143 97.4873 96.0576 97.4873 97.2471ZM91.7793 97.2471C91.7793 98.2041 91.9707 98.9333 92.3535 99.4346C92.7363 99.9359 93.2992 100.187 94.042 100.187C94.7848 100.187 95.3477 99.9382 95.7305 99.4414C96.1178 98.9401 96.3115 98.2087 96.3115 97.2471C96.3115 96.2946 96.1178 95.5723 95.7305 95.0801C95.3477 94.5833 94.7803 94.335 94.0283 94.335C93.2855 94.335 92.7249 94.5788 92.3467 95.0664C91.9684 95.554 91.7793 96.2809 91.7793 97.2471ZM104.61 101V96.1533C104.61 95.5426 104.471 95.0869 104.193 94.7861C103.915 94.4854 103.48 94.335 102.888 94.335C102.104 94.335 101.53 94.5469 101.165 94.9707C100.8 95.3945 100.618 96.0941 100.618 97.0693V101H99.4834V93.5078H100.406L100.591 94.5332H100.646C100.878 94.1641 101.204 93.8792 101.623 93.6787C102.042 93.4736 102.509 93.3711 103.024 93.3711C103.927 93.3711 104.606 93.5898 105.062 94.0273C105.517 94.4603 105.745 95.1553 105.745 96.1123V101H104.61ZM116.17 91.9014C115.072 91.9014 114.203 92.2682 113.565 93.002C112.932 93.7311 112.615 94.7314 112.615 96.0029C112.615 97.3109 112.921 98.3226 113.531 99.0381C114.146 99.749 115.021 100.104 116.156 100.104C116.854 100.104 117.649 99.9792 118.542 99.7285V100.747C117.849 101.007 116.995 101.137 115.979 101.137C114.507 101.137 113.369 100.69 112.567 99.7969C111.77 98.9036 111.371 97.6344 111.371 95.9893C111.371 94.9593 111.562 94.057 111.945 93.2822C112.333 92.5075 112.889 91.9105 113.613 91.4912C114.342 91.0719 115.199 90.8623 116.184 90.8623C117.232 90.8623 118.148 91.0537 118.932 91.4365L118.439 92.4346C117.683 92.0791 116.926 91.9014 116.17 91.9014ZM121.618 93.5078V98.3682C121.618 98.9788 121.757 99.4346 122.035 99.7354C122.313 100.036 122.748 100.187 123.341 100.187C124.125 100.187 124.697 99.9723 125.057 99.5439C125.421 99.1156 125.604 98.416 125.604 97.4453V93.5078H126.738V101H125.802L125.638 99.9951H125.576C125.344 100.364 125.02 100.647 124.605 100.843C124.195 101.039 123.726 101.137 123.197 101.137C122.286 101.137 121.602 100.92 121.146 100.487C120.695 100.054 120.47 99.3617 120.47 98.4092V93.5078H121.618ZM132.569 93.3711C132.902 93.3711 133.201 93.3984 133.465 93.4531L133.308 94.5059C132.998 94.4375 132.724 94.4033 132.487 94.4033C131.881 94.4033 131.362 94.6494 130.929 95.1416C130.5 95.6338 130.286 96.2467 130.286 96.9805V101H129.151V93.5078H130.088L130.218 94.8955H130.272C130.55 94.4079 130.885 94.0319 131.277 93.7676C131.669 93.5033 132.1 93.3711 132.569 93.3711ZM138.284 93.3711C138.617 93.3711 138.915 93.3984 139.18 93.4531L139.022 94.5059C138.713 94.4375 138.439 94.4033 138.202 94.4033C137.596 94.4033 137.076 94.6494 136.644 95.1416C136.215 95.6338 136.001 96.2467 136.001 96.9805V101H134.866V93.5078H135.803L135.933 94.8955H135.987C136.265 94.4079 136.6 94.0319 136.992 93.7676C137.384 93.5033 137.815 93.3711 138.284 93.3711ZM143.746 101.137C142.639 101.137 141.764 100.799 141.121 100.125C140.483 99.4505 140.164 98.514 140.164 97.3154C140.164 96.1077 140.46 95.1484 141.053 94.4375C141.65 93.7266 142.45 93.3711 143.452 93.3711C144.391 93.3711 145.134 93.681 145.681 94.3008C146.228 94.916 146.501 95.7295 146.501 96.7412V97.459H141.34C141.363 98.3385 141.584 99.0062 142.003 99.4619C142.427 99.9176 143.021 100.146 143.787 100.146C144.594 100.146 145.391 99.9769 146.18 99.6396V100.651C145.779 100.825 145.398 100.948 145.038 101.021C144.683 101.098 144.252 101.137 143.746 101.137ZM143.438 94.3213C142.837 94.3213 142.356 94.5173 141.996 94.9092C141.641 95.3011 141.431 95.8434 141.367 96.5361H145.284C145.284 95.8206 145.125 95.2738 144.806 94.8955C144.487 94.5127 144.031 94.3213 143.438 94.3213ZM153.569 101V96.1533C153.569 95.5426 153.43 95.0869 153.152 94.7861C152.874 94.4854 152.439 94.335 151.847 94.335C151.063 94.335 150.489 94.5469 150.124 94.9707C149.759 95.3945 149.577 96.0941 149.577 97.0693V101H148.442V93.5078H149.365L149.55 94.5332H149.604C149.837 94.1641 150.163 93.8792 150.582 93.6787C151.001 93.4736 151.468 93.3711 151.983 93.3711C152.886 93.3711 153.565 93.5898 154.021 94.0273C154.476 94.4603 154.704 95.1553 154.704 96.1123V101H153.569ZM159.462 100.2C159.662 100.2 159.856 100.187 160.043 100.159C160.23 100.127 160.378 100.095 160.487 100.063V100.932C160.364 100.991 160.182 101.039 159.94 101.075C159.703 101.116 159.489 101.137 159.298 101.137C157.849 101.137 157.124 100.373 157.124 98.8467V94.3896H156.051V93.8428L157.124 93.3711L157.603 91.7715H158.259V93.5078H160.433V94.3896H158.259V98.7988C158.259 99.25 158.366 99.5964 158.58 99.8379C158.794 100.079 159.088 100.2 159.462 100.2ZM171.438 98.3408C171.438 99.2204 171.119 99.9062 170.481 100.398C169.843 100.891 168.978 101.137 167.884 101.137C166.699 101.137 165.787 100.984 165.149 100.679V99.5576C165.56 99.7308 166.006 99.8675 166.489 99.9678C166.972 100.068 167.451 100.118 167.925 100.118C168.7 100.118 169.283 99.9723 169.675 99.6807C170.067 99.3844 170.263 98.9743 170.263 98.4502C170.263 98.1038 170.192 97.8213 170.051 97.6025C169.914 97.3792 169.682 97.1742 169.354 96.9873C169.03 96.8005 168.535 96.5885 167.87 96.3516C166.94 96.0189 166.275 95.6247 165.874 95.1689C165.478 94.7132 165.279 94.1185 165.279 93.3848C165.279 92.6146 165.569 92.0016 166.147 91.5459C166.726 91.0902 167.492 90.8623 168.444 90.8623C169.438 90.8623 170.352 91.0446 171.186 91.4092L170.823 92.4209C169.998 92.0745 169.196 91.9014 168.417 91.9014C167.802 91.9014 167.321 92.0335 166.975 92.2979C166.628 92.5622 166.455 92.929 166.455 93.3984C166.455 93.7448 166.519 94.0296 166.646 94.2529C166.774 94.4717 166.988 94.6745 167.289 94.8613C167.594 95.0436 168.059 95.2464 168.684 95.4697C169.732 95.8434 170.452 96.2445 170.844 96.6729C171.24 97.1012 171.438 97.6572 171.438 98.3408ZM175.731 100.2C175.932 100.2 176.126 100.187 176.312 100.159C176.499 100.127 176.647 100.095 176.757 100.063V100.932C176.634 100.991 176.451 101.039 176.21 101.075C175.973 101.116 175.759 101.137 175.567 101.137C174.118 101.137 173.394 100.373 173.394 98.8467V94.3896H172.32V93.8428L173.394 93.3711L173.872 91.7715H174.528V93.5078H176.702V94.3896H174.528V98.7988C174.528 99.25 174.635 99.5964 174.85 99.8379C175.064 100.079 175.358 100.2 175.731 100.2ZM182.868 101L182.643 99.9336H182.588C182.214 100.403 181.84 100.722 181.467 100.891C181.098 101.055 180.635 101.137 180.079 101.137C179.336 101.137 178.753 100.945 178.329 100.562C177.91 100.18 177.7 99.6351 177.7 98.9287C177.7 97.4157 178.91 96.6227 181.33 96.5498L182.602 96.5088V96.0439C182.602 95.4561 182.474 95.0231 182.219 94.7451C181.968 94.4626 181.565 94.3213 181.009 94.3213C180.384 94.3213 179.678 94.5127 178.89 94.8955L178.541 94.0273C178.91 93.8268 179.313 93.6696 179.751 93.5557C180.193 93.4417 180.635 93.3848 181.077 93.3848C181.97 93.3848 182.631 93.583 183.06 93.9795C183.493 94.376 183.709 95.0117 183.709 95.8867V101H182.868ZM180.305 100.2C181.011 100.2 181.565 100.007 181.966 99.6191C182.371 99.2318 182.574 98.6895 182.574 97.9922V97.3154L181.439 97.3633C180.537 97.3952 179.885 97.5365 179.484 97.7871C179.088 98.0332 178.89 98.4183 178.89 98.9424C178.89 99.3525 179.013 99.6647 179.259 99.8789C179.509 100.093 179.858 100.2 180.305 100.2ZM188.474 100.2C188.674 100.2 188.868 100.187 189.055 100.159C189.242 100.127 189.39 100.095 189.499 100.063V100.932C189.376 100.991 189.194 101.039 188.952 101.075C188.715 101.116 188.501 101.137 188.31 101.137C186.86 101.137 186.136 100.373 186.136 98.8467V94.3896H185.062V93.8428L186.136 93.3711L186.614 91.7715H187.271V93.5078H189.444V94.3896H187.271V98.7988C187.271 99.25 187.378 99.5964 187.592 99.8379C187.806 100.079 188.1 100.2 188.474 100.2ZM194.168 101.137C193.061 101.137 192.186 100.799 191.543 100.125C190.905 99.4505 190.586 98.514 190.586 97.3154C190.586 96.1077 190.882 95.1484 191.475 94.4375C192.072 93.7266 192.871 93.3711 193.874 93.3711C194.813 93.3711 195.556 93.681 196.103 94.3008C196.649 94.916 196.923 95.7295 196.923 96.7412V97.459H191.762C191.785 98.3385 192.006 99.0062 192.425 99.4619C192.849 99.9176 193.443 100.146 194.209 100.146C195.016 100.146 195.813 99.9769 196.602 99.6396V100.651C196.201 100.825 195.82 100.948 195.46 101.021C195.104 101.098 194.674 101.137 194.168 101.137ZM193.86 94.3213C193.259 94.3213 192.778 94.5173 192.418 94.9092C192.062 95.3011 191.853 95.8434 191.789 96.5361H195.706C195.706 95.8206 195.547 95.2738 195.228 94.8955C194.909 94.5127 194.453 94.3213 193.86 94.3213Z" fill="white"/>
<path d="M52.2607 163.901C51.1624 163.901 50.2943 164.268 49.6562 165.002C49.0228 165.731 48.7061 166.731 48.7061 168.003C48.7061 169.311 49.0114 170.323 49.6221 171.038C50.2373 171.749 51.1123 172.104 52.2471 172.104C52.9443 172.104 53.7396 171.979 54.6328 171.729V172.747C53.9401 173.007 53.0856 173.137 52.0693 173.137C50.5973 173.137 49.4603 172.69 48.6582 171.797C47.8607 170.904 47.4619 169.634 47.4619 167.989C47.4619 166.959 47.6533 166.057 48.0361 165.282C48.4235 164.507 48.9795 163.91 49.7041 163.491C50.4333 163.072 51.29 162.862 52.2744 162.862C53.3226 162.862 54.2386 163.054 55.0225 163.437L54.5303 164.435C53.7738 164.079 53.0173 163.901 52.2607 163.901ZM63.1094 169.247C63.1094 170.468 62.8018 171.423 62.1865 172.111C61.5713 172.795 60.7214 173.137 59.6367 173.137C58.9668 173.137 58.3721 172.979 57.8525 172.665C57.333 172.351 56.932 171.899 56.6494 171.312C56.3669 170.724 56.2256 170.035 56.2256 169.247C56.2256 168.026 56.5309 167.076 57.1416 166.396C57.7523 165.713 58.5999 165.371 59.6846 165.371C60.7327 165.371 61.5645 165.72 62.1797 166.417C62.7995 167.114 63.1094 168.058 63.1094 169.247ZM57.4014 169.247C57.4014 170.204 57.5928 170.933 57.9756 171.435C58.3584 171.936 58.9212 172.187 59.6641 172.187C60.4069 172.187 60.9697 171.938 61.3525 171.441C61.7399 170.94 61.9336 170.209 61.9336 169.247C61.9336 168.295 61.7399 167.572 61.3525 167.08C60.9697 166.583 60.4023 166.335 59.6504 166.335C58.9076 166.335 58.347 166.579 57.9688 167.066C57.5905 167.554 57.4014 168.281 57.4014 169.247ZM74.6553 173V168.126C74.6553 167.529 74.5277 167.082 74.2725 166.786C74.0173 166.485 73.6208 166.335 73.083 166.335C72.3766 166.335 71.8548 166.538 71.5176 166.943C71.1803 167.349 71.0117 167.973 71.0117 168.816V173H69.877V168.126C69.877 167.529 69.7493 167.082 69.4941 166.786C69.2389 166.485 68.8402 166.335 68.2979 166.335C67.5869 166.335 67.0651 166.549 66.7324 166.978C66.4043 167.401 66.2402 168.099 66.2402 169.069V173H65.1055V165.508H66.0283L66.2129 166.533H66.2676C66.4818 166.169 66.7826 165.884 67.1699 165.679C67.5618 165.474 67.9993 165.371 68.4824 165.371C69.6536 165.371 70.4193 165.795 70.7793 166.643H70.834C71.0573 166.251 71.3809 165.941 71.8047 165.713C72.2285 165.485 72.7116 165.371 73.2539 165.371C74.1016 165.371 74.735 165.59 75.1543 166.027C75.5781 166.46 75.79 167.155 75.79 168.112V173H74.6553ZM81.6211 173.137C81.1335 173.137 80.6868 173.048 80.2812 172.87C79.8802 172.688 79.543 172.41 79.2695 172.036H79.1875C79.2422 172.474 79.2695 172.888 79.2695 173.28V176.363H78.1348V165.508H79.0576L79.2148 166.533H79.2695C79.5612 166.123 79.9007 165.827 80.2881 165.645C80.6755 165.462 81.1198 165.371 81.6211 165.371C82.6146 165.371 83.3802 165.711 83.918 166.39C84.4603 167.069 84.7314 168.021 84.7314 169.247C84.7314 170.478 84.4557 171.435 83.9043 172.118C83.3574 172.797 82.5964 173.137 81.6211 173.137ZM81.457 166.335C80.6914 166.335 80.1377 166.547 79.7959 166.971C79.4541 167.395 79.2786 168.069 79.2695 168.994V169.247C79.2695 170.3 79.445 171.054 79.7959 171.51C80.1468 171.961 80.7096 172.187 81.4844 172.187C82.1315 172.187 82.6374 171.924 83.002 171.4C83.3711 170.876 83.5557 170.154 83.5557 169.233C83.5557 168.299 83.3711 167.584 83.002 167.087C82.6374 166.586 82.1224 166.335 81.457 166.335ZM89.8857 173.137C88.7783 173.137 87.9033 172.799 87.2607 172.125C86.6227 171.451 86.3037 170.514 86.3037 169.315C86.3037 168.108 86.5999 167.148 87.1924 166.438C87.7894 165.727 88.5892 165.371 89.5918 165.371C90.5306 165.371 91.2734 165.681 91.8203 166.301C92.3672 166.916 92.6406 167.729 92.6406 168.741V169.459H87.4795C87.5023 170.339 87.7233 171.006 88.1426 171.462C88.5664 171.918 89.1611 172.146 89.9268 172.146C90.7334 172.146 91.5309 171.977 92.3193 171.64V172.651C91.9183 172.825 91.5378 172.948 91.1777 173.021C90.8223 173.098 90.3916 173.137 89.8857 173.137ZM89.5781 166.321C88.9766 166.321 88.4958 166.517 88.1357 166.909C87.7803 167.301 87.5706 167.843 87.5068 168.536H91.4238C91.4238 167.821 91.2643 167.274 90.9453 166.896C90.6263 166.513 90.1706 166.321 89.5781 166.321ZM97.002 172.2C97.2025 172.2 97.3962 172.187 97.583 172.159C97.7699 172.127 97.918 172.095 98.0273 172.063V172.932C97.9043 172.991 97.722 173.039 97.4805 173.075C97.2435 173.116 97.0293 173.137 96.8379 173.137C95.3887 173.137 94.6641 172.373 94.6641 170.847V166.39H93.5908V165.843L94.6641 165.371L95.1426 163.771H95.7988V165.508H97.9727V166.39H95.7988V170.799C95.7988 171.25 95.9059 171.596 96.1201 171.838C96.3343 172.079 96.6283 172.2 97.002 172.2ZM100.666 173H99.5312V165.508H100.666V173ZM99.4355 163.478C99.4355 163.218 99.4993 163.029 99.627 162.91C99.7546 162.787 99.9141 162.726 100.105 162.726C100.288 162.726 100.445 162.787 100.577 162.91C100.709 163.033 100.775 163.222 100.775 163.478C100.775 163.733 100.709 163.924 100.577 164.052C100.445 164.175 100.288 164.236 100.105 164.236C99.9141 164.236 99.7546 164.175 99.627 164.052C99.4993 163.924 99.4355 163.733 99.4355 163.478ZM105.492 172.2C105.693 172.2 105.886 172.187 106.073 172.159C106.26 172.127 106.408 172.095 106.518 172.063V172.932C106.395 172.991 106.212 173.039 105.971 173.075C105.734 173.116 105.52 173.137 105.328 173.137C103.879 173.137 103.154 172.373 103.154 170.847V166.39H102.081V165.843L103.154 165.371L103.633 163.771H104.289V165.508H106.463V166.39H104.289V170.799C104.289 171.25 104.396 171.596 104.61 171.838C104.825 172.079 105.118 172.2 105.492 172.2ZM114.488 169.247C114.488 170.468 114.181 171.423 113.565 172.111C112.95 172.795 112.1 173.137 111.016 173.137C110.346 173.137 109.751 172.979 109.231 172.665C108.712 172.351 108.311 171.899 108.028 171.312C107.746 170.724 107.604 170.035 107.604 169.247C107.604 168.026 107.91 167.076 108.521 166.396C109.131 165.713 109.979 165.371 111.063 165.371C112.112 165.371 112.943 165.72 113.559 166.417C114.178 167.114 114.488 168.058 114.488 169.247ZM108.78 169.247C108.78 170.204 108.972 170.933 109.354 171.435C109.737 171.936 110.3 172.187 111.043 172.187C111.786 172.187 112.349 171.938 112.731 171.441C113.119 170.94 113.312 170.209 113.312 169.247C113.312 168.295 113.119 167.572 112.731 167.08C112.349 166.583 111.781 166.335 111.029 166.335C110.286 166.335 109.726 166.579 109.348 167.066C108.969 167.554 108.78 168.281 108.78 169.247ZM119.902 165.371C120.235 165.371 120.534 165.398 120.798 165.453L120.641 166.506C120.331 166.438 120.057 166.403 119.82 166.403C119.214 166.403 118.695 166.649 118.262 167.142C117.833 167.634 117.619 168.247 117.619 168.98V173H116.484V165.508H117.421L117.551 166.896H117.605C117.883 166.408 118.218 166.032 118.61 165.768C119.002 165.503 119.433 165.371 119.902 165.371ZM132.289 173L131.045 169.821H127.039L125.809 173H124.633L128.584 162.965H129.562L133.492 173H132.289ZM130.683 168.775L129.521 165.679C129.37 165.287 129.215 164.806 129.056 164.236C128.955 164.674 128.812 165.155 128.625 165.679L127.449 168.775H130.683ZM139.822 173V168.153C139.822 167.543 139.683 167.087 139.405 166.786C139.127 166.485 138.692 166.335 138.1 166.335C137.316 166.335 136.742 166.547 136.377 166.971C136.012 167.395 135.83 168.094 135.83 169.069V173H134.695V165.508H135.618L135.803 166.533H135.857C136.09 166.164 136.416 165.879 136.835 165.679C137.254 165.474 137.721 165.371 138.236 165.371C139.139 165.371 139.818 165.59 140.273 166.027C140.729 166.46 140.957 167.155 140.957 168.112V173H139.822ZM147.902 173L147.677 171.934H147.622C147.248 172.403 146.875 172.722 146.501 172.891C146.132 173.055 145.669 173.137 145.113 173.137C144.37 173.137 143.787 172.945 143.363 172.562C142.944 172.18 142.734 171.635 142.734 170.929C142.734 169.416 143.944 168.623 146.364 168.55L147.636 168.509V168.044C147.636 167.456 147.508 167.023 147.253 166.745C147.002 166.463 146.599 166.321 146.043 166.321C145.419 166.321 144.712 166.513 143.924 166.896L143.575 166.027C143.944 165.827 144.348 165.67 144.785 165.556C145.227 165.442 145.669 165.385 146.111 165.385C147.005 165.385 147.665 165.583 148.094 165.979C148.527 166.376 148.743 167.012 148.743 167.887V173H147.902ZM145.339 172.2C146.045 172.2 146.599 172.007 147 171.619C147.406 171.232 147.608 170.689 147.608 169.992V169.315L146.474 169.363C145.571 169.395 144.92 169.536 144.519 169.787C144.122 170.033 143.924 170.418 143.924 170.942C143.924 171.353 144.047 171.665 144.293 171.879C144.544 172.093 144.892 172.2 145.339 172.2ZM152.223 173H151.088V162.363H152.223V173ZM153.439 165.508H154.656L156.297 169.78C156.657 170.756 156.88 171.46 156.967 171.893H157.021C157.081 171.66 157.204 171.264 157.391 170.703C157.582 170.138 158.202 168.406 159.25 165.508H160.467L157.247 174.039C156.928 174.882 156.554 175.479 156.126 175.83C155.702 176.186 155.18 176.363 154.561 176.363C154.214 176.363 153.872 176.325 153.535 176.247V175.338C153.786 175.393 154.066 175.42 154.376 175.42C155.155 175.42 155.711 174.982 156.044 174.107L156.461 173.041L153.439 165.508ZM166.517 170.956C166.517 171.653 166.257 172.191 165.737 172.569C165.218 172.948 164.489 173.137 163.55 173.137C162.556 173.137 161.782 172.979 161.226 172.665V171.612C161.586 171.795 161.971 171.938 162.381 172.043C162.796 172.148 163.194 172.2 163.577 172.2C164.17 172.2 164.625 172.107 164.944 171.92C165.263 171.729 165.423 171.439 165.423 171.052C165.423 170.76 165.295 170.512 165.04 170.307C164.789 170.097 164.297 169.851 163.563 169.568C162.866 169.309 162.369 169.083 162.073 168.892C161.782 168.696 161.563 168.475 161.417 168.229C161.276 167.982 161.205 167.688 161.205 167.347C161.205 166.736 161.453 166.255 161.95 165.904C162.447 165.549 163.128 165.371 163.994 165.371C164.801 165.371 165.589 165.535 166.359 165.863L165.956 166.786C165.204 166.476 164.523 166.321 163.912 166.321C163.374 166.321 162.969 166.406 162.695 166.574C162.422 166.743 162.285 166.975 162.285 167.271C162.285 167.472 162.335 167.643 162.436 167.784C162.54 167.925 162.707 168.06 162.935 168.188C163.162 168.315 163.6 168.5 164.247 168.741C165.136 169.065 165.735 169.391 166.045 169.719C166.359 170.047 166.517 170.459 166.517 170.956ZM169.504 173H168.369V165.508H169.504V173ZM168.273 163.478C168.273 163.218 168.337 163.029 168.465 162.91C168.592 162.787 168.752 162.726 168.943 162.726C169.126 162.726 169.283 162.787 169.415 162.91C169.547 163.033 169.613 163.222 169.613 163.478C169.613 163.733 169.547 163.924 169.415 164.052C169.283 164.175 169.126 164.236 168.943 164.236C168.752 164.236 168.592 164.175 168.465 164.052C168.337 163.924 168.273 163.733 168.273 163.478ZM176.743 170.956C176.743 171.653 176.483 172.191 175.964 172.569C175.444 172.948 174.715 173.137 173.776 173.137C172.783 173.137 172.008 172.979 171.452 172.665V171.612C171.812 171.795 172.197 171.938 172.607 172.043C173.022 172.148 173.421 172.2 173.804 172.2C174.396 172.2 174.852 172.107 175.171 171.92C175.49 171.729 175.649 171.439 175.649 171.052C175.649 170.76 175.522 170.512 175.267 170.307C175.016 170.097 174.524 169.851 173.79 169.568C173.093 169.309 172.596 169.083 172.3 168.892C172.008 168.696 171.789 168.475 171.644 168.229C171.502 167.982 171.432 167.688 171.432 167.347C171.432 166.736 171.68 166.255 172.177 165.904C172.674 165.549 173.355 165.371 174.221 165.371C175.027 165.371 175.816 165.535 176.586 165.863L176.183 166.786C175.431 166.476 174.749 166.321 174.139 166.321C173.601 166.321 173.195 166.406 172.922 166.574C172.648 166.743 172.512 166.975 172.512 167.271C172.512 167.472 172.562 167.643 172.662 167.784C172.767 167.925 172.933 168.06 173.161 168.188C173.389 168.315 173.826 168.5 174.474 168.741C175.362 169.065 175.962 169.391 176.271 169.719C176.586 170.047 176.743 170.459 176.743 170.956Z" fill="white"/>
<path d="M75.5029 245L74.2588 241.821H70.2529L69.0225 245H67.8467L71.7979 234.965H72.7754L76.7061 245H75.5029ZM73.8965 240.775L72.7344 237.679C72.584 237.287 72.429 236.806 72.2695 236.236C72.1693 236.674 72.0257 237.155 71.8389 237.679L70.6631 240.775H73.8965ZM86.7549 239.989C86.7549 241.589 86.3493 242.847 85.5381 243.763C84.7314 244.679 83.6081 245.137 82.168 245.137C80.696 245.137 79.5589 244.688 78.7568 243.79C77.9593 242.888 77.5605 241.616 77.5605 239.976C77.5605 238.349 77.9616 237.089 78.7637 236.195C79.5658 235.298 80.7051 234.849 82.1816 234.849C83.6172 234.849 84.7383 235.304 85.5449 236.216C86.3516 237.127 86.7549 238.385 86.7549 239.989ZM78.791 239.989C78.791 241.343 79.0781 242.37 79.6523 243.072C80.2311 243.77 81.0697 244.118 82.168 244.118C83.2754 244.118 84.1117 243.77 84.6768 243.072C85.2419 242.375 85.5244 241.347 85.5244 239.989C85.5244 238.645 85.2419 237.626 84.6768 236.934C84.1162 236.236 83.2845 235.888 82.1816 235.888C81.0742 235.888 80.2311 236.239 79.6523 236.94C79.0781 237.638 78.791 238.654 78.791 239.989ZM96.9678 239.907C96.9678 241.557 96.5189 242.819 95.6211 243.694C94.7279 244.565 93.4404 245 91.7588 245H88.9902V235.006H92.0527C93.6068 235.006 94.8145 235.437 95.6758 236.298C96.5371 237.159 96.9678 238.362 96.9678 239.907ZM95.7373 239.948C95.7373 238.645 95.4092 237.663 94.7529 237.002C94.1012 236.341 93.1305 236.011 91.8408 236.011H90.1523V243.995H91.5674C92.9528 243.995 93.9941 243.656 94.6914 242.977C95.3887 242.293 95.7373 241.284 95.7373 239.948ZM105.485 245L104.241 241.821H100.235L99.0049 245H97.8291L101.78 234.965H102.758L106.688 245H105.485ZM103.879 240.775L102.717 237.679C102.566 237.287 102.411 236.806 102.252 236.236C102.152 236.674 102.008 237.155 101.821 237.679L100.646 240.775H103.879ZM112.861 240.844V245H111.699V235.006H114.44C115.666 235.006 116.571 235.241 117.154 235.71C117.742 236.179 118.036 236.886 118.036 237.829C118.036 239.151 117.366 240.044 116.026 240.509L118.74 245H117.366L114.946 240.844H112.861ZM112.861 239.846H114.454C115.274 239.846 115.876 239.684 116.259 239.36C116.642 239.032 116.833 238.542 116.833 237.891C116.833 237.23 116.637 236.754 116.245 236.462C115.858 236.17 115.233 236.024 114.372 236.024H112.861V239.846ZM123.348 245.137C122.24 245.137 121.365 244.799 120.723 244.125C120.085 243.451 119.766 242.514 119.766 241.315C119.766 240.108 120.062 239.148 120.654 238.438C121.251 237.727 122.051 237.371 123.054 237.371C123.993 237.371 124.735 237.681 125.282 238.301C125.829 238.916 126.103 239.729 126.103 240.741V241.459H120.941C120.964 242.339 121.185 243.006 121.604 243.462C122.028 243.918 122.623 244.146 123.389 244.146C124.195 244.146 124.993 243.977 125.781 243.64V244.651C125.38 244.825 125 244.948 124.64 245.021C124.284 245.098 123.854 245.137 123.348 245.137ZM123.04 238.321C122.438 238.321 121.958 238.517 121.598 238.909C121.242 239.301 121.033 239.843 120.969 240.536H124.886C124.886 239.821 124.726 239.274 124.407 238.896C124.088 238.513 123.632 238.321 123.04 238.321ZM129.685 245L126.841 237.508H128.058L129.671 241.951C130.035 242.99 130.25 243.665 130.313 243.975H130.368C130.418 243.733 130.576 243.234 130.84 242.478C131.109 241.716 131.708 240.06 132.638 237.508H133.854L131.011 245H129.685ZM136.192 245H135.058V237.508H136.192V245ZM134.962 235.478C134.962 235.218 135.026 235.029 135.153 234.91C135.281 234.787 135.44 234.726 135.632 234.726C135.814 234.726 135.971 234.787 136.104 234.91C136.236 235.033 136.302 235.222 136.302 235.478C136.302 235.733 136.236 235.924 136.104 236.052C135.971 236.175 135.814 236.236 135.632 236.236C135.44 236.236 135.281 236.175 135.153 236.052C135.026 235.924 134.962 235.733 134.962 235.478ZM141.764 245.137C140.656 245.137 139.781 244.799 139.139 244.125C138.501 243.451 138.182 242.514 138.182 241.315C138.182 240.108 138.478 239.148 139.07 238.438C139.667 237.727 140.467 237.371 141.47 237.371C142.409 237.371 143.151 237.681 143.698 238.301C144.245 238.916 144.519 239.729 144.519 240.741V241.459H139.357C139.38 242.339 139.601 243.006 140.021 243.462C140.444 243.918 141.039 244.146 141.805 244.146C142.611 244.146 143.409 243.977 144.197 243.64V244.651C143.796 244.825 143.416 244.948 143.056 245.021C142.7 245.098 142.27 245.137 141.764 245.137ZM141.456 238.321C140.854 238.321 140.374 238.517 140.014 238.909C139.658 239.301 139.449 239.843 139.385 240.536H143.302C143.302 239.821 143.142 239.274 142.823 238.896C142.504 238.513 142.049 238.321 141.456 238.321ZM152.578 245L151.204 240.604C151.118 240.336 150.956 239.725 150.719 238.772H150.664C150.482 239.57 150.322 240.185 150.186 240.618L148.771 245H147.458L145.414 237.508H146.604C147.087 239.39 147.453 240.823 147.704 241.808C147.959 242.792 148.105 243.455 148.142 243.797H148.196C148.246 243.537 148.326 243.202 148.436 242.792C148.549 242.377 148.647 242.049 148.729 241.808L150.104 237.508H151.334L152.674 241.808C152.929 242.591 153.102 243.25 153.193 243.783H153.248C153.266 243.619 153.314 243.366 153.392 243.024C153.474 242.683 153.95 240.844 154.82 237.508H155.996L153.925 245H152.578Z" fill="white"/>
<path d="M58.4131 317H57.251V307.006H62.8223V308.038H58.4131V311.695H62.5557V312.728H58.4131V317ZM65.4473 317H64.3125V309.508H65.4473V317ZM64.2168 307.478C64.2168 307.218 64.2806 307.029 64.4082 306.91C64.5358 306.787 64.6953 306.726 64.8867 306.726C65.069 306.726 65.2262 306.787 65.3584 306.91C65.4906 307.033 65.5566 307.222 65.5566 307.478C65.5566 307.733 65.4906 307.924 65.3584 308.052C65.2262 308.175 65.069 308.236 64.8867 308.236C64.6953 308.236 64.5358 308.175 64.4082 308.052C64.2806 307.924 64.2168 307.733 64.2168 307.478ZM71.2715 309.371C71.6042 309.371 71.9027 309.398 72.167 309.453L72.0098 310.506C71.6999 310.438 71.4264 310.403 71.1895 310.403C70.5833 310.403 70.0638 310.649 69.6309 311.142C69.2025 311.634 68.9883 312.247 68.9883 312.98V317H67.8535V309.508H68.79L68.9199 310.896H68.9746C69.2526 310.408 69.5876 310.032 69.9795 309.768C70.3714 309.503 70.8021 309.371 71.2715 309.371ZM78.4014 314.956C78.4014 315.653 78.1416 316.191 77.6221 316.569C77.1025 316.948 76.3734 317.137 75.4346 317.137C74.4411 317.137 73.6663 316.979 73.1104 316.665V315.612C73.4704 315.795 73.8555 315.938 74.2656 316.043C74.6803 316.148 75.0791 316.2 75.4619 316.2C76.0544 316.2 76.5101 316.107 76.8291 315.92C77.1481 315.729 77.3076 315.439 77.3076 315.052C77.3076 314.76 77.18 314.512 76.9248 314.307C76.6742 314.097 76.182 313.851 75.4482 313.568C74.751 313.309 74.2542 313.083 73.958 312.892C73.6663 312.696 73.4476 312.475 73.3018 312.229C73.1605 311.982 73.0898 311.688 73.0898 311.347C73.0898 310.736 73.3382 310.255 73.835 309.904C74.3317 309.549 75.013 309.371 75.8789 309.371C76.6855 309.371 77.474 309.535 78.2441 309.863L77.8408 310.786C77.0889 310.476 76.4076 310.321 75.7969 310.321C75.2591 310.321 74.8535 310.406 74.5801 310.574C74.3066 310.743 74.1699 310.975 74.1699 311.271C74.1699 311.472 74.2201 311.643 74.3203 311.784C74.4251 311.925 74.5915 312.06 74.8193 312.188C75.0472 312.315 75.4847 312.5 76.1318 312.741C77.0205 313.065 77.6198 313.391 77.9297 313.719C78.2441 314.047 78.4014 314.459 78.4014 314.956ZM82.6738 316.2C82.8743 316.2 83.068 316.187 83.2549 316.159C83.4417 316.127 83.5898 316.095 83.6992 316.063V316.932C83.5762 316.991 83.3939 317.039 83.1523 317.075C82.9154 317.116 82.7012 317.137 82.5098 317.137C81.0605 317.137 80.3359 316.373 80.3359 314.847V310.39H79.2627V309.843L80.3359 309.371L80.8145 307.771H81.4707V309.508H83.6445V310.39H81.4707V314.799C81.4707 315.25 81.5778 315.596 81.792 315.838C82.0062 316.079 82.3001 316.2 82.6738 316.2ZM89.0107 317V307.006H90.1729V315.947H94.582V317H89.0107ZM102.58 313.247C102.58 314.468 102.272 315.423 101.657 316.111C101.042 316.795 100.192 317.137 99.1074 317.137C98.4375 317.137 97.8428 316.979 97.3232 316.665C96.8037 316.351 96.4027 315.899 96.1201 315.312C95.8376 314.724 95.6963 314.035 95.6963 313.247C95.6963 312.026 96.0016 311.076 96.6123 310.396C97.223 309.713 98.0706 309.371 99.1553 309.371C100.203 309.371 101.035 309.72 101.65 310.417C102.27 311.114 102.58 312.058 102.58 313.247ZM96.8721 313.247C96.8721 314.204 97.0635 314.933 97.4463 315.435C97.8291 315.936 98.3919 316.187 99.1348 316.187C99.8776 316.187 100.44 315.938 100.823 315.441C101.211 314.94 101.404 314.209 101.404 313.247C101.404 312.295 101.211 311.572 100.823 311.08C100.44 310.583 99.873 310.335 99.1211 310.335C98.3783 310.335 97.8177 310.579 97.4395 311.066C97.0612 311.554 96.8721 312.281 96.8721 313.247ZM103.947 313.767V312.728H107.304V313.767H103.947ZM110.421 317H109.259V307.006H114.83V308.038H110.421V311.695H114.563V312.728H110.421V317ZM117.455 317H116.32V309.508H117.455V317ZM116.225 307.478C116.225 307.218 116.288 307.029 116.416 306.91C116.544 306.787 116.703 306.726 116.895 306.726C117.077 306.726 117.234 306.787 117.366 306.91C117.498 307.033 117.564 307.222 117.564 307.478C117.564 307.733 117.498 307.924 117.366 308.052C117.234 308.175 117.077 308.236 116.895 308.236C116.703 308.236 116.544 308.175 116.416 308.052C116.288 307.924 116.225 307.733 116.225 307.478ZM124.831 312.844V317H123.669V307.006H126.41C127.636 307.006 128.541 307.241 129.124 307.71C129.712 308.179 130.006 308.886 130.006 309.829C130.006 311.151 129.336 312.044 127.996 312.509L130.71 317H129.336L126.916 312.844H124.831ZM124.831 311.846H126.424C127.244 311.846 127.846 311.684 128.229 311.36C128.611 311.032 128.803 310.542 128.803 309.891C128.803 309.23 128.607 308.754 128.215 308.462C127.827 308.17 127.203 308.024 126.342 308.024H124.831V311.846ZM135.317 317.137C134.21 317.137 133.335 316.799 132.692 316.125C132.054 315.451 131.735 314.514 131.735 313.315C131.735 312.108 132.032 311.148 132.624 310.438C133.221 309.727 134.021 309.371 135.023 309.371C135.962 309.371 136.705 309.681 137.252 310.301C137.799 310.916 138.072 311.729 138.072 312.741V313.459H132.911C132.934 314.339 133.155 315.006 133.574 315.462C133.998 315.918 134.593 316.146 135.358 316.146C136.165 316.146 136.963 315.977 137.751 315.64V316.651C137.35 316.825 136.969 316.948 136.609 317.021C136.254 317.098 135.823 317.137 135.317 317.137ZM135.01 310.321C134.408 310.321 133.927 310.517 133.567 310.909C133.212 311.301 133.002 311.843 132.938 312.536H136.855C136.855 311.821 136.696 311.274 136.377 310.896C136.058 310.513 135.602 310.321 135.01 310.321ZM141.654 317L138.811 309.508H140.027L141.641 313.951C142.005 314.99 142.219 315.665 142.283 315.975H142.338C142.388 315.733 142.545 315.234 142.81 314.478C143.078 313.716 143.678 312.06 144.607 309.508H145.824L142.98 317H141.654ZM148.162 317H147.027V309.508H148.162V317ZM146.932 307.478C146.932 307.218 146.995 307.029 147.123 306.91C147.251 306.787 147.41 306.726 147.602 306.726C147.784 306.726 147.941 306.787 148.073 306.91C148.205 307.033 148.271 307.222 148.271 307.478C148.271 307.733 148.205 307.924 148.073 308.052C147.941 308.175 147.784 308.236 147.602 308.236C147.41 308.236 147.251 308.175 147.123 308.052C146.995 307.924 146.932 307.733 146.932 307.478ZM153.733 317.137C152.626 317.137 151.751 316.799 151.108 316.125C150.47 315.451 150.151 314.514 150.151 313.315C150.151 312.108 150.448 311.148 151.04 310.438C151.637 309.727 152.437 309.371 153.439 309.371C154.378 309.371 155.121 309.681 155.668 310.301C156.215 310.916 156.488 311.729 156.488 312.741V313.459H151.327C151.35 314.339 151.571 315.006 151.99 315.462C152.414 315.918 153.009 316.146 153.774 316.146C154.581 316.146 155.379 315.977 156.167 315.64V316.651C155.766 316.825 155.385 316.948 155.025 317.021C154.67 317.098 154.239 317.137 153.733 317.137ZM153.426 310.321C152.824 310.321 152.343 310.517 151.983 310.909C151.628 311.301 151.418 311.843 151.354 312.536H155.271C155.271 311.821 155.112 311.274 154.793 310.896C154.474 310.513 154.018 310.321 153.426 310.321ZM164.548 317L163.174 312.604C163.087 312.336 162.925 311.725 162.688 310.772H162.634C162.451 311.57 162.292 312.185 162.155 312.618L160.74 317H159.428L157.384 309.508H158.573C159.056 311.39 159.423 312.823 159.674 313.808C159.929 314.792 160.075 315.455 160.111 315.797H160.166C160.216 315.537 160.296 315.202 160.405 314.792C160.519 314.377 160.617 314.049 160.699 313.808L162.073 309.508H163.304L164.644 313.808C164.899 314.591 165.072 315.25 165.163 315.783H165.218C165.236 315.619 165.284 315.366 165.361 315.024C165.443 314.683 165.92 312.844 166.79 309.508H167.966L165.895 317H164.548Z" fill="white"/>
<path d="M39.2793 381.918C39.2793 382.93 38.9329 383.709 38.2402 384.256C37.5521 384.798 36.5654 385.069 35.2803 385.069H34.1045V389H32.9424V379.006H35.5332C38.0306 379.006 39.2793 379.977 39.2793 381.918ZM34.1045 384.071H35.1504C36.1803 384.071 36.9255 383.905 37.3857 383.572C37.846 383.24 38.0762 382.706 38.0762 381.973C38.0762 381.312 37.8597 380.82 37.4268 380.496C36.9938 380.173 36.3193 380.011 35.4033 380.011H34.1045V384.071ZM44.625 381.371C44.9577 381.371 45.2562 381.398 45.5205 381.453L45.3633 382.506C45.0534 382.438 44.7799 382.403 44.543 382.403C43.9368 382.403 43.4173 382.649 42.9844 383.142C42.556 383.634 42.3418 384.247 42.3418 384.98V389H41.207V381.508H42.1436L42.2734 382.896H42.3281C42.6061 382.408 42.9411 382.032 43.333 381.768C43.7249 381.503 44.1556 381.371 44.625 381.371ZM50.0869 389.137C48.9795 389.137 48.1045 388.799 47.4619 388.125C46.8239 387.451 46.5049 386.514 46.5049 385.315C46.5049 384.108 46.8011 383.148 47.3936 382.438C47.9906 381.727 48.7904 381.371 49.793 381.371C50.7318 381.371 51.4746 381.681 52.0215 382.301C52.5684 382.916 52.8418 383.729 52.8418 384.741V385.459H47.6807C47.7035 386.339 47.9245 387.006 48.3438 387.462C48.7676 387.918 49.3623 388.146 50.1279 388.146C50.9346 388.146 51.7321 387.977 52.5205 387.64V388.651C52.1195 388.825 51.7389 388.948 51.3789 389.021C51.0234 389.098 50.5928 389.137 50.0869 389.137ZM49.7793 382.321C49.1777 382.321 48.6969 382.517 48.3369 382.909C47.9814 383.301 47.7718 383.843 47.708 384.536H51.625C51.625 383.821 51.4655 383.274 51.1465 382.896C50.8275 382.513 50.3717 382.321 49.7793 382.321ZM55.918 389H54.7832V378.363H55.918V389ZM59.459 389H58.3242V381.508H59.459V389ZM58.2285 379.478C58.2285 379.218 58.2923 379.029 58.4199 378.91C58.5475 378.787 58.707 378.726 58.8984 378.726C59.0807 378.726 59.238 378.787 59.3701 378.91C59.5023 379.033 59.5684 379.222 59.5684 379.478C59.5684 379.733 59.5023 379.924 59.3701 380.052C59.238 380.175 59.0807 380.236 58.8984 380.236C58.707 380.236 58.5475 380.175 58.4199 380.052C58.2923 379.924 58.2285 379.733 58.2285 379.478ZM71.415 389V384.126C71.415 383.529 71.2874 383.082 71.0322 382.786C70.777 382.485 70.3805 382.335 69.8428 382.335C69.1364 382.335 68.6146 382.538 68.2773 382.943C67.9401 383.349 67.7715 383.973 67.7715 384.816V389H66.6367V384.126C66.6367 383.529 66.5091 383.082 66.2539 382.786C65.9987 382.485 65.5999 382.335 65.0576 382.335C64.3467 382.335 63.8249 382.549 63.4922 382.978C63.1641 383.401 63 384.099 63 385.069V389H61.8652V381.508H62.7881L62.9727 382.533H63.0273C63.2415 382.169 63.5423 381.884 63.9297 381.679C64.3216 381.474 64.7591 381.371 65.2422 381.371C66.4134 381.371 67.179 381.795 67.5391 382.643H67.5938C67.8171 382.251 68.1406 381.941 68.5645 381.713C68.9883 381.485 69.4714 381.371 70.0137 381.371C70.8613 381.371 71.4948 381.59 71.9141 382.027C72.3379 382.46 72.5498 383.155 72.5498 384.112V389H71.415ZM76.0293 389H74.8945V381.508H76.0293V389ZM74.7988 379.478C74.7988 379.218 74.8626 379.029 74.9902 378.91C75.1178 378.787 75.2773 378.726 75.4688 378.726C75.651 378.726 75.8083 378.787 75.9404 378.91C76.0726 379.033 76.1387 379.222 76.1387 379.478C76.1387 379.733 76.0726 379.924 75.9404 380.052C75.8083 380.175 75.651 380.236 75.4688 380.236C75.2773 380.236 75.1178 380.175 74.9902 380.052C74.8626 379.924 74.7988 379.733 74.7988 379.478ZM83.5625 389V384.153C83.5625 383.543 83.4235 383.087 83.1455 382.786C82.8675 382.485 82.4323 382.335 81.8398 382.335C81.056 382.335 80.4818 382.547 80.1172 382.971C79.7526 383.395 79.5703 384.094 79.5703 385.069V389H78.4355V381.508H79.3584L79.543 382.533H79.5977C79.8301 382.164 80.1559 381.879 80.5752 381.679C80.9945 381.474 81.4616 381.371 81.9766 381.371C82.8789 381.371 83.5579 381.59 84.0137 382.027C84.4694 382.46 84.6973 383.155 84.6973 384.112V389H83.5625ZM91.6426 389L91.417 387.934H91.3623C90.9886 388.403 90.6149 388.722 90.2412 388.891C89.8721 389.055 89.4095 389.137 88.8535 389.137C88.1107 389.137 87.5273 388.945 87.1035 388.562C86.6842 388.18 86.4746 387.635 86.4746 386.929C86.4746 385.416 87.6846 384.623 90.1045 384.55L91.376 384.509V384.044C91.376 383.456 91.2484 383.023 90.9932 382.745C90.7425 382.463 90.3392 382.321 89.7832 382.321C89.1589 382.321 88.4525 382.513 87.6641 382.896L87.3154 382.027C87.6846 381.827 88.0879 381.67 88.5254 381.556C88.9674 381.442 89.4095 381.385 89.8516 381.385C90.7448 381.385 91.4056 381.583 91.834 381.979C92.2669 382.376 92.4834 383.012 92.4834 383.887V389H91.6426ZM89.0791 388.2C89.7855 388.2 90.3392 388.007 90.7402 387.619C91.1458 387.232 91.3486 386.689 91.3486 385.992V385.315L90.2139 385.363C89.3115 385.395 88.6598 385.536 88.2588 385.787C87.8623 386.033 87.6641 386.418 87.6641 386.942C87.6641 387.353 87.7871 387.665 88.0332 387.879C88.2839 388.093 88.6325 388.2 89.0791 388.2ZM98.2461 381.371C98.5788 381.371 98.8773 381.398 99.1416 381.453L98.9844 382.506C98.6745 382.438 98.401 382.403 98.1641 382.403C97.5579 382.403 97.0384 382.649 96.6055 383.142C96.1771 383.634 95.9629 384.247 95.9629 384.98V389H94.8281V381.508H95.7646L95.8945 382.896H95.9492C96.2272 382.408 96.5622 382.032 96.9541 381.768C97.346 381.503 97.7767 381.371 98.2461 381.371ZM99.3535 381.508H100.57L102.211 385.78C102.571 386.756 102.794 387.46 102.881 387.893H102.936C102.995 387.66 103.118 387.264 103.305 386.703C103.496 386.138 104.116 384.406 105.164 381.508H106.381L103.161 390.039C102.842 390.882 102.468 391.479 102.04 391.83C101.616 392.186 101.094 392.363 100.475 392.363C100.128 392.363 99.7865 392.325 99.4492 392.247V391.338C99.6999 391.393 99.9801 391.42 100.29 391.42C101.069 391.42 101.625 390.982 101.958 390.107L102.375 389.041L99.3535 381.508ZM115.685 379.901C114.586 379.901 113.718 380.268 113.08 381.002C112.447 381.731 112.13 382.731 112.13 384.003C112.13 385.311 112.435 386.323 113.046 387.038C113.661 387.749 114.536 388.104 115.671 388.104C116.368 388.104 117.163 387.979 118.057 387.729V388.747C117.364 389.007 116.509 389.137 115.493 389.137C114.021 389.137 112.884 388.69 112.082 387.797C111.285 386.904 110.886 385.634 110.886 383.989C110.886 382.959 111.077 382.057 111.46 381.282C111.847 380.507 112.403 379.91 113.128 379.491C113.857 379.072 114.714 378.862 115.698 378.862C116.746 378.862 117.662 379.054 118.446 379.437L117.954 380.435C117.198 380.079 116.441 379.901 115.685 379.901ZM126.533 385.247C126.533 386.468 126.226 387.423 125.61 388.111C124.995 388.795 124.145 389.137 123.061 389.137C122.391 389.137 121.796 388.979 121.276 388.665C120.757 388.351 120.356 387.899 120.073 387.312C119.791 386.724 119.649 386.035 119.649 385.247C119.649 384.026 119.955 383.076 120.565 382.396C121.176 381.713 122.024 381.371 123.108 381.371C124.157 381.371 124.988 381.72 125.604 382.417C126.223 383.114 126.533 384.058 126.533 385.247ZM120.825 385.247C120.825 386.204 121.017 386.933 121.399 387.435C121.782 387.936 122.345 388.187 123.088 388.187C123.831 388.187 124.394 387.938 124.776 387.441C125.164 386.94 125.357 386.209 125.357 385.247C125.357 384.295 125.164 383.572 124.776 383.08C124.394 382.583 123.826 382.335 123.074 382.335C122.331 382.335 121.771 382.579 121.393 383.066C121.014 383.554 120.825 384.281 120.825 385.247ZM132.016 389.137C131.528 389.137 131.081 389.048 130.676 388.87C130.275 388.688 129.938 388.41 129.664 388.036H129.582C129.637 388.474 129.664 388.888 129.664 389.28V392.363H128.529V381.508H129.452L129.609 382.533H129.664C129.956 382.123 130.295 381.827 130.683 381.645C131.07 381.462 131.514 381.371 132.016 381.371C133.009 381.371 133.775 381.711 134.312 382.39C134.855 383.069 135.126 384.021 135.126 385.247C135.126 386.478 134.85 387.435 134.299 388.118C133.752 388.797 132.991 389.137 132.016 389.137ZM131.852 382.335C131.086 382.335 130.532 382.547 130.19 382.971C129.849 383.395 129.673 384.069 129.664 384.994V385.247C129.664 386.3 129.84 387.054 130.19 387.51C130.541 387.961 131.104 388.187 131.879 388.187C132.526 388.187 133.032 387.924 133.396 387.4C133.766 386.876 133.95 386.154 133.95 385.233C133.95 384.299 133.766 383.584 133.396 383.087C133.032 382.586 132.517 382.335 131.852 382.335ZM135.926 381.508H137.143L138.783 385.78C139.143 386.756 139.367 387.46 139.453 387.893H139.508C139.567 387.66 139.69 387.264 139.877 386.703C140.068 386.138 140.688 384.406 141.736 381.508H142.953L139.733 390.039C139.414 390.882 139.041 391.479 138.612 391.83C138.188 392.186 137.667 392.363 137.047 392.363C136.701 392.363 136.359 392.325 136.021 392.247V391.338C136.272 391.393 136.552 391.42 136.862 391.42C137.642 391.42 138.198 390.982 138.53 390.107L138.947 389.041L135.926 381.508ZM149.14 384.844V389H147.978V379.006H150.719C151.945 379.006 152.849 379.241 153.433 379.71C154.021 380.179 154.314 380.886 154.314 381.829C154.314 383.151 153.645 384.044 152.305 384.509L155.019 389H153.645L151.225 384.844H149.14ZM149.14 383.846H150.732C151.553 383.846 152.154 383.684 152.537 383.36C152.92 383.032 153.111 382.542 153.111 381.891C153.111 381.23 152.915 380.754 152.523 380.462C152.136 380.17 151.512 380.024 150.65 380.024H149.14V383.846ZM159.626 389.137C158.519 389.137 157.644 388.799 157.001 388.125C156.363 387.451 156.044 386.514 156.044 385.315C156.044 384.108 156.34 383.148 156.933 382.438C157.53 381.727 158.329 381.371 159.332 381.371C160.271 381.371 161.014 381.681 161.561 382.301C162.107 382.916 162.381 383.729 162.381 384.741V385.459H157.22C157.243 386.339 157.464 387.006 157.883 387.462C158.307 387.918 158.901 388.146 159.667 388.146C160.474 388.146 161.271 387.977 162.06 387.64V388.651C161.659 388.825 161.278 388.948 160.918 389.021C160.562 389.098 160.132 389.137 159.626 389.137ZM159.318 382.321C158.717 382.321 158.236 382.517 157.876 382.909C157.521 383.301 157.311 383.843 157.247 384.536H161.164C161.164 383.821 161.005 383.274 160.686 382.896C160.367 382.513 159.911 382.321 159.318 382.321ZM165.963 389L163.119 381.508H164.336L165.949 385.951C166.314 386.99 166.528 387.665 166.592 387.975H166.646C166.697 387.733 166.854 387.234 167.118 386.478C167.387 385.716 167.986 384.06 168.916 381.508H170.133L167.289 389H165.963ZM172.471 389H171.336V381.508H172.471V389ZM171.24 379.478C171.24 379.218 171.304 379.029 171.432 378.91C171.559 378.787 171.719 378.726 171.91 378.726C172.092 378.726 172.25 378.787 172.382 378.91C172.514 379.033 172.58 379.222 172.58 379.478C172.58 379.733 172.514 379.924 172.382 380.052C172.25 380.175 172.092 380.236 171.91 380.236C171.719 380.236 171.559 380.175 171.432 380.052C171.304 379.924 171.24 379.733 171.24 379.478ZM178.042 389.137C176.935 389.137 176.06 388.799 175.417 388.125C174.779 387.451 174.46 386.514 174.46 385.315C174.46 384.108 174.756 383.148 175.349 382.438C175.946 381.727 176.745 381.371 177.748 381.371C178.687 381.371 179.43 381.681 179.977 382.301C180.523 382.916 180.797 383.729 180.797 384.741V385.459H175.636C175.659 386.339 175.88 387.006 176.299 387.462C176.723 387.918 177.317 388.146 178.083 388.146C178.89 388.146 179.687 387.977 180.476 387.64V388.651C180.075 388.825 179.694 388.948 179.334 389.021C178.979 389.098 178.548 389.137 178.042 389.137ZM177.734 382.321C177.133 382.321 176.652 382.517 176.292 382.909C175.937 383.301 175.727 383.843 175.663 384.536H179.58C179.58 383.821 179.421 383.274 179.102 382.896C178.783 382.513 178.327 382.321 177.734 382.321ZM188.856 389L187.482 384.604C187.396 384.336 187.234 383.725 186.997 382.772H186.942C186.76 383.57 186.601 384.185 186.464 384.618L185.049 389H183.736L181.692 381.508H182.882C183.365 383.39 183.732 384.823 183.982 385.808C184.238 386.792 184.383 387.455 184.42 387.797H184.475C184.525 387.537 184.604 387.202 184.714 386.792C184.828 386.377 184.926 386.049 185.008 385.808L186.382 381.508H187.612L188.952 385.808C189.207 386.591 189.381 387.25 189.472 387.783H189.526C189.545 387.619 189.592 387.366 189.67 387.024C189.752 386.683 190.228 384.844 191.099 381.508H192.274L190.203 389H188.856Z" fill="white"/>
<path d="M65.5771 461H64.415V451.006H69.9863V452.038H65.5771V455.695H69.7197V456.728H65.5771V461ZM72.6113 461H71.4766V453.508H72.6113V461ZM71.3809 451.478C71.3809 451.218 71.4447 451.029 71.5723 450.91C71.6999 450.787 71.8594 450.726 72.0508 450.726C72.2331 450.726 72.3903 450.787 72.5225 450.91C72.6546 451.033 72.7207 451.222 72.7207 451.478C72.7207 451.733 72.6546 451.924 72.5225 452.052C72.3903 452.175 72.2331 452.236 72.0508 452.236C71.8594 452.236 71.6999 452.175 71.5723 452.052C71.4447 451.924 71.3809 451.733 71.3809 451.478ZM80.1445 461V456.153C80.1445 455.543 80.0055 455.087 79.7275 454.786C79.4495 454.485 79.0143 454.335 78.4219 454.335C77.638 454.335 77.0638 454.547 76.6992 454.971C76.3346 455.395 76.1523 456.094 76.1523 457.069V461H75.0176V453.508H75.9404L76.125 454.533H76.1797C76.4121 454.164 76.738 453.879 77.1572 453.679C77.5765 453.474 78.0436 453.371 78.5586 453.371C79.4609 453.371 80.14 453.59 80.5957 454.027C81.0514 454.46 81.2793 455.155 81.2793 456.112V461H80.1445ZM88.2246 461L87.999 459.934H87.9443C87.5706 460.403 87.1969 460.722 86.8232 460.891C86.4541 461.055 85.9915 461.137 85.4355 461.137C84.6927 461.137 84.1094 460.945 83.6855 460.562C83.2663 460.18 83.0566 459.635 83.0566 458.929C83.0566 457.416 84.2666 456.623 86.6865 456.55L87.958 456.509V456.044C87.958 455.456 87.8304 455.023 87.5752 454.745C87.3245 454.463 86.9212 454.321 86.3652 454.321C85.7409 454.321 85.0345 454.513 84.2461 454.896L83.8975 454.027C84.2666 453.827 84.6699 453.67 85.1074 453.556C85.5495 453.442 85.9915 453.385 86.4336 453.385C87.3268 453.385 87.9876 453.583 88.416 453.979C88.849 454.376 89.0654 455.012 89.0654 455.887V461H88.2246ZM85.6611 460.2C86.3675 460.2 86.9212 460.007 87.3223 459.619C87.7279 459.232 87.9307 458.689 87.9307 457.992V457.315L86.7959 457.363C85.8936 457.395 85.2419 457.536 84.8408 457.787C84.4443 458.033 84.2461 458.418 84.2461 458.942C84.2461 459.353 84.3691 459.665 84.6152 459.879C84.8659 460.093 85.2145 460.2 85.6611 460.2ZM92.5449 461H91.4102V450.363H92.5449V461ZM106.306 451.006V457.473C106.306 458.612 105.962 459.507 105.273 460.159C104.585 460.811 103.64 461.137 102.437 461.137C101.233 461.137 100.301 460.809 99.6406 460.152C98.9844 459.496 98.6562 458.594 98.6562 457.445V451.006H99.8184V457.527C99.8184 458.361 100.046 459.002 100.502 459.448C100.958 459.895 101.628 460.118 102.512 460.118C103.355 460.118 104.004 459.895 104.46 459.448C104.916 458.997 105.144 458.352 105.144 457.514V451.006H106.306ZM108.958 461V451.006H110.12V461H108.958ZM117.667 456.844V461H116.505V451.006H119.246C120.472 451.006 121.377 451.241 121.96 451.71C122.548 452.179 122.842 452.886 122.842 453.829C122.842 455.151 122.172 456.044 120.832 456.509L123.546 461H122.172L119.752 456.844H117.667ZM117.667 455.846H119.26C120.08 455.846 120.682 455.684 121.064 455.36C121.447 455.032 121.639 454.542 121.639 453.891C121.639 453.23 121.443 452.754 121.051 452.462C120.663 452.17 120.039 452.024 119.178 452.024H117.667V455.846ZM128.153 461.137C127.046 461.137 126.171 460.799 125.528 460.125C124.89 459.451 124.571 458.514 124.571 457.315C124.571 456.108 124.868 455.148 125.46 454.438C126.057 453.727 126.857 453.371 127.859 453.371C128.798 453.371 129.541 453.681 130.088 454.301C130.635 454.916 130.908 455.729 130.908 456.741V457.459H125.747C125.77 458.339 125.991 459.006 126.41 459.462C126.834 459.918 127.429 460.146 128.194 460.146C129.001 460.146 129.799 459.977 130.587 459.64V460.651C130.186 460.825 129.805 460.948 129.445 461.021C129.09 461.098 128.659 461.137 128.153 461.137ZM127.846 454.321C127.244 454.321 126.763 454.517 126.403 454.909C126.048 455.301 125.838 455.843 125.774 456.536H129.691C129.691 455.821 129.532 455.274 129.213 454.896C128.894 454.513 128.438 454.321 127.846 454.321ZM134.49 461L131.646 453.508H132.863L134.477 457.951C134.841 458.99 135.055 459.665 135.119 459.975H135.174C135.224 459.733 135.381 459.234 135.646 458.478C135.914 457.716 136.514 456.06 137.443 453.508H138.66L135.816 461H134.49ZM140.998 461H139.863V453.508H140.998V461ZM139.768 451.478C139.768 451.218 139.831 451.029 139.959 450.91C140.087 450.787 140.246 450.726 140.438 450.726C140.62 450.726 140.777 450.787 140.909 450.91C141.041 451.033 141.107 451.222 141.107 451.478C141.107 451.733 141.041 451.924 140.909 452.052C140.777 452.175 140.62 452.236 140.438 452.236C140.246 452.236 140.087 452.175 139.959 452.052C139.831 451.924 139.768 451.733 139.768 451.478ZM146.569 461.137C145.462 461.137 144.587 460.799 143.944 460.125C143.306 459.451 142.987 458.514 142.987 457.315C142.987 456.108 143.284 455.148 143.876 454.438C144.473 453.727 145.273 453.371 146.275 453.371C147.214 453.371 147.957 453.681 148.504 454.301C149.051 454.916 149.324 455.729 149.324 456.741V457.459H144.163C144.186 458.339 144.407 459.006 144.826 459.462C145.25 459.918 145.845 460.146 146.61 460.146C147.417 460.146 148.215 459.977 149.003 459.64V460.651C148.602 460.825 148.221 460.948 147.861 461.021C147.506 461.098 147.075 461.137 146.569 461.137ZM146.262 454.321C145.66 454.321 145.179 454.517 144.819 454.909C144.464 455.301 144.254 455.843 144.19 456.536H148.107C148.107 455.821 147.948 455.274 147.629 454.896C147.31 454.513 146.854 454.321 146.262 454.321ZM157.384 461L156.01 456.604C155.923 456.336 155.761 455.725 155.524 454.772H155.47C155.287 455.57 155.128 456.185 154.991 456.618L153.576 461H152.264L150.22 453.508H151.409C151.892 455.39 152.259 456.823 152.51 457.808C152.765 458.792 152.911 459.455 152.947 459.797H153.002C153.052 459.537 153.132 459.202 153.241 458.792C153.355 458.377 153.453 458.049 153.535 457.808L154.909 453.508H156.14L157.479 457.808C157.735 458.591 157.908 459.25 157.999 459.783H158.054C158.072 459.619 158.12 459.366 158.197 459.024C158.279 458.683 158.756 456.844 159.626 453.508H160.802L158.73 461H157.384Z" fill="white"/>
<path d="M76.9932 533H71.4219V523.006H76.9932V524.038H72.584V527.258H76.7266V528.283H72.584V531.961H76.9932V533ZM88.5938 533V528.126C88.5938 527.529 88.4661 527.082 88.2109 526.786C87.9557 526.485 87.5592 526.335 87.0215 526.335C86.3151 526.335 85.7933 526.538 85.4561 526.943C85.1188 527.349 84.9502 527.973 84.9502 528.816V533H83.8154V528.126C83.8154 527.529 83.6878 527.082 83.4326 526.786C83.1774 526.485 82.7786 526.335 82.2363 526.335C81.5254 526.335 81.0036 526.549 80.6709 526.978C80.3428 527.401 80.1787 528.099 80.1787 529.069V533H79.0439V525.508H79.9668L80.1514 526.533H80.2061C80.4202 526.169 80.721 525.884 81.1084 525.679C81.5003 525.474 81.9378 525.371 82.4209 525.371C83.5921 525.371 84.3577 525.795 84.7178 526.643H84.7725C84.9958 526.251 85.3193 525.941 85.7432 525.713C86.167 525.485 86.6501 525.371 87.1924 525.371C88.04 525.371 88.6735 525.59 89.0928 526.027C89.5166 526.46 89.7285 527.155 89.7285 528.112V533H88.5938ZM96.6807 533L96.4551 531.934H96.4004C96.0267 532.403 95.653 532.722 95.2793 532.891C94.9102 533.055 94.4476 533.137 93.8916 533.137C93.1488 533.137 92.5654 532.945 92.1416 532.562C91.7223 532.18 91.5127 531.635 91.5127 530.929C91.5127 529.416 92.7227 528.623 95.1426 528.55L96.4141 528.509V528.044C96.4141 527.456 96.2865 527.023 96.0312 526.745C95.7806 526.463 95.3773 526.321 94.8213 526.321C94.1969 526.321 93.4906 526.513 92.7021 526.896L92.3535 526.027C92.7227 525.827 93.126 525.67 93.5635 525.556C94.0055 525.442 94.4476 525.385 94.8896 525.385C95.7829 525.385 96.4437 525.583 96.8721 525.979C97.305 526.376 97.5215 527.012 97.5215 527.887V533H96.6807ZM94.1172 532.2C94.8236 532.2 95.3773 532.007 95.7783 531.619C96.1839 531.232 96.3867 530.689 96.3867 529.992V529.315L95.252 529.363C94.3496 529.395 93.6979 529.536 93.2969 529.787C92.9004 530.033 92.7021 530.418 92.7021 530.942C92.7021 531.353 92.8252 531.665 93.0713 531.879C93.3219 532.093 93.6706 532.2 94.1172 532.2ZM101.001 533H99.8662V525.508H101.001V533ZM99.7705 523.478C99.7705 523.218 99.8343 523.029 99.9619 522.91C100.09 522.787 100.249 522.726 100.44 522.726C100.623 522.726 100.78 522.787 100.912 522.91C101.044 523.033 101.11 523.222 101.11 523.478C101.11 523.733 101.044 523.924 100.912 524.052C100.78 524.175 100.623 524.236 100.44 524.236C100.249 524.236 100.09 524.175 99.9619 524.052C99.8343 523.924 99.7705 523.733 99.7705 523.478ZM104.542 533H103.407V522.363H104.542V533ZM118.733 527.907C118.733 529.557 118.285 530.819 117.387 531.694C116.493 532.565 115.206 533 113.524 533H110.756V523.006H113.818C115.372 523.006 116.58 523.437 117.441 524.298C118.303 525.159 118.733 526.362 118.733 527.907ZM117.503 527.948C117.503 526.645 117.175 525.663 116.519 525.002C115.867 524.341 114.896 524.011 113.606 524.011H111.918V531.995H113.333C114.718 531.995 115.76 531.656 116.457 530.977C117.154 530.293 117.503 529.284 117.503 527.948ZM123.963 533.137C122.855 533.137 121.98 532.799 121.338 532.125C120.7 531.451 120.381 530.514 120.381 529.315C120.381 528.108 120.677 527.148 121.27 526.438C121.867 525.727 122.666 525.371 123.669 525.371C124.608 525.371 125.351 525.681 125.897 526.301C126.444 526.916 126.718 527.729 126.718 528.741V529.459H121.557C121.579 530.339 121.8 531.006 122.22 531.462C122.644 531.918 123.238 532.146 124.004 532.146C124.811 532.146 125.608 531.977 126.396 531.64V532.651C125.995 532.825 125.615 532.948 125.255 533.021C124.899 533.098 124.469 533.137 123.963 533.137ZM123.655 526.321C123.054 526.321 122.573 526.517 122.213 526.909C121.857 527.301 121.648 527.843 121.584 528.536H125.501C125.501 527.821 125.341 527.274 125.022 526.896C124.703 526.513 124.248 526.321 123.655 526.321ZM133.492 530.956C133.492 531.653 133.232 532.191 132.713 532.569C132.193 532.948 131.464 533.137 130.525 533.137C129.532 533.137 128.757 532.979 128.201 532.665V531.612C128.561 531.795 128.946 531.938 129.356 532.043C129.771 532.148 130.17 532.2 130.553 532.2C131.145 532.2 131.601 532.107 131.92 531.92C132.239 531.729 132.398 531.439 132.398 531.052C132.398 530.76 132.271 530.512 132.016 530.307C131.765 530.097 131.273 529.851 130.539 529.568C129.842 529.309 129.345 529.083 129.049 528.892C128.757 528.696 128.538 528.475 128.393 528.229C128.251 527.982 128.181 527.688 128.181 527.347C128.181 526.736 128.429 526.255 128.926 525.904C129.423 525.549 130.104 525.371 130.97 525.371C131.776 525.371 132.565 525.535 133.335 525.863L132.932 526.786C132.18 526.476 131.498 526.321 130.888 526.321C130.35 526.321 129.944 526.406 129.671 526.574C129.397 526.743 129.261 526.975 129.261 527.271C129.261 527.472 129.311 527.643 129.411 527.784C129.516 527.925 129.682 528.06 129.91 528.188C130.138 528.315 130.576 528.5 131.223 528.741C132.111 529.065 132.711 529.391 133.021 529.719C133.335 530.047 133.492 530.459 133.492 530.956ZM136.479 533H135.345V525.508H136.479V533ZM135.249 523.478C135.249 523.218 135.313 523.029 135.44 522.91C135.568 522.787 135.728 522.726 135.919 522.726C136.101 522.726 136.258 522.787 136.391 522.91C136.523 523.033 136.589 523.222 136.589 523.478C136.589 523.733 136.523 523.924 136.391 524.052C136.258 524.175 136.101 524.236 135.919 524.236C135.728 524.236 135.568 524.175 135.44 524.052C135.313 523.924 135.249 523.733 135.249 523.478ZM145.018 525.508V526.226L143.63 526.39C143.757 526.549 143.871 526.759 143.972 527.019C144.072 527.274 144.122 527.563 144.122 527.887C144.122 528.62 143.871 529.206 143.37 529.644C142.869 530.081 142.181 530.3 141.306 530.3C141.082 530.3 140.873 530.282 140.677 530.245C140.194 530.5 139.952 530.822 139.952 531.209C139.952 531.414 140.036 531.567 140.205 531.667C140.374 531.763 140.663 531.811 141.073 531.811H142.399C143.211 531.811 143.833 531.981 144.266 532.323C144.703 532.665 144.922 533.162 144.922 533.813C144.922 534.643 144.589 535.274 143.924 535.707C143.258 536.145 142.288 536.363 141.012 536.363C140.032 536.363 139.275 536.181 138.742 535.816C138.214 535.452 137.949 534.937 137.949 534.271C137.949 533.816 138.095 533.422 138.387 533.089C138.678 532.756 139.089 532.531 139.617 532.412C139.426 532.326 139.264 532.191 139.132 532.009C139.004 531.826 138.94 531.615 138.94 531.373C138.94 531.1 139.013 530.86 139.159 530.655C139.305 530.45 139.535 530.252 139.85 530.061C139.462 529.901 139.146 529.63 138.899 529.247C138.658 528.864 138.537 528.427 138.537 527.935C138.537 527.114 138.783 526.483 139.275 526.041C139.768 525.594 140.465 525.371 141.367 525.371C141.759 525.371 142.112 525.417 142.427 525.508H145.018ZM139.043 534.258C139.043 534.663 139.214 534.971 139.556 535.181C139.897 535.39 140.387 535.495 141.025 535.495C141.978 535.495 142.682 535.352 143.138 535.064C143.598 534.782 143.828 534.397 143.828 533.909C143.828 533.504 143.703 533.221 143.452 533.062C143.201 532.907 142.73 532.829 142.037 532.829H140.677C140.162 532.829 139.761 532.952 139.474 533.198C139.187 533.444 139.043 533.798 139.043 534.258ZM139.658 527.907C139.658 528.431 139.806 528.828 140.103 529.097C140.399 529.366 140.811 529.5 141.34 529.5C142.447 529.5 143.001 528.962 143.001 527.887C143.001 526.761 142.44 526.198 141.319 526.198C140.786 526.198 140.376 526.342 140.089 526.629C139.802 526.916 139.658 527.342 139.658 527.907ZM151.683 533V528.153C151.683 527.543 151.544 527.087 151.266 526.786C150.988 526.485 150.552 526.335 149.96 526.335C149.176 526.335 148.602 526.547 148.237 526.971C147.873 527.395 147.69 528.094 147.69 529.069V533H146.556V525.508H147.479L147.663 526.533H147.718C147.95 526.164 148.276 525.879 148.695 525.679C149.115 525.474 149.582 525.371 150.097 525.371C150.999 525.371 151.678 525.59 152.134 526.027C152.59 526.46 152.817 527.155 152.817 528.112V533H151.683Z" fill="white"/>
<path d="M91.2803 605H90.1182V600.297H84.8545V605H83.6924V595.006H84.8545V599.258H90.1182V595.006H91.2803V605ZM98.4648 605L98.2393 603.934H98.1846C97.8109 604.403 97.4372 604.722 97.0635 604.891C96.6943 605.055 96.2318 605.137 95.6758 605.137C94.9329 605.137 94.3496 604.945 93.9258 604.562C93.5065 604.18 93.2969 603.635 93.2969 602.929C93.2969 601.416 94.5068 600.623 96.9268 600.55L98.1982 600.509V600.044C98.1982 599.456 98.0706 599.023 97.8154 598.745C97.5648 598.463 97.1615 598.321 96.6055 598.321C95.9811 598.321 95.2747 598.513 94.4863 598.896L94.1377 598.027C94.5068 597.827 94.9102 597.67 95.3477 597.556C95.7897 597.442 96.2318 597.385 96.6738 597.385C97.5671 597.385 98.2279 597.583 98.6562 597.979C99.0892 598.376 99.3057 599.012 99.3057 599.887V605H98.4648ZM95.9014 604.2C96.6077 604.2 97.1615 604.007 97.5625 603.619C97.9681 603.232 98.1709 602.689 98.1709 601.992V601.315L97.0361 601.363C96.1338 601.395 95.4821 601.536 95.0811 601.787C94.6846 602.033 94.4863 602.418 94.4863 602.942C94.4863 603.353 94.6094 603.665 94.8555 603.879C95.1061 604.093 95.4548 604.2 95.9014 604.2ZM106.777 605V600.153C106.777 599.543 106.638 599.087 106.36 598.786C106.082 598.485 105.647 598.335 105.055 598.335C104.271 598.335 103.697 598.547 103.332 598.971C102.967 599.395 102.785 600.094 102.785 601.069V605H101.65V597.508H102.573L102.758 598.533H102.812C103.045 598.164 103.371 597.879 103.79 597.679C104.209 597.474 104.676 597.371 105.191 597.371C106.094 597.371 106.773 597.59 107.229 598.027C107.684 598.46 107.912 599.155 107.912 600.112V605H106.777ZM115.35 603.995H115.288C114.764 604.756 113.98 605.137 112.937 605.137C111.957 605.137 111.193 604.802 110.646 604.132C110.104 603.462 109.833 602.509 109.833 601.274C109.833 600.039 110.106 599.08 110.653 598.396C111.2 597.713 111.961 597.371 112.937 597.371C113.953 597.371 114.732 597.74 115.274 598.479H115.363L115.315 597.938L115.288 597.412V594.363H116.423V605H115.5L115.35 603.995ZM113.08 604.187C113.855 604.187 114.415 603.977 114.762 603.558C115.113 603.134 115.288 602.452 115.288 601.514V601.274C115.288 600.213 115.11 599.456 114.755 599.005C114.404 598.549 113.841 598.321 113.066 598.321C112.401 598.321 111.891 598.581 111.535 599.101C111.184 599.616 111.009 600.345 111.009 601.288C111.009 602.245 111.184 602.967 111.535 603.455C111.886 603.943 112.401 604.187 113.08 604.187ZM131.318 599.989C131.318 601.589 130.913 602.847 130.102 603.763C129.295 604.679 128.172 605.137 126.731 605.137C125.259 605.137 124.122 604.688 123.32 603.79C122.523 602.888 122.124 601.616 122.124 599.976C122.124 598.349 122.525 597.089 123.327 596.195C124.129 595.298 125.269 594.849 126.745 594.849C128.181 594.849 129.302 595.304 130.108 596.216C130.915 597.127 131.318 598.385 131.318 599.989ZM123.354 599.989C123.354 601.343 123.642 602.37 124.216 603.072C124.795 603.77 125.633 604.118 126.731 604.118C127.839 604.118 128.675 603.77 129.24 603.072C129.805 602.375 130.088 601.347 130.088 599.989C130.088 598.645 129.805 597.626 129.24 596.934C128.68 596.236 127.848 595.888 126.745 595.888C125.638 595.888 124.795 596.239 124.216 596.94C123.642 597.638 123.354 598.654 123.354 599.989ZM141.504 598.39H139.597V605H138.462V598.39H137.122V597.877L138.462 597.467V597.05C138.462 595.209 139.266 594.288 140.875 594.288C141.271 594.288 141.736 594.368 142.27 594.527L141.976 595.437C141.538 595.295 141.164 595.225 140.854 595.225C140.426 595.225 140.109 595.368 139.904 595.655C139.699 595.938 139.597 596.394 139.597 597.022V597.508H141.504V598.39ZM136.76 598.39H134.853V605H133.718V598.39H132.378V597.877L133.718 597.467V597.05C133.718 595.209 134.522 594.288 136.131 594.288C136.527 594.288 136.992 594.368 137.525 594.527L137.231 595.437C136.794 595.295 136.42 595.225 136.11 595.225C135.682 595.225 135.365 595.368 135.16 595.655C134.955 595.938 134.853 596.394 134.853 597.022V597.508H136.76V598.39Z" fill="white"/>
<path d="M110.939 73.0607C111.525 73.6464 112.475 73.6464 113.061 73.0607L122.607 63.5147C123.192 62.9289 123.192 61.9792 122.607 61.3934C122.021 60.8076 121.071 60.8076 120.485 61.3934L112 69.8787L103.515 61.3934C102.929 60.8076 101.979 60.8076 101.393 61.3934C100.808 61.9792 100.808 62.9289 101.393 63.5147L110.939 73.0607ZM110.5 48L110.5 72L113.5 72L113.5 48L110.5 48Z" fill="#38373A"/>
<path d="M110.939 145.061C111.525 145.646 112.475 145.646 113.061 145.061L122.607 135.515C123.192 134.929 123.192 133.979 122.607 133.393C122.021 132.808 121.071 132.808 120.485 133.393L112 141.879L103.515 133.393C102.929 132.808 101.979 132.808 101.393 133.393C100.808 133.979 100.808 134.929 101.393 135.515L110.939 145.061ZM110.5 120L110.5 144L113.5 144L113.5 120L110.5 120Z" fill="#38373A"/>
<path d="M111.293 216.707C111.683 217.098 112.317 217.098 112.707 216.707L119.071 210.343C119.462 209.953 119.462 209.319 119.071 208.929C118.681 208.538 118.047 208.538 117.657 208.929L112 214.586L106.343 208.929C105.953 208.538 105.319 208.538 104.929 208.929C104.538 209.319 104.538 209.953 104.929 210.343L111.293 216.707ZM111 192L111 216L113 216L113 192L111 192Z" fill="#38373A"/>
<path d="M111.293 288.707C111.683 289.098 112.317 289.098 112.707 288.707L119.071 282.343C119.462 281.953 119.462 281.319 119.071 280.929C118.681 280.538 118.047 280.538 117.657 280.929L112 286.586L106.343 280.929C105.953 280.538 105.319 280.538 104.929 280.929C104.538 281.319 104.538 281.953 104.929 282.343L111.293 288.707ZM111 264L111 288L113 288L113 264L111 264Z" fill="#38373A"/>
<path d="M111.293 360.707C111.683 361.098 112.317 361.098 112.707 360.707L119.071 354.343C119.462 353.953 119.462 353.319 119.071 352.929C118.681 352.538 118.047 352.538 117.657 352.929L112 358.586L106.343 352.929C105.953 352.538 105.319 352.538 104.929 352.929C104.538 353.319 104.538 353.953 104.929 354.343L111.293 360.707ZM111 336L111 360L113 360L113 336L111 336Z" fill="#38373A"/>
<path d="M111.293 432.707C111.683 433.098 112.317 433.098 112.707 432.707L119.071 426.343C119.462 425.953 119.462 425.319 119.071 424.929C118.681 424.538 118.047 424.538 117.657 424.929L112 430.586L106.343 424.929C105.953 424.538 105.319 424.538 104.929 424.929C104.538 425.319 104.538 425.953 104.929 426.343L111.293 432.707ZM111 408L111 432L113 432L113 408L111 408Z" fill="#38373A"/>
<path d="M111.293 504.707C111.683 505.098 112.317 505.098 112.707 504.707L119.071 498.343C119.462 497.953 119.462 497.319 119.071 496.929C118.681 496.538 118.047 496.538 117.657 496.929L112 502.586L106.343 496.929C105.953 496.538 105.319 496.538 104.929 496.929C104.538 497.319 104.538 497.953 104.929 498.343L111.293 504.707ZM111 480L111 504L113 504L113 480L111 480Z" fill="#38373A"/>
<path d="M111.293 576.707C111.683 577.098 112.317 577.098 112.707 576.707L119.071 570.343C119.462 569.953 119.462 569.319 119.071 568.929C118.681 568.538 118.047 568.538 117.657 568.929L112 574.586L106.343 568.929C105.953 568.538 105.319 568.538 104.929 568.929C104.538 569.319 104.538 569.953 104.929 570.343L111.293 576.707ZM111 552L111 576L113 576L113 552L111 552Z" fill="#38373A"/>
</svg>
